<svg width="60" height="60" viewBox="0 0 60 60" fill="none" xmlns="http://www.w3.org/2000/svg">
<g clip-path="url(#clip0_226_2796)">
<path d="M30.1172 15.3597L19.1016 8.99983C18.739 8.79042 18.2923 8.79042 17.9297 8.99983L6.91406 15.3597C6.55148 15.569 6.32812 15.956 6.32812 16.3746V29.0942C6.32812 29.5128 6.55148 29.8998 6.91406 30.1091L17.9297 36.4689C18.111 36.5737 18.3132 36.626 18.5156 36.626C18.718 36.626 18.9203 36.5737 19.1016 36.4689L30.1172 30.1091C30.4798 29.8999 30.7031 29.5129 30.7031 29.0943V16.3746C30.7031 15.956 30.4798 15.569 30.1172 15.3597ZM17.3438 33.4245L9.84375 29.0943L12.2201 27.7224C12.7807 27.3989 12.9727 26.6821 12.649 26.1215C12.3255 25.5611 11.6091 25.3691 11.0482 25.6926L8.67188 27.0645V18.4044L16.1719 22.7344L14.7394 23.5614C14.1789 23.8851 13.9868 24.6017 14.3105 25.1622C14.5276 25.5382 14.9214 25.7484 15.3265 25.7484C15.5252 25.7484 15.7268 25.6976 15.9113 25.5911L17.3438 24.7642V33.4245ZM18.5156 17.9092C17.8685 17.9092 17.3438 18.434 17.3438 19.0811V20.7048L9.84375 16.3747L17.3438 12.0445V14.4114C17.3438 15.0585 17.8685 15.5833 18.5156 15.5833C19.1627 15.5833 19.6875 15.0585 19.6875 14.4114V12.0445L27.1875 16.3747L19.6875 20.7048V19.0811C19.6875 18.434 19.1627 17.9092 18.5156 17.9092ZM28.3594 27.0645L26.6066 26.0525C26.046 25.7289 25.3295 25.921 25.0058 26.4814C24.6821 27.0419 24.8742 27.7585 25.4347 28.0822L27.1875 29.0943L19.6875 33.4245V24.7642L21.6593 25.9027C21.8439 26.0092 22.0453 26.06 22.2441 26.06C22.6491 26.06 23.043 25.8498 23.2601 25.4738C23.5837 24.9133 23.3917 24.1967 22.8312 23.873L20.8594 22.7344L28.3594 18.4044V27.0645Z" fill="white"/>
<path d="M59.4141 32.8474L45.5859 24.8637V23.5547C45.5859 23.3285 45.7699 23.1445 45.9961 23.1445H48.457C49.9755 23.1445 51.2109 21.9091 51.2109 20.3906V19.116L53.5362 17.4422C53.8421 17.2219 54.0234 16.8681 54.0234 16.4911V13.7109H55.6641C56.3112 13.7109 56.8359 13.1862 56.8359 12.5391V7.03125H58.8281C59.4752 7.03125 60 6.50648 60 5.85938C60 5.21227 59.4752 4.6875 58.8281 4.6875H56.8359V1.17188C56.8359 0.524766 56.3112 0 55.6641 0H44.4141C43.767 0 43.2422 0.524766 43.2422 1.17188V4.6875H37.0312V1.17188C37.0312 0.524766 36.5065 0 35.8594 0H1.17188C0.524766 0 0 0.524766 0 1.17188V44.2969C0 44.944 0.524766 45.4688 1.17188 45.4688H28.8281V50.5062C28.8281 50.9248 29.0515 51.3117 29.4141 51.521L43.8281 59.843C44.0094 59.9477 44.2117 60 44.4141 60C44.6164 60 44.8187 59.9477 45 59.843L59.4141 51.521C59.7766 51.3117 60 50.9248 60 50.5062V33.8623C60 33.4437 59.7766 33.0567 59.4141 32.8474ZM51.6797 15.8907L50.0391 17.0718L48.3984 15.8907V13.7109H51.6797V15.8907ZM45.5859 2.34375H54.4922V11.3672H52.8516H47.2266H45.5859V2.34375ZM28.9841 33.2266C28.873 33.4199 28.8245 33.6314 28.8296 33.8389C28.8295 33.8468 28.8281 33.8544 28.8281 33.8621V43.125H2.34375V2.34375H34.6875V4.6875H22.7344C22.0873 4.6875 21.5625 5.21227 21.5625 5.85938C21.5625 6.50648 22.0873 7.03125 22.7344 7.03125H34.6875V25.4877C34.6875 26.1348 35.2123 26.6596 35.8594 26.6596C36.5065 26.6596 37.0312 26.1348 37.0312 25.4877V7.03125H43.2422V12.5391C43.2422 13.1862 43.767 13.7109 44.4141 13.7109H46.0547V16.4911C46.0547 16.8681 46.236 17.2219 46.542 17.4422L48.8672 19.116V20.3906C48.8672 20.6168 48.6832 20.8008 48.457 20.8008H45.9961C44.4776 20.8008 43.2422 22.0362 43.2422 23.5547V24.8637L29.7117 32.6755C29.4153 32.7507 29.1485 32.9406 28.9841 33.2266ZM43.2422 56.7984L31.1719 49.8297V35.8362L43.2422 42.7757V56.7984ZM57.6562 49.8297L45.5859 56.7984V42.7757L47.9681 41.4061C48.5292 41.0836 48.7226 40.3672 48.4 39.8061C48.0775 39.2453 47.3613 39.0517 46.8 39.3743L44.4141 40.746L32.3921 33.8344L44.4141 26.8934L56.436 33.8343L54.6818 34.8428C54.1207 35.1653 53.9273 35.8816 54.25 36.4427C54.4668 36.8197 54.8612 37.0308 55.267 37.0308C55.4651 37.0308 55.6658 36.9804 55.85 36.8746L57.6562 35.8362V49.8297Z" fill="white"/>
<path d="M52.016 37.3746C51.798 37.1565 51.4968 37.0312 51.1875 37.0312C50.8793 37.0312 50.577 37.1565 50.359 37.3746C50.1411 37.5926 50.0156 37.8949 50.0156 38.2031C50.0156 38.5113 50.141 38.8137 50.359 39.0315C50.5781 39.2495 50.8793 39.375 51.1875 39.375C51.4969 39.375 51.798 39.2496 52.016 39.0315C52.2352 38.8137 52.3594 38.5113 52.3594 38.2031C52.3594 37.8949 52.2352 37.5926 52.016 37.3746Z" fill="white"/>
<path d="M19.3324 5.03086C19.1145 4.81289 18.8122 4.6875 18.5039 4.6875C18.1957 4.6875 17.8934 4.81277 17.6755 5.03086C17.4575 5.24883 17.332 5.55117 17.332 5.85938C17.332 6.16758 17.4574 6.46992 17.6755 6.68777C17.8934 6.90586 18.1958 7.03125 18.5039 7.03125C18.8122 7.03125 19.1145 6.90586 19.3324 6.68777C19.5516 6.46992 19.6758 6.16758 19.6758 5.85938C19.6758 5.55117 19.5516 5.24883 19.3324 5.03086Z" fill="white"/>
</g>
<defs>
<clipPath id="clip0_226_2796">
<rect width="60" height="60" fill="white"/>
</clipPath>
</defs>
</svg>
