<svg width="122" height="120" viewBox="0 0 122 120" fill="none" xmlns="http://www.w3.org/2000/svg">
<path d="M113.623 87.1897H8.52042C7.96754 87.1897 7.49759 86.8586 7.27644 86.3895C7.05529 85.8927 7.13822 85.3133 7.49759 84.9269L24.4433 65.9693C24.6921 65.6657 25.0791 65.5002 25.4661 65.5002H96.6769C97.0639 65.5002 97.4509 65.6657 97.6997 65.9693L114.645 84.9269C115.005 85.3409 115.088 85.9203 114.867 86.3895C114.645 86.8862 114.148 87.1897 113.623 87.1897ZM11.5889 84.4578H110.554L96.0687 68.232H26.0743L11.5889 84.4578Z" fill="white"/>
<path d="M27.65 72.6472H27.3459C26.5995 72.6472 25.9637 72.0401 25.9637 71.2675C25.9637 70.4948 26.5719 69.8877 27.3459 69.8877H27.65C28.3964 69.8877 29.0322 70.4948 29.0322 71.2675C29.0322 72.0401 28.424 72.6472 27.65 72.6472Z" fill="white"/>
<path d="M23.1993 77.7247H22.8953C22.1489 77.7247 21.5131 77.1176 21.5131 76.3449C21.5131 75.5723 22.1212 74.9652 22.8953 74.9652H23.1993C23.9457 74.9652 24.5815 75.5723 24.5815 76.3449C24.5815 77.1176 23.9734 77.7247 23.1993 77.7247Z" fill="white"/>
<path d="M18.7487 82.8021H18.4446C17.6982 82.8021 17.0624 82.195 17.0624 81.4224C17.0624 80.6497 17.6706 80.0426 18.4446 80.0426H18.7487C19.4951 80.0426 20.1309 80.6497 20.1309 81.4224C20.1309 82.195 19.5227 82.8021 18.7487 82.8021Z" fill="white"/>
<path d="M38.7905 72.6472H38.4864C37.74 72.6472 37.1042 72.0401 37.1042 71.2675C37.1042 70.4948 37.7124 69.8877 38.4864 69.8877H38.7905C39.5369 69.8877 40.1727 70.4948 40.1727 71.2675C40.1727 72.0401 39.5645 72.6472 38.7905 72.6472Z" fill="white"/>
<path d="M35.805 77.7247H35.5009C34.7545 77.7247 34.1187 77.1176 34.1187 76.3449C34.1187 75.5723 34.7269 74.9652 35.5009 74.9652H35.805C36.5514 74.9652 37.1872 75.5723 37.1872 76.3449C37.1872 77.1176 36.579 77.7247 35.805 77.7247Z" fill="white"/>
<path d="M32.8471 82.8021H32.543C31.7966 82.8021 31.1608 82.195 31.1608 81.4224C31.1608 80.6497 31.769 80.0426 32.543 80.0426H32.8471C33.5935 80.0426 34.2293 80.6497 34.2293 81.4224C34.2293 82.195 33.6211 82.8021 32.8471 82.8021Z" fill="white"/>
<path d="M49.9034 72.6472H49.5993C48.8529 72.6472 48.2171 72.0401 48.2171 71.2675C48.2171 70.4948 48.8253 69.8877 49.5993 69.8877H49.9034C50.6498 69.8877 51.2856 70.4948 51.2856 71.2675C51.2856 72.0401 50.6774 72.6472 49.9034 72.6472Z" fill="white"/>
<path d="M48.4382 77.7247H48.1342C47.3878 77.7247 46.752 77.1176 46.752 76.3449C46.752 75.5723 47.3601 74.9652 48.1342 74.9652H48.4382C49.1846 74.9652 49.8204 75.5723 49.8204 76.3449C49.8204 77.1176 49.2123 77.7247 48.4382 77.7247Z" fill="white"/>
<path d="M46.9455 82.8021H46.6414C45.895 82.8021 45.2592 82.195 45.2592 81.4224C45.2592 80.6497 45.8674 80.0426 46.6414 80.0426H46.9455C47.6919 80.0426 48.3277 80.6497 48.3277 81.4224C48.3277 82.195 47.7195 82.8021 46.9455 82.8021Z" fill="white"/>
<path d="M61.0439 72.6472H60.7398C59.9934 72.6472 59.3576 72.0401 59.3576 71.2675C59.3576 70.4948 59.9658 69.8877 60.7398 69.8877H61.0439C61.7903 69.8877 62.4261 70.4948 62.4261 71.2675C62.4261 72.0401 61.8179 72.6472 61.0439 72.6472Z" fill="white"/>
<path d="M61.0439 77.7247H60.7398C59.9934 77.7247 59.3576 77.1176 59.3576 76.3449C59.3576 75.5723 59.9658 74.9652 60.7398 74.9652H61.0439C61.7903 74.9652 62.4261 75.5723 62.4261 76.3449C62.4261 77.1176 61.8179 77.7247 61.0439 77.7247Z" fill="white"/>
<path d="M61.0439 82.8021H60.7398C59.9934 82.8021 59.3576 82.195 59.3576 81.4224C59.3576 80.6497 59.9658 80.0426 60.7398 80.0426H61.0439C61.7903 80.0426 62.4261 80.6497 62.4261 81.4224C62.4261 82.195 61.8179 82.8021 61.0439 82.8021Z" fill="white"/>
<path d="M94.4377 72.6472H94.1337C93.3873 72.6472 92.7515 72.0401 92.7515 71.2675C92.7515 70.4948 93.3596 69.8877 94.1337 69.8877H94.4377C95.1841 69.8877 95.8199 70.4948 95.8199 71.2675C95.8199 72.0401 95.2118 72.6472 94.4377 72.6472Z" fill="white"/>
<path d="M98.8608 77.7247H98.5567C97.8103 77.7247 97.1745 77.1176 97.1745 76.3449C97.1745 75.5723 97.7826 74.9652 98.5567 74.9652H98.8608C99.6071 74.9652 100.243 75.5723 100.243 76.3449C100.243 77.1176 99.6348 77.7247 98.8608 77.7247Z" fill="white"/>
<path d="M103.311 82.8021H103.007C102.261 82.8021 101.625 82.195 101.625 81.4224C101.625 80.6497 102.233 80.0426 103.007 80.0426H103.311C104.058 80.0426 104.694 80.6497 104.694 81.4224C104.694 82.195 104.085 82.8021 103.311 82.8021Z" fill="white"/>
<path d="M83.2972 72.6472H82.9932C82.2468 72.6472 81.611 72.0401 81.611 71.2675C81.611 70.4948 82.2191 69.8877 82.9932 69.8877H83.2972C84.0436 69.8877 84.6794 70.4948 84.6794 71.2675C84.6794 72.0401 84.0713 72.6472 83.2972 72.6472Z" fill="white"/>
<path d="M86.2551 77.7247H85.9511C85.2047 77.7247 84.5689 77.1176 84.5689 76.3449C84.5689 75.5723 85.177 74.9652 85.9511 74.9652H86.2551C87.0015 74.9652 87.6373 75.5723 87.6373 76.3449C87.6373 77.1176 87.0292 77.7247 86.2551 77.7247Z" fill="white"/>
<path d="M89.213 82.8021H88.9089C88.1626 82.8021 87.5268 82.195 87.5268 81.4224C87.5268 80.6497 88.1349 80.0426 88.9089 80.0426H89.213C89.9594 80.0426 90.5952 80.6497 90.5952 81.4224C90.5952 82.195 89.9871 82.8021 89.213 82.8021Z" fill="white"/>
<path d="M72.1567 72.6472H71.8526C71.1063 72.6472 70.4705 72.0401 70.4705 71.2675C70.4705 70.4948 71.0786 69.8877 71.8526 69.8877H72.1567C72.9031 69.8877 73.5389 70.4948 73.5389 71.2675C73.5389 72.0401 72.9308 72.6472 72.1567 72.6472Z" fill="white"/>
<path d="M73.6219 77.7247H73.3178C72.5714 77.7247 71.9356 77.1176 71.9356 76.3449C71.9356 75.5723 72.5437 74.9652 73.3178 74.9652H73.6219C74.3682 74.9652 75.0041 75.5723 75.0041 76.3449C75.0041 77.1176 74.3959 77.7247 73.6219 77.7247Z" fill="white"/>
<path d="M75.1146 82.8021H74.8105C74.0642 82.8021 73.4284 82.195 73.4284 81.4224C73.4284 80.6497 74.0365 80.0426 74.8105 80.0426H75.1146C75.861 80.0426 76.4968 80.6497 76.4968 81.4224C76.4968 82.195 75.8887 82.8021 75.1146 82.8021Z" fill="white"/>
<path d="M8.3822 93.095C7.63581 93.095 7 92.4879 7 91.7153C7 90.9426 7.60817 90.3355 8.3822 90.3355H114.618C115.364 90.3355 116 90.9426 116 91.7153C116 92.4879 115.392 93.095 114.618 93.095H8.3822Z" fill="white"/>
<path d="M8.3822 120C7.63581 120 7 119.393 7 118.62C7 117.848 7.60817 117.241 8.3822 117.241H114.618C115.364 117.241 116 117.848 116 118.62C116 119.393 115.392 120 114.618 120H8.3822Z" fill="white"/>
<path d="M16.2054 103.967C13.8557 103.967 11.9206 102.063 11.9206 99.6902C11.9206 97.317 13.828 95.413 16.2054 95.413C18.5828 95.413 20.4902 97.317 20.4902 99.6902C20.4902 102.063 18.5828 103.967 16.2054 103.967ZM16.2054 98.1725C15.3485 98.1725 14.685 98.8623 14.685 99.6902C14.685 100.518 15.3761 101.208 16.2054 101.208C17.0347 101.208 17.7258 100.518 17.7258 99.6902C17.7258 98.8623 17.0347 98.1725 16.2054 98.1725Z" fill="white"/>
<path d="M34.3398 103.967C31.9901 103.967 30.055 102.063 30.055 99.6902C30.055 97.317 31.9625 95.413 34.3398 95.413C36.7172 95.413 38.6247 97.317 38.6247 99.6902C38.6247 102.063 36.7172 103.967 34.3398 103.967ZM34.3398 98.1725C33.4829 98.1725 32.8194 98.8623 32.8194 99.6902C32.8194 100.518 33.5105 101.208 34.3398 101.208C35.1692 101.208 35.8603 100.518 35.8603 99.6902C35.8603 98.8623 35.1692 98.1725 34.3398 98.1725Z" fill="white"/>
<path d="M52.5019 103.967C50.1522 103.967 48.2171 102.063 48.2171 99.6902C48.2171 97.317 50.1245 95.413 52.5019 95.413C54.8793 95.413 56.7867 97.317 56.7867 99.6902C56.7867 102.063 54.8793 103.967 52.5019 103.967ZM52.5019 98.1725C51.6449 98.1725 50.9815 98.8623 50.9815 99.6902C50.9815 100.518 51.6726 101.208 52.5019 101.208C53.3312 101.208 54.0223 100.518 54.0223 99.6902C54.0223 98.8623 53.3312 98.1725 52.5019 98.1725Z" fill="white"/>
<path d="M70.6363 103.967C68.2866 103.967 66.3515 102.063 66.3515 99.6902C66.3515 97.317 68.2589 95.413 70.6363 95.413C73.0137 95.413 74.9211 97.317 74.9211 99.6902C74.9211 102.063 73.0137 103.967 70.6363 103.967ZM70.6363 98.1725C69.7794 98.1725 69.1159 98.8623 69.1159 99.6902C69.1159 100.518 69.807 101.208 70.6363 101.208C71.4656 101.208 72.1567 100.518 72.1567 99.6902C72.1567 98.8623 71.4656 98.1725 70.6363 98.1725Z" fill="white"/>
<path d="M88.7707 103.967C86.421 103.967 84.4859 102.063 84.4859 99.6902C84.4859 97.317 86.3934 95.413 88.7707 95.413C91.1481 95.413 93.0555 97.317 93.0555 99.6902C93.0555 102.063 91.1481 103.967 88.7707 103.967ZM88.7707 98.1725C87.9138 98.1725 87.2503 98.8623 87.2503 99.6902C87.2503 100.518 87.9414 101.208 88.7707 101.208C89.6001 101.208 90.2912 100.518 90.2912 99.6902C90.2912 98.8623 89.6001 98.1725 88.7707 98.1725Z" fill="white"/>
<path d="M106.905 103.967C104.555 103.967 102.62 102.063 102.62 99.6902C102.62 97.317 104.528 95.413 106.905 95.413C109.283 95.413 111.19 97.317 111.19 99.6902C111.19 102.063 109.283 103.967 106.905 103.967ZM106.905 98.1725C106.048 98.1725 105.385 98.8623 105.385 99.6902C105.385 100.518 106.076 101.208 106.905 101.208C107.734 101.208 108.426 100.518 108.426 99.6902C108.426 98.8623 107.734 98.1725 106.905 98.1725Z" fill="white"/>
<path d="M16.2054 114.978C13.8557 114.978 11.9206 113.074 11.9206 110.701C11.9206 108.327 13.828 106.423 16.2054 106.423C18.5828 106.423 20.4902 108.327 20.4902 110.701C20.4902 113.074 18.5828 114.978 16.2054 114.978ZM16.2054 109.183C15.3485 109.183 14.685 109.873 14.685 110.701C14.685 111.528 15.3761 112.218 16.2054 112.218C17.0347 112.218 17.7258 111.528 17.7258 110.701C17.7258 109.873 17.0347 109.183 16.2054 109.183Z" fill="white"/>
<path d="M34.2293 114.978C31.8795 114.978 29.9445 113.074 29.9445 110.701C29.9445 108.327 31.8519 106.423 34.2293 106.423C36.6066 106.423 38.5141 108.327 38.5141 110.701C38.5141 113.074 36.6066 114.978 34.2293 114.978ZM34.2293 109.183C33.3723 109.183 32.7089 109.873 32.7089 110.701C32.7089 111.528 33.4 112.218 34.2293 112.218C35.0586 112.218 35.7497 111.528 35.7497 110.701C35.7497 109.873 35.0586 109.183 34.2293 109.183Z" fill="white"/>
<path d="M52.8613 114.978C50.5115 114.978 48.5765 113.074 48.5765 110.701C48.5765 108.327 50.4839 106.423 52.8613 106.423C55.2387 106.423 57.1461 108.327 57.1461 110.701C57.1461 113.074 55.2387 114.978 52.8613 114.978ZM52.8613 109.183C52.0043 109.183 51.3409 109.873 51.3409 110.701C51.3409 111.528 52.032 112.218 52.8613 112.218C53.6906 112.218 54.3817 111.528 54.3817 110.701C54.3817 109.873 53.6906 109.183 52.8613 109.183Z" fill="white"/>
<path d="M70.6363 114.978C68.2866 114.978 66.3515 113.074 66.3515 110.701C66.3515 108.327 68.2589 106.423 70.6363 106.423C73.0137 106.423 74.9211 108.327 74.9211 110.701C74.9211 113.074 73.0137 114.978 70.6363 114.978ZM70.6363 109.183C69.7794 109.183 69.1159 109.873 69.1159 110.701C69.1159 111.528 69.807 112.218 70.6363 112.218C71.4656 112.218 72.1567 111.528 72.1567 110.701C72.1567 109.873 71.4656 109.183 70.6363 109.183Z" fill="white"/>
<path d="M89.0472 114.978C86.6974 114.978 84.7624 113.074 84.7624 110.701C84.7624 108.327 86.6698 106.423 89.0472 106.423C91.4245 106.423 93.332 108.327 93.332 110.701C93.332 113.074 91.4245 114.978 89.0472 114.978ZM89.0472 109.183C88.1902 109.183 87.5267 109.873 87.5267 110.701C87.5267 111.528 88.2178 112.218 89.0472 112.218C89.8765 112.218 90.5676 111.528 90.5676 110.701C90.5676 109.873 89.8765 109.183 89.0472 109.183Z" fill="white"/>
<path d="M106.905 114.978C104.555 114.978 102.62 113.074 102.62 110.701C102.62 108.327 104.528 106.423 106.905 106.423C109.283 106.423 111.19 108.327 111.19 110.701C111.19 113.074 109.283 114.978 106.905 114.978ZM106.905 109.183C106.048 109.183 105.385 109.873 105.385 110.701C105.385 111.528 106.076 112.218 106.905 112.218C107.734 112.218 108.426 111.528 108.426 110.701C108.426 109.873 107.734 109.183 106.905 109.183Z" fill="white"/>
<path d="M104.666 35.6977H96.9257L90.1529 23.9699C89.9041 23.556 89.4618 23.28 88.9642 23.28H75.2529L68.8671 12.2421L74.5894 2.05959C74.9764 1.39732 74.7276 0.541877 74.0642 0.183144C73.4007 -0.203184 72.5438 0.0451701 72.1844 0.707447L66.4621 10.8624H53.6906L48.1342 1.78365C47.7471 1.12137 46.8902 0.928205 46.2267 1.31453C45.5633 1.70086 45.3698 2.5563 45.7568 3.21858L51.2856 12.2697L44.8998 23.28H31.1884C30.4144 23.28 29.8062 23.8871 29.8062 24.6598C29.8062 25.4324 30.4144 26.0395 31.1884 26.0395H44.8998L51.2856 37.0775L44.8998 48.1154H32.1283L25.3279 36.3876C24.9409 35.7253 24.1116 35.5046 23.4481 35.8909C22.7847 36.2772 22.5635 37.1051 22.9505 37.7673L30.138 50.185C30.3868 50.5989 30.8291 50.8749 31.3267 50.8749H44.8998L51.6726 62.6027C51.9214 63.0166 52.3637 63.2926 52.8613 63.2926H67.2361C67.7337 63.2926 68.176 63.0166 68.4248 62.6027L75.1976 50.8749H88.9089C89.4065 50.8749 89.8488 50.5989 90.0976 50.185L96.8704 38.4572H104.611C105.385 38.4572 105.993 37.8501 105.993 37.0775C105.993 36.3048 105.385 35.6977 104.611 35.6977H104.666ZM53.6906 13.6218H66.4621L72.8478 24.6598L66.4621 35.6977H53.6906L47.3048 24.6598L53.6906 13.6218ZM66.4621 60.5331H53.6906L47.3048 49.4951L53.6906 38.4572H66.4621L72.8478 49.4951L66.4621 60.5331ZM88.1626 48.1154H75.3911L69.0053 37.0775L75.3911 26.0395H88.1626L94.5483 37.0775L88.1626 48.1154Z" fill="white"/>
</svg>
