<svg width="20" height="20" viewBox="0 0 20 20" fill="none" xmlns="http://www.w3.org/2000/svg">
<path d="M9.6531 0.000827188C8.06552 0.00892624 6.58969 0.0715589 5.23909 0.168262C2.51586 0.371332 0.355279 2.54449 0.16927 5.26875C-0.0564234 8.42865 -0.0564234 11.6011 0.16927 14.761C0.372287 17.484 2.54527 19.6448 5.26974 19.8308C8.42896 20.0564 11.5999 20.0564 14.7592 19.8308C17.4834 19.6289 19.6455 17.4555 19.8318 14.7303C20.0569 11.5677 20.0559 8.39217 19.829 5.22968C19.6244 2.50979 17.4528 0.353136 14.7313 0.168262C12.9398 0.0401346 11.2406 -0.0070019 9.6531 0.000827188ZM10.7497 4.89763C10.8129 4.89618 10.8739 4.89634 10.9365 4.89763C12.0232 4.92031 13.0697 5.35955 13.8522 6.14206C14.8157 7.10526 15.2613 8.47447 15.0464 9.81954L14.9768 10.2409L14.1398 10.1097L14.204 9.68839C14.3752 8.61162 14.0209 7.5159 13.2497 6.74473C12.4784 5.97362 11.3886 5.61916 10.3117 5.79048L9.89318 5.86024L9.75922 5.02039L10.1832 4.95063C10.3722 4.92094 10.5612 4.90195 10.7497 4.89763ZM6.50028 4.91437C6.57246 4.89532 6.64839 4.8956 6.72042 4.91519C6.79246 4.93478 6.85799 4.97299 6.91057 5.02597L8.76875 6.88425C8.84807 6.96392 8.89266 7.07177 8.89266 7.18419C8.89266 7.29662 8.84807 7.40446 8.76875 7.48414L8.39191 7.86361C8.11276 8.14292 8.06907 8.57429 8.28612 8.90436C9.01984 10.0222 9.97497 10.9778 11.0931 11.7113C11.4235 11.9281 11.8547 11.8844 12.1338 11.6053L12.5106 11.2258C12.5501 11.1861 12.5972 11.1546 12.6489 11.1331C12.7006 11.1116 12.756 11.1006 12.812 11.1006C12.868 11.1006 12.9234 11.1116 12.9751 11.1331C13.0269 11.1546 13.0739 11.1861 13.1134 11.2258L14.9772 13.0841C15.0173 13.1236 15.0492 13.1707 15.0709 13.2227C15.0927 13.2747 15.1039 13.3305 15.1039 13.3868C15.1039 13.4431 15.0927 13.4989 15.0709 13.5509C15.0492 13.6028 15.0173 13.65 14.9772 13.6895L14.3243 14.3341C13.4625 15.1986 12.1109 15.3494 11.0794 14.6968C8.75135 13.22 6.78095 11.2513 5.30368 8.92387C4.64976 7.89248 4.79723 6.5371 5.66059 5.67329L6.31063 5.02596C6.36292 4.97278 6.42841 4.93431 6.50028 4.91437ZM10.7859 6.60244C11.4796 6.5857 12.1591 6.85119 12.6553 7.34742C13.2217 7.91377 13.487 8.71398 13.3752 9.50704L13.3138 9.92835L12.4711 9.80838L12.5299 9.38987C12.6044 8.86057 12.4307 8.32819 12.0527 7.95013C11.6742 7.57152 11.1403 7.39215 10.6101 7.46742L10.1858 7.53162L10.0687 6.6834L10.4898 6.62757C10.5892 6.61353 10.6871 6.6046 10.7859 6.60244Z" fill="white"/>
</svg>
