<svg width="14" height="14" viewBox="0 0 14 14" fill="none" xmlns="http://www.w3.org/2000/svg">
<path d="M6.75907 0.000579027C5.64777 0.00624832 4.6147 0.0500908 3.66929 0.117782C1.76304 0.25993 0.250646 1.78113 0.120441 3.68809C-0.0375429 5.90001 -0.0375429 8.12071 0.120441 10.3326C0.262552 12.2387 1.78363 13.7512 3.69074 13.8815C5.90218 14.0394 8.12185 14.0394 10.3333 13.8815C12.2402 13.7401 13.7537 12.2187 13.8841 10.3111C14.0417 8.09733 14.0409 5.87447 13.8821 3.66075C13.7389 1.75684 12.2188 0.247193 10.3138 0.117782C9.05975 0.028094 7.87032 -0.00490129 6.75907 0.000579027ZM7.52667 3.42831C7.57089 3.4273 7.61362 3.42741 7.65747 3.42831C8.4181 3.44419 9.15064 3.75165 9.69844 4.29941C10.3729 4.97364 10.6848 5.93208 10.5343 6.87362L10.4857 7.16854L9.89972 7.07674L9.9447 6.78182C10.0645 6.02809 9.81651 5.26109 9.27664 4.72127C8.73677 4.1815 7.97388 3.93338 7.22009 4.05331L6.92712 4.10214L6.83335 3.51425L7.13012 3.46542C7.26241 3.44463 7.39476 3.43134 7.52667 3.42831ZM4.55211 3.44003C4.60264 3.42669 4.65579 3.42689 4.70621 3.4406C4.75663 3.45432 4.80251 3.48106 4.83931 3.51815L6.14003 4.81893C6.19555 4.87471 6.22676 4.9502 6.22676 5.02889C6.22676 5.10759 6.19555 5.18308 6.14003 5.23886L5.87624 5.50448C5.68084 5.7 5.65025 6.00195 5.80219 6.233C6.31579 7.01546 6.98438 7.68438 7.76704 8.19784C7.99835 8.34959 8.30014 8.31901 8.49554 8.12361L8.75933 7.85799C8.78699 7.83021 8.8199 7.80817 8.8561 7.79313C8.8923 7.77809 8.93109 7.77035 8.97029 7.77035C9.00949 7.77035 9.04828 7.77809 9.08448 7.79313C9.12068 7.80817 9.15359 7.83021 9.18125 7.85799L10.4859 9.15877C10.514 9.18646 10.5363 9.21945 10.5515 9.25583C10.5667 9.29221 10.5746 9.33125 10.5746 9.37068C10.5746 9.41012 10.5667 9.44916 10.5515 9.48554C10.5363 9.52192 10.514 9.55491 10.4859 9.5826L10.0289 10.0338C9.42565 10.6389 8.47955 10.7445 7.75747 10.2877C6.12785 9.25392 4.74858 7.87582 3.7145 6.24666C3.25676 5.52469 3.35998 4.57594 3.96433 3.97127L4.41935 3.51814C4.45596 3.48092 4.50181 3.45399 4.55211 3.44003ZM7.55204 4.62167C8.03764 4.60995 8.51326 4.79579 8.8606 5.14315C9.25707 5.53959 9.44276 6.09974 9.36453 6.65487L9.32151 6.94979L8.73165 6.86581L8.77282 6.57286C8.82498 6.20235 8.70336 5.82968 8.43879 5.56504C8.17385 5.30002 7.80012 5.17447 7.42897 5.22715L7.13197 5.27209L7.04996 4.67834L7.34477 4.63926C7.41432 4.62943 7.48288 4.62318 7.55204 4.62167Z" fill="#788E72"/>
</svg>
