<svg width="208" height="66" viewBox="0 0 208 66" fill="none" xmlns="http://www.w3.org/2000/svg">
<path d="M99.7142 53.3856C99.7142 53.3856 101.858 55.741 105.36 55.741C107.989 55.741 110.071 54.1084 110.071 51.5723C110.071 45.5653 99.2593 47.2228 99.2593 40.6114C99.2593 37.801 101.764 35.1465 105.603 35.1465C109.049 35.1465 110.98 37.1094 110.98 37.1094L110.258 38.2248C110.258 38.2248 108.444 36.4114 105.634 36.4114C102.493 36.4114 100.624 38.5239 100.624 40.574C100.624 46.1635 111.435 44.4436 111.435 51.5037C111.435 54.5571 109.08 56.9997 105.304 56.9997C101.135 56.9997 98.8418 54.3701 98.8418 54.3701L99.7204 53.3731V53.3856H99.7142Z" fill="#368354"/>
<path d="M1.39137 35.5082H2.68749V49.3355C2.68749 53.3235 5.28595 55.7662 9.26777 55.7662C13.2496 55.7662 15.8792 53.3173 15.8792 49.2732V35.502H17.1753V49.3916C17.1753 54.0464 13.9413 57 9.2927 57C4.64412 57 1.37891 54.0401 1.37891 49.3916V35.502H1.39137V35.5082Z" fill="#5873B0"/>
<path d="M149.514 35.5081L142.541 47.2354V56.6509H143.837V47.466L150.997 35.5081H149.514ZM61.8642 35.5143L54.3555 56.6509H55.8323L63.26 35.5081L61.8642 35.5143Z" fill="#368354"/>
<path d="M117.496 35.5081H116.2V56.6447H117.496V35.5081ZM67.9449 35.5081H66.6426V36.7169H78.7812V35.5081H67.9449Z" fill="#C75227"/>
<path d="M41.8821 35.5081H40.5859V56.6447H41.8821V35.5081ZM128.086 35.5081H121.294V36.7169H128.086V35.5081Z" fill="#DEA968"/>
<path d="M32.5899 56.6385L20.8251 35.5081H19.4355L31.219 56.6385H32.5899ZM67.9465 55.4296V46.7618H76.3712V45.5592H66.6441V56.6385H78.2157V55.4296H67.9465Z" fill="#648088"/>
<path d="M32.6586 35.5081L32.6523 56.6509H33.9609V35.5081H32.6586Z" fill="#368354"/>
<path d="M90.917 47.0922C91.3407 46.9925 91.6586 46.8866 91.7894 46.8305C91.8081 46.8305 91.8206 46.818 91.8393 46.8118C93.8271 45.9706 95.1606 43.8519 95.1606 41.2098C95.1606 38.7983 93.9828 37.0162 92.2318 36.1375C91.3844 35.7138 90.3936 35.502 88.4307 35.502H82.2368V56.6386H83.5329V36.7046H88.3622C90.0509 36.7046 90.7176 36.8542 91.3221 37.1283C92.8612 37.82 93.7959 39.3342 93.7959 41.2036C93.7959 43.989 92.1384 45.9457 89.4963 46.0578V47.2667L94.6122 56.6386H96.1513L90.9108 47.086L90.917 47.0922ZM50.4258 45.5593L46.874 35.5082H45.4844L49.0113 45.5593H50.4258Z" fill="#5873B0"/>
<path d="M71.3425 9.01246H53.4088V12.1281H60.0264V30.5541H63.5471V12.1281H70.1212L71.3425 9.01246ZM3.66402 19.587C3.66402 15.518 5.67674 12.1219 11.3473 12.1219H14.7433L15.9647 9H10.6307C4.4554 9 0 13.1688 0 19.587C0 26.0053 3.99428 30.2737 10.6307 30.5292H17.1798V27.2827L11.3971 27.264C5.35895 27.0148 3.66402 23.6498 3.66402 19.5808M46.4671 9.00623H37.0702V30.5479H40.5784V12.1281H46.0059C48.567 12.1281 50.156 13.6548 50.156 16.247C50.156 18.8393 48.567 20.2351 45.9748 20.2351H43.1208L41.8933 23.3507H46.4608C50.399 23.3507 53.3714 20.3348 53.4274 16.247C53.4835 12.1655 50.8788 9.01246 46.4608 9.01246H46.4671V9.00623ZM22.8815 21.4502H32.6709V18.2037H22.8815V12.1219H32.6833L33.8985 9.00623H19.367V30.5417H33.9732V27.345H22.8815V21.4502Z" fill="#333333"/>
<path d="M136.374 35.5081H128.086V56.6509H129.388V36.7169H135.539L141.134 47.2354H142.518L136.374 35.5081Z" fill="#648088"/>
</svg>
