<svg width="52" height="48" viewBox="0 0 52 48" fill="none" xmlns="http://www.w3.org/2000/svg">
<path d="M0.733701 31.3355H50.8345C51.0964 31.3355 51.3322 31.1783 51.437 30.9426C51.5418 30.7068 51.5025 30.4317 51.3322 30.2353L43.2506 21.1713C43.1327 21.0272 42.9493 20.9486 42.766 20.9486H29.3403C29.7856 20.3985 30.1786 19.8091 30.4798 19.1542L30.5715 18.9708L30.7025 19.128C30.7811 19.2327 30.899 19.3113 31.0299 19.3506C31.2395 19.4161 31.4753 19.3768 31.6587 19.2327L34.501 16.9668C34.645 16.8489 34.7367 16.6917 34.7498 16.5214C34.7629 16.338 34.7236 16.1678 34.6058 16.0237C34.37 15.7355 33.9508 15.6831 33.6627 15.9189L31.6063 17.5562L31.2264 16.2725C31.1347 15.9713 30.8466 15.7748 30.5191 15.7879C30.2047 15.8141 29.9428 16.063 29.9035 16.3773C29.6677 18.3028 28.6984 20.0317 27.1791 21.2237C25.6466 22.4287 23.7473 22.9657 21.8219 22.73C19.8571 22.4942 17.9972 21.9048 16.2944 20.9748L16.0979 20.87L16.2944 20.7521C17.9448 19.7698 19.3201 18.3814 20.2894 16.731C21.0229 15.4736 22.0969 14.4388 23.3937 13.7446C23.6425 13.6136 23.7866 13.3254 23.7473 13.0504C23.708 12.7753 23.4853 12.5395 23.2103 12.4872L21.9791 12.2383L22.0445 12.0942C23.4068 8.84585 26.4194 6.57985 29.9035 6.1738C30.2047 6.13451 30.4536 5.89874 30.4929 5.59748C30.5322 5.29622 30.375 4.99496 30.0869 4.87708L29.3272 4.54962L30.1524 3.9602C33.0864 1.85139 37.0551 1.81209 40.0415 3.85542L40.238 3.9864L40.0284 4.07809C33.3876 6.9859 27.6113 11.6227 23.3151 17.4907C23.2103 17.6348 23.171 17.8181 23.1972 17.9884C23.2234 18.1718 23.3151 18.329 23.4722 18.4338C23.7604 18.6433 24.2058 18.5778 24.4153 18.2897C28.5806 12.5788 34.1997 8.07305 40.6702 5.27003L40.8667 5.19144V5.40101C40.7095 7.45743 40.0284 9.43527 38.8889 11.1249C38.6793 11.4393 38.7579 11.8584 39.0592 12.068C39.3604 12.2776 39.7927 12.199 40.0022 11.8977C41.4299 9.81512 42.2158 7.27406 42.2289 4.7461V4.65441L42.3075 4.62821C43.9841 3.9864 45.7131 3.46247 47.4551 3.05642C47.6254 3.01713 47.7826 2.91234 47.8743 2.75516C47.966 2.59799 48.0053 2.41461 47.9529 2.24433C47.9136 2.07406 47.8088 1.91688 47.6516 1.82519C47.4944 1.7335 47.3242 1.69421 47.1408 1.7466C45.3201 2.16574 43.4995 2.72897 41.7443 3.39698L41.6788 3.42317L41.6264 3.37078C39.7796 1.79899 37.4874 1 35.1952 1C33.165 1 31.1347 1.61562 29.3927 2.87305L27.5982 4.15668C27.4017 4.30076 27.2969 4.53652 27.3231 4.77229C27.3362 4.91637 27.4017 5.04736 27.4934 5.15214L27.6244 5.29622L27.441 5.36171C24.1272 6.51436 21.5206 9.1995 20.4728 12.5526C20.4204 12.736 20.4335 12.9325 20.5382 13.1028C20.6299 13.2731 20.8002 13.3778 20.9836 13.4171L21.3634 13.4957L21.1539 13.666C20.3549 14.3471 19.6869 15.1461 19.1498 16.0499C18.0758 17.8836 16.4254 19.3506 14.4738 20.1889C14.2511 20.2937 14.0939 20.5033 14.0677 20.7521C14.0677 20.8176 14.0939 20.8831 14.107 20.9486H8.88081C8.69743 20.9486 8.51406 21.0272 8.39617 21.1713L0.235967 30.2484C0.0656902 30.4448 0.0263955 30.7199 0.131181 30.9557C0.235967 31.1914 0.471736 31.3486 0.733701 31.3486V31.3355ZM9.10348 22.2715H15.7967C17.0279 22.9265 18.3246 23.4242 19.6738 23.7516C19.6738 24.1053 19.975 24.3804 20.3287 24.3804H20.4728C20.7347 24.3804 20.9705 24.2232 21.0622 24.0005C21.2586 24.0267 21.442 24.0791 21.6385 24.1053C21.9791 24.1446 22.3327 24.1708 22.6733 24.1708C23.4722 24.1708 24.2581 24.0529 25.0047 23.8433C25.0571 24.1577 25.3191 24.3935 25.6335 24.3935H25.7775C26.1443 24.3935 26.4325 24.1053 26.4325 23.7385C26.4325 23.5945 26.3801 23.4635 26.3015 23.3587C26.9171 23.0705 27.4803 22.7038 28.0173 22.2846H42.4778L49.3937 30.0388H2.18761L9.10348 22.2846V22.2715Z" fill="#4F6454"/>
<path d="M9.83626 23.0701H9.69218C9.32543 23.0701 9.03727 23.3583 9.03727 23.725C9.03727 24.0918 9.32543 24.3799 9.69218 24.3799H9.83626C10.203 24.3799 10.4912 24.0918 10.4912 23.725C10.4912 23.3583 10.203 23.0701 9.83626 23.0701Z" fill="#4F6454"/>
<path d="M7.7295 25.4927H7.58541C7.21866 25.4927 6.9305 25.7809 6.9305 26.1476C6.9305 26.5144 7.21866 26.8025 7.58541 26.8025H7.7295C8.09625 26.8025 8.38441 26.5144 8.38441 26.1476C8.38441 25.7809 8.09625 25.4927 7.7295 25.4927Z" fill="#4F6454"/>
<path d="M5.60563 27.9293H5.46155C5.0948 27.9293 4.80664 28.2175 4.80664 28.5842C4.80664 28.951 5.0948 29.2391 5.46155 29.2391H5.60563C5.97238 29.2391 6.26055 28.951 6.26055 28.5842C6.26055 28.2175 5.97238 27.9293 5.60563 27.9293Z" fill="#4F6454"/>
<path d="M15.1563 23.0701H15.0122C14.6454 23.0701 14.3573 23.3583 14.3573 23.725C14.3573 24.0918 14.6454 24.3799 15.0122 24.3799H15.1563C15.523 24.3799 15.8112 24.0918 15.8112 23.725C15.8112 23.3583 15.523 23.0701 15.1563 23.0701Z" fill="#4F6454"/>
<path d="M13.7384 25.4927H13.5944C13.2276 25.4927 12.9395 25.7808 12.9395 26.1476C12.9395 26.5143 13.2276 26.8025 13.5944 26.8025H13.7384C14.1052 26.8025 14.3934 26.5143 14.3934 26.1476C14.3934 25.7808 14.1052 25.4927 13.7384 25.4927Z" fill="#4F6454"/>
<path d="M12.3234 27.9293H12.1794C11.8126 27.9293 11.5244 28.2175 11.5244 28.5842C11.5244 28.951 11.8126 29.2391 12.1794 29.2391H12.3234C12.6902 29.2391 12.9783 28.951 12.9783 28.5842C12.9783 28.2175 12.6902 27.9293 12.3234 27.9293Z" fill="#4F6454"/>
<path d="M19.7541 25.5067H19.61C19.2432 25.5067 18.9551 25.7949 18.9551 26.1616C18.9551 26.5284 19.2432 26.8165 19.61 26.8165H19.7541C20.1208 26.8165 20.409 26.5284 20.409 26.1616C20.409 25.7949 20.1208 25.5067 19.7541 25.5067Z" fill="#4F6454"/>
<path d="M19.0451 27.9293H18.901C18.5343 27.9293 18.2461 28.2175 18.2461 28.5842C18.2461 28.951 18.5343 29.2391 18.901 29.2391H19.0451C19.4118 29.2391 19.7 28.951 19.7 28.5842C19.7 28.2175 19.4118 27.9293 19.0451 27.9293Z" fill="#4F6454"/>
<path d="M25.7658 25.5067H25.6217C25.255 25.5067 24.9668 25.7949 24.9668 26.1616C24.9668 26.5284 25.255 26.8165 25.6217 26.8165H25.7658C26.1325 26.8165 26.4207 26.5284 26.4207 26.1616C26.4207 25.7949 26.1325 25.5067 25.7658 25.5067Z" fill="#4F6454"/>
<path d="M25.7658 27.9293H25.6217C25.255 27.9293 24.9668 28.2175 24.9668 28.5842C24.9668 28.951 25.255 29.2391 25.6217 29.2391H25.7658C26.1325 29.2391 26.4207 28.951 26.4207 28.5842C26.4207 28.2175 26.1325 27.9293 25.7658 27.9293Z" fill="#4F6454"/>
<path d="M41.6791 23.0701H41.535C41.1683 23.0701 40.8801 23.3583 40.8801 23.725C40.8801 24.0918 41.1683 24.3799 41.535 24.3799H41.6791C42.0459 24.3799 42.334 24.0918 42.334 23.725C42.334 23.3583 42.0459 23.0701 41.6791 23.0701Z" fill="#4F6454"/>
<path d="M43.799 25.4927H43.6549C43.2882 25.4927 43 25.7808 43 26.1476C43 26.5143 43.2882 26.8025 43.6549 26.8025H43.799C44.1657 26.8025 44.4539 26.5143 44.4539 26.1476C44.4539 25.7808 44.1657 25.4927 43.799 25.4927Z" fill="#4F6454"/>
<path d="M45.924 27.9293H45.7799C45.4132 27.9293 45.125 28.2175 45.125 28.5842C45.125 28.951 45.4132 29.2391 45.7799 29.2391H45.924C46.2907 29.2391 46.5789 28.951 46.5789 28.5842C46.5789 28.2175 46.2907 27.9293 45.924 27.9293Z" fill="#4F6454"/>
<path d="M36.3742 23.0703H36.2301C35.8634 23.0703 35.5752 23.3585 35.5752 23.7252C35.5752 24.092 35.8634 24.3801 36.2301 24.3801H36.3742C36.7409 24.3801 37.0291 24.092 37.0291 23.7252C37.0291 23.3585 36.7409 23.0703 36.3742 23.0703Z" fill="#4F6454"/>
<path d="M37.79 25.4927H37.6459C37.2792 25.4927 36.991 25.7809 36.991 26.1476C36.991 26.5144 37.2792 26.8025 37.6459 26.8025H37.79C38.1567 26.8025 38.4449 26.5144 38.4449 26.1476C38.4449 25.7809 38.1567 25.4927 37.79 25.4927Z" fill="#4F6454"/>
<path d="M39.1896 27.9293H39.0455C38.6788 27.9293 38.3906 28.2175 38.3906 28.5842C38.3906 28.951 38.6788 29.2391 39.0455 29.2391H39.1896C39.5564 29.2391 39.8445 28.951 39.8445 28.5842C39.8445 28.2175 39.5564 27.9293 39.1896 27.9293Z" fill="#4F6454"/>
<path d="M31.7234 23.7252C31.7234 23.3585 31.4353 23.0703 31.0685 23.0703H30.9244C30.5577 23.0703 30.2695 23.3585 30.2695 23.7252C30.2695 24.092 30.5577 24.3801 30.9244 24.3801H31.0685C31.4353 24.3801 31.7234 24.092 31.7234 23.7252Z" fill="#4F6454"/>
<path d="M32.4178 26.1616C32.4178 25.7949 32.1296 25.5067 31.7629 25.5067H31.6188C31.252 25.5067 30.9639 25.7949 30.9639 26.1616C30.9639 26.5284 31.252 26.8165 31.6188 26.8165H31.7629C32.1296 26.8165 32.4178 26.5284 32.4178 26.1616Z" fill="#4F6454"/>
<path d="M32.47 27.9293H32.3259C31.9591 27.9293 31.671 28.2175 31.671 28.5842C31.671 28.951 31.9591 29.2391 32.3259 29.2391H32.47C32.8367 29.2391 33.1249 28.951 33.1249 28.5842C33.1249 28.2175 32.8367 27.9293 32.47 27.9293Z" fill="#4F6454"/>
<path d="M0.654912 34.151H51.3058C51.6726 34.151 51.9607 33.8628 51.9607 33.4961C51.9607 33.1293 51.6726 32.8412 51.3058 32.8412H0.654912C0.288161 32.8412 0 33.1293 0 33.4961C0 33.8628 0.288161 34.151 0.654912 34.151Z" fill="#4F6454"/>
<path d="M51.3058 45.6902H0.654912C0.288161 45.6902 0 45.9783 0 46.3451C0 46.7118 0.288161 47 0.654912 47H51.3058C51.6726 47 51.9607 46.7118 51.9607 46.3451C51.9607 45.9783 51.6726 45.6902 51.3058 45.6902Z" fill="#4F6454"/>
<path d="M4.38805 35.264C3.2616 35.264 2.34473 36.1809 2.34473 37.3074C2.34473 38.4338 3.2616 39.3507 4.38805 39.3507C5.5145 39.3507 6.43138 38.4338 6.43138 37.3074C6.43138 36.1809 5.5145 35.264 4.38805 35.264ZM4.38805 38.0278C3.98201 38.0278 3.65455 37.7003 3.65455 37.2943C3.65455 36.8882 3.98201 36.5608 4.38805 36.5608C4.7941 36.5608 5.12155 36.8882 5.12155 37.2943C5.12155 37.7003 4.7941 38.0278 4.38805 38.0278Z" fill="#4F6454"/>
<path d="M13.0326 35.264C11.9061 35.264 10.9893 36.1809 10.9893 37.3074C10.9893 38.4338 11.9061 39.3507 13.0326 39.3507C14.159 39.3507 15.0759 38.4338 15.0759 37.3074C15.0759 36.1809 14.159 35.264 13.0326 35.264ZM13.0326 38.0278C12.6265 38.0278 12.2991 37.7003 12.2991 37.2943C12.2991 36.8882 12.6265 36.5608 13.0326 36.5608C13.4386 36.5608 13.7661 36.8882 13.7661 37.2943C13.7661 37.7003 13.4386 38.0278 13.0326 38.0278Z" fill="#4F6454"/>
<path d="M23.7331 37.3073C23.7331 36.1809 22.8162 35.264 21.6897 35.264C20.5633 35.264 19.6464 36.1809 19.6464 37.3073C19.6464 38.4338 20.5633 39.3507 21.6897 39.3507C22.8162 39.3507 23.7331 38.4338 23.7331 37.3073ZM20.9562 37.3073C20.9562 36.9013 21.2837 36.5738 21.6897 36.5738C22.0958 36.5738 22.4232 36.9013 22.4232 37.3073C22.4232 37.7134 22.0958 38.0408 21.6897 38.0408C21.2837 38.0408 20.9562 37.7134 20.9562 37.3073Z" fill="#4F6454"/>
<path d="M30.3373 35.264C29.2108 35.264 28.2939 36.1809 28.2939 37.3074C28.2939 38.4338 29.2108 39.3507 30.3373 39.3507C31.4637 39.3507 32.3806 38.4338 32.3806 37.3074C32.3806 36.1809 31.4637 35.264 30.3373 35.264ZM30.3373 38.0278C29.9312 38.0278 29.6038 37.7003 29.6038 37.2943C29.6038 36.8882 29.9312 36.5608 30.3373 36.5608C30.7433 36.5608 31.0708 36.8882 31.0708 37.2943C31.0708 37.7003 30.7433 38.0278 30.3373 38.0278Z" fill="#4F6454"/>
<path d="M41.0251 37.3074C41.0251 36.1809 40.1082 35.264 38.9818 35.264C37.8554 35.264 36.9385 36.1809 36.9385 37.3074C36.9385 38.4338 37.8554 39.3507 38.9818 39.3507C40.1082 39.3507 41.0251 38.4338 41.0251 37.3074ZM38.2614 37.3074C38.2614 36.9013 38.5889 36.5739 38.9949 36.5739C39.4009 36.5739 39.7284 36.9013 39.7284 37.3074C39.7284 37.7134 39.4009 38.0409 38.9949 38.0409C38.5889 38.0409 38.2614 37.7134 38.2614 37.3074Z" fill="#4F6454"/>
<path d="M47.639 35.264C46.5126 35.264 45.5957 36.1809 45.5957 37.3073C45.5957 38.4338 46.5126 39.3507 47.639 39.3507C48.7655 39.3507 49.6824 38.4338 49.6824 37.3073C49.6824 36.1809 48.7655 35.264 47.639 35.264ZM47.639 38.0277C47.233 38.0277 46.9055 37.7003 46.9055 37.2942C46.9055 36.8882 47.233 36.5607 47.639 36.5607C48.0451 36.5607 48.3725 36.8882 48.3725 37.2942C48.3725 37.7003 48.0451 38.0277 47.639 38.0277Z" fill="#4F6454"/>
<path d="M2.34473 42.5736C2.34473 43.7 3.2616 44.6169 4.38805 44.6169C5.5145 44.6169 6.43138 43.7 6.43138 42.5736C6.43138 41.4471 5.5145 40.5303 4.38805 40.5303C3.2616 40.5303 2.34473 41.4471 2.34473 42.5736ZM5.12155 42.5736C5.12155 42.9796 4.7941 43.3071 4.38805 43.3071C3.98201 43.3071 3.65455 42.9796 3.65455 42.5736C3.65455 42.1676 3.98201 41.8401 4.38805 41.8401C4.7941 41.8401 5.12155 42.1676 5.12155 42.5736Z" fill="#4F6454"/>
<path d="M12.9807 40.5301C11.8543 40.5301 10.9374 41.4469 10.9374 42.5734C10.9374 43.6998 11.8543 44.6167 12.9807 44.6167C14.1072 44.6167 15.0241 43.6998 15.0241 42.5734C15.0241 41.4469 14.1072 40.5301 12.9807 40.5301ZM12.9807 43.2938C12.5747 43.2938 12.2472 42.9663 12.2472 42.5603C12.2472 42.1543 12.5747 41.8268 12.9807 41.8268C13.3868 41.8268 13.7142 42.1543 13.7142 42.5603C13.7142 42.9663 13.3868 43.2938 12.9807 43.2938Z" fill="#4F6454"/>
<path d="M21.8616 44.6038C22.988 44.6038 23.9049 43.6869 23.9049 42.5605C23.9049 41.434 22.988 40.5172 21.8616 40.5172C20.7351 40.5172 19.8183 41.434 19.8183 42.5605C19.8183 43.6869 20.7351 44.6038 21.8616 44.6038ZM21.8616 41.8401C22.2676 41.8401 22.5951 42.1675 22.5951 42.5736C22.5951 42.9796 22.2676 43.3071 21.8616 43.3071C21.4555 43.3071 21.1281 42.9796 21.1281 42.5736C21.1281 42.1675 21.4555 41.8401 21.8616 41.8401Z" fill="#4F6454"/>
<path d="M30.3373 40.5303C29.2108 40.5303 28.2939 41.4471 28.2939 42.5736C28.2939 43.7 29.2108 44.6169 30.3373 44.6169C31.4637 44.6169 32.3806 43.7 32.3806 42.5736C32.3806 41.4471 31.4637 40.5303 30.3373 40.5303ZM30.3373 43.294C29.9312 43.294 29.6038 42.9665 29.6038 42.5605C29.6038 42.1545 29.9312 41.827 30.3373 41.827C30.7433 41.827 31.0708 42.1545 31.0708 42.5605C31.0708 42.9665 30.7433 43.294 30.3373 43.294Z" fill="#4F6454"/>
<path d="M39.1254 44.6039C40.2518 44.6039 41.1687 43.687 41.1687 42.5605C41.1687 41.4341 40.2518 40.5172 39.1254 40.5172C37.9989 40.5172 37.082 41.4341 37.082 42.5605C37.082 43.687 37.9989 44.6039 39.1254 44.6039ZM39.1254 41.8401C39.5314 41.8401 39.8589 42.1676 39.8589 42.5736C39.8589 42.9797 39.5314 43.3071 39.1254 43.3071C38.7193 43.3071 38.3919 42.9797 38.3919 42.5736C38.3919 42.1676 38.7193 41.8401 39.1254 41.8401Z" fill="#4F6454"/>
<path d="M45.5957 42.5734C45.5957 43.6998 46.5126 44.6167 47.639 44.6167C48.7655 44.6167 49.6824 43.6998 49.6824 42.5734C49.6824 41.4469 48.7655 40.5301 47.639 40.5301C46.5126 40.5301 45.5957 41.4469 45.5957 42.5734ZM48.3725 42.5734C48.3725 42.9794 48.0451 43.3069 47.639 43.3069C47.233 43.3069 46.9055 42.9794 46.9055 42.5734C46.9055 42.1674 47.233 41.8399 47.639 41.8399C48.0451 41.8399 48.3725 42.1674 48.3725 42.5734Z" fill="#4F6454"/>
<path d="M35.1044 14.6213C35.1044 15.0404 35.4449 15.381 35.8641 15.381C36.2832 15.381 36.6238 15.0404 36.6238 14.6213C36.6238 14.2021 36.2832 13.8616 35.8641 13.8616C35.4449 13.8616 35.1044 14.2021 35.1044 14.6213Z" fill="#4F6454"/>
</svg>
