<svg width="122" height="120" viewBox="0 0 122 120" fill="none" xmlns="http://www.w3.org/2000/svg">
<g clip-path="url(#clip0_242_268)">
<path d="M4.63765 85.0111H116.533C117.118 85.0111 117.645 84.6601 117.879 84.1335C118.113 83.607 118.025 82.9926 117.645 82.5538L99.595 62.3103C99.3318 61.9885 98.9222 61.813 98.5127 61.813H92.0183C92.7204 60.7306 92.7789 59.3557 92.1061 58.2148L89.9706 54.6458C91.7843 51.7205 93.1007 48.5318 93.8906 45.1677L97.9276 44.173C99.478 43.7927 100.531 42.4178 100.531 40.8381V34.8119C100.531 33.2322 99.4488 31.8572 97.9276 31.4769L93.8906 30.4823C93.1007 27.1474 91.7843 23.9587 89.9706 21.0041L92.1061 17.4352C92.9252 16.0895 92.7204 14.3343 91.5795 13.2227L87.3085 8.95162C86.1969 7.83998 84.4709 7.60595 83.096 8.42505L79.527 10.5606C76.5724 8.74684 73.3838 7.40118 70.0488 6.64058L69.0542 2.60358C68.6739 1.05313 67.299 0 65.7193 0H59.693C58.1133 0 56.7384 1.08239 56.3581 2.60358L55.3635 6.64058C51.9993 7.43043 48.8107 8.74684 45.8853 10.5606L42.3164 8.42505C40.9414 7.60595 39.2155 7.81073 38.1038 8.95162L33.8328 13.2227C32.7212 14.3343 32.4871 16.0895 33.3062 17.4352L35.4418 21.0041C33.628 23.9587 32.2824 27.1474 31.5218 30.4823L27.4848 31.4769C25.9343 31.8572 24.8812 33.2322 24.8812 34.8119V40.8381C24.8812 42.4178 25.9636 43.7927 27.4848 44.173L31.5218 45.1677C32.3701 48.8536 33.6573 52.0423 35.4125 54.7043L33.3062 58.244C32.6334 59.3849 32.6919 60.7599 33.394 61.8422H22.7164C22.3069 61.8422 21.8973 62.0178 21.634 62.3396L3.52601 82.5831C3.14572 83.0219 3.05796 83.6362 3.29199 84.1628C3.52601 84.6894 4.05258 85.0404 4.63765 85.0404V85.0111ZM35.471 59.5605L37.8113 55.6697C38.1916 55.0261 38.1624 54.2363 37.7235 53.5927C35.9976 51.0476 34.7104 47.9175 33.9206 44.2608C33.7743 43.5295 33.2185 42.9736 32.5164 42.7981L28.0991 41.6865C27.7188 41.5987 27.4263 41.2477 27.4263 40.8381V34.8119C27.4263 34.4023 27.6895 34.0513 28.0991 33.9635L32.5164 32.8519C33.2185 32.6763 33.7743 32.1205 33.9206 31.3892C34.6519 28.0835 35.9683 24.9241 37.8113 22.028C38.2209 21.4137 38.2209 20.6238 37.8406 20.0095L35.5003 16.0895C35.2955 15.7385 35.354 15.2997 35.6173 15.0364L39.8883 10.7653C40.1809 10.4728 40.6197 10.4436 40.9707 10.6483L44.8907 13.0179C45.505 13.3982 46.2949 13.3689 46.9092 12.9886C49.7761 11.1456 52.9355 9.85848 56.2996 9.09789C57.031 8.92237 57.5868 8.3958 57.7623 7.69371L58.8739 3.24716C58.9617 2.86686 59.3127 2.57432 59.7223 2.57432H65.7486C66.1581 2.57432 66.5091 2.83761 66.5969 3.24716L67.7085 7.66446C67.8841 8.36655 68.4399 8.92237 69.1712 9.06863C72.5062 9.79998 75.6363 11.1164 78.5617 12.9594C79.176 13.3397 79.9658 13.3689 80.5802 12.9886L84.5002 10.6483C84.8512 10.4436 85.29 10.5021 85.5533 10.7653L89.8243 15.0364C90.1169 15.3289 90.1754 15.7677 89.9413 16.0895L87.601 20.0095C87.2207 20.6238 87.25 21.4137 87.6303 22.028C89.4733 24.9241 90.7897 28.0835 91.521 31.3892C91.6673 32.1205 92.2231 32.6763 92.9252 32.8519L97.3425 33.9635C97.7228 34.0513 98.0153 34.4023 98.0153 34.8119V40.8381C98.0153 41.2477 97.7521 41.5987 97.3425 41.6865L92.896 42.7981C92.1939 42.9736 91.6673 43.5295 91.4918 44.2608C90.7604 47.5957 89.444 50.7551 87.601 53.6512C87.1915 54.2655 87.1915 55.0554 87.5718 55.6697L89.9121 59.5897C90.1169 59.9408 90.0583 60.3796 89.7951 60.6428L85.7873 64.6506C85.5825 64.6799 85.3778 64.7676 85.173 64.7969H85.641L85.524 64.9139C85.2315 65.2064 84.7927 65.2649 84.4709 65.0309L80.5509 62.6613C79.9366 62.281 79.1467 62.3103 78.5324 62.6906C75.6363 64.5336 72.5062 65.8207 69.142 66.5813C68.4106 66.7569 67.8548 67.2834 67.6793 67.9855L66.5677 72.4321C66.4799 72.8124 66.1289 73.1049 65.7193 73.1049H59.693C59.2835 73.1049 58.9325 72.8416 58.8447 72.4321L57.733 67.9855C57.5575 67.2834 57.0017 66.7569 56.2704 66.5813C52.9354 65.85 49.7761 64.5336 46.9092 62.6906C46.5874 62.4858 46.2364 62.3981 45.8561 62.3981C45.505 62.3981 45.1832 62.4858 44.8907 62.6613L40.9707 65.0309C40.6197 65.2357 40.1809 65.1772 39.9176 64.9139L35.6465 60.6428C35.354 60.3503 35.2955 59.9115 35.5295 59.5897L35.471 59.5605ZM23.3307 64.7676H36.0853L38.0161 66.7276C39.1277 67.8392 40.8829 68.0733 42.2286 67.2542L45.7976 65.1187C46.6752 65.6452 47.5528 66.1425 48.4596 66.5813H48.3426C47.5235 66.5813 46.8799 67.2249 46.8799 68.044C46.8799 68.8631 47.5235 69.5067 48.3426 69.5067H48.6644C49.4835 69.5067 50.1271 68.8631 50.1271 68.044C50.1271 67.7222 50.0101 67.4589 49.8346 67.2249C51.5898 67.9855 53.3743 68.5998 55.2465 69.0386L56.2704 73.0756C56.6507 74.5968 58.0256 75.6792 59.6053 75.6792H65.6315C67.2112 75.6792 68.5862 74.5968 68.9665 73.0756L69.9903 69.0386C70.2536 68.9801 70.5169 68.8924 70.7802 68.8046C71.0435 69.2142 71.4823 69.5067 71.9796 69.5067H72.3014C73.1205 69.5067 73.7641 68.8631 73.7641 68.044C73.7641 67.9855 73.7641 67.927 73.7348 67.8685C75.7241 67.1372 77.6255 66.2303 79.4393 65.1187L82.7449 67.1079C82.5109 67.3712 82.3646 67.693 82.3646 68.044C82.3646 68.8631 83.0082 69.5067 83.8273 69.5067H84.1491C84.9682 69.5067 85.6118 68.8631 85.6118 68.044C85.6118 67.8977 85.5825 67.7515 85.524 67.6345C86.1384 67.4882 86.7527 67.2249 87.2207 66.7569L89.1515 64.7969H97.7228L113.169 82.115H7.88481L23.3307 64.7969V64.7676Z" fill="white"/>
<path d="M24.9688 66.552H24.6471C23.828 66.552 23.1844 67.1955 23.1844 68.0146C23.1844 68.8337 23.828 69.4773 24.6471 69.4773H24.9688C25.788 69.4773 26.4315 68.8337 26.4315 68.0146C26.4315 67.1955 25.788 66.552 24.9688 66.552Z" fill="white"/>
<path d="M20.2603 71.9657H19.9385C19.1194 71.9657 18.4758 72.6093 18.4758 73.4284C18.4758 74.2475 19.1194 74.8911 19.9385 74.8911H20.2603C21.0794 74.8911 21.7229 74.2475 21.7229 73.4284C21.7229 72.6093 21.0794 71.9657 20.2603 71.9657Z" fill="white"/>
<path d="M15.52 77.405H15.1982C14.3791 77.405 13.7355 78.0486 13.7355 78.8677C13.7355 79.6868 14.3791 80.3304 15.1982 80.3304H15.52C16.3391 80.3304 16.9827 79.6868 16.9827 78.8677C16.9827 78.0486 16.3391 77.405 15.52 77.405Z" fill="white"/>
<path d="M36.8458 66.552H36.524C35.7049 66.552 35.0613 67.1955 35.0613 68.0146C35.0613 68.8337 35.7049 69.4773 36.524 69.4773H36.8458C37.6649 69.4773 38.3085 68.8337 38.3085 68.0146C38.3085 67.1955 37.6649 66.552 36.8458 66.552Z" fill="white"/>
<path d="M33.6864 71.9941H33.3646C32.5455 71.9941 31.902 72.6377 31.902 73.4568C31.902 74.2759 32.5455 74.9195 33.3646 74.9195H33.6864C34.5055 74.9195 35.1491 74.2759 35.1491 73.4568C35.1491 72.6377 34.5055 71.9941 33.6864 71.9941Z" fill="white"/>
<path d="M30.5271 77.405H30.2053C29.3862 77.405 28.7426 78.0486 28.7426 78.8677C28.7426 79.6868 29.3862 80.3304 30.2053 80.3304H30.5271C31.3462 80.3304 31.9897 79.6868 31.9897 78.8677C31.9897 78.0486 31.3462 77.405 30.5271 77.405Z" fill="white"/>
<path d="M47.1149 71.9941H46.7932C45.9741 71.9941 45.3305 72.6377 45.3305 73.4568C45.3305 74.2759 45.9741 74.9195 46.7932 74.9195H47.1149C47.934 74.9195 48.5776 74.2759 48.5776 73.4568C48.5776 72.6377 47.934 71.9941 47.1149 71.9941Z" fill="white"/>
<path d="M45.5353 77.405H45.2135C44.3944 77.405 43.7508 78.0486 43.7508 78.8677C43.7508 79.6868 44.3944 80.3304 45.2135 80.3304H45.5353C46.3544 80.3304 46.9979 79.6868 46.9979 78.8677C46.9979 78.0486 46.3544 77.405 45.5353 77.405Z" fill="white"/>
<path d="M60.5423 77.405H60.2205C59.4014 77.405 58.7578 78.0486 58.7578 78.8677C58.7578 79.6868 59.4014 80.3304 60.2205 80.3304H60.5423C61.3614 80.3304 62.005 79.6868 62.005 78.8677C62.005 78.0486 61.3614 77.405 60.5423 77.405Z" fill="white"/>
<path d="M96.0853 66.552H95.7635C94.9444 66.552 94.3008 67.1955 94.3008 68.0146C94.3008 68.8337 94.9444 69.4773 95.7635 69.4773H96.0853C96.9044 69.4773 97.5479 68.8337 97.5479 68.0146C97.5479 67.1955 96.9044 66.552 96.0853 66.552Z" fill="white"/>
<path d="M100.824 71.9657H100.503C99.6834 71.9657 99.0398 72.6093 99.0398 73.4284C99.0398 74.2475 99.6834 74.8911 100.503 74.8911H100.824C101.643 74.8911 102.287 74.2475 102.287 73.4284C102.287 72.6093 101.643 71.9657 100.824 71.9657Z" fill="white"/>
<path d="M105.563 77.405H105.242C104.422 77.405 103.779 78.0486 103.779 78.8677C103.779 79.6868 104.422 80.3304 105.242 80.3304H105.563C106.382 80.3304 107.026 79.6868 107.026 78.8677C107.026 78.0486 106.382 77.405 105.563 77.405Z" fill="white"/>
<path d="M87.397 71.9941H87.0752C86.2561 71.9941 85.6125 72.6377 85.6125 73.4568C85.6125 74.2759 86.2561 74.9195 87.0752 74.9195H87.397C88.2161 74.9195 88.8597 74.2759 88.8597 73.4568C88.8597 72.6377 88.2161 71.9941 87.397 71.9941Z" fill="white"/>
<path d="M90.5271 77.405H90.2053C89.3862 77.405 88.7426 78.0486 88.7426 78.8677C88.7426 79.6868 89.3862 80.3304 90.2053 80.3304H90.5271C91.3462 80.3304 91.9897 79.6868 91.9897 78.8677C91.9897 78.0486 91.3462 77.405 90.5271 77.405Z" fill="white"/>
<path d="M75.403 73.4568C75.403 72.6377 74.7594 71.9941 73.9403 71.9941H73.6185C72.7994 71.9941 72.1559 72.6377 72.1559 73.4568C72.1559 74.2759 72.7994 74.9195 73.6185 74.9195H73.9403C74.7594 74.9195 75.403 74.2759 75.403 73.4568Z" fill="white"/>
<path d="M75.52 77.405H75.1982C74.3791 77.405 73.7355 78.0486 73.7355 78.8677C73.7355 79.6868 74.3791 80.3304 75.1982 80.3304H75.52C76.3391 80.3304 76.9827 79.6868 76.9827 78.8677C76.9827 78.0486 76.3391 77.405 75.52 77.405Z" fill="white"/>
<path d="M4.46268 91.3006H117.587C118.406 91.3006 119.049 90.657 119.049 89.8379C119.049 89.0188 118.406 88.3752 117.587 88.3752H4.46268C3.64358 88.3752 3 89.0188 3 89.8379C3 90.657 3.64358 91.3006 4.46268 91.3006Z" fill="white"/>
<path d="M117.587 117.075H4.46268C3.64358 117.075 3 117.718 3 118.537C3 119.356 3.64358 120 4.46268 120H117.587C118.406 120 119.049 119.356 119.049 118.537C119.049 117.718 118.406 117.075 117.587 117.075Z" fill="white"/>
<path d="M12.7995 93.789C10.2837 93.789 8.23594 95.8367 8.23594 98.3525C8.23594 100.868 10.2837 102.916 12.7995 102.916C15.3153 102.916 17.3631 100.868 17.3631 98.3525C17.3631 95.8367 15.3153 93.789 12.7995 93.789ZM12.7995 99.9615C11.8926 99.9615 11.1613 99.2301 11.1613 98.3233C11.1613 97.4164 11.8926 96.6851 12.7995 96.6851C13.7064 96.6851 14.4377 97.4164 14.4377 98.3233C14.4377 99.2301 13.7064 99.9615 12.7995 99.9615Z" fill="white"/>
<path d="M32.1073 93.789C29.5915 93.789 27.5438 95.8367 27.5438 98.3525C27.5438 100.868 29.5915 102.916 32.1073 102.916C34.6231 102.916 36.6709 100.868 36.6709 98.3525C36.6709 95.8367 34.6231 93.789 32.1073 93.789ZM32.1073 99.9615C31.2005 99.9615 30.4691 99.2301 30.4691 98.3233C30.4691 97.4164 31.2005 96.6851 32.1073 96.6851C33.0142 96.6851 33.7455 97.4164 33.7455 98.3233C33.7455 99.2301 33.0142 99.9615 32.1073 99.9615Z" fill="white"/>
<path d="M56.008 98.3525C56.008 95.8367 53.9602 93.789 51.4444 93.789C48.9286 93.789 46.8809 95.8367 46.8809 98.3525C46.8809 100.868 48.9286 102.916 51.4444 102.916C53.9602 102.916 56.008 100.868 56.008 98.3525ZM49.8062 98.3525C49.8062 97.4457 50.5376 96.7143 51.4444 96.7143C52.3513 96.7143 53.0826 97.4457 53.0826 98.3525C53.0826 99.2594 52.3513 99.9907 51.4444 99.9907C50.5376 99.9907 49.8062 99.2594 49.8062 98.3525Z" fill="white"/>
<path d="M70.7522 93.789C68.2364 93.789 66.1887 95.8367 66.1887 98.3525C66.1887 100.868 68.2364 102.916 70.7522 102.916C73.2681 102.916 75.3158 100.868 75.3158 98.3525C75.3158 95.8367 73.2681 93.789 70.7522 93.789ZM70.7522 99.9615C69.8454 99.9615 69.114 99.2301 69.114 98.3233C69.114 97.4164 69.8454 96.6851 70.7522 96.6851C71.6591 96.6851 72.3904 97.4164 72.3904 98.3233C72.3904 99.2301 71.6591 99.9615 70.7522 99.9615Z" fill="white"/>
<path d="M94.6225 98.3525C94.6225 95.8367 92.5747 93.789 90.0589 93.789C87.5431 93.789 85.4953 95.8367 85.4953 98.3525C85.4953 100.868 87.5431 102.916 90.0589 102.916C92.5747 102.916 94.6225 100.868 94.6225 98.3525ZM88.4499 98.3525C88.4499 97.4457 89.1813 96.7143 90.0881 96.7143C90.995 96.7143 91.7263 97.4457 91.7263 98.3525C91.7263 99.2594 90.995 99.9907 90.0881 99.9907C89.1813 99.9907 88.4499 99.2594 88.4499 98.3525Z" fill="white"/>
<path d="M109.396 93.789C106.88 93.789 104.832 95.8367 104.832 98.3525C104.832 100.868 106.88 102.916 109.396 102.916C111.912 102.916 113.96 100.868 113.96 98.3525C113.96 95.8367 111.912 93.789 109.396 93.789ZM109.396 99.9615C108.489 99.9615 107.758 99.2301 107.758 98.3233C107.758 97.4164 108.489 96.6851 109.396 96.6851C110.303 96.6851 111.034 97.4164 111.034 98.3233C111.034 99.2301 110.303 99.9615 109.396 99.9615Z" fill="white"/>
<path d="M8.23594 110.111C8.23594 112.627 10.2837 114.675 12.7995 114.675C15.3153 114.675 17.3631 112.627 17.3631 110.111C17.3631 107.595 15.3153 105.548 12.7995 105.548C10.2837 105.548 8.23594 107.595 8.23594 110.111ZM14.4377 110.111C14.4377 111.018 13.7064 111.749 12.7995 111.749C11.8926 111.749 11.1613 111.018 11.1613 110.111C11.1613 109.204 11.8926 108.473 12.7995 108.473C13.7064 108.473 14.4377 109.204 14.4377 110.111Z" fill="white"/>
<path d="M31.9901 105.548C29.4743 105.548 27.4266 107.595 27.4266 110.111C27.4266 112.627 29.4743 114.675 31.9901 114.675C34.5059 114.675 36.5537 112.627 36.5537 110.111C36.5537 107.595 34.5059 105.548 31.9901 105.548ZM31.9901 111.72C31.0833 111.72 30.3519 110.989 30.3519 110.082C30.3519 109.175 31.0833 108.444 31.9901 108.444C32.897 108.444 33.6283 109.175 33.6283 110.082C33.6283 110.989 32.897 111.72 31.9901 111.72Z" fill="white"/>
<path d="M51.8241 114.646C54.3399 114.646 56.3877 112.598 56.3877 110.082C56.3877 107.567 54.3399 105.519 51.8241 105.519C49.3083 105.519 47.2605 107.567 47.2605 110.082C47.2605 112.598 49.3083 114.646 51.8241 114.646ZM51.8241 108.473C52.731 108.473 53.4623 109.205 53.4623 110.112C53.4623 111.019 52.731 111.75 51.8241 111.75C50.9173 111.75 50.1859 111.019 50.1859 110.112C50.1859 109.205 50.9173 108.473 51.8241 108.473Z" fill="white"/>
<path d="M70.7522 105.548C68.2364 105.548 66.1887 107.595 66.1887 110.111C66.1887 112.627 68.2364 114.675 70.7522 114.675C73.2681 114.675 75.3158 112.627 75.3158 110.111C75.3158 107.595 73.2681 105.548 70.7522 105.548ZM70.7522 111.72C69.8454 111.72 69.114 110.989 69.114 110.082C69.114 109.175 69.8454 108.444 70.7522 108.444C71.6591 108.444 72.3904 109.175 72.3904 110.082C72.3904 110.989 71.6591 111.72 70.7522 111.72Z" fill="white"/>
<path d="M90.3812 114.646C92.897 114.646 94.9447 112.598 94.9447 110.082C94.9447 107.567 92.897 105.519 90.3812 105.519C87.8653 105.519 85.8176 107.567 85.8176 110.082C85.8176 112.598 87.8653 114.646 90.3812 114.646ZM90.3812 108.473C91.288 108.473 92.0194 109.205 92.0194 110.112C92.0194 111.019 91.288 111.75 90.3812 111.75C89.4743 111.75 88.743 111.019 88.743 110.112C88.743 109.205 89.4743 108.473 90.3812 108.473Z" fill="white"/>
<path d="M104.832 110.111C104.832 112.627 106.88 114.675 109.396 114.675C111.912 114.675 113.96 112.627 113.96 110.111C113.96 107.595 111.912 105.548 109.396 105.548C106.88 105.548 104.832 107.595 104.832 110.111ZM111.034 110.111C111.034 111.018 110.303 111.749 109.396 111.749C108.489 111.749 107.758 111.018 107.758 110.111C107.758 109.204 108.489 108.473 109.396 108.473C110.303 108.473 111.034 109.204 111.034 110.111Z" fill="white"/>
<path d="M62.6767 61.4916C75.7238 61.4916 86.3429 50.8725 86.3429 37.7961C86.3429 24.7197 75.7238 14.1299 62.6767 14.1299C49.6296 14.1299 38.9813 24.749 38.9813 37.7961C38.9813 50.8432 49.6003 61.4916 62.6767 61.4916ZM62.6767 16.9675C74.1734 16.9675 83.5346 26.3287 83.5346 37.8253C83.5346 49.322 74.1734 58.6832 62.6767 58.6832C51.18 58.6832 41.8189 49.322 41.8189 37.8253C41.8189 26.3287 51.18 16.9675 62.6767 16.9675Z" fill="white"/>
<path d="M51.8542 45.5192V51.7502C51.8542 52.1598 52.2052 52.5108 52.6147 52.5108C53.0243 52.5108 53.3753 52.1598 53.3753 51.7502V45.5192C55.6864 45.1389 57.4416 43.1496 57.4416 40.7508C57.4416 38.352 55.6864 36.3628 53.3753 35.9825V23.9007C53.3753 23.4912 53.0243 23.1401 52.6147 23.1401C52.2052 23.1401 51.8542 23.4912 51.8542 23.9007V35.9825C49.5431 36.3628 47.7879 38.352 47.7879 40.7508C47.7879 43.1496 49.5431 45.1389 51.8542 45.5192ZM52.6147 37.4452C54.4285 37.4452 55.9204 38.9371 55.9204 40.7508C55.9204 42.5646 54.4285 44.0565 52.6147 44.0565C50.801 44.0565 49.3091 42.5646 49.3091 40.7508C49.3091 38.9371 50.801 37.4452 52.6147 37.4452Z" fill="white"/>
<path d="M61.917 39.6685V51.7502C61.917 52.1598 62.2681 52.5108 62.6776 52.5108C63.0872 52.5108 63.4382 52.1598 63.4382 51.7502V39.6685C65.7493 39.2882 67.5045 37.2989 67.5045 34.9001C67.5045 32.5013 65.7493 30.5121 63.4382 30.1318V23.9007C63.4382 23.4912 63.0872 23.1401 62.6776 23.1401C62.2681 23.1401 61.917 23.4912 61.917 23.9007V30.1318C59.606 30.5121 57.8508 32.5013 57.8508 34.9001C57.8508 37.2989 59.606 39.2882 61.917 39.6685ZM62.6776 31.5944C64.4914 31.5944 65.9833 33.0864 65.9833 34.9001C65.9833 36.7138 64.4914 38.2058 62.6776 38.2058C60.8639 38.2058 59.372 36.7138 59.372 34.9001C59.372 33.0864 60.8639 31.5944 62.6776 31.5944Z" fill="white"/>
<path d="M71.9518 44.5251V51.7508C71.9518 52.1603 72.3029 52.5114 72.7124 52.5114C73.122 52.5114 73.473 52.1603 73.473 51.7508V44.5251C75.784 44.1448 77.5393 42.1556 77.5393 39.7568C77.5393 37.358 75.784 35.3687 73.473 34.9884V23.872C73.473 23.4625 73.122 23.1114 72.7124 23.1114C72.3029 23.1114 71.9518 23.4625 71.9518 23.872V34.9884C69.6408 35.3687 67.8856 37.358 67.8856 39.7568C67.8856 42.1556 69.6408 44.1448 71.9518 44.5251ZM72.7124 36.4511C74.5261 36.4511 76.0181 37.943 76.0181 39.7568C76.0181 41.5705 74.5261 43.0624 72.7124 43.0624C70.8987 43.0624 69.4067 41.5705 69.4067 39.7568C69.4067 37.943 70.8987 36.4511 72.7124 36.4511Z" fill="white"/>
</g>
<defs>
<clipPath id="clip0_242_268">
<rect width="122" height="120" fill="white"/>
</clipPath>
</defs>
</svg>
