<svg width="97" height="100" viewBox="0 0 97 100" fill="none" xmlns="http://www.w3.org/2000/svg">
<path d="M1.36471 70.8426H94.6108C95.0983 70.8426 95.5371 70.5501 95.7321 70.1113C95.9272 69.6725 95.854 69.1605 95.5371 68.7949L80.4959 51.9252C80.2765 51.6571 79.9352 51.5108 79.5939 51.5108H74.1819C74.767 50.6088 74.8158 49.4631 74.2551 48.5123L72.4755 45.5382C73.9869 43.1004 75.0839 40.4432 75.7421 37.6397L79.1063 36.8109C80.3984 36.4939 81.276 35.3482 81.276 34.0318V29.0099C81.276 27.6935 80.374 26.5477 79.1063 26.2308L75.7421 25.4019C75.0839 22.6228 73.9869 19.9656 72.4755 17.5034L74.2551 14.5293C74.9377 13.4079 74.767 11.9452 73.8163 11.0189L70.2571 7.45968C69.3307 6.53332 67.8924 6.33829 66.7466 7.02088L63.7725 8.80048C61.3103 7.28904 58.6531 6.16765 55.874 5.53382L55.0452 2.16965C54.7283 0.87761 53.5825 0 52.2661 0H47.2442C45.9278 0 44.782 0.901988 44.4651 2.16965L43.6362 5.53382C40.8328 6.19202 38.1756 7.28904 35.7378 8.80048L32.7636 7.02088C31.6179 6.33829 30.1796 6.50894 29.2532 7.45968L25.694 11.0189C24.7676 11.9452 24.5726 13.4079 25.2552 14.5293L27.0348 17.5034C25.5234 19.9656 24.402 22.6228 23.7681 25.4019L20.404 26.2308C19.1119 26.5477 18.2343 27.6935 18.2343 29.0099V34.0318C18.2343 35.3482 19.1363 36.4939 20.404 36.8109L23.7681 37.6397C24.4751 40.7113 25.5477 43.3685 27.0104 45.5869L25.2552 48.5367C24.6945 49.4874 24.7433 50.6332 25.3283 51.5352H16.4303C16.0891 51.5352 15.7478 51.6815 15.5284 51.9496L0.438346 68.8192C0.121431 69.1849 0.048297 69.6968 0.243321 70.1357C0.438346 70.5745 0.877151 70.867 1.36471 70.867V70.8426ZM27.0592 49.6337L29.0094 46.3914C29.3263 45.8551 29.302 45.1969 28.9363 44.6606C27.498 42.5397 26.4253 39.9312 25.7671 36.884C25.6452 36.2745 25.1821 35.8114 24.597 35.6651L20.9159 34.7387C20.599 34.6656 20.3552 34.3731 20.3552 34.0318V29.0099C20.3552 28.6686 20.5746 28.376 20.9159 28.3029L24.597 27.3765C25.1821 27.2303 25.6452 26.7671 25.7671 26.1576C26.3766 23.4029 27.4736 20.7701 29.0094 18.3567C29.3507 17.8447 29.3507 17.1865 29.0338 16.6746L27.0836 13.4079C26.9129 13.1154 26.9617 12.7497 27.1811 12.5303L30.7403 8.97112C30.984 8.72734 31.3497 8.70296 31.6422 8.87361L34.9089 10.8482C35.4208 11.1651 36.0791 11.1408 36.591 10.8239C38.98 9.28804 41.6129 8.2154 44.4163 7.58157C45.0258 7.4353 45.489 6.9965 45.6353 6.41143L46.5616 2.70596C46.6348 2.38905 46.9273 2.14527 47.2686 2.14527H52.2905C52.6318 2.14527 52.9243 2.36467 52.9974 2.70596L53.9238 6.38705C54.0701 6.97212 54.5332 7.4353 55.1427 7.5572C57.9218 8.16665 60.5302 9.26366 62.968 10.7995C63.48 11.1164 64.1382 11.1408 64.6501 10.8239L67.9168 8.87361C68.2093 8.70296 68.575 8.75172 68.7944 8.97112L72.3536 12.5303C72.5974 12.7741 72.6461 13.1398 72.4511 13.4079L70.5009 16.6746C70.1839 17.1865 70.2083 17.8447 70.5252 18.3567C72.0611 20.7701 73.1581 23.4029 73.7675 26.1576C73.8894 26.7671 74.3526 27.2303 74.9377 27.3765L78.6188 28.3029C78.9357 28.376 79.1794 28.6686 79.1794 29.0099V34.0318C79.1794 34.3731 78.96 34.6656 78.6188 34.7387L74.9133 35.6651C74.3282 35.8114 73.8894 36.2745 73.7431 36.884C73.1337 39.6631 72.0367 42.2959 70.5009 44.7093C70.1596 45.2213 70.1596 45.8795 70.4765 46.3914L72.4267 49.6581C72.5974 49.9506 72.5486 50.3163 72.3292 50.5357L68.9894 53.8755C68.8188 53.8999 68.6481 53.973 68.4775 53.9974H68.8675L68.77 54.0949C68.5262 54.3387 68.1606 54.3874 67.8924 54.1924L64.6257 52.2178C64.1138 51.9009 63.4556 51.9252 62.9437 52.2422C60.5302 53.778 57.9218 54.8506 55.1183 55.4844C54.5089 55.6307 54.0457 56.0695 53.8994 56.6546L52.973 60.3601C52.8999 60.677 52.6074 60.9207 52.2661 60.9207H47.2442C46.9029 60.9207 46.6104 60.7013 46.5372 60.3601L45.6109 56.6546C45.4646 56.0695 45.0014 55.6307 44.392 55.4844C41.6129 54.875 38.98 53.778 36.591 52.2422C36.3228 52.0715 36.0303 51.9984 35.7134 51.9984C35.4208 51.9984 35.1527 52.0715 34.9089 52.2178L31.6422 54.1924C31.3497 54.363 30.984 54.3143 30.7646 54.0949L27.2054 50.5357C26.9617 50.2919 26.9129 49.9262 27.1079 49.6581L27.0592 49.6337ZM16.9423 53.973H27.5711L29.1801 55.6063C30.1064 56.5327 31.5691 56.7277 32.6905 56.0451L35.6646 54.2655C36.396 54.7043 37.1273 55.1188 37.883 55.4844H37.7855C37.1029 55.4844 36.5666 56.0208 36.5666 56.7033C36.5666 57.3859 37.1029 57.9222 37.7855 57.9222H38.0537C38.7363 57.9222 39.2726 57.3859 39.2726 56.7033C39.2726 56.4352 39.1751 56.2158 39.0288 56.0208C40.4915 56.6546 41.9785 57.1665 43.5387 57.5322L44.392 60.8964C44.7089 62.164 45.8547 63.066 47.1711 63.066H52.1929C53.5094 63.066 54.6551 62.164 54.972 60.8964L55.8253 57.5322C56.0447 57.4834 56.2641 57.4103 56.4835 57.3372C56.7029 57.6785 57.0686 57.9222 57.483 57.9222H57.7511C58.4337 57.9222 58.97 57.3859 58.97 56.7033C58.97 56.6546 58.97 56.6058 58.9457 56.5571C60.6034 55.9476 62.1879 55.1919 63.6994 54.2655L66.4541 55.9232C66.2591 56.1427 66.1372 56.4108 66.1372 56.7033C66.1372 57.3859 66.6735 57.9222 67.3561 57.9222H67.6243C68.3068 57.9222 68.8432 57.3859 68.8432 56.7033C68.8432 56.5815 68.8188 56.4596 68.77 56.362C69.282 56.2402 69.7939 56.0208 70.1839 55.6307L71.7929 53.9974H78.9357L91.8073 68.4292H4.07068L16.9423 53.9974V53.973Z" fill="#788E72"/>
<path d="M18.3079 55.46H18.0397C17.3571 55.46 16.8208 55.9963 16.8208 56.6789C16.8208 57.3614 17.3571 57.8978 18.0397 57.8978H18.3079C18.9904 57.8978 19.5268 57.3614 19.5268 56.6789C19.5268 55.9963 18.9904 55.46 18.3079 55.46Z" fill="#788E72"/>
<path d="M14.3831 59.9717H14.1149C13.4323 59.9717 12.896 60.508 12.896 61.1906C12.896 61.8732 13.4323 62.4095 14.1149 62.4095H14.3831C15.0656 62.4095 15.602 61.8732 15.602 61.1906C15.602 60.508 15.0656 59.9717 14.3831 59.9717Z" fill="#788E72"/>
<path d="M10.4338 64.5039H10.1657C9.48309 64.5039 8.94678 65.0402 8.94678 65.7228C8.94678 66.4054 9.48309 66.9417 10.1657 66.9417H10.4338C11.1164 66.9417 11.6527 66.4054 11.6527 65.7228C11.6527 65.0402 11.1164 64.5039 10.4338 64.5039Z" fill="#788E72"/>
<path d="M28.2053 55.46H27.9372C27.2546 55.46 26.7183 55.9963 26.7183 56.6789C26.7183 57.3614 27.2546 57.8978 27.9372 57.8978H28.2053C28.8879 57.8978 29.4242 57.3614 29.4242 56.6789C29.4242 55.9963 28.8879 55.46 28.2053 55.46Z" fill="#788E72"/>
<path d="M25.5725 59.9951H25.3044C24.6218 59.9951 24.0854 60.5314 24.0854 61.214C24.0854 61.8966 24.6218 62.4329 25.3044 62.4329H25.5725C26.2551 62.4329 26.7914 61.8966 26.7914 61.214C26.7914 60.5314 26.2551 59.9951 25.5725 59.9951Z" fill="#788E72"/>
<path d="M22.9392 64.5039H22.6711C21.9885 64.5039 21.4521 65.0402 21.4521 65.7228C21.4521 66.4054 21.9885 66.9417 22.6711 66.9417H22.9392C23.6218 66.9417 24.1581 66.4054 24.1581 65.7228C24.1581 65.0402 23.6218 64.5039 22.9392 64.5039Z" fill="#788E72"/>
<path d="M36.7625 59.9951H36.4943C35.8117 59.9951 35.2754 60.5314 35.2754 61.214C35.2754 61.8966 35.8117 62.4329 36.4943 62.4329H36.7625C37.445 62.4329 37.9814 61.8966 37.9814 61.214C37.9814 60.5314 37.445 59.9951 36.7625 59.9951Z" fill="#788E72"/>
<path d="M35.446 64.5039H35.1779C34.4953 64.5039 33.959 65.0402 33.959 65.7228C33.959 66.4054 34.4953 66.9417 35.1779 66.9417H35.446C36.1286 66.9417 36.6649 66.4054 36.6649 65.7228C36.6649 65.0402 36.1286 64.5039 35.446 64.5039Z" fill="#788E72"/>
<path d="M47.9519 64.5039H47.6837C47.0012 64.5039 46.4648 65.0402 46.4648 65.7228C46.4648 66.4054 47.0012 66.9417 47.6837 66.9417H47.9519C48.6345 66.9417 49.1708 66.4054 49.1708 65.7228C49.1708 65.0402 48.6345 64.5039 47.9519 64.5039Z" fill="#788E72"/>
<path d="M77.571 55.46H77.3029C76.6203 55.46 76.084 55.9963 76.084 56.6789C76.084 57.3614 76.6203 57.8978 77.3029 57.8978H77.571C78.2536 57.8978 78.7899 57.3614 78.7899 56.6789C78.7899 55.9963 78.2536 55.46 77.571 55.46Z" fill="#788E72"/>
<path d="M81.5203 59.9717H81.2521C80.5695 59.9717 80.0332 60.508 80.0332 61.1906C80.0332 61.8732 80.5695 62.4095 81.2521 62.4095H81.5203C82.2028 62.4095 82.7392 61.8732 82.7392 61.1906C82.7392 60.508 82.2028 59.9717 81.5203 59.9717Z" fill="#788E72"/>
<path d="M85.47 64.5039H85.2018C84.5192 64.5039 83.9829 65.0402 83.9829 65.7228C83.9829 66.4054 84.5192 66.9417 85.2018 66.9417H85.47C86.1526 66.9417 86.6889 66.4054 86.6889 65.7228C86.6889 65.0402 86.1526 64.5039 85.47 64.5039Z" fill="#788E72"/>
<path d="M70.3313 59.9951H70.0631C69.3806 59.9951 68.8442 60.5314 68.8442 61.214C68.8442 61.8966 69.3806 62.4329 70.0631 62.4329H70.3313C71.0139 62.4329 71.5502 61.8966 71.5502 61.214C71.5502 60.5314 71.0139 59.9951 70.3313 59.9951Z" fill="#788E72"/>
<path d="M72.9392 64.5039H72.6711C71.9885 64.5039 71.4521 65.0402 71.4521 65.7228C71.4521 66.4054 71.9885 66.9417 72.6711 66.9417H72.9392C73.6218 66.9417 74.1581 66.4054 74.1581 65.7228C74.1581 65.0402 73.6218 64.5039 72.9392 64.5039Z" fill="#788E72"/>
<path d="M60.3358 61.214C60.3358 60.5314 59.7995 59.9951 59.1169 59.9951H58.8488C58.1662 59.9951 57.6299 60.5314 57.6299 61.214C57.6299 61.8966 58.1662 62.4329 58.8488 62.4329H59.1169C59.7995 62.4329 60.3358 61.8966 60.3358 61.214Z" fill="#788E72"/>
<path d="M60.4338 64.5039H60.1657C59.4831 64.5039 58.9468 65.0402 58.9468 65.7228C58.9468 66.4054 59.4831 66.9417 60.1657 66.9417H60.4338C61.1164 66.9417 61.6527 66.4054 61.6527 65.7228C61.6527 65.0402 61.1164 64.5039 60.4338 64.5039Z" fill="#788E72"/>
<path d="M1.2189 76.0843H95.4888C96.1714 76.0843 96.7077 75.548 96.7077 74.8654C96.7077 74.1828 96.1714 73.6465 95.4888 73.6465H1.2189C0.536317 73.6465 0 74.1828 0 74.8654C0 75.548 0.536317 76.0843 1.2189 76.0843Z" fill="#788E72"/>
<path d="M95.4888 97.5625H1.2189C0.536317 97.5625 0 98.0988 0 98.7814C0 99.464 0.536317 100 1.2189 100H95.4888C96.1714 100 96.7077 99.464 96.7077 98.7814C96.7077 98.0988 96.1714 97.5625 95.4888 97.5625Z" fill="#788E72"/>
<path d="M8.16675 78.1572C6.07023 78.1572 4.36377 79.8637 4.36377 81.9602C4.36377 84.0567 6.07023 85.7632 8.16675 85.7632C10.2633 85.7632 11.9697 84.0567 11.9697 81.9602C11.9697 79.8637 10.2633 78.1572 8.16675 78.1572ZM8.16675 83.301C7.41103 83.301 6.80157 82.6915 6.80157 81.9358C6.80157 81.1801 7.41103 80.5707 8.16675 80.5707C8.92246 80.5707 9.53192 81.1801 9.53192 81.9358C9.53192 82.6915 8.92246 83.301 8.16675 83.301Z" fill="#788E72"/>
<path d="M24.2566 78.1572C22.1601 78.1572 20.4536 79.8637 20.4536 81.9602C20.4536 84.0567 22.1601 85.7632 24.2566 85.7632C26.3531 85.7632 28.0596 84.0567 28.0596 81.9602C28.0596 79.8637 26.3531 78.1572 24.2566 78.1572ZM24.2566 83.301C23.5009 83.301 22.8914 82.6915 22.8914 81.9358C22.8914 81.1801 23.5009 80.5707 24.2566 80.5707C25.0123 80.5707 25.6218 81.1801 25.6218 81.9358C25.6218 82.6915 25.0123 83.301 24.2566 83.301Z" fill="#788E72"/>
<path d="M44.1728 81.9602C44.1728 79.8637 42.4664 78.1572 40.3699 78.1572C38.2734 78.1572 36.5669 79.8637 36.5669 81.9602C36.5669 84.0567 38.2734 85.7632 40.3699 85.7632C42.4664 85.7632 44.1728 84.0567 44.1728 81.9602ZM39.0047 81.9602C39.0047 81.2045 39.6141 80.595 40.3699 80.595C41.1256 80.595 41.735 81.2045 41.735 81.9602C41.735 82.7159 41.1256 83.3254 40.3699 83.3254C39.6141 83.3254 39.0047 82.7159 39.0047 81.9602Z" fill="#788E72"/>
<path d="M56.4597 78.1572C54.3632 78.1572 52.6567 79.8637 52.6567 81.9602C52.6567 84.0567 54.3632 85.7632 56.4597 85.7632C58.5562 85.7632 60.2627 84.0567 60.2627 81.9602C60.2627 79.8637 58.5562 78.1572 56.4597 78.1572ZM56.4597 83.301C55.704 83.301 55.0945 82.6915 55.0945 81.9358C55.0945 81.1801 55.704 80.5707 56.4597 80.5707C57.2154 80.5707 57.8249 81.1801 57.8249 81.9358C57.8249 82.6915 57.2154 83.301 56.4597 83.301Z" fill="#788E72"/>
<path d="M76.3525 81.9602C76.3525 79.8637 74.6461 78.1572 72.5496 78.1572C70.453 78.1572 68.7466 79.8637 68.7466 81.9602C68.7466 84.0567 70.453 85.7632 72.5496 85.7632C74.6461 85.7632 76.3525 84.0567 76.3525 81.9602ZM71.2088 81.9602C71.2088 81.2045 71.8182 80.595 72.5739 80.595C73.3297 80.595 73.9391 81.2045 73.9391 81.9602C73.9391 82.7159 73.3297 83.3254 72.5739 83.3254C71.8182 83.3254 71.2088 82.7159 71.2088 81.9602Z" fill="#788E72"/>
<path d="M88.6633 78.1572C86.5668 78.1572 84.8604 79.8637 84.8604 81.9602C84.8604 84.0567 86.5668 85.7632 88.6633 85.7632C90.7598 85.7632 92.4663 84.0567 92.4663 81.9602C92.4663 79.8637 90.7598 78.1572 88.6633 78.1572ZM88.6633 83.301C87.9076 83.301 87.2982 82.6915 87.2982 81.9358C87.2982 81.1801 87.9076 80.5707 88.6633 80.5707C89.419 80.5707 90.0285 81.1801 90.0285 81.9358C90.0285 82.6915 89.419 83.301 88.6633 83.301Z" fill="#788E72"/>
<path d="M4.36377 91.759C4.36377 93.8555 6.07023 95.562 8.16675 95.562C10.2633 95.562 11.9697 93.8555 11.9697 91.759C11.9697 89.6625 10.2633 87.9561 8.16675 87.9561C6.07023 87.9561 4.36377 89.6625 4.36377 91.759ZM9.53192 91.759C9.53192 92.5148 8.92246 93.1242 8.16675 93.1242C7.41103 93.1242 6.80157 92.5148 6.80157 91.759C6.80157 91.0033 7.41103 90.3939 8.16675 90.3939C8.92246 90.3939 9.53192 91.0033 9.53192 91.759Z" fill="#788E72"/>
<path d="M24.1589 87.9561C22.0624 87.9561 20.356 89.6625 20.356 91.759C20.356 93.8555 22.0624 95.562 24.1589 95.562C26.2554 95.562 27.9619 93.8555 27.9619 91.759C27.9619 89.6625 26.2554 87.9561 24.1589 87.9561ZM24.1589 93.0998C23.4032 93.0998 22.7938 92.4904 22.7938 91.7347C22.7938 90.9789 23.4032 90.3695 24.1589 90.3695C24.9147 90.3695 25.5241 90.9789 25.5241 91.7347C25.5241 92.4904 24.9147 93.0998 24.1589 93.0998Z" fill="#788E72"/>
<path d="M40.6868 95.5386C42.7833 95.5386 44.4897 93.8321 44.4897 91.7356C44.4897 89.6391 42.7833 87.9326 40.6868 87.9326C38.5903 87.9326 36.8838 89.6391 36.8838 91.7356C36.8838 93.8321 38.5903 95.5386 40.6868 95.5386ZM40.6868 90.3948C41.4425 90.3948 42.0519 91.0043 42.0519 91.76C42.0519 92.5157 41.4425 93.1251 40.6868 93.1251C39.931 93.1251 39.3216 92.5157 39.3216 91.76C39.3216 91.0043 39.931 90.3948 40.6868 90.3948Z" fill="#788E72"/>
<path d="M56.4597 87.9561C54.3632 87.9561 52.6567 89.6625 52.6567 91.759C52.6567 93.8555 54.3632 95.562 56.4597 95.562C58.5562 95.562 60.2627 93.8555 60.2627 91.759C60.2627 89.6625 58.5562 87.9561 56.4597 87.9561ZM56.4597 93.0998C55.704 93.0998 55.0945 92.4904 55.0945 91.7347C55.0945 90.9789 55.704 90.3695 56.4597 90.3695C57.2154 90.3695 57.8249 90.9789 57.8249 91.7347C57.8249 92.4904 57.2154 93.0998 56.4597 93.0998Z" fill="#788E72"/>
<path d="M72.8176 95.5386C74.9141 95.5386 76.6206 93.8321 76.6206 91.7356C76.6206 89.6391 74.9141 87.9326 72.8176 87.9326C70.7211 87.9326 69.0146 89.6391 69.0146 91.7356C69.0146 93.8321 70.7211 95.5386 72.8176 95.5386ZM72.8176 90.3948C73.5733 90.3948 74.1828 91.0043 74.1828 91.76C74.1828 92.5157 73.5733 93.1251 72.8176 93.1251C72.0619 93.1251 71.4525 92.5157 71.4525 91.76C71.4525 91.0043 72.0619 90.3948 72.8176 90.3948Z" fill="#788E72"/>
<path d="M84.8604 91.759C84.8604 93.8555 86.5668 95.562 88.6633 95.562C90.7598 95.562 92.4663 93.8555 92.4663 91.759C92.4663 89.6625 90.7598 87.9561 88.6633 87.9561C86.5668 87.9561 84.8604 89.6625 84.8604 91.759ZM90.0285 91.759C90.0285 92.5148 89.419 93.1242 88.6633 93.1242C87.9076 93.1242 87.2982 92.5148 87.2982 91.759C87.2982 91.0033 87.9076 90.3939 88.6633 90.3939C89.419 90.3939 90.0285 91.0033 90.0285 91.759Z" fill="#788E72"/>
<path d="M49.7306 51.2425C60.6032 51.2425 69.4524 42.3932 69.4524 31.4963C69.4524 20.5993 60.6032 11.7744 49.7306 11.7744C38.858 11.7744 29.9844 20.6236 29.9844 31.4963C29.9844 42.3689 38.8336 51.2425 49.7306 51.2425ZM49.7306 14.1391C59.3112 14.1391 67.1121 21.9401 67.1121 31.5206C67.1121 41.1012 59.3112 48.9022 49.7306 48.9022C40.15 48.9022 32.349 41.1012 32.349 31.5206C32.349 21.9401 40.15 14.1391 49.7306 14.1391Z" fill="#788E72"/>
<path d="M40.7113 37.9324V43.1249C40.7113 43.4662 41.0038 43.7588 41.3451 43.7588C41.6864 43.7588 41.979 43.4662 41.979 43.1249V37.9324C43.9048 37.6155 45.3675 35.9578 45.3675 33.9588C45.3675 31.9598 43.9048 30.3021 41.979 29.9852V19.917C41.979 19.5757 41.6864 19.2832 41.3451 19.2832C41.0038 19.2832 40.7113 19.5757 40.7113 19.917V29.9852C38.7854 30.3021 37.3228 31.9598 37.3228 33.9588C37.3228 35.9578 38.7854 37.6155 40.7113 37.9324ZM41.3451 31.2041C42.8566 31.2041 44.0999 32.4473 44.0999 33.9588C44.0999 35.4702 42.8566 36.7135 41.3451 36.7135C39.8337 36.7135 38.5904 35.4702 38.5904 33.9588C38.5904 32.4473 39.8337 31.2041 41.3451 31.2041Z" fill="#788E72"/>
<path d="M49.0975 33.0568V43.1249C49.0975 43.4662 49.3901 43.7588 49.7314 43.7588C50.0727 43.7588 50.3652 43.4662 50.3652 43.1249V33.0568C52.2911 32.7399 53.7537 31.0822 53.7537 29.0832C53.7537 27.0842 52.2911 25.4265 50.3652 25.1096V19.917C50.3652 19.5757 50.0727 19.2832 49.7314 19.2832C49.3901 19.2832 49.0975 19.5757 49.0975 19.917V25.1096C47.1717 25.4265 45.709 27.0842 45.709 29.0832C45.709 31.0822 47.1717 32.7399 49.0975 33.0568ZM49.7314 26.3285C51.2428 26.3285 52.4861 27.5717 52.4861 29.0832C52.4861 30.5946 51.2428 31.8379 49.7314 31.8379C48.2199 31.8379 46.9766 30.5946 46.9766 29.0832C46.9766 27.5717 48.2199 26.3285 49.7314 26.3285Z" fill="#788E72"/>
<path d="M57.4593 37.1045V43.1259C57.4593 43.4672 57.7519 43.7597 58.0932 43.7597C58.4345 43.7597 58.727 43.4672 58.727 43.1259V37.1045C60.6529 36.7876 62.1156 35.1299 62.1156 33.1309C62.1156 31.1319 60.6529 29.4742 58.727 29.1573V19.8936C58.727 19.5523 58.4345 19.2598 58.0932 19.2598C57.7519 19.2598 57.4593 19.5523 57.4593 19.8936V29.1573C55.5335 29.4742 54.0708 31.1319 54.0708 33.1309C54.0708 35.1299 55.5335 36.7876 57.4593 37.1045ZM58.0932 30.3762C59.6046 30.3762 60.8479 31.6194 60.8479 33.1309C60.8479 34.6423 59.6046 35.8856 58.0932 35.8856C56.5817 35.8856 55.3385 34.6423 55.3385 33.1309C55.3385 31.6194 56.5817 30.3762 58.0932 30.3762Z" fill="#788E72"/>
</svg>
