<svg width="60" height="60" viewBox="0 0 60 60" fill="none" xmlns="http://www.w3.org/2000/svg">
<g clip-path="url(#clip0_226_2777)">
<path d="M53.0899 42.3425C52.7608 42.2061 52.3821 42.2815 52.1301 42.5333L42.506 52.1575C42.2541 52.4094 42.1788 52.7882 42.3152 53.1172C42.4513 53.4464 42.7727 53.6609 43.1288 53.6609H52.753C53.2394 53.6609 53.6336 53.2666 53.6336 52.7802V43.156C53.6335 42.7999 53.4189 42.4788 53.0899 42.3425ZM45.2546 51.8996L51.8721 45.2822V51.8996H45.2546Z" fill="white"/>
<path d="M59.4565 28.2268C59.1274 28.0903 58.7487 28.1657 58.4967 28.4175L55.8592 31.0551V13.1217C55.8592 12.6353 55.4648 12.2411 54.9785 12.2411H48.212L50.6682 9.7848C50.6686 9.78445 50.6689 9.78398 50.6693 9.78363L53.036 7.41691C53.5431 6.90984 53.8223 6.23531 53.8223 5.51812C53.8223 4.80093 53.5431 4.12663 53.036 3.61932L50.2992 0.882521C49.7921 0.37545 49.1176 0.0961914 48.4004 0.0961914C47.6832 0.0961914 47.0088 0.37545 46.5016 0.882521L44.1337 3.25042L41.2725 6.11167L35.1432 12.2409H7.80705V3.52862C7.80705 3.04217 7.41271 2.64795 6.92638 2.64795C3.10723 2.64819 0 5.75519 0 9.57457V46.9793C0 47.0443 0.00750002 47.1076 0.0208594 47.1685C0.1425 48.7891 0.843635 50.2948 2.01539 51.4379C3.2679 52.6595 4.9213 53.3322 6.67115 53.3322H33.5819L28.5136 58.4005C28.2618 58.6524 28.1865 59.0311 28.3228 59.3603C28.459 59.6893 28.7803 59.9039 29.1364 59.9039H59.1195C59.6058 59.9039 60.0001 59.5097 60.0001 59.0232V29.0404C60.0001 28.6843 59.7854 28.363 59.4565 28.2268ZM47.7473 2.12811C48.1073 1.76787 48.6938 1.76787 49.0538 2.12811L51.7908 4.86503C52.151 5.22515 52.151 5.81144 51.7908 6.17167L50.0457 7.91683L46.002 3.87327L47.7473 2.12811ZM44.7566 5.11874L48.8001 9.16219L47.1842 10.7781L43.1409 6.73464L44.7566 5.11874ZM58.239 38.936H56.6142C56.1278 38.936 55.7335 39.3302 55.7335 39.8166C55.7335 40.3031 56.1278 40.6973 56.6142 40.6973H58.239V43.3511H56.6142C56.1278 43.3511 55.7335 43.7453 55.7335 44.2318C55.7335 44.7182 56.1278 45.1125 56.6142 45.1125H58.239V47.7662H56.6142C56.1278 47.7662 55.7335 48.1604 55.7335 48.6468C55.7335 49.1333 56.1278 49.5275 56.6142 49.5275H58.239V52.1813H56.6142C56.1278 52.1813 55.7335 52.5757 55.7335 53.062C55.7335 53.5484 56.1278 53.9427 56.6142 53.9427H58.239V58.1429H31.2624L40.1579 49.2475C40.5018 48.9035 40.5018 48.346 40.1579 48.0021C40.1184 47.9626 40.076 47.9284 40.0316 47.8979C39.6887 47.663 39.2169 47.6976 38.9123 48.0021L35.3432 51.5711H6.67126C4.00032 51.5711 1.85016 49.4859 1.76555 46.8198C1.77059 46.6524 1.7836 46.4865 1.80446 46.3224C1.80457 46.3215 1.80469 46.3205 1.80481 46.3196C1.81465 46.2417 1.82649 46.1641 1.83996 46.087C1.84149 46.0782 1.84313 46.0694 1.84465 46.0606C1.85696 45.9918 1.87078 45.9234 1.8859 45.8552C1.89012 45.8362 1.89457 45.8172 1.89903 45.7984C1.91239 45.7407 1.9268 45.6834 1.94227 45.6263C1.95071 45.5954 1.9595 45.5648 1.96852 45.534C1.98141 45.4892 1.99477 45.4446 2.00895 45.4004C2.02313 45.3562 2.03825 45.3125 2.0536 45.2688C2.06426 45.2382 2.07481 45.2076 2.08629 45.1773C2.10774 45.1196 2.13047 45.0625 2.15391 45.0059C2.16059 44.9896 2.16715 44.9731 2.17407 44.9568C2.20418 44.8865 2.23547 44.817 2.26852 44.7484C2.26993 44.7454 2.27122 44.7425 2.27262 44.7396C2.96145 43.3141 4.28626 42.2513 5.87614 41.9215C5.8806 41.9206 5.88505 41.9196 5.8895 41.9186C5.96239 41.9037 6.03599 41.891 6.11005 41.8791C6.12236 41.8771 6.13466 41.8747 6.1472 41.8728C6.21411 41.8626 6.28173 41.8546 6.34935 41.847C6.36833 41.8449 6.3872 41.842 6.4063 41.8401C6.47158 41.8335 6.53743 41.8292 6.60329 41.8251C6.62415 41.8238 6.64501 41.8216 6.66587 41.8205C6.75212 41.8162 6.83908 41.814 6.92638 41.814C7.41271 41.814 7.80705 41.4197 7.80705 40.9333V34.5479C7.80705 34.0614 7.41271 33.6672 6.92638 33.6672C6.44005 33.6672 6.04572 34.0614 6.04572 34.5479V40.1081C4.5586 40.2962 3.17825 40.9594 2.08981 42.0223C1.97532 42.1341 1.8668 42.2504 1.7611 42.3685V9.57457C1.7611 7.02679 3.61571 4.9037 6.0456 4.4844V13.1217V31.0253V31.0254C6.0456 31.5118 6.43993 31.9061 6.92626 31.9061C7.41259 31.9061 7.80693 31.5118 7.80693 31.0254V31.0253V14.0024H33.382L28.5135 18.8708C28.1696 19.2149 28.1696 19.7724 28.5135 20.1163C28.8575 20.4601 29.4151 20.4601 29.7589 20.1163L36.1307 13.7445C36.131 13.7442 36.1311 13.744 36.1313 13.7439L41.8952 7.98L45.9385 12.0236L45.4642 12.4979C45.4638 12.4983 45.4633 12.4986 45.463 12.499L27.7058 30.2564L23.6623 26.213L27.1625 22.7128C27.5064 22.3688 27.5064 21.8113 27.1625 21.4674C26.8185 21.1235 26.2609 21.1235 25.9171 21.4674L21.7941 25.5903C21.7721 25.6123 21.7514 25.6356 21.7321 25.6595C21.7257 25.6675 21.7199 25.676 21.7138 25.6844C21.7014 25.7009 21.6892 25.7175 21.6779 25.7349C21.6714 25.745 21.6656 25.7553 21.6595 25.7657C21.6497 25.7821 21.6404 25.7987 21.6318 25.8157C21.6262 25.8267 21.6211 25.8379 21.616 25.8494C21.6081 25.8666 21.6009 25.8842 21.5942 25.9017C21.5918 25.908 21.5888 25.9138 21.5866 25.92L19.8708 30.7804L18.7011 34.0943C18.6856 34.1384 18.6745 34.1832 18.6661 34.2283H15.7374C15.251 34.2283 14.8567 34.6225 14.8567 35.109C14.8567 35.5954 15.251 35.9896 15.7374 35.9896H40.1258C40.6122 35.9896 41.0064 35.5954 41.0064 35.109C41.0064 34.6225 40.6122 34.2283 40.1258 34.2283H22.6281L27.9988 32.3324C28.0033 32.3308 28.0075 32.3286 28.012 32.3269C28.0328 32.3192 28.0533 32.3105 28.0736 32.3013C28.0817 32.2975 28.0898 32.294 28.0976 32.2901C28.1187 32.2796 28.1395 32.268 28.1599 32.2556C28.1664 32.2516 28.1732 32.2479 28.1797 32.2438C28.2009 32.2302 28.2215 32.2154 28.2418 32.1997C28.2468 32.1958 28.2521 32.1924 28.257 32.1884C28.2815 32.1687 28.3055 32.1475 28.3283 32.1248L46.4506 14.0025H54.0977V32.8165L41.5005 45.4139C41.1566 45.7579 41.1566 46.3154 41.5005 46.6593C41.522 46.6808 41.5443 46.7009 41.5674 46.7198C41.7289 46.8514 41.9261 46.9173 42.1232 46.9173C42.3204 46.9173 42.5177 46.8514 42.6791 46.7198C42.7022 46.701 42.7245 46.6808 42.746 46.6593C42.7463 46.659 42.746 46.6593 42.7463 46.659L58.239 31.1662V38.936ZM26.095 31.1364L23.5724 32.0269L21.8917 30.3462L22.7822 27.8236L26.095 31.1364Z" fill="white"/>
</g>
<defs>
<clipPath id="clip0_226_2777">
<rect width="60" height="60" fill="white"/>
</clipPath>
</defs>
</svg>
