<svg width="122" height="120" viewBox="0 0 122 120" fill="none" xmlns="http://www.w3.org/2000/svg">
<path d="M119.495 119.516H2.50527C1.66232 119.516 1 118.854 1 118.011C1 117.168 1.66232 116.506 2.50527 116.506H119.495C120.338 116.506 121 117.168 121 118.011C121 118.854 120.338 119.516 119.495 119.516Z" fill="white"/>
<path d="M119.495 83.5101H2.50527C1.66232 83.5101 1 82.8177 1 81.9748C1 81.1318 1.66232 80.4695 2.50527 80.4695H119.495C120.338 80.4695 121 81.1318 121 81.9748C121 82.8177 120.338 83.48 119.495 83.48V83.5101Z" fill="white"/>
<path d="M119.495 113.164H2.50527C1.66232 113.164 1 112.502 1 111.659C1 110.816 1.66232 110.153 2.50527 110.153H119.495C120.338 110.153 121 110.816 121 111.659C121 112.502 120.338 113.164 119.495 113.164Z" fill="white"/>
<path d="M11.1455 95.4921C8.55645 95.4921 6.41897 93.3847 6.41897 90.7655C6.41897 88.1464 8.52634 86.039 11.1455 86.039C13.7647 86.039 15.8721 88.1464 15.8721 90.7655C15.8721 93.3847 13.7647 95.4921 11.1455 95.4921ZM11.1455 89.0796C10.2122 89.0796 9.45961 89.8323 9.45961 90.7655C9.45961 91.6988 10.2122 92.4514 11.1455 92.4514C12.0788 92.4514 12.8314 91.6988 12.8314 90.7655C12.8314 89.8323 12.0788 89.0796 11.1455 89.0796Z" fill="white"/>
<path d="M31.1054 95.4921C28.5163 95.4921 26.3788 93.3847 26.3788 90.7655C26.3788 88.1464 28.4862 86.039 31.1054 86.039C33.7245 86.039 35.8319 88.1464 35.8319 90.7655C35.8319 93.3847 33.7245 95.4921 31.1054 95.4921ZM31.1054 89.0796C30.1721 89.0796 29.4195 89.8323 29.4195 90.7655C29.4195 91.6988 30.1721 92.4514 31.1054 92.4514C32.0386 92.4514 32.7913 91.6988 32.7913 90.7655C32.7913 89.8323 32.0386 89.0796 31.1054 89.0796Z" fill="white"/>
<path d="M51.0953 95.4921C48.5063 95.4921 46.3688 93.3847 46.3688 90.7655C46.3688 88.1464 48.4762 86.039 51.0953 86.039C53.7145 86.039 55.8219 88.1464 55.8219 90.7655C55.8219 93.3847 53.7145 95.4921 51.0953 95.4921ZM51.0953 89.0796C50.1621 89.0796 49.4094 89.8323 49.4094 90.7655C49.4094 91.6988 50.1621 92.4514 51.0953 92.4514C52.0286 92.4514 52.7812 91.6988 52.7812 90.7655C52.7812 89.8323 52.0286 89.0796 51.0953 89.0796Z" fill="white"/>
<path d="M71.0853 95.4921C68.4962 95.4921 66.3588 93.3847 66.3588 90.7655C66.3588 88.1464 68.4661 86.039 71.0853 86.039C73.7045 86.039 75.8118 88.1464 75.8118 90.7655C75.8118 93.3847 73.7045 95.4921 71.0853 95.4921ZM71.0853 89.0796C70.152 89.0796 69.3994 89.8323 69.3994 90.7655C69.3994 91.6988 70.152 92.4514 71.0853 92.4514C72.0186 92.4514 72.7712 91.6988 72.7712 90.7655C72.7712 89.8323 72.0186 89.0796 71.0853 89.0796Z" fill="white"/>
<path d="M91.0452 95.4921C88.4561 95.4921 86.3186 93.3847 86.3186 90.7655C86.3186 88.1464 88.426 86.039 91.0452 86.039C93.6643 86.039 95.7717 88.1464 95.7717 90.7655C95.7717 93.3847 93.6643 95.4921 91.0452 95.4921ZM91.0452 89.0796C90.1119 89.0796 89.3593 89.8323 89.3593 90.7655C89.3593 91.6988 90.1119 92.4514 91.0452 92.4514C91.9784 92.4514 92.7311 91.6988 92.7311 90.7655C92.7311 89.8323 91.9784 89.0796 91.0452 89.0796Z" fill="white"/>
<path d="M111.035 95.4921C108.446 95.4921 106.309 93.3847 106.309 90.7655C106.309 88.1464 108.416 86.039 111.035 86.039C113.654 86.039 115.762 88.1464 115.762 90.7655C115.762 93.3847 113.654 95.4921 111.035 95.4921ZM111.035 89.0796C110.102 89.0796 109.349 89.8323 109.349 90.7655C109.349 91.6988 110.102 92.4514 111.035 92.4514C111.968 92.4514 112.721 91.6988 112.721 90.7655C112.721 89.8323 111.968 89.0796 111.035 89.0796Z" fill="white"/>
<path d="M11.1455 107.655C8.55645 107.655 6.41897 105.547 6.41897 102.928C6.41897 100.309 8.52634 98.2015 11.1455 98.2015C13.7647 98.2015 15.8721 100.309 15.8721 102.928C15.8721 105.547 13.7647 107.655 11.1455 107.655ZM11.1455 101.242C10.2122 101.242 9.45961 101.995 9.45961 102.928C9.45961 103.861 10.2122 104.614 11.1455 104.614C12.0788 104.614 12.8314 103.861 12.8314 102.928C12.8314 101.995 12.0788 101.242 11.1455 101.242Z" fill="white"/>
<path d="M30.9849 107.655C28.3959 107.655 26.2584 105.547 26.2584 102.928C26.2584 100.309 28.3658 98.2015 30.9849 98.2015C33.6041 98.2015 35.7115 100.309 35.7115 102.928C35.7115 105.547 33.6041 107.655 30.9849 107.655ZM30.9849 101.242C30.0517 101.242 29.299 101.995 29.299 102.928C29.299 103.861 30.0517 104.614 30.9849 104.614C31.9182 104.614 32.6708 103.861 32.6708 102.928C32.6708 101.995 31.9182 101.242 30.9849 101.242Z" fill="white"/>
<path d="M51.4867 107.655C48.8976 107.655 46.7602 105.547 46.7602 102.928C46.7602 100.309 48.8675 98.2015 51.4867 98.2015C54.1059 98.2015 56.2132 100.309 56.2132 102.928C56.2132 105.547 54.1059 107.655 51.4867 107.655ZM51.4867 101.242C50.5534 101.242 49.8008 101.995 49.8008 102.928C49.8008 103.861 50.5534 104.614 51.4867 104.614C52.42 104.614 53.1726 103.861 53.1726 102.928C53.1726 101.995 52.42 101.242 51.4867 101.242Z" fill="white"/>
<path d="M71.0853 107.655C68.4962 107.655 66.3588 105.547 66.3588 102.928C66.3588 100.309 68.4661 98.2015 71.0853 98.2015C73.7045 98.2015 75.8118 100.309 75.8118 102.928C75.8118 105.547 73.7045 107.655 71.0853 107.655ZM71.0853 101.242C70.152 101.242 69.3994 101.995 69.3994 102.928C69.3994 103.861 70.152 104.614 71.0853 104.614C72.0186 104.614 72.7712 103.861 72.7712 102.928C72.7712 101.995 72.0186 101.242 71.0853 101.242Z" fill="white"/>
<path d="M91.3763 107.655C88.7873 107.655 86.6498 105.547 86.6498 102.928C86.6498 100.309 88.7571 98.2015 91.3763 98.2015C93.9955 98.2015 96.1029 100.309 96.1029 102.928C96.1029 105.547 93.9955 107.655 91.3763 107.655ZM91.3763 101.242C90.443 101.242 89.6904 101.995 89.6904 102.928C89.6904 103.861 90.443 104.614 91.3763 104.614C92.3096 104.614 93.0622 103.861 93.0622 102.928C93.0622 101.995 92.3096 101.242 91.3763 101.242Z" fill="white"/>
<path d="M111.035 107.655C108.446 107.655 106.309 105.547 106.309 102.928C106.309 100.309 108.416 98.2015 111.035 98.2015C113.654 98.2015 115.762 100.309 115.762 102.928C115.762 105.547 113.654 107.655 111.035 107.655ZM111.035 101.242C110.102 101.242 109.349 101.995 109.349 102.928C109.349 103.861 110.102 104.614 111.035 104.614C111.968 104.614 112.721 103.861 112.721 102.928C112.721 101.995 111.968 101.242 111.035 101.242Z" fill="white"/>
<path d="M47.6032 45.0958C47.6935 46.3603 47.4226 47.5946 46.1882 48.4676C46.0377 48.5579 46.128 49.0396 46.1882 49.3106C46.6699 51.0567 47.1817 52.8028 47.6634 54.5489C48.5365 57.6498 46.7301 60.3894 43.5089 60.5098C39.5651 60.6603 35.6212 60.6603 31.6774 60.5098C28.4562 60.3894 26.6197 57.6799 27.4627 54.579C27.9444 52.8329 28.4261 51.0868 28.968 49.3407C29.1185 48.7988 29.0282 48.5278 28.6669 48.0763C28.1551 47.4742 27.6734 46.6312 27.6734 45.9087C27.5831 41.152 27.5831 36.3954 27.6734 31.6387C27.6734 30.8861 28.2153 30.1034 28.6669 29.4711C28.968 29.0798 29.1486 28.8389 28.9981 28.3271C28.4562 26.5208 27.9444 24.7145 27.4627 22.9082C26.6499 19.8675 28.5766 17.1581 31.7076 17.0677C35.6213 16.9774 39.535 16.9774 43.4486 17.0677C46.6097 17.1279 48.5666 19.8976 47.7236 22.9684C47.2419 24.7145 46.7602 26.4606 46.2183 28.1766C46.0377 28.7185 46.0377 29.1099 46.5796 29.5013C47.6032 30.2539 47.6333 31.3979 47.5731 32.6322C47.9042 32.6322 48.2053 32.6924 48.5063 32.6924C54.9188 32.4516 61.3613 32.2107 67.7738 31.9699C72.5304 31.7893 77.257 31.6086 82.0136 31.4581C83.4587 31.428 84.3618 32.7225 83.6092 33.7762C83.3082 34.1977 82.6458 34.5288 82.1642 34.559C76.986 34.7998 71.838 35.0105 66.6599 35.1912C60.5786 35.432 54.4973 35.6427 48.4461 35.8535C48.2053 35.8535 47.9645 35.9137 47.6634 35.9438V41.6036C48.0247 41.6036 48.3859 41.6939 48.7472 41.6939C60.7893 42.1455 72.8315 42.567 84.9037 43.0186C88.6067 43.139 92.3097 43.3196 96.0126 43.44C98.2103 43.5002 99.0834 42.6573 99.1135 40.4596C99.1135 39.2855 99.1135 38.0813 99.1135 36.9072C99.0834 34.9804 98.1501 34.0773 96.2535 34.1375C94.2063 34.1977 92.129 34.288 90.0819 34.3482C89.2991 34.3783 88.6368 34.1676 88.2755 33.3848C87.8541 32.4516 88.3659 31.3076 89.4195 31.2474C92.0387 31.0667 94.6579 30.856 97.277 31.0065C100.017 31.157 101.973 33.0838 102.275 35.8234C102.485 37.8103 102.485 39.8876 102.275 41.8746C101.913 44.8249 99.4446 46.7817 96.4943 46.6914C88.697 46.4205 80.9298 46.0893 73.1325 45.7883C66.7502 45.5474 60.3378 45.3066 53.9554 45.0958C51.9083 45.0356 49.8611 45.0958 47.7236 45.0958H47.6032ZM30.8646 45.5474H44.3518V32.1505H30.8646V45.5474ZM37.6082 28.8389C39.0834 28.8389 40.5284 28.8389 42.0036 28.8389C42.3046 28.8389 42.7863 28.5981 42.8465 28.3874C43.5089 26.3101 44.111 24.2027 44.6529 22.0652C44.9238 20.9814 44.412 20.3793 43.2981 20.3492C39.5048 20.3492 35.6815 20.3492 31.8882 20.3492C30.7442 20.3492 30.2625 21.0416 30.5635 22.1254C31.1054 24.1124 31.7076 26.0692 32.2193 28.0562C32.4 28.7185 32.701 28.869 33.3031 28.8389C34.7181 28.8088 36.1631 28.8389 37.5781 28.8389H37.6082ZM37.6383 57.3487C39.4145 57.3487 41.1907 57.3487 42.9971 57.3487C44.5324 57.3487 44.984 56.6864 44.5926 55.2112C44.0809 53.3748 43.539 51.5384 43.0272 49.6718C42.8766 49.0998 42.6358 48.7988 41.9735 48.8289C39.0834 48.859 36.1631 48.859 33.273 48.8289C32.6107 48.8289 32.3699 49.0697 32.2193 49.6718C31.7377 51.5384 31.1657 53.3447 30.6539 55.2112C30.2324 56.7466 30.684 57.3487 32.3398 57.3487C34.116 57.3487 35.8922 57.3487 37.6985 57.3487H37.6383Z" fill="white"/>
<path d="M53.8952 63.5805C52.6308 63.5504 51.1556 62.3161 51.1556 61.2925C51.1556 60.3894 51.848 59.727 52.7813 59.7571C54.0156 59.7873 55.551 61.0818 55.551 62.0452C55.551 62.9182 54.7984 63.6106 53.8952 63.5805Z" fill="white"/>
<path d="M29.1787 66.1395C29.4195 66.3201 29.9313 66.5309 30.1722 66.9222C30.8044 67.8254 30.1722 68.6382 29.7507 69.421C29.3593 70.1134 28.8776 70.6553 28.0347 70.5048C27.6132 70.4144 27.1315 70.1435 26.8606 69.7822C26.3187 69.0597 26.68 68.3372 27.0713 67.6448C27.4928 66.9222 27.8842 66.1696 29.1787 66.1395Z" fill="white"/>
<path d="M24.0909 60.9614C24.0006 62.4365 23.1275 62.8881 22.3147 63.2193C21.7427 63.43 20.9298 63.5203 20.3879 63.3096C19.6353 63.0085 19.5149 62.1957 19.7858 61.4129C20.0869 60.6302 21.9835 59.5464 22.7362 59.8475C23.3082 60.0883 23.7597 60.6904 24.0608 60.9915L24.0909 60.9614Z" fill="white"/>
<path d="M48.9579 68.9393C48.416 69.5414 48.0849 70.2037 47.6032 70.3542C47.1215 70.5048 46.3087 70.3542 45.9173 69.993C45.4055 69.5414 44.984 68.7888 44.8636 68.1264C44.7733 67.6448 45.0442 66.862 45.4356 66.5309C45.7969 66.2298 46.7301 66.1395 47.0011 66.3803C47.7236 67.0727 48.2354 67.9759 48.9278 68.9393H48.9579Z" fill="white"/>
<path d="M36.0427 70.5048C36.0427 70.5048 36.0427 70.1134 36.0728 69.7822C36.2234 68.8791 37.0061 68.3372 37.9093 68.5178C38.7823 68.6984 39.1737 69.3006 39.2038 70.1736C39.2941 71.8595 38.9931 72.6724 38.12 72.9433C36.8255 73.3648 36.0126 72.4917 36.0126 70.4747L36.0427 70.5048Z" fill="white"/>
</svg>
