<svg width="100" height="86" viewBox="0 0 100 86" fill="none" xmlns="http://www.w3.org/2000/svg">
<path d="M98.7456 85.4307H1.25439C0.551932 85.4307 0 84.8787 0 84.1763C0 83.4738 0.551932 82.9219 1.25439 82.9219H98.7456C99.4481 82.9219 100 83.4738 100 84.1763C100 84.8787 99.4481 85.4307 98.7456 85.4307Z" fill="#788E72"/>
<path d="M98.7456 55.4264H1.25439C0.551932 55.4264 0 54.8494 0 54.147C0 53.4445 0.551932 52.8926 1.25439 52.8926H98.7456C99.4481 52.8926 100 53.4445 100 54.147C100 54.8494 99.4481 55.4014 98.7456 55.4014V55.4264Z" fill="#788E72"/>
<path d="M98.7456 80.1367H1.25439C0.551932 80.1367 0 79.5848 0 78.8823C0 78.1799 0.551932 77.6279 1.25439 77.6279H98.7456C99.4481 77.6279 100 78.1799 100 78.8823C100 79.5848 99.4481 80.1367 98.7456 80.1367Z" fill="#788E72"/>
<path d="M8.45441 65.4108C6.29686 65.4108 4.51562 63.6546 4.51562 61.472C4.51562 59.2893 6.27177 57.5332 8.45441 57.5332C10.637 57.5332 12.3932 59.2893 12.3932 61.472C12.3932 63.6546 10.637 65.4108 8.45441 65.4108ZM8.45441 60.0671C7.67669 60.0671 7.04949 60.6943 7.04949 61.472C7.04949 62.2497 7.67669 62.8769 8.45441 62.8769C9.23213 62.8769 9.85933 62.2497 9.85933 61.472C9.85933 60.6943 9.23213 60.0671 8.45441 60.0671Z" fill="#788E72"/>
<path d="M25.0872 65.4108C22.9297 65.4108 21.1484 63.6546 21.1484 61.472C21.1484 59.2893 22.9046 57.5332 25.0872 57.5332C27.2699 57.5332 29.026 59.2893 29.026 61.472C29.026 63.6546 27.2699 65.4108 25.0872 65.4108ZM25.0872 60.0671C24.3095 60.0671 23.6823 60.6943 23.6823 61.472C23.6823 62.2497 24.3095 62.8769 25.0872 62.8769C25.8649 62.8769 26.4921 62.2497 26.4921 61.472C26.4921 60.6943 25.8649 60.0671 25.0872 60.0671Z" fill="#788E72"/>
<path d="M41.7474 65.4108C39.5898 65.4108 37.8086 63.6546 37.8086 61.472C37.8086 59.2893 39.5647 57.5332 41.7474 57.5332C43.93 57.5332 45.6862 59.2893 45.6862 61.472C45.6862 63.6546 43.93 65.4108 41.7474 65.4108ZM41.7474 60.0671C40.9697 60.0671 40.3425 60.6943 40.3425 61.472C40.3425 62.2497 40.9697 62.8769 41.7474 62.8769C42.5251 62.8769 43.1523 62.2497 43.1523 61.472C43.1523 60.6943 42.5251 60.0671 41.7474 60.0671Z" fill="#788E72"/>
<path d="M58.4046 65.4108C56.2471 65.4108 54.4658 63.6546 54.4658 61.472C54.4658 59.2893 56.222 57.5332 58.4046 57.5332C60.5872 57.5332 62.3434 59.2893 62.3434 61.472C62.3434 63.6546 60.5872 65.4108 58.4046 65.4108ZM58.4046 60.0671C57.6269 60.0671 56.9997 60.6943 56.9997 61.472C56.9997 62.2497 57.6269 62.8769 58.4046 62.8769C59.1823 62.8769 59.8095 62.2497 59.8095 61.472C59.8095 60.6943 59.1823 60.0671 58.4046 60.0671Z" fill="#788E72"/>
<path d="M75.0374 65.4108C72.8799 65.4108 71.0986 63.6546 71.0986 61.472C71.0986 59.2893 72.8548 57.5332 75.0374 57.5332C77.2201 57.5332 78.9762 59.2893 78.9762 61.472C78.9762 63.6546 77.2201 65.4108 75.0374 65.4108ZM75.0374 60.0671C74.2597 60.0671 73.6325 60.6943 73.6325 61.472C73.6325 62.2497 74.2597 62.8769 75.0374 62.8769C75.8151 62.8769 76.4423 62.2497 76.4423 61.472C76.4423 60.6943 75.8151 60.0671 75.0374 60.0671Z" fill="#788E72"/>
<path d="M91.6976 65.4108C89.54 65.4108 87.7588 63.6546 87.7588 61.472C87.7588 59.2893 89.5149 57.5332 91.6976 57.5332C93.8802 57.5332 95.6364 59.2893 95.6364 61.472C95.6364 63.6546 93.8802 65.4108 91.6976 65.4108ZM91.6976 60.0671C90.9199 60.0671 90.2927 60.6943 90.2927 61.472C90.2927 62.2497 90.9199 62.8769 91.6976 62.8769C92.4753 62.8769 93.1025 62.2497 93.1025 61.472C93.1025 60.6943 92.4753 60.0671 91.6976 60.0671Z" fill="#788E72"/>
<path d="M8.45441 75.5465C6.29686 75.5465 4.51562 73.7904 4.51562 71.6077C4.51562 69.4251 6.27177 67.6689 8.45441 67.6689C10.637 67.6689 12.3932 69.4251 12.3932 71.6077C12.3932 73.7904 10.637 75.5465 8.45441 75.5465ZM8.45441 70.2028C7.67669 70.2028 7.04949 70.83 7.04949 71.6077C7.04949 72.3855 7.67669 73.0127 8.45441 73.0127C9.23213 73.0127 9.85933 72.3855 9.85933 71.6077C9.85933 70.83 9.23213 70.2028 8.45441 70.2028Z" fill="#788E72"/>
<path d="M24.9866 75.5465C22.8291 75.5465 21.0479 73.7904 21.0479 71.6077C21.0479 69.4251 22.804 67.6689 24.9866 67.6689C27.1693 67.6689 28.9254 69.4251 28.9254 71.6077C28.9254 73.7904 27.1693 75.5465 24.9866 75.5465ZM24.9866 70.2028C24.2089 70.2028 23.5817 70.83 23.5817 71.6077C23.5817 72.3855 24.2089 73.0127 24.9866 73.0127C25.7644 73.0127 26.3916 72.3855 26.3916 71.6077C26.3916 70.83 25.7644 70.2028 24.9866 70.2028Z" fill="#788E72"/>
<path d="M42.0726 75.5465C39.915 75.5465 38.1338 73.7904 38.1338 71.6077C38.1338 69.4251 39.8899 67.6689 42.0726 67.6689C44.2552 67.6689 46.0114 69.4251 46.0114 71.6077C46.0114 73.7904 44.2552 75.5465 42.0726 75.5465ZM42.0726 70.2028C41.2949 70.2028 40.6677 70.83 40.6677 71.6077C40.6677 72.3855 41.2949 73.0127 42.0726 73.0127C42.8503 73.0127 43.4775 72.3855 43.4775 71.6077C43.4775 70.83 42.8503 70.2028 42.0726 70.2028Z" fill="#788E72"/>
<path d="M58.4046 75.5465C56.2471 75.5465 54.4658 73.7904 54.4658 71.6077C54.4658 69.4251 56.222 67.6689 58.4046 67.6689C60.5872 67.6689 62.3434 69.4251 62.3434 71.6077C62.3434 73.7904 60.5872 75.5465 58.4046 75.5465ZM58.4046 70.2028C57.6269 70.2028 56.9997 70.83 56.9997 71.6077C56.9997 72.3855 57.6269 73.0127 58.4046 73.0127C59.1823 73.0127 59.8095 72.3855 59.8095 71.6077C59.8095 70.83 59.1823 70.2028 58.4046 70.2028Z" fill="#788E72"/>
<path d="M75.3138 75.5465C73.1562 75.5465 71.375 73.7904 71.375 71.6077C71.375 69.4251 73.1311 67.6689 75.3138 67.6689C77.4964 67.6689 79.2526 69.4251 79.2526 71.6077C79.2526 73.7904 77.4964 75.5465 75.3138 75.5465ZM75.3138 70.2028C74.5361 70.2028 73.9089 70.83 73.9089 71.6077C73.9089 72.3855 74.5361 73.0127 75.3138 73.0127C76.0915 73.0127 76.7187 72.3855 76.7187 71.6077C76.7187 70.83 76.0915 70.2028 75.3138 70.2028Z" fill="#788E72"/>
<path d="M91.6976 75.5465C89.54 75.5465 87.7588 73.7904 87.7588 71.6077C87.7588 69.4251 89.5149 67.6689 91.6976 67.6689C93.8802 67.6689 95.6364 69.4251 95.6364 71.6077C95.6364 73.7904 93.8802 75.5465 91.6976 75.5465ZM91.6976 70.2028C90.9199 70.2028 90.2927 70.83 90.2927 71.6077C90.2927 72.3855 90.9199 73.0127 91.6976 73.0127C92.4753 73.0127 93.1025 72.3855 93.1025 71.6077C93.1025 70.83 92.4753 70.2028 91.6976 70.2028Z" fill="#788E72"/>
<path d="M38.8368 23.4132C38.912 24.4669 38.6862 25.4955 37.6576 26.223C37.5322 26.2983 37.6075 26.6997 37.6576 26.9255C38.059 28.3806 38.4855 29.8357 38.8869 31.2908C39.6145 33.8748 38.1092 36.1578 35.4248 36.2581C32.1383 36.3836 28.8518 36.3836 25.5653 36.2581C22.8809 36.1578 21.3506 33.8999 22.053 31.3159C22.4544 29.8608 22.8558 28.4057 23.3074 26.9506C23.4328 26.499 23.3576 26.2732 23.0565 25.8969C22.63 25.3951 22.2286 24.6927 22.2286 24.0906C22.1534 20.1267 22.1534 16.1628 22.2286 12.1989C22.2286 11.5717 22.6802 10.9195 23.0565 10.3926C23.3074 10.0665 23.4579 9.86578 23.3325 9.43929C22.8809 7.93402 22.4544 6.42875 22.053 4.92348C21.3756 2.38961 22.9813 0.131711 25.5904 0.0564476C28.8518 -0.0188159 32.1132 -0.0188159 35.3746 0.0564476C38.0089 0.106623 39.6396 2.4147 38.9371 4.97366C38.5357 6.42875 38.1343 7.88384 37.6827 9.31385C37.5322 9.76543 37.5322 10.0916 37.9838 10.4177C38.8368 11.0449 38.8619 11.9982 38.8117 13.0268C39.0876 13.0268 39.3385 13.077 39.5894 13.077C44.9331 12.8763 50.3019 12.6756 55.6456 12.4749C59.6095 12.3244 63.5483 12.1739 67.5121 12.0484C68.7163 12.0233 69.469 13.1021 68.8418 13.9802C68.5909 14.3314 68.039 14.6074 67.6376 14.6325C63.3225 14.8332 59.0324 15.0088 54.7173 15.1593C49.6496 15.36 44.5819 15.5356 39.5392 15.7112C39.3385 15.7112 39.1378 15.7614 38.8869 15.7865V20.503C39.188 20.503 39.489 20.5783 39.7901 20.5783C49.8252 20.9546 59.8603 21.3058 69.9206 21.6821C73.0064 21.7825 76.0922 21.933 79.178 22.0334C81.0094 22.0835 81.7369 21.3811 81.762 19.5497C81.762 18.5712 81.762 17.5677 81.762 16.5893C81.7369 14.9837 80.9592 14.2311 79.3787 14.2812C77.6727 14.3314 75.9416 14.4067 74.2357 14.4568C73.5834 14.4819 73.0314 14.3063 72.7304 13.654C72.3792 12.8763 72.8057 11.923 73.6837 11.8728C75.8664 11.7223 78.049 11.5467 80.2316 11.6721C82.5146 11.7975 84.1453 13.4032 84.3962 15.6861C84.5718 17.3419 84.5718 19.073 84.3962 20.7288C84.0952 23.1874 82.038 24.8181 79.5794 24.7428C73.0816 24.5171 66.609 24.2411 60.1112 23.9902C54.7926 23.7895 49.4489 23.5888 44.1303 23.4132C42.4243 23.363 40.7183 23.4132 38.9371 23.4132H38.8368ZM24.8879 23.7895H36.1273V12.6254H24.8879V23.7895ZM30.5076 9.86578C31.7369 9.86578 32.9411 9.86578 34.1704 9.86578C34.4213 9.86578 34.8227 9.66508 34.8729 9.48946C35.4248 7.7584 35.9266 6.00226 36.3782 4.22102C36.6039 3.31786 36.1775 2.81611 35.2492 2.79102C32.0881 2.79102 28.902 2.79102 25.7409 2.79102C24.7876 2.79102 24.3862 3.36804 24.6371 4.2712C25.0886 5.92699 25.5904 7.5577 26.0169 9.2135C26.1674 9.76543 26.4183 9.89087 26.9201 9.86578C28.0992 9.84069 29.3034 9.86578 30.4825 9.86578H30.5076ZM30.5327 33.6239C32.0129 33.6239 33.4931 33.6239 34.9983 33.6239C36.2778 33.6239 36.6541 33.072 36.328 31.8427C35.9015 30.3123 35.4499 28.782 35.0234 27.2265C34.898 26.7499 34.6973 26.499 34.1453 26.5241C31.7369 26.5492 29.3034 26.5492 26.895 26.5241C26.343 26.5241 26.1423 26.7248 26.0169 27.2265C25.6155 28.782 25.1388 30.2873 24.7123 31.8427C24.3611 33.1222 24.7374 33.6239 26.1172 33.6239C27.5974 33.6239 29.0776 33.6239 30.5829 33.6239H30.5327Z" fill="#788E72"/>
<path d="M44.0799 38.8169C43.0262 38.7918 41.7969 37.7632 41.7969 36.9102C41.7969 36.1575 42.3739 35.6056 43.1516 35.6307C44.1802 35.6558 45.4597 36.7346 45.4597 37.5374C45.4597 38.2649 44.8325 38.8419 44.0799 38.8169Z" fill="#788E72"/>
<path d="M23.4831 40.9492C23.6838 41.0997 24.1103 41.2754 24.311 41.6015C24.8378 42.3541 24.311 43.0315 23.9597 43.6838C23.6336 44.2608 23.2322 44.7124 22.5297 44.587C22.1785 44.5117 21.7771 44.2859 21.5513 43.9848C21.0997 43.3827 21.4008 42.7806 21.7269 42.2036C22.0782 41.6015 22.4043 40.9743 23.4831 40.9492Z" fill="#788E72"/>
<path d="M19.2425 36.6352C19.1672 37.8645 18.4397 38.2408 17.7623 38.5168C17.2856 38.6924 16.6083 38.7677 16.1567 38.5921C15.5295 38.3412 15.4291 37.6638 15.6549 37.0115C15.9058 36.3593 17.4863 35.4561 18.1135 35.707C18.5902 35.9077 18.9665 36.4094 19.2174 36.6603L19.2425 36.6352Z" fill="#788E72"/>
<path d="M39.9655 43.2825C39.514 43.7842 39.238 44.3362 38.8366 44.4616C38.4352 44.587 37.7578 44.4616 37.4317 44.1605C37.0052 43.7842 36.6539 43.157 36.5536 42.6051C36.4783 42.2037 36.7041 41.5514 37.0303 41.2755C37.3313 41.0246 38.109 40.9493 38.3348 41.15C38.9369 41.727 39.3634 42.4797 39.9404 43.2825H39.9655Z" fill="#788E72"/>
<path d="M29.2018 44.586C29.2018 44.586 29.2018 44.2599 29.2269 43.9839C29.3524 43.2313 30.0047 42.7797 30.7573 42.9302C31.4848 43.0807 31.811 43.5825 31.8361 44.31C31.9113 45.715 31.6605 46.3923 30.9329 46.6181C29.8541 46.9693 29.1768 46.2418 29.1768 44.5609L29.2018 44.586Z" fill="#788E72"/>
</svg>
