<svg width="95" height="100" viewBox="0 0 95 100" fill="none" xmlns="http://www.w3.org/2000/svg">
<path d="M1.33887 71.3881H92.8465C93.325 71.3881 93.7556 71.101 93.947 70.6704C94.1384 70.2398 94.0666 69.7374 93.7556 69.3785L78.9947 52.8234C78.7794 52.5603 78.4445 52.4167 78.1096 52.4167H62.8942C64.2339 51.699 65.5019 50.8139 66.6502 49.7373H76.2196C76.8655 49.7373 77.3919 49.211 77.3919 48.565V34.5458C77.3919 33.8999 76.8655 33.3736 76.2196 33.3736H66.6502C63.4684 30.3592 59.3057 28.7085 54.9037 28.7085H51.1477C51.052 27.8951 51.0042 27.1056 51.0042 26.364C51.0042 21.4118 53.2291 16.0051 53.253 15.9572C53.3965 15.5984 53.3726 15.1917 53.1573 14.8567C52.942 14.5218 52.5831 14.3304 52.1764 14.3304H48.6836V3.46913C48.6836 2.82319 48.1573 2.29688 47.5113 2.29688C46.8654 2.29688 46.3391 2.82319 46.3391 3.46913V14.3304H43.9946V10.4787C43.9946 9.8328 43.4683 9.30648 42.8223 9.30648C42.1764 9.30648 41.6501 9.8328 41.6501 10.4787V14.3304H23.4203C23.0375 14.3304 22.6548 14.5218 22.4394 14.8567C22.2241 15.1917 22.1763 15.5984 22.3438 15.9572C22.3438 16.0051 24.5926 21.4118 24.5926 26.364C24.5926 27.9429 24.3533 29.7133 23.9227 31.6032C23.7792 32.2252 24.1619 32.8712 24.784 33.0147C25.406 33.1583 26.0519 32.7755 26.1954 32.1535C26.6978 30.096 26.9371 28.1343 26.9371 26.364C26.9371 22.6319 25.8366 18.7802 25.1189 16.6749H50.5018C49.7841 18.7802 48.6836 22.6319 48.6836 26.364C48.6836 28.7085 49.1142 31.1248 49.7362 33.3736H40.5017C37.9419 33.3736 34.8079 34.2827 34.8079 36.8425C34.8079 37.3688 34.9754 37.919 35.3342 38.4214C33.7553 38.8999 32.3677 39.9765 32.3677 41.5554C32.3677 42.7995 33.2768 44.0435 35.2386 44.6655C34.9036 45.144 34.7122 45.6703 34.7122 46.2205C34.7122 47.4885 35.6453 48.7564 37.6788 49.3545C37.3199 49.8569 37.1524 50.3832 37.1524 50.9095C37.1524 52.632 38.9228 54.3785 42.8702 54.3785H52.2482C51.9133 55.5986 51.5783 56.699 51.363 57.4168H24.3055C23.7074 55.6943 22.3198 51.2923 22.3198 47.3689C22.3198 45.7899 22.5591 44.0196 22.9897 42.1296C23.1332 41.5076 22.7505 40.8617 22.1284 40.7181C21.5064 40.5746 20.8605 40.9573 20.717 41.5794C20.2146 43.6368 19.9753 45.5985 19.9753 47.3689C19.9753 49.0674 20.2146 50.7899 20.5256 52.3928H16.1715C15.8365 52.3928 15.5016 52.5363 15.2863 52.7995L0.429775 69.4025C0.118768 69.7613 0.0469976 70.2637 0.238386 70.6943C0.429775 71.1249 0.860399 71.412 1.33887 71.412V71.3881ZM72.6789 35.742H75.0234V47.4167H72.6789V35.742ZM42.7745 52.1057C40.3821 52.1057 39.4013 51.2923 39.4013 50.9574C39.4013 50.6225 40.3821 49.7612 42.7745 49.7612H49.7841C50.43 49.7612 50.9563 49.2349 50.9563 48.589C50.9563 47.943 50.43 47.4167 49.7841 47.4167C48.6597 47.4167 41.5783 47.4167 40.43 47.4167C37.9658 47.4167 36.961 46.5794 36.961 46.2444C36.961 45.8138 38.1812 45.0722 40.43 45.0722H49.7841C50.43 45.0722 50.9563 44.5459 50.9563 43.8999C50.9563 43.254 50.43 42.7277 49.7841 42.7277C46.6262 42.7277 39.9754 42.7277 38.1094 42.7277C35.6453 42.7277 34.6405 41.8904 34.6405 41.5554C34.6405 41.1248 35.8606 40.3832 38.1094 40.3832H49.7841C50.43 40.3832 50.9563 39.8569 50.9563 39.2109C50.9563 38.565 50.43 38.0387 49.7841 38.0387C48.9946 38.0387 41.6979 38.0387 40.43 38.0387C38.0376 38.0387 37.0567 37.1774 37.0567 36.8186C37.0567 36.1487 38.8989 35.6942 40.43 35.6942H54.4492C55.0951 35.6942 55.6214 35.1678 55.6214 34.5219C55.6214 33.876 55.0951 33.3497 54.4492 33.3497H52.1047C51.8654 32.5602 51.674 31.7707 51.5066 31.0051H54.8559C58.8033 31.0051 62.5114 32.5363 65.3105 35.3353C65.5258 35.5506 65.8368 35.6702 66.1478 35.6702H70.3583V47.3449H66.1478C65.8368 47.3449 65.5497 47.4646 65.3105 47.6799C62.5114 50.4789 58.8033 52.01 54.8559 52.01H42.7745V52.1057ZM16.626 54.833H20.9801C21.6021 57.2014 22.2481 58.9239 22.3198 59.0436C22.4873 59.4981 22.9179 59.7852 23.3964 59.7852H52.1286C52.631 59.7852 53.0855 59.4742 53.2291 58.9957C53.253 58.9 53.875 57.034 54.4731 54.833H77.5593L90.191 68.9958H3.99438L16.626 54.833Z" fill="#788E72"/>
<path d="M17.9671 56.293H17.704C17.0341 56.293 16.5078 56.8193 16.5078 57.4891C16.5078 58.159 17.0341 58.6853 17.704 58.6853H17.9671C18.637 58.6853 19.1633 58.159 19.1633 57.4891C19.1633 56.8193 18.637 56.293 17.9671 56.293Z" fill="#788E72"/>
<path d="M14.1146 60.7412H13.8515C13.1816 60.7412 12.6553 61.2675 12.6553 61.9374C12.6553 62.6072 13.1816 63.1336 13.8515 63.1336H14.1146C14.7845 63.1336 15.3108 62.6072 15.3108 61.9374C15.3108 61.2675 14.7845 60.7412 14.1146 60.7412Z" fill="#788E72"/>
<path d="M10.2386 65.168H9.97547C9.30562 65.168 8.7793 65.6943 8.7793 66.3641C8.7793 67.034 9.30562 67.5603 9.97547 67.5603H10.2386C10.9085 67.5603 11.4348 67.034 11.4348 66.3641C11.4348 65.6943 10.9085 65.168 10.2386 65.168Z" fill="#788E72"/>
<path d="M25.0951 60.7412H24.8319C24.1621 60.7412 23.6357 61.2675 23.6357 61.9374C23.6357 62.6072 24.1621 63.1336 24.8319 63.1336H25.0951C25.7649 63.1336 26.2913 62.6072 26.2913 61.9374C26.2913 61.2675 25.7649 60.7412 25.0951 60.7412Z" fill="#788E72"/>
<path d="M22.5121 65.168H22.2489C21.5791 65.168 21.0527 65.6943 21.0527 66.3641C21.0527 67.034 21.5791 67.5603 22.2489 67.5603H22.5121C23.1819 67.5603 23.7082 67.034 23.7082 66.3641C23.7082 65.6943 23.1819 65.168 22.5121 65.168Z" fill="#788E72"/>
<path d="M36.0765 60.7412H35.8134C35.1435 60.7412 34.6172 61.2675 34.6172 61.9374C34.6172 62.6072 35.1435 63.1336 35.8134 63.1336H36.0765C36.7464 63.1336 37.2727 62.6072 37.2727 61.9374C37.2727 61.2675 36.7464 60.7412 36.0765 60.7412Z" fill="#788E72"/>
<path d="M34.7845 65.168H34.5214C33.8515 65.168 33.3252 65.6943 33.3252 66.3641C33.3252 67.034 33.8515 67.5603 34.5214 67.5603H34.7845C35.4544 67.5603 35.9807 67.034 35.9807 66.3641C35.9807 65.6943 35.4544 65.168 34.7845 65.168Z" fill="#788E72"/>
<path d="M47.057 60.7412H46.7938C46.124 60.7412 45.5977 61.2675 45.5977 61.9374C45.5977 62.6072 46.124 63.1336 46.7938 63.1336H47.057C47.7269 63.1336 48.2532 62.6072 48.2532 61.9374C48.2532 61.2675 47.7269 60.7412 47.057 60.7412Z" fill="#788E72"/>
<path d="M47.057 65.168H46.7938C46.124 65.168 45.5977 65.6943 45.5977 66.3641C45.5977 67.034 46.124 67.5603 46.7938 67.5603H47.057C47.7269 67.5603 48.2532 67.034 48.2532 66.3641C48.2532 65.6943 47.7269 65.168 47.057 65.168Z" fill="#788E72"/>
<path d="M76.1244 56.293H75.8612C75.1914 56.293 74.665 56.8193 74.665 57.4891C74.665 58.159 75.1914 58.6853 75.8612 58.6853H76.1244C76.7942 58.6853 77.3206 58.159 77.3206 57.4891C77.3206 56.8193 76.7942 56.293 76.1244 56.293Z" fill="#788E72"/>
<path d="M80.0003 60.7412H79.7372C79.0673 60.7412 78.541 61.2675 78.541 61.9374C78.541 62.6072 79.0673 63.1336 79.7372 63.1336H80.0003C80.6702 63.1336 81.1965 62.6072 81.1965 61.9374C81.1965 61.2675 80.6702 60.7412 80.0003 60.7412Z" fill="#788E72"/>
<path d="M83.8763 65.168H83.6132C82.9433 65.168 82.417 65.6943 82.417 66.3641C82.417 67.034 82.9433 67.5603 83.6132 67.5603H83.8763C84.5462 67.5603 85.0725 67.034 85.0725 66.3641C85.0725 65.6943 84.5462 65.168 83.8763 65.168Z" fill="#788E72"/>
<path d="M66.4359 56.293H66.1727C65.5029 56.293 64.9766 56.8193 64.9766 57.4891C64.9766 58.159 65.5029 58.6853 66.1727 58.6853H66.4359C67.1058 58.6853 67.6321 58.159 67.6321 57.4891C67.6321 56.8193 67.1058 56.293 66.4359 56.293Z" fill="#788E72"/>
<path d="M69.0199 60.7412H68.7567C68.0869 60.7412 67.5605 61.2675 67.5605 61.9374C67.5605 62.6072 68.0869 63.1336 68.7567 63.1336H69.0199C69.6897 63.1336 70.2161 62.6072 70.2161 61.9374C70.2161 61.2675 69.6897 60.7412 69.0199 60.7412Z" fill="#788E72"/>
<path d="M71.5785 65.168H71.3153C70.6455 65.168 70.1191 65.6943 70.1191 66.3641C70.1191 67.034 70.6455 67.5603 71.3153 67.5603H71.5785C72.2483 67.5603 72.7747 67.034 72.7747 66.3641C72.7747 65.6943 72.2483 65.168 71.5785 65.168Z" fill="#788E72"/>
<path d="M57.9436 57.4891C57.9436 56.8193 57.4173 56.293 56.7474 56.293H56.4843C55.8144 56.293 55.2881 56.8193 55.2881 57.4891C55.2881 58.159 55.8144 58.6853 56.4843 58.6853H56.7474C57.4173 58.6853 57.9436 58.159 57.9436 57.4891Z" fill="#788E72"/>
<path d="M59.2102 61.9374C59.2102 61.2675 58.6839 60.7412 58.014 60.7412H57.7509C57.081 60.7412 56.5547 61.2675 56.5547 61.9374C56.5547 62.6072 57.081 63.1336 57.7509 63.1336H58.014C58.6839 63.1336 59.2102 62.6072 59.2102 61.9374Z" fill="#788E72"/>
<path d="M59.306 65.168H59.0429C58.373 65.168 57.8467 65.6943 57.8467 66.3641C57.8467 67.034 58.373 67.5603 59.0429 67.5603H59.306C59.9759 67.5603 60.5022 67.034 60.5022 66.3641C60.5022 65.6943 59.9759 65.168 59.306 65.168Z" fill="#788E72"/>
<path d="M1.19618 76.532H93.7086C94.3784 76.532 94.9047 76.0057 94.9047 75.3358C94.9047 74.666 94.3784 74.1396 93.7086 74.1396H1.19618C0.526318 74.1396 0 74.666 0 75.3358C0 76.0057 0.526318 76.532 1.19618 76.532Z" fill="#788E72"/>
<path d="M93.7086 97.6074H1.19618C0.526318 97.6074 0 98.1337 0 98.8036C0 99.4735 0.526318 99.9998 1.19618 99.9998H93.7086C94.3784 99.9998 94.9047 99.4735 94.9047 98.8036C94.9047 98.1337 94.3784 97.6074 93.7086 97.6074Z" fill="#788E72"/>
<path d="M8.0143 78.5645C5.95688 78.5645 4.28223 80.2391 4.28223 82.2965C4.28223 84.354 5.95688 86.0286 8.0143 86.0286C10.0717 86.0286 11.7464 84.354 11.7464 82.2965C11.7464 80.2391 10.0717 78.5645 8.0143 78.5645ZM8.0143 83.6123C7.27267 83.6123 6.67458 83.0142 6.67458 82.2726C6.67458 81.531 7.27267 80.9329 8.0143 80.9329C8.75593 80.9329 9.35402 81.531 9.35402 82.2726C9.35402 83.0142 8.75593 83.6123 8.0143 83.6123Z" fill="#788E72"/>
<path d="M23.8034 78.5645C21.7459 78.5645 20.0713 80.2391 20.0713 82.2965C20.0713 84.354 21.7459 86.0286 23.8034 86.0286C25.8608 86.0286 27.5354 84.354 27.5354 82.2965C27.5354 80.2391 25.8608 78.5645 23.8034 78.5645ZM23.8034 83.6123C23.0617 83.6123 22.4636 83.0142 22.4636 82.2726C22.4636 81.531 23.0617 80.9329 23.8034 80.9329C24.545 80.9329 25.1431 81.531 25.1431 82.2726C25.1431 83.0142 24.545 83.6123 23.8034 83.6123Z" fill="#788E72"/>
<path d="M43.3499 82.2965C43.3499 80.2391 41.6752 78.5645 39.6178 78.5645C37.5604 78.5645 35.8857 80.2391 35.8857 82.2965C35.8857 84.354 37.5604 86.0286 39.6178 86.0286C41.6752 86.0286 43.3499 84.354 43.3499 82.2965ZM38.2781 82.2965C38.2781 81.5549 38.8762 80.9568 39.6178 80.9568C40.3594 80.9568 40.9575 81.5549 40.9575 82.2965C40.9575 83.0382 40.3594 83.6362 39.6178 83.6362C38.8762 83.6362 38.2781 83.0382 38.2781 82.2965Z" fill="#788E72"/>
<path d="M55.4059 78.5645C53.3485 78.5645 51.6738 80.2391 51.6738 82.2965C51.6738 84.354 53.3485 86.0286 55.4059 86.0286C57.4633 86.0286 59.138 84.354 59.138 82.2965C59.138 80.2391 57.4633 78.5645 55.4059 78.5645ZM55.4059 83.6123C54.6643 83.6123 54.0662 83.0142 54.0662 82.2726C54.0662 81.531 54.6643 80.9329 55.4059 80.9329C56.1475 80.9329 56.7456 81.531 56.7456 82.2726C56.7456 83.0142 56.1475 83.6123 55.4059 83.6123Z" fill="#788E72"/>
<path d="M74.929 82.2965C74.929 80.2391 73.2543 78.5645 71.1969 78.5645C69.1395 78.5645 67.4648 80.2391 67.4648 82.2965C67.4648 84.354 69.1395 86.0286 71.1969 86.0286C73.2543 86.0286 74.929 84.354 74.929 82.2965ZM69.8811 82.2965C69.8811 81.5549 70.4792 80.9568 71.2208 80.9568C71.9625 80.9568 72.5606 81.5549 72.5606 82.2965C72.5606 83.0382 71.9625 83.6362 71.2208 83.6362C70.4792 83.6362 69.8811 83.0382 69.8811 82.2965Z" fill="#788E72"/>
<path d="M87.0094 78.5645C84.952 78.5645 83.2773 80.2391 83.2773 82.2965C83.2773 84.354 84.952 86.0286 87.0094 86.0286C89.0668 86.0286 90.7415 84.354 90.7415 82.2965C90.7415 80.2391 89.0668 78.5645 87.0094 78.5645ZM87.0094 83.6123C86.2678 83.6123 85.6697 83.0142 85.6697 82.2726C85.6697 81.531 86.2678 80.9329 87.0094 80.9329C87.751 80.9329 88.3491 81.531 88.3491 82.2726C88.3491 83.0142 87.751 83.6123 87.0094 83.6123Z" fill="#788E72"/>
<path d="M4.28223 91.9147C4.28223 93.9721 5.95688 95.6468 8.0143 95.6468C10.0717 95.6468 11.7464 93.9721 11.7464 91.9147C11.7464 89.8573 10.0717 88.1826 8.0143 88.1826C5.95688 88.1826 4.28223 89.8573 4.28223 91.9147ZM9.35402 91.9147C9.35402 92.6563 8.75593 93.2544 8.0143 93.2544C7.27267 93.2544 6.67458 92.6563 6.67458 91.9147C6.67458 91.1731 7.27267 90.575 8.0143 90.575C8.75593 90.575 9.35402 91.1731 9.35402 91.9147Z" fill="#788E72"/>
<path d="M23.7077 88.1826C21.6502 88.1826 19.9756 89.8573 19.9756 91.9147C19.9756 93.9721 21.6502 95.6468 23.7077 95.6468C25.7651 95.6468 27.4397 93.9721 27.4397 91.9147C27.4397 89.8573 25.7651 88.1826 23.7077 88.1826ZM23.7077 93.2305C22.966 93.2305 22.3679 92.6324 22.3679 91.8908C22.3679 91.1491 22.966 90.551 23.7077 90.551C24.4493 90.551 25.0474 91.1491 25.0474 91.8908C25.0474 92.6324 24.4493 93.2305 23.7077 93.2305Z" fill="#788E72"/>
<path d="M39.9284 95.6214C41.9858 95.6214 43.6604 93.9467 43.6604 91.8893C43.6604 89.8319 41.9858 88.1572 39.9284 88.1572C37.8709 88.1572 36.1963 89.8319 36.1963 91.8893C36.1963 93.9467 37.8709 95.6214 39.9284 95.6214ZM39.9284 90.5735C40.67 90.5735 41.2681 91.1716 41.2681 91.9132C41.2681 92.6549 40.67 93.2529 39.9284 93.2529C39.1867 93.2529 38.5886 92.6549 38.5886 91.9132C38.5886 91.1716 39.1867 90.5735 39.9284 90.5735Z" fill="#788E72"/>
<path d="M55.4059 88.1826C53.3485 88.1826 51.6738 89.8573 51.6738 91.9147C51.6738 93.9721 53.3485 95.6468 55.4059 95.6468C57.4633 95.6468 59.138 93.9721 59.138 91.9147C59.138 89.8573 57.4633 88.1826 55.4059 88.1826ZM55.4059 93.2305C54.6643 93.2305 54.0662 92.6324 54.0662 91.8908C54.0662 91.1491 54.6643 90.551 55.4059 90.551C56.1475 90.551 56.7456 91.1491 56.7456 91.8908C56.7456 92.6324 56.1475 93.2305 55.4059 93.2305Z" fill="#788E72"/>
<path d="M71.4586 95.6214C73.5161 95.6214 75.1907 93.9467 75.1907 91.8893C75.1907 89.8319 73.5161 88.1572 71.4586 88.1572C69.4012 88.1572 67.7266 89.8319 67.7266 91.8893C67.7266 93.9467 69.4012 95.6214 71.4586 95.6214ZM71.4586 90.5735C72.2003 90.5735 72.7984 91.1716 72.7984 91.9132C72.7984 92.6549 72.2003 93.2529 71.4586 93.2529C70.717 93.2529 70.1189 92.6549 70.1189 91.9132C70.1189 91.1716 70.717 90.5735 71.4586 90.5735Z" fill="#788E72"/>
<path d="M83.2773 91.9147C83.2773 93.9721 84.952 95.6468 87.0094 95.6468C89.0668 95.6468 90.7415 93.9721 90.7415 91.9147C90.7415 89.8573 89.0668 88.1826 87.0094 88.1826C84.952 88.1826 83.2773 89.8573 83.2773 91.9147ZM88.3491 91.9147C88.3491 92.6563 87.751 93.2544 87.0094 93.2544C86.2678 93.2544 85.6697 92.6563 85.6697 91.9147C85.6697 91.1731 86.2678 90.575 87.0094 90.575C87.751 90.575 88.3491 91.1731 88.3491 91.9147Z" fill="#788E72"/>
<path d="M18.7079 7.0096C20.6457 7.0096 22.2007 8.58856 22.2007 10.5024C22.2007 11.1484 22.7271 11.6747 23.373 11.6747C24.0189 11.6747 24.5452 11.1484 24.5452 10.5024C24.5452 8.56463 26.1242 7.0096 28.0381 7.0096C28.684 7.0096 29.2103 6.48328 29.2103 5.83735C29.2103 5.19141 28.684 4.66509 28.0381 4.66509C26.1003 4.66509 24.5452 3.08614 24.5452 1.17225C24.5692 0.526318 24.0429 0 23.3969 0C22.751 0 22.2247 0.526318 22.2247 1.17225C22.2247 3.11006 20.6457 4.66509 18.7318 4.66509C18.0859 4.66509 17.5596 5.19141 17.5596 5.83735C17.5596 6.48328 18.0859 7.0096 18.7318 7.0096H18.7079ZM23.3969 4.66509C23.7318 5.11964 24.1146 5.50242 24.5692 5.83735C24.1146 6.17228 23.7318 6.55505 23.3969 7.0096C23.062 6.55505 22.6792 6.17228 22.2247 5.83735C22.6792 5.50242 23.062 5.11964 23.3969 4.66509Z" fill="#788E72"/>
<path d="M35.766 26.4129C37.7038 26.4129 39.2588 27.9919 39.2588 29.9058C39.2588 30.5517 39.7852 31.078 40.4311 31.078C41.077 31.078 41.6034 30.5517 41.6034 29.9058C41.6034 27.968 43.1823 26.4129 45.0962 26.4129C45.7421 26.4129 46.2684 25.8866 46.2684 25.2407C46.2684 24.5947 45.7421 24.0684 45.0962 24.0684C43.1584 24.0684 41.6034 22.4895 41.6034 20.5756C41.6034 19.9296 41.077 19.4033 40.4311 19.4033C39.7852 19.4033 39.2588 19.9296 39.2588 20.5756C39.2588 22.5134 37.6799 24.0684 35.766 24.0684C35.1201 24.0684 34.5938 24.5947 34.5938 25.2407C34.5938 25.8866 35.1201 26.4129 35.766 26.4129ZM40.4311 24.0684C40.766 24.523 41.1488 24.9057 41.6034 25.2407C41.1488 25.5756 40.766 25.9584 40.4311 26.4129C40.0962 25.9584 39.7134 25.5756 39.2588 25.2407C39.7134 24.9057 40.0962 24.523 40.4311 24.0684Z" fill="#788E72"/>
<path d="M35.766 4.66509H36.9383V5.83735C36.9383 6.48328 37.4646 7.0096 38.1105 7.0096C38.7564 7.0096 39.2828 6.48328 39.2828 5.83735V4.66509H40.455C41.101 4.66509 41.6273 4.13878 41.6273 3.49284C41.6273 2.8469 41.101 2.32059 40.455 2.32059H39.2828V1.14833C39.2828 0.526318 38.7564 0 38.1105 0C37.4646 0 36.9383 0.526318 36.9383 1.17225V2.34451H35.766C35.1201 2.34451 34.5938 2.87083 34.5938 3.51676C34.5938 4.1627 35.1201 4.68902 35.766 4.68902V4.66509Z" fill="#788E72"/>
<path d="M23.3969 38.0877C24.0428 38.0877 24.5691 37.5614 24.5691 36.9154C24.5691 36.2695 24.0428 35.7432 23.3969 35.7432C22.7509 35.7432 22.2246 36.2695 22.2246 36.9154C22.2246 37.5614 22.7509 38.0877 23.3969 38.0877Z" fill="#788E72"/>
</svg>
