<svg width="122" height="120" viewBox="0 0 122 120" fill="none" xmlns="http://www.w3.org/2000/svg">
<path d="M6.57529 86.353H114.184C114.746 86.353 115.253 86.0154 115.478 85.509C115.703 85.0027 115.618 84.4119 115.253 83.9899L97.8946 64.5219C97.6414 64.2125 97.2475 64.0437 96.8537 64.0437H91.8179C103.071 47.1921 95.3626 32.6755 94.9969 32.141C94.8 31.7753 94.3499 31.4939 93.8716 31.4939C93.3933 31.4939 93.0276 31.7753 92.8588 32.141C88.4982 41.2279 82.956 43.9849 78.511 46.2074C76.5699 47.2202 74.7131 48.1486 73.2221 49.4427C68.6364 54.1409 69.9024 58.9797 70.8026 61.2304C67.905 61.7649 64.8385 61.8212 61.5469 61.3148C60.8999 61.2304 60.2528 61.6805 60.1684 62.3276C60.084 62.9746 60.5341 63.6217 61.1812 63.7061C62.5034 63.903 63.7694 63.9874 65.0354 64.0437H49.8718C46.8053 57.9388 46.946 53.0437 47.1429 48.9926C47.1992 46.7982 47.2836 44.7164 46.8897 42.8033C45.0329 36.5016 40.1659 35.2637 37.7746 34.9543C38.7312 32.1691 40.1659 29.4684 42.1915 26.8239C42.5854 26.2893 42.501 25.5016 41.9664 25.1078C41.4319 24.7139 40.6442 24.7983 40.2503 25.3328C39.1532 26.7395 38.2529 28.1461 37.4371 29.609C36.4524 31.3814 35.6084 33.2663 35.1302 35.0949C33.8079 35.2075 32.5701 35.4888 31.3604 35.9671C30.9946 36.0796 30.6289 36.3047 30.2632 36.4172C28.0125 37.5988 26.3246 39.3149 25.1993 41.3404C23.455 44.4913 23.1456 48.2611 24.8335 51.5245C27.7031 57.2918 31.3041 61.2866 34.9051 64.0437H23.9333C23.5394 64.0437 23.1456 64.2125 22.8924 64.5219L5.50624 84.018C5.14052 84.44 5.05612 85.0308 5.28118 85.5372C5.50624 86.0436 6.01263 86.3812 6.57529 86.3812V86.353ZM74.8538 51.2713C76.0635 50.146 77.6389 49.4146 79.5801 48.4018C83.7438 46.3762 89.3141 43.5067 93.9279 35.4325C95.5877 39.9619 98.0071 50.99 89.6798 63.1153C87.0072 66.9976 81.4369 67.8416 77.0763 64.972C76.7949 64.7751 76.6261 64.6063 76.3448 64.4094C75.6978 63.9593 75.1351 63.2841 74.685 62.7495C80.9867 60.724 86.2757 56.1665 90.6082 49.3302C90.9739 48.7675 90.8051 48.0361 90.2425 47.6703C89.6798 47.3046 88.9483 47.4734 88.5826 48.0361C84.2783 54.8723 79.13 59.0923 72.997 60.8365C72.0968 58.7265 71.8717 53.7189 74.8819 51.2995L74.8538 51.2713ZM72.1812 63.481C72.3218 63.7061 72.4906 63.8749 72.6594 64.0999H67.061C68.8333 64.0437 70.5776 63.903 72.1812 63.481ZM26.9154 50.6243C24.8335 46.3762 26.8028 41.1154 31.4166 38.7241C31.7261 38.5834 31.9793 38.499 32.2606 38.3583C32.9921 38.0208 33.8079 37.852 34.5394 37.7113C33.2453 44.21 34.6519 51.0181 38.5342 58.1639C38.8437 58.7547 39.5752 58.9516 40.1659 58.6422C40.7567 58.3327 40.9537 57.6012 40.6442 57.0104C36.7619 49.921 35.5803 43.366 37.0432 37.1768C39.322 37.43 43.7951 39.6525 44.4703 43.4504C44.8641 45.054 44.7516 46.7701 44.6953 48.9644C44.4421 53.6064 44.2452 59.8519 49.0559 67.8135C44.2733 67.0539 33.4703 63.8186 26.9154 50.6243ZM24.5522 66.9132H39.2938C42.3322 68.5168 45.1173 69.3608 47.2836 69.8109C47.2836 69.8953 47.2273 69.9797 47.2273 70.0641C47.2273 70.8518 47.8462 71.4707 48.6339 71.4707H48.9434C49.6467 71.4707 50.2094 70.9362 50.2938 70.2892C50.8846 70.3454 51.2784 70.3454 51.3628 70.3454C51.7848 70.3454 52.2349 70.0922 52.46 69.6984C52.6851 69.3045 52.6288 68.8262 52.3756 68.4887C52.0099 67.9541 51.7286 67.4759 51.4191 66.9695H75.4164C75.4164 66.9695 75.5852 67.082 75.6415 67.1664C77.5545 68.4324 79.6364 69.0513 81.7182 69.1638C81.4931 69.417 81.3525 69.7546 81.3525 70.1204C81.3525 70.9081 81.9714 71.527 82.7591 71.527H83.0686C83.8563 71.527 84.4752 70.9081 84.4752 70.1204C84.4752 69.6702 84.2783 69.3045 83.9407 69.0513C85.8256 68.7981 87.598 68.1229 89.1171 66.9976H96.1222L110.976 83.6523H9.69804L24.5522 66.9976V66.9132Z" fill="white"/>
<path d="M26.1282 68.6294H25.8188C25.031 68.6294 24.4121 69.2483 24.4121 70.036C24.4121 70.8238 25.031 71.4427 25.8188 71.4427H26.1282C26.9159 71.4427 27.5349 70.8238 27.5349 70.036C27.5349 69.2483 26.9159 68.6294 26.1282 68.6294Z" fill="white"/>
<path d="M21.5977 73.8337H21.2883C20.5006 73.8337 19.8816 74.4526 19.8816 75.2403C19.8816 76.0281 20.5006 76.647 21.2883 76.647H21.5977C22.3855 76.647 23.0044 76.0281 23.0044 75.2403C23.0044 74.4526 22.3855 73.8337 21.5977 73.8337Z" fill="white"/>
<path d="M17.0403 79.0383H16.7309C15.9431 79.0383 15.3242 79.6572 15.3242 80.4449C15.3242 81.2327 15.9431 81.8516 16.7309 81.8516H17.0403C17.828 81.8516 18.447 81.2327 18.447 80.4449C18.447 79.6572 17.828 79.0383 17.0403 79.0383Z" fill="white"/>
<path d="M37.5493 68.6294H37.2398C36.4521 68.6294 35.8332 69.2483 35.8332 70.036C35.8332 70.8238 36.4521 71.4427 37.2398 71.4427H37.5493C38.337 71.4427 38.956 70.8238 38.956 70.036C38.956 69.2483 38.337 68.6294 37.5493 68.6294Z" fill="white"/>
<path d="M34.5106 73.8337H34.2012C33.4135 73.8337 32.7945 74.4526 32.7945 75.2403C32.7945 76.0281 33.4135 76.647 34.2012 76.647H34.5106C35.2984 76.647 35.9173 76.0281 35.9173 75.2403C35.9173 74.4526 35.2984 73.8337 34.5106 73.8337Z" fill="white"/>
<path d="M31.4731 79.0383H31.1637C30.376 79.0383 29.757 79.6572 29.757 80.4449C29.757 81.2327 30.376 81.8516 31.1637 81.8516H31.4731C32.2609 81.8516 32.8798 81.2327 32.8798 80.4449C32.8798 79.6572 32.2609 79.0383 31.4731 79.0383Z" fill="white"/>
<path d="M47.4247 73.8337H47.1152C46.3275 73.8337 45.7086 74.4526 45.7086 75.2403C45.7086 76.0281 46.3275 76.647 47.1152 76.647H47.4247C48.2124 76.647 48.8313 76.0281 48.8313 75.2403C48.8313 74.4526 48.2124 73.8337 47.4247 73.8337Z" fill="white"/>
<path d="M45.9048 79.0383H45.5953C44.8076 79.0383 44.1887 79.6572 44.1887 80.4449C44.1887 81.2327 44.8076 81.8516 45.5953 81.8516H45.9048C46.6925 81.8516 47.3114 81.2327 47.3114 80.4449C47.3114 79.6572 46.6925 79.0383 45.9048 79.0383Z" fill="white"/>
<path d="M60.3376 68.6294H60.0281C59.2404 68.6294 58.6215 69.2483 58.6215 70.036C58.6215 70.8238 59.2404 71.4427 60.0281 71.4427H60.3376C61.1253 71.4427 61.7442 70.8238 61.7442 70.036C61.7442 69.2483 61.1253 68.6294 60.3376 68.6294Z" fill="white"/>
<path d="M60.3376 73.8337H60.0281C59.2404 73.8337 58.6215 74.4526 58.6215 75.2403C58.6215 76.0281 59.2404 76.647 60.0281 76.647H60.3376C61.1253 76.647 61.7442 76.0281 61.7442 75.2403C61.7442 74.4526 61.1253 73.8337 60.3376 73.8337Z" fill="white"/>
<path d="M60.3376 79.0383H60.0281C59.2404 79.0383 58.6215 79.6572 58.6215 80.4449C58.6215 81.2327 59.2404 81.8516 60.0281 81.8516H60.3376C61.1253 81.8516 61.7442 81.2327 61.7442 80.4449C61.7442 79.6572 61.1253 79.0383 60.3376 79.0383Z" fill="white"/>
<path d="M94.5188 68.6294H94.2094C93.4217 68.6294 92.8027 69.2483 92.8027 70.036C92.8027 70.8238 93.4217 71.4427 94.2094 71.4427H94.5188C95.3066 71.4427 95.9255 70.8238 95.9255 70.036C95.9255 69.2483 95.3066 68.6294 94.5188 68.6294Z" fill="white"/>
<path d="M99.0763 73.8337H98.7668C97.9791 73.8337 97.3602 74.4526 97.3602 75.2403C97.3602 76.0281 97.9791 76.647 98.7668 76.647H99.0763C99.864 76.647 100.483 76.0281 100.483 75.2403C100.483 74.4526 99.864 73.8337 99.0763 73.8337Z" fill="white"/>
<path d="M103.634 79.0383H103.324C102.537 79.0383 101.918 79.6572 101.918 80.4449C101.918 81.2327 102.537 81.8516 103.324 81.8516H103.634C104.421 81.8516 105.04 81.2327 105.04 80.4449C105.04 79.6572 104.421 79.0383 103.634 79.0383Z" fill="white"/>
<path d="M86.1634 73.8337H85.8539C85.0662 73.8337 84.4473 74.4526 84.4473 75.2403C84.4473 76.0281 85.0662 76.647 85.8539 76.647H86.1634C86.9511 76.647 87.57 76.0281 87.57 75.2403C87.57 74.4526 86.9511 73.8337 86.1634 73.8337Z" fill="white"/>
<path d="M89.1739 79.0383H88.8645C88.0767 79.0383 87.4578 79.6572 87.4578 80.4449C87.4578 81.2327 88.0767 81.8516 88.8645 81.8516H89.1739C89.9616 81.8516 90.5806 81.2327 90.5806 80.4449C90.5806 79.6572 89.9616 79.0383 89.1739 79.0383Z" fill="white"/>
<path d="M73.1384 70.036C73.1384 69.2483 72.5194 68.6294 71.7317 68.6294H71.4223C70.6346 68.6294 70.0156 69.2483 70.0156 70.036C70.0156 70.8238 70.6346 71.4427 71.4223 71.4427H71.7317C72.5194 71.4427 73.1384 70.8238 73.1384 70.036Z" fill="white"/>
<path d="M74.629 75.2403C74.629 74.4526 74.0101 73.8337 73.2224 73.8337H72.9129C72.1252 73.8337 71.5062 74.4526 71.5062 75.2403C71.5062 76.0281 72.1252 76.647 72.9129 76.647H73.2224C74.0101 76.647 74.629 76.0281 74.629 75.2403Z" fill="white"/>
<path d="M74.7411 79.0383H74.4316C73.6439 79.0383 73.025 79.6572 73.025 80.4449C73.025 81.2327 73.6439 81.8516 74.4316 81.8516H74.7411C75.5288 81.8516 76.1478 81.2327 76.1478 80.4449C76.1478 79.6572 75.5288 79.0383 74.7411 79.0383Z" fill="white"/>
<path d="M6.40664 92.4304H115.196C115.984 92.4304 116.603 91.8114 116.603 91.0237C116.603 90.236 115.984 89.6171 115.196 89.6171H6.40664C5.61892 89.6171 5 90.236 5 91.0237C5 91.8114 5.61892 92.4304 6.40664 92.4304Z" fill="white"/>
<path d="M115.196 117.187H6.40664C5.61892 117.187 5 117.806 5 118.593C5 119.381 5.61892 120 6.40664 120H115.196C115.984 120 116.603 119.381 116.603 118.593C116.603 117.806 115.984 117.187 115.196 117.187Z" fill="white"/>
<path d="M14.4243 94.7936C12.0048 94.7936 10.0355 96.7629 10.0355 99.1823C10.0355 101.602 12.0048 103.571 14.4243 103.571C16.8437 103.571 18.813 101.602 18.813 99.1823C18.813 96.7629 16.8437 94.7936 14.4243 94.7936ZM14.4243 100.758C13.5522 100.758 12.8488 100.054 12.8488 99.1823C12.8488 98.3102 13.5522 97.6068 14.4243 97.6068C15.2964 97.6068 15.9997 98.3102 15.9997 99.1823C15.9997 100.054 15.2964 100.758 14.4243 100.758Z" fill="white"/>
<path d="M32.9926 94.7936C30.5732 94.7936 28.6039 96.7629 28.6039 99.1823C28.6039 101.602 30.5732 103.571 32.9926 103.571C35.4121 103.571 37.3814 101.602 37.3814 99.1823C37.3814 96.7629 35.4121 94.7936 32.9926 94.7936ZM32.9926 100.758C32.1205 100.758 31.4172 100.054 31.4172 99.1823C31.4172 98.3102 32.1205 97.6068 32.9926 97.6068C33.8648 97.6068 34.5681 98.3102 34.5681 99.1823C34.5681 100.054 33.8648 100.758 32.9926 100.758Z" fill="white"/>
<path d="M55.9767 99.1823C55.9767 96.7629 54.0074 94.7936 51.5879 94.7936C49.1685 94.7936 47.1992 96.7629 47.1992 99.1823C47.1992 101.602 49.1685 103.571 51.5879 103.571C54.0074 103.571 55.9767 101.602 55.9767 99.1823ZM50.0125 99.1823C50.0125 98.3102 50.7158 97.6068 51.5879 97.6068C52.4601 97.6068 53.1634 98.3102 53.1634 99.1823C53.1634 100.054 52.4601 100.758 51.5879 100.758C50.7158 100.758 50.0125 100.054 50.0125 99.1823Z" fill="white"/>
<path d="M70.1551 94.7936C67.7357 94.7936 65.7664 96.7629 65.7664 99.1823C65.7664 101.602 67.7357 103.571 70.1551 103.571C72.5746 103.571 74.5439 101.602 74.5439 99.1823C74.5439 96.7629 72.5746 94.7936 70.1551 94.7936ZM70.1551 100.758C69.283 100.758 68.5797 100.054 68.5797 99.1823C68.5797 98.3102 69.283 97.6068 70.1551 97.6068C71.0273 97.6068 71.7306 98.3102 71.7306 99.1823C71.7306 100.054 71.0273 100.758 70.1551 100.758Z" fill="white"/>
<path d="M93.1122 99.1823C93.1122 96.7629 91.1429 94.7936 88.7235 94.7936C86.3041 94.7936 84.3348 96.7629 84.3348 99.1823C84.3348 101.602 86.3041 103.571 88.7235 103.571C91.1429 103.571 93.1122 101.602 93.1122 99.1823ZM87.1762 99.1823C87.1762 98.3102 87.8795 97.6068 88.7516 97.6068C89.6238 97.6068 90.3271 98.3102 90.3271 99.1823C90.3271 100.054 89.6238 100.758 88.7516 100.758C87.8795 100.758 87.1762 100.054 87.1762 99.1823Z" fill="white"/>
<path d="M107.319 94.7936C104.899 94.7936 102.93 96.7629 102.93 99.1823C102.93 101.602 104.899 103.571 107.319 103.571C109.738 103.571 111.708 101.602 111.708 99.1823C111.708 96.7629 109.738 94.7936 107.319 94.7936ZM107.319 100.758C106.447 100.758 105.743 100.054 105.743 99.1823C105.743 98.3102 106.447 97.6068 107.319 97.6068C108.191 97.6068 108.894 98.3102 108.894 99.1823C108.894 100.054 108.191 100.758 107.319 100.758Z" fill="white"/>
<path d="M10.0355 110.491C10.0355 112.911 12.0048 114.88 14.4243 114.88C16.8437 114.88 18.813 112.911 18.813 110.491C18.813 108.072 16.8437 106.102 14.4243 106.102C12.0048 106.102 10.0355 108.072 10.0355 110.491ZM15.9997 110.491C15.9997 111.363 15.2964 112.067 14.4243 112.067C13.5522 112.067 12.8488 111.363 12.8488 110.491C12.8488 109.619 13.5522 108.916 14.4243 108.916C15.2964 108.916 15.9997 109.619 15.9997 110.491Z" fill="white"/>
<path d="M32.8801 106.102C30.4607 106.102 28.4914 108.072 28.4914 110.491C28.4914 112.911 30.4607 114.88 32.8801 114.88C35.2996 114.88 37.2689 112.911 37.2689 110.491C37.2689 108.072 35.2996 106.102 32.8801 106.102ZM32.8801 112.067C32.008 112.067 31.3047 111.363 31.3047 110.491C31.3047 109.619 32.008 108.916 32.8801 108.916C33.7523 108.916 34.4556 109.619 34.4556 110.491C34.4556 111.363 33.7523 112.067 32.8801 112.067Z" fill="white"/>
<path d="M51.9536 114.88C54.373 114.88 56.3423 112.911 56.3423 110.491C56.3423 108.072 54.373 106.102 51.9536 106.102C49.5341 106.102 47.5648 108.072 47.5648 110.491C47.5648 112.911 49.5341 114.88 51.9536 114.88ZM51.9536 108.916C52.8257 108.916 53.529 109.619 53.529 110.491C53.529 111.363 52.8257 112.067 51.9536 112.067C51.0815 112.067 50.3781 111.363 50.3781 110.491C50.3781 109.619 51.0815 108.916 51.9536 108.916Z" fill="white"/>
<path d="M70.1551 106.102C67.7357 106.102 65.7664 108.072 65.7664 110.491C65.7664 112.911 67.7357 114.88 70.1551 114.88C72.5746 114.88 74.5439 112.911 74.5439 110.491C74.5439 108.072 72.5746 106.102 70.1551 106.102ZM70.1551 112.067C69.283 112.067 68.5797 111.363 68.5797 110.491C68.5797 109.619 69.283 108.916 70.1551 108.916C71.0273 108.916 71.7306 109.619 71.7306 110.491C71.7306 111.363 71.0273 112.067 70.1551 112.067Z" fill="white"/>
<path d="M89.0329 114.88C91.4523 114.88 93.4216 112.911 93.4216 110.491C93.4216 108.072 91.4523 106.102 89.0329 106.102C86.6134 106.102 84.6441 108.072 84.6441 110.491C84.6441 112.911 86.6134 114.88 89.0329 114.88ZM89.0329 108.916C89.905 108.916 90.6083 109.619 90.6083 110.491C90.6083 111.363 89.905 112.067 89.0329 112.067C88.1608 112.067 87.4574 111.363 87.4574 110.491C87.4574 109.619 88.1608 108.916 89.0329 108.916Z" fill="white"/>
<path d="M107.319 106.102C104.899 106.102 102.93 108.072 102.93 110.491C102.93 112.911 104.899 114.88 107.319 114.88C109.738 114.88 111.708 112.911 111.708 110.491C111.708 108.072 109.738 106.102 107.319 106.102ZM107.319 112.067C106.447 112.067 105.743 111.363 105.743 110.491C105.743 109.619 106.447 108.916 107.319 108.916C108.191 108.916 108.894 109.619 108.894 110.491C108.894 111.363 108.191 112.067 107.319 112.067Z" fill="white"/>
<path d="M41.0671 15.093C51.1106 14.3335 56.287 17.7657 60.4226 20.4946C62.2793 21.6761 63.9954 22.8014 65.8522 23.4485C72.2102 25.0802 75.7831 21.5636 77.2742 19.6787C79.1591 21.9293 80.7626 24.5457 81.9723 27.6684C82.2255 28.2874 82.9289 28.5968 83.5478 28.3718C84.1667 28.1186 84.4762 27.4152 84.2511 26.7963C83.6041 25.1365 82.8726 23.6454 82.0286 22.2107C81.0158 20.4383 79.8342 18.7784 78.512 17.3999C79.1028 16.1902 79.4966 15.0086 79.6936 13.7145C79.8061 13.3488 79.778 12.9268 79.8624 12.5329C80.003 10.001 79.4123 7.66596 78.2588 5.66853C76.4583 2.54578 73.3918 0.351413 69.7064 0.12635C49.1131 -1.47722 40.2794 12.7017 39.9981 13.2925C39.773 13.6301 39.773 14.1647 39.9981 14.5866C40.2232 14.9805 40.6451 15.1774 41.0671 15.1493V15.093ZM69.4532 2.37698C74.1514 2.77084 77.668 7.15957 77.3304 12.3641C77.3304 12.7017 77.246 12.9549 77.2179 13.2925C77.1335 14.0803 76.8522 14.8961 76.599 15.5713C71.7038 11.1263 65.1207 8.81941 57.0185 8.48181C56.3433 8.42555 55.8088 8.96007 55.7525 9.63526C55.6962 10.3105 56.2308 10.845 56.906 10.9012C64.9801 11.2107 71.1974 13.602 75.755 18.0189C74.3765 19.8475 70.1565 22.5201 66.5555 21.1697C64.9801 20.6915 63.5734 19.6787 61.7167 18.4971C57.8625 15.9089 52.6016 12.5329 43.3178 12.5329C46.4124 8.81941 54.7679 1.22353 69.4532 2.40511V2.37698Z" fill="white"/>
</svg>
