<svg width="290" height="89" viewBox="0 0 290 89" fill="none" xmlns="http://www.w3.org/2000/svg">
<g clip-path="url(#clip0_1_231)">
<path d="M101.253 59.3877C100.688 59.3877 100.227 59.1949 99.8412 58.8094C99.4549 58.4239 99.2617 57.9642 99.2617 57.4007V31.6141C99.2617 31.0358 99.4549 30.5465 99.8412 30.1906C100.227 29.8199 100.688 29.642 101.253 29.642H118.502C119.081 29.642 119.557 29.8199 119.913 30.1609C120.27 30.502 120.448 30.9617 120.448 31.5103C120.448 32.059 120.27 32.4742 119.913 32.8004C119.557 33.1266 119.081 33.2897 118.502 33.2897H103.244V42.5427H114.193C114.773 42.5427 115.248 42.7206 115.605 43.0616C115.961 43.4027 116.14 43.8476 116.14 44.3814C116.14 44.9152 115.961 45.3452 115.605 45.7011C115.248 46.0422 114.773 46.2201 114.193 46.2201H103.244V55.7399H118.502C119.081 55.7399 119.557 55.903 119.913 56.2293C120.27 56.5555 120.448 56.9855 120.448 57.5193C120.448 58.0532 120.27 58.5277 119.913 58.8687C119.557 59.2098 119.081 59.3877 118.502 59.3877H101.253Z" fill="#788E72"/>
<path d="M133.166 59.536C131.131 59.536 129.318 59.0763 127.728 58.1421C126.139 57.2228 124.891 55.9623 123.984 54.3757C123.078 52.7891 122.632 50.9948 122.632 48.993C122.632 46.9912 123.078 45.108 123.969 43.5065C124.861 41.905 126.079 40.6594 127.639 39.7549C129.184 38.8504 130.967 38.4055 132.988 38.4055C134.488 38.4055 135.855 38.6873 137.103 39.2656C138.351 39.8439 139.466 40.6891 140.461 41.8309C140.818 42.2312 140.951 42.6613 140.847 43.0913C140.743 43.5213 140.461 43.9069 140.015 44.2331C139.659 44.4852 139.258 44.5741 138.827 44.4852C138.396 44.3962 137.995 44.1738 137.638 43.8179C136.39 42.4982 134.845 41.8309 132.988 41.8309C131.695 41.8309 130.551 42.1274 129.556 42.7206C128.56 43.3137 127.788 44.1441 127.223 45.2118C126.659 46.2794 126.376 47.5398 126.376 48.9782C126.376 50.3424 126.659 51.5731 127.238 52.6408C127.818 53.7084 128.605 54.5536 129.63 55.1764C130.655 55.7992 131.829 56.1106 133.181 56.1106C134.072 56.1106 134.86 56.0068 135.528 55.7844C136.197 55.562 136.821 55.2357 137.386 54.7761C137.787 54.4498 138.218 54.2571 138.648 54.2274C139.079 54.1829 139.466 54.3164 139.793 54.5833C140.223 54.9392 140.461 55.3395 140.521 55.7844C140.565 56.2292 140.417 56.6296 140.06 56.9855C138.232 58.6908 135.944 59.536 133.196 59.536H133.166Z" fill="#788E72"/>
<path d="M154.189 59.536C152.124 59.536 150.311 59.0911 148.737 58.1866C147.162 57.2821 145.914 56.0365 145.022 54.4498C144.116 52.8632 143.67 51.0393 143.67 48.9782C143.67 46.917 144.116 45.0635 145.022 43.4768C145.929 41.8902 147.162 40.6446 148.737 39.7401C150.311 38.8356 152.139 38.3907 154.189 38.3907C156.24 38.3907 158.037 38.8356 159.612 39.7401C161.187 40.6446 162.435 41.8902 163.326 43.4768C164.233 45.0635 164.678 46.9022 164.678 48.9782C164.678 51.0541 164.233 52.8632 163.341 54.4498C162.45 56.0365 161.217 57.2821 159.642 58.1866C158.067 59.0911 156.24 59.536 154.189 59.536ZM154.189 56.1106C155.512 56.1106 156.685 55.7992 157.696 55.1913C158.706 54.5833 159.508 53.7381 160.088 52.6704C160.667 51.6028 160.949 50.372 160.949 48.9782C160.949 47.5843 160.667 46.3387 160.088 45.2711C159.508 44.1886 158.721 43.3434 157.696 42.7354C156.67 42.1275 155.512 41.8161 154.189 41.8161C152.867 41.8161 151.693 42.1275 150.683 42.7354C149.673 43.3434 148.87 44.1886 148.276 45.2711C147.697 46.3535 147.399 47.5843 147.399 48.9782C147.399 50.372 147.697 51.6028 148.276 52.6704C148.855 53.7381 149.658 54.5685 150.683 55.1913C151.693 55.7992 152.867 56.1106 154.189 56.1106Z" fill="#788E72"/>
<path d="M170.443 59.3877C170.042 59.3877 169.685 59.2543 169.388 58.9725C169.091 58.6908 168.943 58.3349 168.943 57.9049V31.1248C168.943 30.7244 169.091 30.3685 169.388 30.072C169.685 29.7754 170.027 29.6271 170.443 29.6271C170.859 29.6271 171.201 29.7754 171.498 30.072C171.795 30.3685 171.944 30.7096 171.944 31.1248V56.5703H186.86C187.262 56.5703 187.618 56.7038 187.915 56.9707C188.213 57.2376 188.361 57.5786 188.361 57.979C188.361 58.3794 188.213 58.7204 187.915 58.9873C187.618 59.2543 187.276 59.3877 186.86 59.3877H170.443Z" fill="#9DB7A9"/>
<path d="M200.024 59.5805C198.063 59.5805 196.31 59.1208 194.765 58.1866C193.219 57.2672 191.986 55.992 191.08 54.3905C190.174 52.7891 189.728 50.9948 189.728 48.9782C189.728 46.9615 190.189 45.1376 191.125 43.5362C192.046 41.9347 193.323 40.6743 194.928 39.7401C196.533 38.8207 198.33 38.3462 200.351 38.3462C202.372 38.3462 204.154 38.8059 205.744 39.7401C207.334 40.6743 208.597 41.9347 209.518 43.5362C210.439 45.1376 210.929 46.9467 210.944 48.9782L209.756 49.8975C209.756 51.7214 209.325 53.3674 208.478 54.8354C207.631 56.2886 206.472 57.4452 205.001 58.3052C203.545 59.1504 201.881 59.5805 200.024 59.5805ZM200.321 56.9114C201.792 56.9114 203.114 56.5703 204.273 55.8882C205.432 55.2061 206.353 54.2571 207.022 53.056C207.69 51.8549 208.032 50.4907 208.032 48.993C208.032 47.4953 207.69 46.1163 207.022 44.9152C206.353 43.7289 205.432 42.7799 204.273 42.083C203.114 41.386 201.792 41.0302 200.321 41.0302C198.85 41.0302 197.558 41.386 196.384 42.083C195.21 42.7799 194.289 43.7289 193.606 44.9152C192.922 46.1163 192.581 47.4657 192.581 48.993C192.581 50.5203 192.922 51.8401 193.606 53.056C194.289 54.2571 195.225 55.2061 196.384 55.8882C197.558 56.5703 198.865 56.9114 200.321 56.9114ZM209.444 59.3877C209.013 59.3877 208.656 59.2542 208.374 58.9873C208.092 58.7204 207.958 58.3794 207.958 57.9345V51.4249L208.686 48.4147L210.944 48.993V57.9494C210.944 58.3794 210.81 58.7353 210.528 59.0022C210.246 59.2691 209.889 59.4025 209.458 59.4025L209.444 59.3877Z" fill="#9DB7A9"/>
<path d="M213.411 41.8605C213.024 41.8605 212.712 41.7419 212.46 41.5047C212.207 41.2674 212.073 40.9708 212.073 40.615C212.073 40.2294 212.207 39.918 212.46 39.6808C212.712 39.4435 213.039 39.3249 213.411 39.3249H223.142C223.528 39.3249 223.84 39.4435 224.093 39.6808C224.346 39.918 224.479 40.2294 224.479 40.615C224.479 40.9708 224.346 41.2674 224.093 41.5047C223.84 41.7419 223.514 41.8605 223.142 41.8605H213.411ZM222.919 59.3877C221.567 59.3877 220.364 59.0763 219.309 58.4387C218.254 57.8011 217.422 56.941 216.813 55.8289C216.204 54.7168 215.892 53.4563 215.892 52.0328V33.4084C215.892 32.9783 216.025 32.6225 216.293 32.3407C216.56 32.059 216.902 31.9255 217.348 31.9255C217.793 31.9255 218.135 32.059 218.417 32.3407C218.7 32.6225 218.833 32.9783 218.833 33.4084V52.0328C218.833 53.3229 219.22 54.3905 219.977 55.2061C220.735 56.0365 221.716 56.4369 222.919 56.4369H223.944C224.346 56.4369 224.687 56.5703 224.94 56.8521C225.192 57.1338 225.326 57.4897 225.326 57.9197C225.326 58.3497 225.178 58.7056 224.866 58.9725C224.554 59.2394 224.182 59.3729 223.722 59.3729H222.919V59.3877Z" fill="#9DB7A9"/>
<path d="M226.842 41.8605C226.455 41.8605 226.143 41.7419 225.891 41.5047C225.638 41.2674 225.504 40.9708 225.504 40.615C225.504 40.2294 225.638 39.918 225.891 39.6808C226.143 39.4435 226.47 39.3249 226.842 39.3249H236.573C236.959 39.3249 237.271 39.4435 237.524 39.6808C237.777 39.918 237.91 40.2294 237.91 40.615C237.91 40.9708 237.777 41.2674 237.524 41.5047C237.271 41.7419 236.945 41.8605 236.573 41.8605H226.842ZM236.35 59.3877C234.998 59.3877 233.795 59.0763 232.74 58.4387C231.685 57.8011 230.853 56.941 230.244 55.8289C229.635 54.7168 229.323 53.4563 229.323 52.0328V33.4084C229.323 32.9783 229.456 32.6225 229.724 32.3407C229.991 32.059 230.333 31.9255 230.779 31.9255C231.224 31.9255 231.566 32.059 231.848 32.3407C232.131 32.6225 232.264 32.9783 232.264 33.4084V52.0328C232.264 53.3229 232.651 54.3905 233.408 55.2061C234.166 56.0365 235.147 56.4369 236.35 56.4369H237.375C237.777 56.4369 238.118 56.5703 238.371 56.8521C238.623 57.1338 238.757 57.4897 238.757 57.9197C238.757 58.3497 238.609 58.7056 238.297 58.9725C237.985 59.2394 237.613 59.3729 237.153 59.3729H236.35V59.3877Z" fill="#9DB7A9"/>
<path d="M243.675 34.5946C243.11 34.5946 242.635 34.387 242.219 33.9867C241.803 33.5863 241.61 33.0821 241.61 32.5038C241.61 31.8662 241.818 31.362 242.234 31.0062C242.65 30.6355 243.14 30.4575 243.705 30.4575C244.269 30.4575 244.715 30.6355 245.131 31.0062C245.547 31.3769 245.755 31.881 245.755 32.5038C245.755 33.0821 245.547 33.5863 245.146 33.9867C244.745 34.387 244.239 34.5946 243.66 34.5946H243.675ZM243.719 59.3877C243.259 59.3877 242.902 59.2542 242.635 58.9873C242.367 58.7204 242.234 58.3645 242.234 57.9049V40.0367C242.234 39.577 242.367 39.2211 242.635 38.9542C242.902 38.6873 243.259 38.5538 243.719 38.5538C244.15 38.5538 244.507 38.6873 244.774 38.9542C245.042 39.2211 245.175 39.577 245.175 40.0367V57.9049C245.175 58.3645 245.042 58.7204 244.774 58.9873C244.507 59.2542 244.15 59.3877 243.719 59.3877Z" fill="#9DB7A9"/>
<path d="M260.048 59.5805C258.042 59.5805 256.244 59.1208 254.684 58.1866C253.124 57.2672 251.891 55.992 250.985 54.3905C250.078 52.7891 249.633 50.9948 249.633 48.9782C249.633 46.9615 250.064 45.1376 250.925 43.5362C251.787 41.9347 252.976 40.6743 254.476 39.7401C255.977 38.8207 257.7 38.3462 259.661 38.3462C261.207 38.3462 262.648 38.6576 263.955 39.2656C265.263 39.8735 266.421 40.7929 267.402 42.0088C267.684 42.3202 267.788 42.6316 267.714 42.9727C267.64 43.3137 267.417 43.6103 267.06 43.8624C266.778 44.07 266.466 44.1293 266.124 44.07C265.783 44.0107 265.485 43.8179 265.233 43.5213C263.762 41.8457 261.905 41.0153 259.661 41.0153C258.235 41.0153 256.987 41.3564 255.902 42.0385C254.818 42.7206 253.986 43.6696 253.392 44.8559C252.797 46.0422 252.5 47.4212 252.5 48.9633C252.5 50.5055 252.812 51.8401 253.451 53.0412C254.09 54.2423 254.981 55.1764 256.125 55.8585C257.269 56.5406 258.577 56.8817 260.062 56.8817C261.058 56.8817 261.964 56.7482 262.796 56.4813C263.628 56.2144 264.356 55.7992 264.995 55.2506C265.307 54.9985 265.619 54.8502 265.946 54.8354C266.273 54.8206 266.585 54.9095 266.867 55.1468C267.179 55.4285 267.343 55.7399 267.387 56.0958C267.432 56.4517 267.298 56.7631 267.031 57.0152C265.173 58.7204 262.856 59.5656 260.092 59.5656L260.048 59.5805Z" fill="#9DB7A9"/>
<path d="M280.996 59.5805C278.931 59.5805 277.104 59.1356 275.514 58.2311C273.924 57.3266 272.676 56.081 271.77 54.4795C270.864 52.878 270.418 51.0541 270.418 48.993C270.418 46.9319 270.849 45.0783 271.696 43.4917C272.543 41.905 273.731 40.6594 275.232 39.7401C276.732 38.8207 278.456 38.3759 280.417 38.3759C282.378 38.3759 284.042 38.8207 285.469 39.6956C286.91 40.5705 288.024 41.7864 288.811 43.3286C289.599 44.8707 290 46.6353 290 48.6223C290 49.0227 289.866 49.3489 289.614 49.601C289.361 49.853 289.034 49.9568 288.618 49.9568H272.394V47.525H288.915L287.281 48.7113C287.311 47.2432 287.043 45.9235 286.479 44.7521C285.914 43.5806 285.127 42.6761 284.087 42.0088C283.062 41.3564 281.828 41.0153 280.402 41.0153C278.976 41.0153 277.683 41.3564 276.584 42.0385C275.484 42.7206 274.638 43.6696 274.043 44.8707C273.449 46.0718 273.152 47.4508 273.152 49.0078C273.152 50.5648 273.494 51.929 274.162 53.1153C274.831 54.3164 275.752 55.2506 276.926 55.9327C278.099 56.6148 279.436 56.9558 280.967 56.9558C281.888 56.9558 282.809 56.7927 283.73 56.4813C284.651 56.1699 285.409 55.7696 285.959 55.2802C286.241 55.0578 286.553 54.9244 286.91 54.9244C287.266 54.9244 287.563 55.0133 287.831 55.2061C288.158 55.5175 288.336 55.8437 288.351 56.1996C288.351 56.5555 288.217 56.8669 287.905 57.119C287.058 57.8307 286.003 58.4239 284.696 58.8835C283.403 59.358 282.155 59.5805 280.952 59.5805H280.996Z" fill="#9DB7A9"/>
<path d="M34.6918 1.987C35.2416 1.987 35.6873 1.5422 35.6873 0.993502C35.6873 0.444806 35.2416 0 34.6918 0C34.1421 0 33.6964 0.444806 33.6964 0.993502C33.6964 1.5422 34.1421 1.987 34.6918 1.987Z" fill="#9DB7A9"/>
<path d="M26.2529 6.80623C26.8027 6.80623 27.2483 6.36143 27.2483 5.81273C27.2483 5.26403 26.8027 4.81923 26.2529 4.81923C25.7031 4.81923 25.2574 5.26403 25.2574 5.81273C25.2574 6.36143 25.7031 6.80623 26.2529 6.80623Z" fill="#9DB7A9"/>
<path d="M17.8436 11.6255C18.3934 11.6255 18.8391 11.1807 18.8391 10.632C18.8391 10.0833 18.3934 9.63845 17.8436 9.63845C17.2939 9.63845 16.8482 10.0833 16.8482 10.632C16.8482 11.1807 17.2939 11.6255 17.8436 11.6255Z" fill="#9DB7A9"/>
<path d="M9.41954 16.4595C9.96931 16.4595 10.415 16.0147 10.415 15.466C10.415 14.9173 9.96931 14.4725 9.41954 14.4725C8.86977 14.4725 8.4241 14.9173 8.4241 15.466C8.4241 16.0147 8.86977 16.4595 9.41954 16.4595Z" fill="#9DB7A9"/>
<path d="M0.99544 21.2936C1.54521 21.2936 1.99088 20.8488 1.99088 20.3001C1.99088 19.7514 1.54521 19.3066 0.99544 19.3066C0.445674 19.3066 0 19.7514 0 20.3001C0 20.8488 0.445674 21.2936 0.99544 21.2936Z" fill="#9DB7A9"/>
<path d="M0.99544 30.9765C1.54521 30.9765 1.99088 30.5317 1.99088 29.983C1.99088 29.4343 1.54521 28.9895 0.99544 28.9895C0.445674 28.9895 0 29.4343 0 29.983C0 30.5317 0.445674 30.9765 0.99544 30.9765Z" fill="#9DB7A9"/>
<path d="M0.99544 40.6594C1.54521 40.6594 1.99088 40.2146 1.99088 39.6659C1.99088 39.1172 1.54521 38.6724 0.99544 38.6724C0.445674 38.6724 0 39.1172 0 39.6659C0 40.2146 0.445674 40.6594 0.99544 40.6594Z" fill="#9DB7A9"/>
<path d="M0.99544 50.3127C1.54521 50.3127 1.99088 49.8679 1.99088 49.3192C1.99088 48.7705 1.54521 48.3257 0.99544 48.3257C0.445674 48.3257 0 48.7705 0 49.3192C0 49.8679 0.445674 50.3127 0.99544 50.3127Z" fill="#9DB7A9"/>
<path d="M0.99544 60.0253C1.54521 60.0253 1.99088 59.5805 1.99088 59.0318C1.99088 58.4831 1.54521 58.0383 0.99544 58.0383C0.445674 58.0383 0 58.4831 0 59.0318C0 59.5805 0.445674 60.0253 0.99544 60.0253Z" fill="#9DB7A9"/>
<path d="M0.99544 69.7083C1.54521 69.7083 1.99088 69.2635 1.99088 68.7148C1.99088 68.1661 1.54521 67.7213 0.99544 67.7213C0.445674 67.7213 0 68.1661 0 68.7148C0 69.2635 0.445674 69.7083 0.99544 69.7083Z" fill="#9DB7A9"/>
<path d="M34.677 89.0148C35.2268 89.0148 35.6724 88.57 35.6724 88.0213C35.6724 87.4726 35.2268 87.0278 34.677 87.0278C34.1272 87.0278 33.6815 87.4726 33.6815 88.0213C33.6815 88.57 34.1272 89.0148 34.677 89.0148Z" fill="#9DB7A9"/>
<path d="M43.1011 84.1808C43.6508 84.1808 44.0965 83.736 44.0965 83.1873C44.0965 82.6386 43.6508 82.1938 43.1011 82.1938C42.5513 82.1938 42.1056 82.6386 42.1056 83.1873C42.1056 83.736 42.5513 84.1808 43.1011 84.1808Z" fill="#9DB7A9"/>
<path d="M51.5252 79.3615C52.0749 79.3615 52.5206 78.9167 52.5206 78.368C52.5206 77.8193 52.0749 77.3745 51.5252 77.3745C50.9754 77.3745 50.5297 77.8193 50.5297 78.368C50.5297 78.9167 50.9754 79.3615 51.5252 79.3615Z" fill="#9DB7A9"/>
<path d="M59.9493 74.5275C60.499 74.5275 60.9447 74.0827 60.9447 73.534C60.9447 72.9853 60.499 72.5405 59.9493 72.5405C59.3995 72.5405 58.9538 72.9853 58.9538 73.534C58.9538 74.0827 59.3995 74.5275 59.9493 74.5275Z" fill="#9DB7A9"/>
<path d="M68.3734 69.7083C68.9232 69.7083 69.3688 69.2635 69.3688 68.7148C69.3688 68.1661 68.9232 67.7213 68.3734 67.7213C67.8236 67.7213 67.3779 68.1661 67.3779 68.7148C67.3779 69.2635 67.8236 69.7083 68.3734 69.7083Z" fill="#9DB7A9"/>
<path d="M68.3734 60.0253C68.9232 60.0253 69.3688 59.5805 69.3688 59.0318C69.3688 58.4831 68.9232 58.0383 68.3734 58.0383C67.8236 58.0383 67.3779 58.4831 67.3779 59.0318C67.3779 59.5805 67.8236 60.0253 68.3734 60.0253Z" fill="#9DB7A9"/>
<path d="M68.3734 50.3424C68.9232 50.3424 69.3688 49.8976 69.3688 49.3489C69.3688 48.8002 68.9232 48.3554 68.3734 48.3554C67.8236 48.3554 67.3779 48.8002 67.3779 49.3489C67.3779 49.8976 67.8236 50.3424 68.3734 50.3424Z" fill="#9DB7A9"/>
<path d="M68.3734 40.6594C68.9232 40.6594 69.3688 40.2146 69.3688 39.6659C69.3688 39.1172 68.9232 38.6724 68.3734 38.6724C67.8236 38.6724 67.3779 39.1172 67.3779 39.6659C67.3779 40.2146 67.8236 40.6594 68.3734 40.6594Z" fill="#9DB7A9"/>
<path d="M59.9493 45.4787C60.499 45.4787 60.9447 45.0339 60.9447 44.4852C60.9447 43.9365 60.499 43.4917 59.9493 43.4917C59.3995 43.4917 58.9538 43.9365 58.9538 44.4852C58.9538 45.0339 59.3995 45.4787 59.9493 45.4787Z" fill="#9DB7A9"/>
<path d="M59.9493 64.8446C60.499 64.8446 60.9447 64.3998 60.9447 63.8511C60.9447 63.3024 60.499 62.8576 59.9493 62.8576C59.3995 62.8576 58.9538 63.3024 58.9538 63.8511C58.9538 64.3998 59.3995 64.8446 59.9493 64.8446Z" fill="#9DB7A9"/>
<path d="M59.9493 55.1616C60.499 55.1616 60.9447 54.7168 60.9447 54.1681C60.9447 53.6194 60.499 53.1746 59.9493 53.1746C59.3995 53.1746 58.9538 53.6194 58.9538 54.1681C58.9538 54.7168 59.3995 55.1616 59.9493 55.1616Z" fill="#9DB7A9"/>
<path d="M59.9493 35.7957C60.499 35.7957 60.9447 35.3509 60.9447 34.8022C60.9447 34.2535 60.499 33.8087 59.9493 33.8087C59.3995 33.8087 58.9538 34.2535 58.9538 34.8022C58.9538 35.3509 59.3995 35.7957 59.9493 35.7957Z" fill="#9DB7A9"/>
<path d="M51.5252 50.3127C52.0749 50.3127 52.5206 49.8679 52.5206 49.3192C52.5206 48.7705 52.0749 48.3257 51.5252 48.3257C50.9754 48.3257 50.5297 48.7705 50.5297 49.3192C50.5297 49.8679 50.9754 50.3127 51.5252 50.3127Z" fill="#9DB7A9"/>
<path d="M43.1011 55.132C43.6508 55.132 44.0965 54.6872 44.0965 54.1385C44.0965 53.5898 43.6508 53.145 43.1011 53.145C42.5513 53.145 42.1056 53.5898 42.1056 54.1385C42.1056 54.6872 42.5513 55.132 43.1011 55.132Z" fill="#9DB7A9"/>
<path d="M34.677 59.9512C35.2268 59.9512 35.6724 59.5064 35.6724 58.9577C35.6724 58.409 35.2268 57.9642 34.677 57.9642C34.1272 57.9642 33.6815 58.409 33.6815 58.9577C33.6815 59.5064 34.1272 59.9512 34.677 59.9512Z" fill="#9DB7A9"/>
<path d="M26.2677 64.8594C26.8175 64.8594 27.2632 64.4146 27.2632 63.8659C27.2632 63.3172 26.8175 62.8724 26.2677 62.8724C25.718 62.8724 25.2723 63.3172 25.2723 63.8659C25.2723 64.4146 25.718 64.8594 26.2677 64.8594Z" fill="#9DB7A9"/>
<path d="M68.3734 30.9765C68.9232 30.9765 69.3688 30.5317 69.3688 29.983C69.3688 29.4343 68.9232 28.9895 68.3734 28.9895C67.8236 28.9895 67.3779 29.4343 67.3779 29.983C67.3779 30.5317 67.8236 30.9765 68.3734 30.9765Z" fill="#9DB7A9"/>
<path d="M68.3734 21.2936C68.9232 21.2936 69.3688 20.8488 69.3688 20.3001C69.3688 19.7514 68.9232 19.3066 68.3734 19.3066C67.8236 19.3066 67.3779 19.7514 67.3779 20.3001C67.3779 20.8488 67.8236 21.2936 68.3734 21.2936Z" fill="#9DB7A9"/>
<path d="M59.9493 16.4595C60.499 16.4595 60.9447 16.0147 60.9447 15.466C60.9447 14.9173 60.499 14.4725 59.9493 14.4725C59.3995 14.4725 58.9538 14.9173 58.9538 15.466C58.9538 16.0147 59.3995 16.4595 59.9493 16.4595Z" fill="#9DB7A9"/>
<path d="M59.9493 26.1128C60.499 26.1128 60.9447 25.668 60.9447 25.1193C60.9447 24.5706 60.499 24.1258 59.9493 24.1258C59.3995 24.1258 58.9538 24.5706 58.9538 25.1193C58.9538 25.668 59.3995 26.1128 59.9493 26.1128Z" fill="#9DB7A9"/>
<path d="M51.5252 21.2936C52.0749 21.2936 52.5206 20.8488 52.5206 20.3001C52.5206 19.7514 52.0749 19.3066 51.5252 19.3066C50.9754 19.3066 50.5297 19.7514 50.5297 20.3001C50.5297 20.8488 50.9754 21.2936 51.5252 21.2936Z" fill="#9DB7A9"/>
<path d="M43.1159 26.098C43.6657 26.098 44.1114 25.6532 44.1114 25.1045C44.1114 24.5558 43.6657 24.111 43.1159 24.111C42.5662 24.111 42.1205 24.5558 42.1205 25.1045C42.1205 25.6532 42.5662 26.098 43.1159 26.098Z" fill="#9DB7A9"/>
<path d="M34.677 30.932C35.2268 30.932 35.6724 30.4872 35.6724 29.9385C35.6724 29.3898 35.2268 28.945 34.677 28.945C34.1272 28.945 33.6815 29.3898 33.6815 29.9385C33.6815 30.4872 34.1272 30.932 34.677 30.932Z" fill="#9DB7A9"/>
<path d="M26.2529 35.7661C26.8027 35.7661 27.2483 35.3213 27.2483 34.7726C27.2483 34.2239 26.8027 33.7791 26.2529 33.7791C25.7031 33.7791 25.2574 34.2239 25.2574 34.7726C25.2574 35.3213 25.7031 35.7661 26.2529 35.7661Z" fill="#9DB7A9"/>
<path d="M9.41954 76.6924C11.1673 76.6924 12.5841 75.2783 12.5841 73.534C12.5841 71.7896 11.1673 70.3755 9.41954 70.3755C7.67178 70.3755 6.25493 71.7896 6.25493 73.534C6.25493 75.2783 7.67178 76.6924 9.41954 76.6924Z" fill="#788E72"/>
<path d="M9.41954 67.0095C11.1673 67.0095 12.5841 65.5954 12.5841 63.851C12.5841 62.1067 11.1673 60.6926 9.41954 60.6926C7.67178 60.6926 6.25493 62.1067 6.25493 63.851C6.25493 65.5954 7.67178 67.0095 9.41954 67.0095Z" fill="#788E72"/>
<path d="M9.41954 57.3266C11.1673 57.3266 12.5841 55.9125 12.5841 54.1681C12.5841 52.4237 11.1673 51.0097 9.41954 51.0097C7.67178 51.0097 6.25493 52.4237 6.25493 54.1681C6.25493 55.9125 7.67178 57.3266 9.41954 57.3266Z" fill="#788E72"/>
<path d="M9.41954 47.6436C11.1673 47.6436 12.5841 46.2295 12.5841 44.4852C12.5841 42.7408 11.1673 41.3267 9.41954 41.3267C7.67178 41.3267 6.25493 42.7408 6.25493 44.4852C6.25493 46.2295 7.67178 47.6436 9.41954 47.6436Z" fill="#788E72"/>
<path d="M9.41954 37.931C11.1673 37.931 12.5841 36.5169 12.5841 34.7726C12.5841 33.0282 11.1673 31.6141 9.41954 31.6141C7.67178 31.6141 6.25493 33.0282 6.25493 34.7726C6.25493 36.5169 7.67178 37.931 9.41954 37.931Z" fill="#788E72"/>
<path d="M9.41954 28.2777C11.1673 28.2777 12.5841 26.8637 12.5841 25.1193C12.5841 23.3749 11.1673 21.9608 9.41954 21.9608C7.67178 21.9608 6.25493 23.3749 6.25493 25.1193C6.25493 26.8637 7.67178 28.2777 9.41954 28.2777Z" fill="#788E72"/>
<path d="M17.8436 23.4585C19.5914 23.4585 21.0082 22.0444 21.0082 20.3001C21.0082 18.5557 19.5914 17.1416 17.8436 17.1416C16.0959 17.1416 14.679 18.5557 14.679 20.3001C14.679 22.0444 16.0959 23.4585 17.8436 23.4585Z" fill="#788E72"/>
<path d="M26.2529 18.6245C28.0006 18.6245 29.4175 17.2104 29.4175 15.466C29.4175 13.7216 28.0006 12.3076 26.2529 12.3076C24.5051 12.3076 23.0883 13.7216 23.0883 15.466C23.0883 17.2104 24.5051 18.6245 26.2529 18.6245Z" fill="#788E72"/>
<path d="M34.6918 13.8052C36.4396 13.8052 37.8564 12.3911 37.8564 10.6468C37.8564 8.90242 36.4396 7.48834 34.6918 7.48834C32.9441 7.48834 31.5272 8.90242 31.5272 10.6468C31.5272 12.3911 32.9441 13.8052 34.6918 13.8052Z" fill="#788E72"/>
<path d="M43.1011 8.97118C44.8489 8.97118 46.2657 7.55709 46.2657 5.81273C46.2657 4.06837 44.8489 2.65428 43.1011 2.65428C41.3533 2.65428 39.9365 4.06837 39.9365 5.81273C39.9365 7.55709 41.3533 8.97118 43.1011 8.97118Z" fill="#788E72"/>
<path d="M51.5252 13.8052C53.2729 13.8052 54.6898 12.3911 54.6898 10.6468C54.6898 8.90242 53.2729 7.48834 51.5252 7.48834C49.7774 7.48834 48.3606 8.90242 48.3606 10.6468C48.3606 12.3911 49.7774 13.8052 51.5252 13.8052Z" fill="#788E72"/>
<path d="M43.1011 18.6245C44.8489 18.6245 46.2657 17.2104 46.2657 15.466C46.2657 13.7216 44.8489 12.3076 43.1011 12.3076C41.3533 12.3076 39.9365 13.7216 39.9365 15.466C39.9365 17.2104 41.3533 18.6245 43.1011 18.6245Z" fill="#788E72"/>
<path d="M34.6918 23.4585C36.4396 23.4585 37.8564 22.0444 37.8564 20.3001C37.8564 18.5557 36.4396 17.1416 34.6918 17.1416C32.9441 17.1416 31.5272 18.5557 31.5272 20.3001C31.5272 22.0444 32.9441 23.4585 34.6918 23.4585Z" fill="#788E72"/>
<path d="M26.2529 28.2629C28.0006 28.2629 29.4175 26.8488 29.4175 25.1045C29.4175 23.3601 28.0006 21.946 26.2529 21.946C24.5051 21.946 23.0883 23.3601 23.0883 25.1045C23.0883 26.8488 24.5051 28.2629 26.2529 28.2629Z" fill="#788E72"/>
<path d="M17.8436 33.097C19.5914 33.097 21.0082 31.6829 21.0082 29.9385C21.0082 28.1942 19.5914 26.7801 17.8436 26.7801C16.0959 26.7801 14.679 28.1942 14.679 29.9385C14.679 31.6829 16.0959 33.097 17.8436 33.097Z" fill="#788E72"/>
<path d="M17.8436 42.7947C19.5914 42.7947 21.0082 41.3807 21.0082 39.6363C21.0082 37.8919 19.5914 36.4778 17.8436 36.4778C16.0959 36.4778 14.679 37.8919 14.679 39.6363C14.679 41.3807 16.0959 42.7947 17.8436 42.7947Z" fill="#788E72"/>
<path d="M17.8436 52.4777C19.5914 52.4777 21.0082 51.0636 21.0082 49.3192C21.0082 47.5749 19.5914 46.1608 17.8436 46.1608C16.0959 46.1608 14.679 47.5749 14.679 49.3192C14.679 51.0636 16.0959 52.4777 17.8436 52.4777Z" fill="#788E72"/>
<path d="M17.8436 62.1606C19.5914 62.1606 21.0082 60.7465 21.0082 59.0022C21.0082 57.2578 19.5914 55.8437 17.8436 55.8437C16.0959 55.8437 14.679 57.2578 14.679 59.0022C14.679 60.7465 16.0959 62.1606 17.8436 62.1606Z" fill="#788E72"/>
<path d="M17.8436 71.8435C19.5914 71.8435 21.0082 70.4295 21.0082 68.6851C21.0082 66.9407 19.5914 65.5266 17.8436 65.5266C16.0959 65.5266 14.679 66.9407 14.679 68.6851C14.679 70.4295 16.0959 71.8435 17.8436 71.8435Z" fill="#788E72"/>
<path d="M17.8436 81.5265C19.5914 81.5265 21.0082 80.1124 21.0082 78.368C21.0082 76.6237 19.5914 75.2096 17.8436 75.2096C16.0959 75.2096 14.679 76.6237 14.679 78.368C14.679 80.1124 16.0959 81.5265 17.8436 81.5265Z" fill="#788E72"/>
<path d="M26.2529 86.3457C28.0006 86.3457 29.4175 84.9316 29.4175 83.1873C29.4175 81.4429 28.0006 80.0288 26.2529 80.0288C24.5051 80.0288 23.0883 81.4429 23.0883 83.1873C23.0883 84.9316 24.5051 86.3457 26.2529 86.3457Z" fill="#788E72"/>
<path d="M34.677 81.5265C36.4247 81.5265 37.8416 80.1124 37.8416 78.368C37.8416 76.6237 36.4247 75.2096 34.677 75.2096C32.9292 75.2096 31.5124 76.6237 31.5124 78.368C31.5124 80.1124 32.9292 81.5265 34.677 81.5265Z" fill="#788E72"/>
<path d="M26.2529 76.6924C28.0006 76.6924 29.4175 75.2783 29.4175 73.534C29.4175 71.7896 28.0006 70.3755 26.2529 70.3755C24.5051 70.3755 23.0883 71.7896 23.0883 73.534C23.0883 75.2783 24.5051 76.6924 26.2529 76.6924Z" fill="#788E72"/>
<path d="M34.6918 71.8732C36.4396 71.8732 37.8564 70.4591 37.8564 68.7148C37.8564 66.9704 36.4396 65.5563 34.6918 65.5563C32.9441 65.5563 31.5272 66.9704 31.5272 68.7148C31.5272 70.4591 32.9441 71.8732 34.6918 71.8732Z" fill="#788E72"/>
<path d="M43.1159 67.0243C44.8637 67.0243 46.2805 65.6102 46.2805 63.8659C46.2805 62.1215 44.8637 60.7074 43.1159 60.7074C41.3682 60.7074 39.9513 62.1215 39.9513 63.8659C39.9513 65.6102 41.3682 67.0243 43.1159 67.0243Z" fill="#788E72"/>
<path d="M51.5252 62.2199C53.2729 62.2199 54.6898 60.8058 54.6898 59.0615C54.6898 57.3171 53.2729 55.903 51.5252 55.903C49.7774 55.903 48.3606 57.3171 48.3606 59.0615C48.3606 60.8058 49.7774 62.2199 51.5252 62.2199Z" fill="#788E72"/>
<path d="M26.2529 47.6288C28.0006 47.6288 29.4175 46.2147 29.4175 44.4703C29.4175 42.726 28.0006 41.3119 26.2529 41.3119C24.5051 41.3119 23.0883 42.726 23.0883 44.4703C23.0883 46.2147 24.5051 47.6288 26.2529 47.6288Z" fill="#788E72"/>
<path d="M34.6918 42.8096C36.4396 42.8096 37.8564 41.3955 37.8564 39.6511C37.8564 37.9068 36.4396 36.4927 34.6918 36.4927C32.9441 36.4927 31.5272 37.9068 31.5272 39.6511C31.5272 41.3955 32.9441 42.8096 34.6918 42.8096Z" fill="#788E72"/>
<path d="M43.1159 37.9607C44.8637 37.9607 46.2805 36.5466 46.2805 34.8022C46.2805 33.0579 44.8637 31.6438 43.1159 31.6438C41.3682 31.6438 39.9513 33.0579 39.9513 34.8022C39.9513 36.5466 41.3682 37.9607 43.1159 37.9607Z" fill="#788E72"/>
<path d="M51.5252 33.1563C53.2729 33.1563 54.6898 31.7422 54.6898 29.9978C54.6898 28.2535 53.2729 26.8394 51.5252 26.8394C49.7774 26.8394 48.3606 28.2535 48.3606 29.9978C48.3606 31.7422 49.7774 33.1563 51.5252 33.1563Z" fill="#788E72"/>
<path d="M26.2529 57.2672C28.0006 57.2672 29.4175 55.8532 29.4175 54.1088C29.4175 52.3644 28.0006 50.9503 26.2529 50.9503C24.5051 50.9503 23.0883 52.3644 23.0883 54.1088C23.0883 55.8532 24.5051 57.2672 26.2529 57.2672Z" fill="#788E72"/>
<path d="M34.6918 52.4332C36.4396 52.4332 37.8564 51.0191 37.8564 49.2747C37.8564 47.5304 36.4396 46.1163 34.6918 46.1163C32.9441 46.1163 31.5272 47.5304 31.5272 49.2747C31.5272 51.0191 32.9441 52.4332 34.6918 52.4332Z" fill="#788E72"/>
<path d="M43.1159 47.5991C44.8637 47.5991 46.2805 46.185 46.2805 44.4407C46.2805 42.6963 44.8637 41.2822 43.1159 41.2822C41.3682 41.2822 39.9513 42.6963 39.9513 44.4407C39.9513 46.185 41.3682 47.5991 43.1159 47.5991Z" fill="#788E72"/>
<path d="M51.5252 42.7947C53.2729 42.7947 54.6898 41.3807 54.6898 39.6363C54.6898 37.8919 53.2729 36.4778 51.5252 36.4778C49.7774 36.4778 48.3606 37.8919 48.3606 39.6363C48.3606 41.3807 49.7774 42.7947 51.5252 42.7947Z" fill="#788E72"/>
<path d="M43.1159 76.6924C44.8637 76.6924 46.2805 75.2783 46.2805 73.534C46.2805 71.7896 44.8637 70.3755 43.1159 70.3755C41.3682 70.3755 39.9513 71.7896 39.9513 73.534C39.9513 75.2783 41.3682 76.6924 43.1159 76.6924Z" fill="#788E72"/>
<path d="M51.5252 71.8732C53.2729 71.8732 54.6898 70.4591 54.6898 68.7148C54.6898 66.9704 53.2729 65.5563 51.5252 65.5563C49.7774 65.5563 48.3606 66.9704 48.3606 68.7148C48.3606 70.4591 49.7774 71.8732 51.5252 71.8732Z" fill="#788E72"/>
</g>
<defs>
<clipPath id="clip0_1_231">
<rect width="290" height="89" fill="white"/>
</clipPath>
</defs>
</svg>
