<svg width="70" height="90" viewBox="0 0 70 90" fill="none" xmlns="http://www.w3.org/2000/svg">
<path d="M34.6908 1.987C35.2405 1.987 35.6862 1.5422 35.6862 0.993502C35.6862 0.444806 35.2405 0 34.6908 0C34.141 0 33.6953 0.444806 33.6953 0.993502C33.6953 1.5422 34.141 1.987 34.6908 1.987Z" fill="#9DB7A9"/>
<path d="M26.2533 6.80732C26.803 6.80732 27.2487 6.36251 27.2487 5.81381C27.2487 5.26512 26.803 4.82031 26.2533 4.82031C25.7035 4.82031 25.2578 5.26512 25.2578 5.81381C25.2578 6.36251 25.7035 6.80732 26.2533 6.80732Z" fill="#9DB7A9"/>
<path d="M17.8431 11.6257C18.3929 11.6257 18.8385 11.1809 18.8385 10.6322C18.8385 10.0835 18.3929 9.63867 17.8431 9.63867C17.2933 9.63867 16.8477 10.0835 16.8477 10.6322C16.8477 11.1809 17.2933 11.6257 17.8431 11.6257Z" fill="#9DB7A9"/>
<path d="M9.42122 16.4597C9.97099 16.4597 10.4167 16.0149 10.4167 15.4662C10.4167 14.9175 9.97099 14.4727 9.42122 14.4727C8.87146 14.4727 8.42578 14.9175 8.42578 15.4662C8.42578 16.0149 8.87146 16.4597 9.42122 16.4597Z" fill="#9DB7A9"/>
<path d="M0.99544 21.2936C1.54521 21.2936 1.99088 20.8488 1.99088 20.3001C1.99088 19.7514 1.54521 19.3066 0.99544 19.3066C0.445674 19.3066 0 19.7514 0 20.3001C0 20.8488 0.445674 21.2936 0.99544 21.2936Z" fill="#9DB7A9"/>
<path d="M0.99544 30.9753C1.54521 30.9753 1.99088 30.5305 1.99088 29.9818C1.99088 29.4331 1.54521 28.9883 0.99544 28.9883C0.445674 28.9883 0 29.4331 0 29.9818C0 30.5305 0.445674 30.9753 0.99544 30.9753Z" fill="#9DB7A9"/>
<path d="M0.99544 40.6589C1.54521 40.6589 1.99088 40.2141 1.99088 39.6654C1.99088 39.1167 1.54521 38.6719 0.99544 38.6719C0.445674 38.6719 0 39.1167 0 39.6654C0 40.2141 0.445674 40.6589 0.99544 40.6589Z" fill="#9DB7A9"/>
<path d="M0.99544 50.3132C1.54521 50.3132 1.99088 49.8684 1.99088 49.3197C1.99088 48.771 1.54521 48.3262 0.99544 48.3262C0.445674 48.3262 0 48.771 0 49.3197C0 49.8684 0.445674 50.3132 0.99544 50.3132Z" fill="#9DB7A9"/>
<path d="M0.99544 60.0261C1.54521 60.0261 1.99088 59.5813 1.99088 59.0326C1.99088 58.4839 1.54521 58.0391 0.99544 58.0391C0.445674 58.0391 0 58.4839 0 59.0326C0 59.5813 0.445674 60.0261 0.99544 60.0261Z" fill="#9DB7A9"/>
<path d="M0.99544 69.7097C1.54521 69.7097 1.99088 69.2649 1.99088 68.7162C1.99088 68.1675 1.54521 67.7227 0.99544 67.7227C0.445674 67.7227 0 68.1675 0 68.7162C0 69.2649 0.445674 69.7097 0.99544 69.7097Z" fill="#9DB7A9"/>
<path d="M34.6751 89.0143C35.2249 89.0143 35.6706 88.5695 35.6706 88.0208C35.6706 87.4722 35.2249 87.0273 34.6751 87.0273C34.1254 87.0273 33.6797 87.4722 33.6797 88.0208C33.6797 88.5695 34.1254 89.0143 34.6751 89.0143Z" fill="#9DB7A9"/>
<path d="M43.1009 84.1804C43.6507 84.1804 44.0963 83.7356 44.0963 83.1869C44.0963 82.6382 43.6507 82.1934 43.1009 82.1934C42.5511 82.1934 42.1055 82.6382 42.1055 83.1869C42.1055 83.7356 42.5511 84.1804 43.1009 84.1804Z" fill="#9DB7A9"/>
<path d="M51.5267 79.362C52.0765 79.362 52.5221 78.9172 52.5221 78.3685C52.5221 77.8198 52.0765 77.375 51.5267 77.375C50.9769 77.375 50.5312 77.8198 50.5312 78.3685C50.5312 78.9172 50.9769 79.362 51.5267 79.362Z" fill="#9DB7A9"/>
<path d="M59.9486 74.5261C60.4983 74.5261 60.944 74.0813 60.944 73.5326C60.944 72.9839 60.4983 72.5391 59.9486 72.5391C59.3988 72.5391 58.9531 72.9839 58.9531 73.5326C58.9531 74.0813 59.3988 74.5261 59.9486 74.5261Z" fill="#9DB7A9"/>
<path d="M68.3743 69.7097C68.9241 69.7097 69.3698 69.2649 69.3698 68.7162C69.3698 68.1675 68.9241 67.7227 68.3743 67.7227C67.8246 67.7227 67.3789 68.1675 67.3789 68.7162C67.3789 69.2649 67.8246 69.7097 68.3743 69.7097Z" fill="#9DB7A9"/>
<path d="M68.3743 60.0261C68.9241 60.0261 69.3698 59.5813 69.3698 59.0326C69.3698 58.4839 68.9241 58.0391 68.3743 58.0391C67.8246 58.0391 67.3789 58.4839 67.3789 59.0326C67.3789 59.5813 67.8246 60.0261 68.3743 60.0261Z" fill="#9DB7A9"/>
<path d="M68.3743 50.3425C68.9241 50.3425 69.3698 49.8977 69.3698 49.349C69.3698 48.8003 68.9241 48.3555 68.3743 48.3555C67.8246 48.3555 67.3789 48.8003 67.3789 49.349C67.3789 49.8977 67.8246 50.3425 68.3743 50.3425Z" fill="#9DB7A9"/>
<path d="M68.3743 40.6589C68.9241 40.6589 69.3698 40.2141 69.3698 39.6654C69.3698 39.1167 68.9241 38.6719 68.3743 38.6719C67.8246 38.6719 67.3789 39.1167 67.3789 39.6654C67.3789 40.2141 67.8246 40.6589 68.3743 40.6589Z" fill="#9DB7A9"/>
<path d="M59.9486 45.4792C60.4983 45.4792 60.944 45.0344 60.944 44.4857C60.944 43.937 60.4983 43.4922 59.9486 43.4922C59.3988 43.4922 58.9531 43.937 58.9531 44.4857C58.9531 45.0344 59.3988 45.4792 59.9486 45.4792Z" fill="#9DB7A9"/>
<path d="M59.9486 64.8444C60.4983 64.8444 60.944 64.3996 60.944 63.8509C60.944 63.3022 60.4983 62.8574 59.9486 62.8574C59.3988 62.8574 58.9531 63.3022 58.9531 63.8509C58.9531 64.3996 59.3988 64.8444 59.9486 64.8444Z" fill="#9DB7A9"/>
<path d="M59.9486 55.1608C60.4983 55.1608 60.944 54.716 60.944 54.1673C60.944 53.6186 60.4983 53.1738 59.9486 53.1738C59.3988 53.1738 58.9531 53.6186 58.9531 54.1673C58.9531 54.716 59.3988 55.1608 59.9486 55.1608Z" fill="#9DB7A9"/>
<path d="M59.9486 35.7956C60.4983 35.7956 60.944 35.3508 60.944 34.8021C60.944 34.2534 60.4983 33.8086 59.9486 33.8086C59.3988 33.8086 58.9531 34.2534 58.9531 34.8021C58.9531 35.3508 59.3988 35.7956 59.9486 35.7956Z" fill="#9DB7A9"/>
<path d="M51.5267 50.3132C52.0765 50.3132 52.5221 49.8684 52.5221 49.3197C52.5221 48.771 52.0765 48.3262 51.5267 48.3262C50.9769 48.3262 50.5312 48.771 50.5312 49.3197C50.5312 49.8684 50.9769 50.3132 51.5267 50.3132Z" fill="#9DB7A9"/>
<path d="M43.1009 55.1315C43.6507 55.1315 44.0963 54.6867 44.0963 54.138C44.0963 53.5893 43.6507 53.1445 43.1009 53.1445C42.5511 53.1445 42.1055 53.5893 42.1055 54.138C42.1055 54.6867 42.5511 55.1315 43.1009 55.1315Z" fill="#9DB7A9"/>
<path d="M34.6751 59.9518C35.2249 59.9518 35.6706 59.507 35.6706 58.9583C35.6706 58.4096 35.2249 57.9648 34.6751 57.9648C34.1254 57.9648 33.6797 58.4096 33.6797 58.9583C33.6797 59.507 34.1254 59.9518 34.6751 59.9518Z" fill="#9DB7A9"/>
<path d="M26.2689 64.8581C26.8186 64.8581 27.2643 64.4133 27.2643 63.8646C27.2643 63.3159 26.8186 62.8711 26.2689 62.8711C25.7191 62.8711 25.2734 63.3159 25.2734 63.8646C25.2734 64.4133 25.7191 64.8581 26.2689 64.8581Z" fill="#9DB7A9"/>
<path d="M68.3743 30.9753C68.9241 30.9753 69.3698 30.5305 69.3698 29.9818C69.3698 29.4331 68.9241 28.9883 68.3743 28.9883C67.8246 28.9883 67.3789 29.4331 67.3789 29.9818C67.3789 30.5305 67.8246 30.9753 68.3743 30.9753Z" fill="#9DB7A9"/>
<path d="M68.3743 21.2936C68.9241 21.2936 69.3698 20.8488 69.3698 20.3001C69.3698 19.7514 68.9241 19.3066 68.3743 19.3066C67.8246 19.3066 67.3789 19.7514 67.3789 20.3001C67.3789 20.8488 67.8246 21.2936 68.3743 21.2936Z" fill="#9DB7A9"/>
<path d="M59.9486 16.4597C60.4983 16.4597 60.944 16.0149 60.944 15.4662C60.944 14.9175 60.4983 14.4727 59.9486 14.4727C59.3988 14.4727 58.9531 14.9175 58.9531 15.4662C58.9531 16.0149 59.3988 16.4597 59.9486 16.4597Z" fill="#9DB7A9"/>
<path d="M59.9486 26.112C60.4983 26.112 60.944 25.6672 60.944 25.1185C60.944 24.5698 60.4983 24.125 59.9486 24.125C59.3988 24.125 58.9531 24.5698 58.9531 25.1185C58.9531 25.6672 59.3988 26.112 59.9486 26.112Z" fill="#9DB7A9"/>
<path d="M51.5267 21.2936C52.0765 21.2936 52.5221 20.8488 52.5221 20.3001C52.5221 19.7514 52.0765 19.3066 51.5267 19.3066C50.9769 19.3066 50.5312 19.7514 50.5312 20.3001C50.5312 20.8488 50.9769 21.2936 51.5267 21.2936Z" fill="#9DB7A9"/>
<path d="M43.1165 26.0983C43.6663 26.0983 44.112 25.6535 44.112 25.1048C44.112 24.5561 43.6663 24.1113 43.1165 24.1113C42.5668 24.1113 42.1211 24.5561 42.1211 25.1048C42.1211 25.6535 42.5668 26.0983 43.1165 26.0983Z" fill="#9DB7A9"/>
<path d="M34.6751 30.9323C35.2249 30.9323 35.6706 30.4875 35.6706 29.9388C35.6706 29.3901 35.2249 28.9453 34.6751 28.9453C34.1254 28.9453 33.6797 29.3901 33.6797 29.9388C33.6797 30.4875 34.1254 30.9323 34.6751 30.9323Z" fill="#9DB7A9"/>
<path d="M26.2533 35.7663C26.803 35.7663 27.2487 35.3215 27.2487 34.7728C27.2487 34.2241 26.803 33.7793 26.2533 33.7793C25.7035 33.7793 25.2578 34.2241 25.2578 34.7728C25.2578 35.3215 25.7035 35.7663 26.2533 35.7663Z" fill="#9DB7A9"/>
<path d="M9.41852 76.6919C11.1663 76.6919 12.5831 75.2778 12.5831 73.5334C12.5831 71.7891 11.1663 70.375 9.41852 70.375C7.67075 70.375 6.25391 71.7891 6.25391 73.5334C6.25391 75.2778 7.67075 76.6919 9.41852 76.6919Z" fill="#788E72"/>
<path d="M9.41852 67.0103C11.1663 67.0103 12.5831 65.5962 12.5831 63.8518C12.5831 62.1074 11.1663 60.6934 9.41852 60.6934C7.67075 60.6934 6.25391 62.1074 6.25391 63.8518C6.25391 65.5962 7.67075 67.0103 9.41852 67.0103Z" fill="#788E72"/>
<path d="M9.41852 57.3267C11.1663 57.3267 12.5831 55.9126 12.5831 54.1682C12.5831 52.4238 11.1663 51.0098 9.41852 51.0098C7.67075 51.0098 6.25391 52.4238 6.25391 54.1682C6.25391 55.9126 7.67075 57.3267 9.41852 57.3267Z" fill="#788E72"/>
<path d="M9.41852 47.645C11.1663 47.645 12.5831 46.2309 12.5831 44.4866C12.5831 42.7422 11.1663 41.3281 9.41852 41.3281C7.67075 41.3281 6.25391 42.7422 6.25391 44.4866C6.25391 46.2309 7.67075 47.645 9.41852 47.645Z" fill="#788E72"/>
<path d="M9.41852 37.9302C11.1663 37.9302 12.5831 36.5161 12.5831 34.7717C12.5831 33.0274 11.1663 31.6133 9.41852 31.6133C7.67075 31.6133 6.25391 33.0274 6.25391 34.7717C6.25391 36.5161 7.67075 37.9302 9.41852 37.9302Z" fill="#788E72"/>
<path d="M9.41852 28.2778C11.1663 28.2778 12.5831 26.8637 12.5831 25.1194C12.5831 23.375 11.1663 21.9609 9.41852 21.9609C7.67075 21.9609 6.25391 23.375 6.25391 25.1194C6.25391 26.8637 7.67075 28.2778 9.41852 28.2778Z" fill="#788E72"/>
<path d="M17.8443 23.4575C19.5921 23.4575 21.0089 22.0434 21.0089 20.2991C21.0089 18.5547 19.5921 17.1406 17.8443 17.1406C16.0965 17.1406 14.6797 18.5547 14.6797 20.2991C14.6797 22.0434 16.0965 23.4575 17.8443 23.4575Z" fill="#788E72"/>
<path d="M26.2545 18.6255C28.0022 18.6255 29.4191 17.2114 29.4191 15.467C29.4191 13.7227 28.0022 12.3086 26.2545 12.3086C24.5067 12.3086 23.0898 13.7227 23.0898 15.467C23.0898 17.2114 24.5067 18.6255 26.2545 18.6255Z" fill="#788E72"/>
<path d="M34.692 13.8052C36.4397 13.8052 37.8566 12.3911 37.8566 10.6467C37.8566 8.90237 36.4397 7.48828 34.692 7.48828C32.9442 7.48828 31.5273 8.90237 31.5273 10.6467C31.5273 12.3911 32.9442 13.8052 34.692 13.8052Z" fill="#788E72"/>
<path d="M43.1021 8.97119C44.8499 8.97119 46.2667 7.55711 46.2667 5.81274C46.2667 4.06838 44.8499 2.6543 43.1021 2.6543C41.3543 2.6543 39.9375 4.06838 39.9375 5.81274C39.9375 7.55711 41.3543 8.97119 43.1021 8.97119Z" fill="#788E72"/>
<path d="M51.524 13.8052C53.2718 13.8052 54.6886 12.3911 54.6886 10.6467C54.6886 8.90237 53.2718 7.48828 51.524 7.48828C49.7762 7.48828 48.3594 8.90237 48.3594 10.6467C48.3594 12.3911 49.7762 13.8052 51.524 13.8052Z" fill="#788E72"/>
<path d="M43.1021 18.6255C44.8499 18.6255 46.2667 17.2114 46.2667 15.467C46.2667 13.7227 44.8499 12.3086 43.1021 12.3086C41.3543 12.3086 39.9375 13.7227 39.9375 15.467C39.9375 17.2114 41.3543 18.6255 43.1021 18.6255Z" fill="#788E72"/>
<path d="M34.692 23.4575C36.4397 23.4575 37.8566 22.0434 37.8566 20.2991C37.8566 18.5547 36.4397 17.1406 34.692 17.1406C32.9442 17.1406 31.5273 18.5547 31.5273 20.2991C31.5273 22.0434 32.9442 23.4575 34.692 23.4575Z" fill="#788E72"/>
<path d="M26.2545 28.2622C28.0022 28.2622 29.4191 26.8481 29.4191 25.1038C29.4191 23.3594 28.0022 21.9453 26.2545 21.9453C24.5067 21.9453 23.0898 23.3594 23.0898 25.1038C23.0898 26.8481 24.5067 28.2622 26.2545 28.2622Z" fill="#788E72"/>
<path d="M17.8443 33.0962C19.5921 33.0962 21.0089 31.6821 21.0089 29.9377C21.0089 28.1934 19.5921 26.7793 17.8443 26.7793C16.0965 26.7793 14.6797 28.1934 14.6797 29.9377C14.6797 31.6821 16.0965 33.0962 17.8443 33.0962Z" fill="#788E72"/>
<path d="M17.8443 42.7935C19.5921 42.7935 21.0089 41.3794 21.0089 39.635C21.0089 37.8906 19.5921 36.4766 17.8443 36.4766C16.0965 36.4766 14.6797 37.8906 14.6797 39.635C14.6797 41.3794 16.0965 42.7935 17.8443 42.7935Z" fill="#788E72"/>
<path d="M17.8443 52.4771C19.5921 52.4771 21.0089 51.063 21.0089 49.3186C21.0089 47.5742 19.5921 46.1602 17.8443 46.1602C16.0965 46.1602 14.6797 47.5742 14.6797 49.3186C14.6797 51.063 16.0965 52.4771 17.8443 52.4771Z" fill="#788E72"/>
<path d="M17.8443 62.1606C19.5921 62.1606 21.0089 60.7466 21.0089 59.0022C21.0089 57.2578 19.5921 55.8438 17.8443 55.8438C16.0965 55.8438 14.6797 57.2578 14.6797 59.0022C14.6797 60.7466 16.0965 62.1606 17.8443 62.1606Z" fill="#788E72"/>
<path d="M17.8443 71.8442C19.5921 71.8442 21.0089 70.4302 21.0089 68.6858C21.0089 66.9414 19.5921 65.5273 17.8443 65.5273C16.0965 65.5273 14.6797 66.9414 14.6797 68.6858C14.6797 70.4302 16.0965 71.8442 17.8443 71.8442Z" fill="#788E72"/>
<path d="M17.8443 81.5278C19.5921 81.5278 21.0089 80.1137 21.0089 78.3694C21.0089 76.625 19.5921 75.2109 17.8443 75.2109C16.0965 75.2109 14.6797 76.625 14.6797 78.3694C14.6797 80.1137 16.0965 81.5278 17.8443 81.5278Z" fill="#788E72"/>
<path d="M26.2545 86.3462C28.0022 86.3462 29.4191 84.9321 29.4191 83.1877C29.4191 81.4434 28.0022 80.0293 26.2545 80.0293C24.5067 80.0293 23.0898 81.4434 23.0898 83.1877C23.0898 84.9321 24.5067 86.3462 26.2545 86.3462Z" fill="#788E72"/>
<path d="M34.6763 81.5278C36.4241 81.5278 37.8409 80.1137 37.8409 78.3694C37.8409 76.625 36.4241 75.2109 34.6763 75.2109C32.9286 75.2109 31.5117 76.625 31.5117 78.3694C31.5117 80.1137 32.9286 81.5278 34.6763 81.5278Z" fill="#788E72"/>
<path d="M26.2545 76.6919C28.0022 76.6919 29.4191 75.2778 29.4191 73.5334C29.4191 71.7891 28.0022 70.375 26.2545 70.375C24.5067 70.375 23.0898 71.7891 23.0898 73.5334C23.0898 75.2778 24.5067 76.6919 26.2545 76.6919Z" fill="#788E72"/>
<path d="M34.692 71.8735C36.4397 71.8735 37.8566 70.4595 37.8566 68.7151C37.8566 66.9707 36.4397 65.5566 34.692 65.5566C32.9442 65.5566 31.5273 66.9707 31.5273 68.7151C31.5273 70.4595 32.9442 71.8735 34.692 71.8735Z" fill="#788E72"/>
<path d="M43.1177 67.0239C44.8655 67.0239 46.2823 65.6098 46.2823 63.8655C46.2823 62.1211 44.8655 60.707 43.1177 60.707C41.37 60.707 39.9531 62.1211 39.9531 63.8655C39.9531 65.6098 41.37 67.0239 43.1177 67.0239Z" fill="#788E72"/>
<path d="M51.524 62.2192C53.2718 62.2192 54.6886 60.8052 54.6886 59.0608C54.6886 57.3164 53.2718 55.9023 51.524 55.9023C49.7762 55.9023 48.3594 57.3164 48.3594 59.0608C48.3594 60.8052 49.7762 62.2192 51.524 62.2192Z" fill="#788E72"/>
<path d="M26.2545 47.6294C28.0022 47.6294 29.4191 46.2153 29.4191 44.4709C29.4191 42.7266 28.0022 41.3125 26.2545 41.3125C24.5067 41.3125 23.0898 42.7266 23.0898 44.4709C23.0898 46.2153 24.5067 47.6294 26.2545 47.6294Z" fill="#788E72"/>
<path d="M34.692 42.8091C36.4397 42.8091 37.8566 41.395 37.8566 39.6506C37.8566 37.9063 36.4397 36.4922 34.692 36.4922C32.9442 36.4922 31.5273 37.9063 31.5273 39.6506C31.5273 41.395 32.9442 42.8091 34.692 42.8091Z" fill="#788E72"/>
<path d="M43.1177 37.9614C44.8655 37.9614 46.2823 36.5473 46.2823 34.803C46.2823 33.0586 44.8655 31.6445 43.1177 31.6445C41.37 31.6445 39.9531 33.0586 39.9531 34.803C39.9531 36.5473 41.37 37.9614 43.1177 37.9614Z" fill="#788E72"/>
<path d="M51.524 33.1567C53.2718 33.1567 54.6886 31.7427 54.6886 29.9983C54.6886 28.2539 53.2718 26.8398 51.524 26.8398C49.7762 26.8398 48.3594 28.2539 48.3594 29.9983C48.3594 31.7427 49.7762 33.1567 51.524 33.1567Z" fill="#788E72"/>
<path d="M26.2545 57.2681C28.0022 57.2681 29.4191 55.854 29.4191 54.1096C29.4191 52.3653 28.0022 50.9512 26.2545 50.9512C24.5067 50.9512 23.0898 52.3653 23.0898 54.1096C23.0898 55.854 24.5067 57.2681 26.2545 57.2681Z" fill="#788E72"/>
<path d="M34.692 52.4341C36.4397 52.4341 37.8566 51.02 37.8566 49.2756C37.8566 47.5313 36.4397 46.1172 34.692 46.1172C32.9442 46.1172 31.5273 47.5313 31.5273 49.2756C31.5273 51.02 32.9442 52.4341 34.692 52.4341Z" fill="#788E72"/>
<path d="M43.1177 47.5981C44.8655 47.5981 46.2823 46.1841 46.2823 44.4397C46.2823 42.6953 44.8655 41.2812 43.1177 41.2812C41.37 41.2812 39.9531 42.6953 39.9531 44.4397C39.9531 46.1841 41.37 47.5981 43.1177 47.5981Z" fill="#788E72"/>
<path d="M51.524 42.7935C53.2718 42.7935 54.6886 41.3794 54.6886 39.635C54.6886 37.8906 53.2718 36.4766 51.524 36.4766C49.7762 36.4766 48.3594 37.8906 48.3594 39.635C48.3594 41.3794 49.7762 42.7935 51.524 42.7935Z" fill="#788E72"/>
<path d="M43.1177 76.6919C44.8655 76.6919 46.2823 75.2778 46.2823 73.5334C46.2823 71.7891 44.8655 70.375 43.1177 70.375C41.37 70.375 39.9531 71.7891 39.9531 73.5334C39.9531 75.2778 41.37 76.6919 43.1177 76.6919Z" fill="#788E72"/>
<path d="M51.524 71.8735C53.2718 71.8735 54.6886 70.4595 54.6886 68.7151C54.6886 66.9707 53.2718 65.5566 51.524 65.5566C49.7762 65.5566 48.3594 66.9707 48.3594 68.7151C48.3594 70.4595 49.7762 71.8735 51.524 71.8735Z" fill="#788E72"/>
</svg>
