<svg width="263" height="82" viewBox="0 0 263 82" fill="none" xmlns="http://www.w3.org/2000/svg">
<g clip-path="url(#clip0_59_13)">
<path d="M92.6049 44.758C92.0995 44.758 91.6758 44.5872 91.3337 44.2416C90.9878 43.8961 90.8167 43.473 90.8167 42.9683V19.71C90.8167 19.182 90.9878 18.7549 91.3337 18.4211C91.6758 18.0911 92.1034 17.9242 92.6049 17.9242H108.154C108.683 17.9242 109.107 18.0794 109.429 18.3861C109.752 18.6967 109.911 19.1043 109.911 19.6052C109.911 20.106 109.752 20.4748 109.429 20.7737C109.107 21.0726 108.683 21.2201 108.154 21.2201H94.3931V29.5708H104.267C104.796 29.5708 105.219 29.7261 105.542 30.0328C105.865 30.3433 106.024 30.7393 106.024 31.2168C106.024 31.6943 105.865 32.0942 105.542 32.4009C105.219 32.7115 104.796 32.8629 104.267 32.8629H94.3931V41.4503H108.154C108.683 41.4503 109.107 41.5979 109.429 41.8968C109.752 42.1957 109.911 42.5839 109.911 43.0653C109.911 43.5467 109.752 43.9777 109.429 44.2843C109.107 44.5949 108.683 44.7463 108.154 44.7463H92.6049V44.758Z" fill="#596F52"/>
<path d="M121.368 44.8939C119.533 44.8939 117.9 44.4746 116.466 43.6399C115.031 42.8052 113.908 41.6716 113.095 40.2391C112.283 38.8066 111.875 37.1877 111.875 35.3786C111.875 33.5695 112.275 31.8729 113.08 30.4326C113.881 28.9884 114.985 27.8626 116.384 27.0473C117.783 26.236 119.389 25.8283 121.2 25.8283C122.553 25.8283 123.793 26.0846 124.917 26.6009C126.04 27.1172 127.051 27.8898 127.945 28.9186C128.268 29.2874 128.38 29.664 128.287 30.0522C128.198 30.4443 127.945 30.7859 127.533 31.0848C127.21 31.3139 126.857 31.3877 126.468 31.31C126.079 31.2285 125.721 31.0305 125.403 30.7083C124.279 29.5164 122.88 28.9225 121.204 28.9225C120.034 28.9225 119.004 29.1942 118.11 29.73C117.216 30.2696 116.516 31.0188 116.011 31.9816C115.505 32.9444 115.253 34.078 115.253 35.3824C115.253 36.6209 115.509 37.7195 116.026 38.6784C116.543 39.6412 117.259 40.4021 118.176 40.9651C119.093 41.528 120.159 41.8075 121.375 41.8075C122.176 41.8075 122.884 41.7104 123.49 41.5163C124.097 41.3222 124.652 41.0194 125.158 40.604C125.523 40.309 125.904 40.142 126.293 40.1071C126.682 40.0722 127.028 40.1809 127.323 40.4332C127.712 40.7554 127.929 41.1165 127.976 41.5163C128.023 41.9162 127.883 42.2772 127.564 42.5995C125.912 44.1329 123.848 44.9016 121.371 44.9016" fill="#596F52"/>
<path d="M140.322 44.8977C138.464 44.8977 136.824 44.4901 135.401 43.6787C133.978 42.8673 132.859 41.7454 132.046 40.3128C131.234 38.8803 130.826 37.2381 130.826 35.3824C130.826 33.5267 131.234 31.8496 132.046 30.4171C132.859 28.9846 133.978 27.8626 135.401 27.0512C136.824 26.2398 138.464 25.8322 140.322 25.8322C142.181 25.8322 143.786 26.2398 145.209 27.0512C146.632 27.8665 147.747 28.9884 148.564 30.4171C149.376 31.8496 149.784 33.5035 149.784 35.3824C149.784 37.2614 149.384 38.8842 148.579 40.3128C147.774 41.7454 146.663 42.8673 145.244 43.6787C143.821 44.494 142.181 44.8977 140.322 44.8977ZM140.322 41.8036C141.516 41.8036 142.569 41.528 143.487 40.9806C144.404 40.4293 145.119 39.6762 145.636 38.7134C146.153 37.7506 146.41 36.6403 146.41 35.3824C146.41 34.1246 146.153 33.0065 145.636 32.0321C145.119 31.0577 144.404 30.2968 143.487 29.7494C142.569 29.1981 141.512 28.9224 140.322 28.9224C139.133 28.9224 138.075 29.1981 137.158 29.7494C136.241 30.2968 135.518 31.0615 134.993 32.0321C134.464 33.0065 134.204 34.1246 134.204 35.3824C134.204 36.6403 134.468 37.7545 134.993 38.7134C135.522 39.6762 136.245 40.4293 137.158 40.9806C138.075 41.5319 139.129 41.8036 140.322 41.8036Z" fill="#596F52"/>
<path d="M154.978 44.758C154.612 44.758 154.294 44.6337 154.033 44.3814C153.769 44.1291 153.637 43.8107 153.637 43.4186V19.2674C153.637 18.9025 153.769 18.5841 154.033 18.3201C154.297 18.0561 154.612 17.9242 154.978 17.9242C155.343 17.9242 155.658 18.0561 155.922 18.3201C156.187 18.5841 156.319 18.8986 156.319 19.2674V42.2151H169.769C170.135 42.2151 170.449 42.3355 170.714 42.5762C170.978 42.8169 171.11 43.1197 171.11 43.4846C171.11 43.8495 170.978 44.1562 170.714 44.3969C170.449 44.6376 170.135 44.758 169.769 44.758H154.978Z" fill="#869A81"/>
<path d="M181.641 44.9288C179.876 44.9288 178.294 44.5095 176.895 43.6748C175.495 42.8402 174.387 41.6988 173.575 40.2546C172.762 38.8104 172.354 37.1877 172.354 35.3747C172.354 33.5617 172.77 31.904 173.61 30.4598C174.446 29.0156 175.589 27.8781 177.031 27.0396C178.477 26.2049 180.106 25.7856 181.917 25.7856C183.729 25.7856 185.354 26.2049 186.784 27.0396C188.219 27.8781 189.354 29.0156 190.19 30.4598C191.025 31.904 191.457 33.5384 191.48 35.3747L190.415 36.2016C190.415 37.8515 190.03 39.3345 189.264 40.6506C188.495 41.9667 187.453 43.011 186.135 43.7758C184.817 44.5445 183.321 44.9288 181.645 44.9288M181.913 42.5257C183.243 42.5257 184.432 42.2151 185.474 41.5979C186.516 40.9806 187.344 40.1265 187.95 39.0395C188.557 37.9525 188.864 36.7335 188.864 35.3786C188.864 34.0237 188.561 32.7814 187.95 31.7021C187.344 30.6267 186.516 29.7727 185.474 29.1437C184.432 28.5148 183.243 28.1965 181.913 28.1965C180.584 28.1965 179.425 28.5109 178.372 29.1437C177.315 29.7727 176.479 30.6267 175.861 31.7021C175.243 32.7775 174.932 34.0043 174.932 35.3786C174.932 36.7529 175.239 37.9486 175.861 39.0395C176.479 40.1265 177.318 40.9806 178.372 41.5979C179.425 42.2151 180.607 42.5257 181.913 42.5257ZM190.135 44.758C189.746 44.758 189.424 44.6376 189.171 44.3969C188.918 44.1562 188.794 43.8418 188.794 43.4497V37.5759L189.447 34.8622L191.476 35.3786V43.4536C191.476 43.8457 191.348 44.1601 191.099 44.4008C190.847 44.6415 190.528 44.7619 190.135 44.7619" fill="#869A81"/>
<path d="M193.715 28.9535C193.369 28.9535 193.086 28.8448 192.856 28.6274C192.627 28.41 192.514 28.1421 192.514 27.8199C192.514 27.4783 192.627 27.1949 192.856 26.9775C193.086 26.7601 193.373 26.6514 193.715 26.6514H202.489C202.835 26.6514 203.119 26.7601 203.348 26.9775C203.578 27.1949 203.69 27.4783 203.69 27.8199C203.69 28.1421 203.578 28.41 203.348 28.6274C203.119 28.8448 202.831 28.9535 202.489 28.9535H193.715ZM202.279 44.758C201.063 44.758 199.978 44.4707 199.029 43.9C198.077 43.3293 197.327 42.5451 196.775 41.5474C196.223 40.5497 195.951 39.4122 195.951 38.1272V21.325C195.951 20.9367 196.071 20.6145 196.312 20.3622C196.553 20.1098 196.868 19.9856 197.261 19.9856C197.653 19.9856 197.972 20.1098 198.225 20.3622C198.477 20.6145 198.602 20.9367 198.602 21.325V38.1272C198.602 39.2957 198.948 40.2507 199.632 40.9961C200.32 41.7415 201.202 42.1103 202.283 42.1103H203.212C203.578 42.1103 203.877 42.2384 204.106 42.4908C204.336 42.7431 204.448 43.0615 204.448 43.4536C204.448 43.8457 204.312 44.1601 204.036 44.4008C203.76 44.6415 203.418 44.7619 203.006 44.7619H202.283L202.279 44.758Z" fill="#869A81"/>
<path d="M205.825 28.9535C205.479 28.9535 205.195 28.8448 204.965 28.6274C204.736 28.41 204.623 28.1421 204.623 27.8199C204.623 27.4783 204.736 27.1949 204.965 26.9775C205.195 26.7601 205.482 26.6514 205.825 26.6514H214.598C214.944 26.6514 215.228 26.7601 215.457 26.9775C215.687 27.1949 215.8 27.4783 215.8 27.8199C215.8 28.1421 215.687 28.41 215.457 28.6274C215.228 28.8448 214.94 28.9535 214.598 28.9535H205.825ZM214.392 44.758C213.176 44.758 212.091 44.4707 211.142 43.9C210.19 43.3293 209.44 42.5451 208.888 41.5474C208.336 40.5497 208.064 39.4122 208.064 38.1272V21.325C208.064 20.9367 208.184 20.6145 208.425 20.3622C208.666 20.1098 208.981 19.9856 209.374 19.9856C209.766 19.9856 210.085 20.1098 210.338 20.3622C210.59 20.6145 210.715 20.9367 210.715 21.325V38.1272C210.715 39.2957 211.061 40.2507 211.745 40.9961C212.433 41.7415 213.316 42.1103 214.396 42.1103H215.325C215.691 42.1103 215.99 42.2384 216.219 42.4908C216.449 42.7431 216.561 43.0615 216.561 43.4536C216.561 43.8457 216.425 44.1601 216.149 44.4008C215.873 44.6415 215.531 44.7619 215.115 44.7619H214.392V44.758Z" fill="#869A81"/>
<path d="M220.997 22.3926C220.492 22.3926 220.056 22.2101 219.691 21.8413C219.325 21.4764 219.139 21.0299 219.139 20.5019C219.139 19.9313 219.329 19.477 219.706 19.1432C220.083 18.8132 220.527 18.6462 221.032 18.6462C221.537 18.6462 221.942 18.8132 222.323 19.1432C222.7 19.477 222.89 19.9274 222.89 20.5019C222.89 21.0299 222.707 21.4764 222.342 21.8413C221.973 22.2062 221.526 22.3926 221.001 22.3926M221.032 44.758C220.62 44.758 220.293 44.6376 220.052 44.3969C219.811 44.1562 219.691 43.8301 219.691 43.4186V27.3036C219.691 26.8921 219.811 26.5659 220.052 26.3253C220.293 26.0846 220.62 25.9642 221.032 25.9642C221.421 25.9642 221.736 26.0846 221.977 26.3253C222.218 26.5659 222.338 26.8921 222.338 27.3036V43.4186C222.338 43.8301 222.218 44.1562 221.977 44.3969C221.736 44.6376 221.421 44.758 221.032 44.758Z" fill="#869A81"/>
<path d="M235.753 44.9288C233.942 44.9288 232.329 44.5095 230.921 43.6748C229.51 42.8402 228.399 41.6988 227.586 40.2585C226.774 38.8143 226.365 37.1916 226.365 35.3786C226.365 33.5656 226.754 31.9079 227.536 30.4637C228.317 29.0195 229.382 27.882 230.735 27.0435C232.088 26.2088 233.646 25.7895 235.415 25.7895C236.815 25.7895 238.105 26.0651 239.287 26.6125C240.469 27.1638 241.507 27.9868 242.401 29.0855C242.653 29.3611 242.743 29.6523 242.677 29.9629C242.607 30.2735 242.412 30.5413 242.094 30.7704C241.841 30.9528 241.561 31.015 241.25 30.9606C240.939 30.9024 240.671 30.7354 240.442 30.4598C239.112 28.9496 237.437 28.1926 235.419 28.1926C234.136 28.1926 233.005 28.5032 232.029 29.1204C231.054 29.7377 230.299 30.5879 229.759 31.6633C229.219 32.7387 228.951 33.9771 228.951 35.3747C228.951 36.7723 229.238 37.9758 229.81 39.0511C230.381 40.1265 231.186 40.9767 232.216 41.594C233.25 42.2112 234.428 42.5218 235.761 42.5218C236.655 42.5218 237.476 42.4015 238.222 42.1608C238.968 41.9201 239.625 41.5474 240.201 41.0466C240.477 40.8175 240.764 40.6933 241.06 40.67C241.359 40.6467 241.631 40.7399 241.884 40.9456C242.16 41.198 242.315 41.4853 242.346 41.8036C242.381 42.1258 242.273 42.4015 242.02 42.6305C240.344 44.164 238.257 44.9327 235.757 44.9327" fill="#869A81"/>
<path d="M254.642 44.9288C252.784 44.9288 251.14 44.5212 249.705 43.7098C248.271 42.8984 247.147 41.7687 246.335 40.3245C245.522 38.8803 245.114 37.2304 245.114 35.3786C245.114 33.5267 245.499 31.8458 246.265 30.4132C247.035 28.9807 248.092 27.8548 249.449 27.0279C250.801 26.2049 252.36 25.7934 254.125 25.7934C255.89 25.7934 257.387 26.1894 258.685 26.9775C259.98 27.7694 260.982 28.8603 261.698 30.2579C262.409 31.6555 262.763 33.2472 262.763 35.033C262.763 35.398 262.646 35.693 262.417 35.9104C262.188 36.1278 261.888 36.2365 261.523 36.2365H246.902V34.0392H261.799L260.318 35.1029C260.341 33.7752 260.1 32.5834 259.595 31.5313C259.089 30.4792 258.374 29.6523 257.445 29.0583C256.516 28.4643 255.408 28.1654 254.125 28.1654C252.842 28.1654 251.672 28.476 250.685 29.0933C249.697 29.7105 248.935 30.5646 248.399 31.6516C247.859 32.7387 247.59 33.981 247.59 35.3786C247.59 36.7762 247.894 38.0146 248.504 39.09C249.11 40.1653 249.942 41.0155 251 41.6328C252.053 42.2501 253.27 42.5606 254.646 42.5606C255.47 42.5606 256.302 42.417 257.142 42.1297C257.978 41.8424 258.65 41.4814 259.155 41.0466C259.408 40.8408 259.692 40.7321 260.014 40.7205C260.337 40.7088 260.609 40.7942 260.839 40.9767C261.138 41.2523 261.29 41.5474 261.301 41.8696C261.313 42.1918 261.181 42.4675 260.905 42.6965C260.147 43.3371 259.186 43.8689 258.016 44.296C256.846 44.723 255.723 44.9327 254.646 44.9327" fill="#869A81"/>
<path d="M91.4504 64.5844C91.2793 64.5844 91.1394 64.5301 91.0305 64.4214C90.9217 64.3127 90.8672 64.1729 90.8672 64.0021V53.4929C90.8672 53.3221 90.9217 53.1824 91.0305 53.0737C91.1394 52.965 91.2793 52.9106 91.4504 52.9106H94.2493C94.9762 52.9106 95.6254 53.062 96.1968 53.3648C96.7644 53.6676 97.2114 54.0908 97.538 54.6343C97.8606 55.1778 98.0239 55.8029 98.0239 56.5094C98.0239 57.216 97.8606 57.7905 97.538 58.3185C97.2153 58.8465 96.7683 59.2619 96.1968 59.5608C95.6254 59.8598 94.9801 60.0112 94.2493 60.0112H92.0335V64.0021C92.0335 64.1729 91.979 64.3127 91.8702 64.4214C91.7613 64.5301 91.6214 64.5844 91.4504 64.5844ZM92.0335 58.8892H94.2493C94.7585 58.8892 95.2094 58.7883 95.6021 58.5825C95.9947 58.3768 96.3096 58.0972 96.5389 57.7362C96.7683 57.379 96.8849 56.9675 96.8849 56.5094C96.8849 56.0203 96.7683 55.5893 96.5389 55.2166C96.3096 54.844 95.9986 54.5528 95.6021 54.3431C95.2056 54.1335 94.7546 54.0287 94.2493 54.0287H92.0335V58.8853V58.8892ZM97.7051 64.5844C97.5768 64.5844 97.4719 64.5611 97.398 64.5107C97.3242 64.4602 97.2542 64.3864 97.1959 64.2855L94.3231 59.7122L95.4893 59.4133L98.1677 63.6876C98.3193 63.9283 98.3466 64.1341 98.2494 64.3165C98.1561 64.4951 97.9734 64.5844 97.7012 64.5844H97.7051Z" fill="#869A81"/>
<path d="M103.68 64.6582C102.871 64.6582 102.156 64.4796 101.53 64.1263C100.908 63.773 100.419 63.28 100.065 62.655C99.711 62.026 99.5322 61.3078 99.5322 60.5042C99.5322 59.7006 99.6994 58.9669 100.034 58.3457C100.368 57.7245 100.831 57.2315 101.418 56.8743C102.005 56.5172 102.685 56.3347 103.455 56.3347C104.224 56.3347 104.873 56.5055 105.437 56.8511C106.001 57.1966 106.436 57.6702 106.747 58.2797C107.058 58.8892 107.21 59.5802 107.21 60.3567C107.21 60.5159 107.159 60.644 107.062 60.7371C106.961 60.8303 106.833 60.8808 106.673 60.8808H100.314V59.9258H106.794L106.149 60.3877C106.16 59.8093 106.055 59.293 105.834 58.8349C105.612 58.3768 105.301 58.0196 104.897 57.7595C104.493 57.4994 104.01 57.3713 103.451 57.3713C102.891 57.3713 102.382 57.5072 101.954 57.775C101.526 58.0429 101.192 58.4156 100.959 58.8892C100.726 59.3628 100.605 59.9025 100.605 60.512C100.605 61.1215 100.737 61.6572 101.002 62.127C101.266 62.5967 101.628 62.9655 102.086 63.2334C102.545 63.5013 103.074 63.6372 103.672 63.6372C104.03 63.6372 104.391 63.575 104.757 63.4508C105.122 63.3266 105.414 63.1713 105.632 62.9811C105.74 62.8918 105.865 62.8452 106.005 62.8374C106.145 62.8335 106.265 62.8685 106.362 62.95C106.491 63.0703 106.561 63.1985 106.564 63.3382C106.568 63.478 106.514 63.5983 106.393 63.6954C106.063 63.9749 105.647 64.2078 105.138 64.3903C104.629 64.5728 104.139 64.6659 103.672 64.6659L103.68 64.6582Z" fill="#869A81"/>
<path d="M109.966 54.8517C109.744 54.8517 109.558 54.7702 109.398 54.611C109.239 54.4518 109.157 54.2577 109.157 54.0287C109.157 53.7802 109.239 53.5822 109.406 53.4386C109.569 53.2949 109.764 53.2212 109.981 53.2212C110.199 53.2212 110.378 53.2949 110.541 53.4386C110.705 53.5822 110.79 53.7802 110.79 54.0287C110.79 54.2577 110.708 54.4518 110.549 54.611C110.39 54.7702 110.195 54.8517 109.966 54.8517ZM109.981 64.5844C109.803 64.5844 109.659 64.5339 109.554 64.4291C109.449 64.3243 109.398 64.1807 109.398 64.0021V56.9908C109.398 56.8122 109.449 56.6686 109.554 56.5638C109.659 56.4589 109.803 56.4085 109.981 56.4085C110.153 56.4085 110.289 56.4589 110.394 56.5638C110.499 56.6686 110.549 56.8122 110.549 56.9908V64.0021C110.549 64.1807 110.499 64.3243 110.394 64.4291C110.289 64.5339 110.153 64.5844 109.981 64.5844Z" fill="#869A81"/>
<path d="M114.067 64.5844C113.888 64.5844 113.744 64.5339 113.64 64.4291C113.535 64.3243 113.484 64.1884 113.484 64.0176V56.9908C113.484 56.82 113.535 56.6802 113.64 56.5715C113.744 56.4628 113.888 56.4085 114.067 56.4085C114.238 56.4085 114.374 56.4628 114.479 56.5715C114.584 56.6802 114.635 56.82 114.635 56.9908V64.0176C114.635 64.1884 114.584 64.3243 114.479 64.4291C114.374 64.5339 114.238 64.5844 114.067 64.5844ZM119.319 64.5844C119.148 64.5844 119.008 64.5339 118.899 64.4291C118.79 64.3243 118.736 64.1884 118.736 64.0176V59.7122C118.736 59.0057 118.553 58.4428 118.184 58.0312C117.815 57.6197 117.34 57.4101 116.761 57.4101C116.143 57.4101 115.634 57.612 115.233 58.0157C114.833 58.4195 114.635 58.9436 114.635 59.5919H113.811C113.83 58.9552 113.974 58.3884 114.238 57.8954C114.503 57.4023 114.864 57.0141 115.323 56.7385C115.781 56.4589 116.302 56.3192 116.878 56.3192C117.453 56.3192 117.989 56.4589 118.44 56.7385C118.895 57.018 119.249 57.4101 119.502 57.9187C119.754 58.4272 119.883 59.0251 119.883 59.7122V64.0176C119.883 64.1884 119.832 64.3243 119.727 64.4291C119.622 64.5339 119.486 64.5844 119.315 64.5844H119.319ZM124.544 64.5844C124.373 64.5844 124.233 64.5339 124.124 64.4291C124.015 64.3243 123.96 64.1884 123.96 64.0176V59.7122C123.96 59.0057 123.774 58.4428 123.408 58.0312C123.039 57.6197 122.565 57.4101 121.986 57.4101C121.368 57.4101 120.862 57.6158 120.466 58.0312C120.073 58.4466 119.879 58.994 119.89 59.6851H118.856C118.868 59.0173 119.012 58.4311 119.292 57.9225C119.572 57.414 119.956 57.0219 120.442 56.7424C120.932 56.4628 121.484 56.3231 122.102 56.3231C122.72 56.3231 123.214 56.4628 123.665 56.7424C124.12 57.0219 124.474 57.414 124.726 57.9225C124.979 58.4311 125.107 59.029 125.107 59.7161V64.0215C125.107 64.1923 125.057 64.3282 124.952 64.433C124.847 64.5378 124.711 64.5883 124.54 64.5883L124.544 64.5844Z" fill="#869A81"/>
<path d="M131.265 64.6582C130.495 64.6582 129.807 64.4757 129.201 64.1108C128.59 63.7459 128.112 63.2528 127.755 62.6239C127.401 61.995 127.222 61.2884 127.222 60.5003C127.222 59.7122 127.405 58.9902 127.77 58.3612C128.135 57.7323 128.629 57.2393 129.259 56.8744C129.889 56.5094 130.596 56.327 131.385 56.327C132.174 56.327 132.878 56.5094 133.504 56.8744C134.126 57.2393 134.62 57.7323 134.985 58.3612C135.347 58.9902 135.537 59.7006 135.545 60.5003L135.082 60.8575C135.082 61.5757 134.915 62.2202 134.581 62.7947C134.246 63.3693 133.792 63.8196 133.216 64.1535C132.645 64.4874 131.992 64.6543 131.265 64.6543V64.6582ZM131.385 63.6139C131.965 63.6139 132.482 63.478 132.936 63.2101C133.391 62.9422 133.749 62.5695 134.013 62.0959C134.278 61.6223 134.41 61.0904 134.41 60.5042C134.41 59.918 134.278 59.3745 134.013 58.9047C133.749 58.435 133.387 58.0662 132.936 57.7906C132.482 57.5149 131.965 57.379 131.385 57.379C130.806 57.379 130.301 57.5149 129.842 57.7906C129.383 58.0662 129.018 58.435 128.75 58.9047C128.481 59.3745 128.345 59.9064 128.345 60.5042C128.345 61.1021 128.481 61.6223 128.75 62.0959C129.018 62.5695 129.383 62.9422 129.842 63.2101C130.301 63.478 130.814 63.6139 131.385 63.6139ZM134.962 64.5844C134.791 64.5844 134.651 64.5339 134.542 64.4291C134.433 64.3243 134.379 64.1884 134.379 64.0176V61.4631L134.662 60.2829L135.545 60.5081V64.0215C135.545 64.1923 135.49 64.3282 135.378 64.433C135.265 64.5378 135.129 64.5883 134.958 64.5883L134.962 64.5844Z" fill="#869A81"/>
<path d="M141.399 64.6582C140.61 64.6582 139.914 64.4796 139.304 64.1263C138.694 63.773 138.219 63.28 137.873 62.655C137.527 62.026 137.356 61.3078 137.356 60.5042C137.356 59.7006 137.535 58.963 137.897 58.3379C138.258 57.7129 138.748 57.2199 139.378 56.8666C140.008 56.5133 140.719 56.3347 141.52 56.3347C142.32 56.3347 143.044 56.5133 143.669 56.8666C144.291 57.2199 144.781 57.7129 145.135 58.3379C145.489 58.9669 145.671 59.689 145.683 60.5042L145.011 60.8614C145.011 61.599 144.855 62.2551 144.548 62.8258C144.237 63.4003 143.813 63.8468 143.269 64.1729C142.725 64.4951 142.103 64.6582 141.407 64.6582H141.399ZM141.547 67.8105C140.758 67.8105 140.066 67.663 139.467 67.368C138.869 67.0729 138.375 66.673 137.986 66.1645C137.877 66.0441 137.831 65.916 137.842 65.7762C137.858 65.6365 137.928 65.5239 138.06 65.4307C138.188 65.3414 138.336 65.3104 138.495 65.3414C138.655 65.3725 138.779 65.4463 138.869 65.5666C139.156 65.9238 139.529 66.2149 139.984 66.4323C140.439 66.6497 140.964 66.7623 141.562 66.7623C142.122 66.7623 142.624 66.6265 143.075 66.3586C143.526 66.0907 143.879 65.7103 144.144 65.2211C144.408 64.7319 144.54 64.1613 144.54 63.5013V61.2302L144.976 60.3645L145.679 60.5003V63.5479C145.679 64.3554 145.5 65.0813 145.139 65.7219C144.781 66.3663 144.291 66.871 143.673 67.2476C143.055 67.6242 142.348 67.8066 141.547 67.8066V67.8105ZM141.52 63.6139C142.107 63.6139 142.631 63.4819 143.082 63.2179C143.537 62.9539 143.895 62.589 144.151 62.1192C144.412 61.6495 144.54 61.1137 144.54 60.5042C144.54 59.8947 144.412 59.3551 144.151 58.8814C143.891 58.4078 143.537 58.039 143.082 57.775C142.628 57.511 142.107 57.379 141.52 57.379C140.933 57.379 140.408 57.511 139.949 57.775C139.49 58.039 139.129 58.4078 138.872 58.8814C138.612 59.3551 138.484 59.8947 138.484 60.5042C138.484 61.1137 138.612 61.6495 138.872 62.1192C139.133 62.589 139.49 62.9539 139.949 63.2179C140.408 63.4819 140.933 63.6139 141.52 63.6139Z" fill="#869A81"/>
<path d="M148.735 54.8517C148.513 54.8517 148.326 54.7702 148.167 54.611C148.008 54.4518 147.926 54.2577 147.926 54.0287C147.926 53.7802 148.008 53.5822 148.175 53.4386C148.338 53.2949 148.533 53.2212 148.75 53.2212C148.968 53.2212 149.147 53.2949 149.314 53.4386C149.477 53.5822 149.563 53.7802 149.563 54.0287C149.563 54.2577 149.481 54.4518 149.322 54.611C149.162 54.7702 148.968 54.8517 148.739 54.8517H148.735ZM148.746 64.5844C148.568 64.5844 148.424 64.5339 148.319 64.4291C148.214 64.3243 148.163 64.1807 148.163 64.0021V56.9908C148.163 56.8122 148.214 56.6686 148.319 56.5638C148.424 56.4589 148.568 56.4085 148.746 56.4085C148.917 56.4085 149.053 56.4589 149.158 56.5638C149.263 56.6686 149.314 56.8122 149.314 56.9908V64.0021C149.314 64.1807 149.263 64.3243 149.158 64.4291C149.053 64.5339 148.917 64.5844 148.746 64.5844Z" fill="#869A81"/>
<path d="M152.836 64.5844C152.657 64.5844 152.513 64.5339 152.408 64.4291C152.303 64.3243 152.253 64.1884 152.253 64.0176V56.9908C152.253 56.8122 152.307 56.6686 152.408 56.5638C152.513 56.459 152.657 56.4085 152.836 56.4085C153.007 56.4085 153.143 56.459 153.248 56.5638C153.353 56.6686 153.403 56.8122 153.403 56.9908V64.0176C153.403 64.1884 153.353 64.3243 153.248 64.4291C153.143 64.5339 153.007 64.5844 152.836 64.5844ZM159.269 64.5844C159.098 64.5844 158.958 64.5301 158.85 64.4214C158.741 64.3127 158.686 64.1768 158.686 64.0176V60.1315C158.686 59.5142 158.57 59.0057 158.333 58.6058C158.099 58.2059 157.777 57.907 157.376 57.709C156.976 57.511 156.517 57.4101 156.008 57.4101C155.499 57.4101 155.079 57.5033 154.682 57.6935C154.286 57.8837 153.975 58.1399 153.745 58.4699C153.516 58.7999 153.4 59.1726 153.4 59.5919H152.575C152.595 58.963 152.766 58.4039 153.085 57.9109C153.403 57.4179 153.827 57.0296 154.356 56.7462C154.884 56.4628 155.471 56.3192 156.121 56.3192C156.828 56.3192 157.462 56.4667 158.022 56.7618C158.581 57.0568 159.021 57.4877 159.347 58.0545C159.67 58.6213 159.833 59.3163 159.833 60.1315V64.0176C159.833 64.1768 159.779 64.3127 159.67 64.4214C159.561 64.5301 159.425 64.5844 159.266 64.5844H159.269Z" fill="#869A81"/>
<path d="M163.192 54.8517C162.97 54.8517 162.784 54.7702 162.624 54.611C162.465 54.4518 162.383 54.2577 162.383 54.0287C162.383 53.7802 162.465 53.5822 162.632 53.4386C162.795 53.2949 162.99 53.2212 163.207 53.2212C163.425 53.2212 163.604 53.2949 163.771 53.4386C163.934 53.5822 164.02 53.7802 164.02 54.0287C164.02 54.2577 163.938 54.4518 163.779 54.611C163.619 54.7702 163.425 54.8517 163.196 54.8517H163.192ZM163.207 64.5844C163.028 64.5844 162.885 64.5339 162.78 64.4291C162.675 64.3243 162.624 64.1807 162.624 64.0021V56.9908C162.624 56.8122 162.675 56.6686 162.78 56.5638C162.885 56.4589 163.028 56.4085 163.207 56.4085C163.378 56.4085 163.514 56.4589 163.619 56.5638C163.724 56.6686 163.775 56.8122 163.775 56.9908V64.0021C163.775 64.1807 163.724 64.3243 163.619 64.4291C163.514 64.5339 163.378 64.5844 163.207 64.5844Z" fill="#869A81"/>
<path d="M167.293 64.5844C167.114 64.5844 166.97 64.5339 166.865 64.4291C166.76 64.3243 166.71 64.1884 166.71 64.0176V56.9908C166.71 56.8122 166.764 56.6686 166.865 56.5638C166.97 56.459 167.114 56.4085 167.293 56.4085C167.464 56.4085 167.6 56.459 167.705 56.5638C167.81 56.6686 167.86 56.8122 167.86 56.9908V64.0176C167.86 64.1884 167.81 64.3243 167.705 64.4291C167.6 64.5339 167.464 64.5844 167.293 64.5844ZM173.73 64.5844C173.559 64.5844 173.419 64.5301 173.311 64.4214C173.202 64.3127 173.147 64.1768 173.147 64.0176V60.1315C173.147 59.5142 173.031 59.0057 172.794 58.6058C172.56 58.2059 172.238 57.907 171.837 57.709C171.437 57.511 170.978 57.4101 170.469 57.4101C169.96 57.4101 169.54 57.5033 169.143 57.6935C168.747 57.8837 168.436 58.1399 168.206 58.4699C167.977 58.7999 167.86 59.1726 167.86 59.5919H167.036C167.056 58.963 167.227 58.4039 167.546 57.9109C167.864 57.4179 168.288 57.0296 168.817 56.7462C169.345 56.4628 169.932 56.3192 170.582 56.3192C171.289 56.3192 171.923 56.4667 172.483 56.7618C173.042 57.0568 173.482 57.4877 173.808 58.0545C174.131 58.6213 174.294 59.3163 174.294 60.1315V64.0176C174.294 64.1768 174.24 64.3127 174.131 64.4214C174.022 64.5301 173.886 64.5844 173.727 64.5844H173.73Z" fill="#869A81"/>
<path d="M180.452 64.6582C179.663 64.6582 178.967 64.4796 178.356 64.1263C177.746 63.773 177.272 63.28 176.926 62.655C176.58 62.026 176.409 61.3078 176.409 60.5042C176.409 59.7006 176.588 58.963 176.949 58.3379C177.311 57.7129 177.8 57.2199 178.43 56.8666C179.06 56.5133 179.771 56.3347 180.572 56.3347C181.373 56.3347 182.096 56.5133 182.722 56.8666C183.344 57.2199 183.834 57.7129 184.187 58.3379C184.541 58.9669 184.724 59.689 184.736 60.5042L184.063 60.8614C184.063 61.599 183.908 62.2551 183.6 62.8258C183.289 63.4003 182.866 63.8468 182.322 64.1729C181.777 64.4951 181.155 64.6582 180.459 64.6582H180.452ZM180.599 67.8105C179.81 67.8105 179.118 67.663 178.52 67.368C177.921 67.0729 177.427 66.673 177.039 66.1645C176.93 66.0441 176.883 65.916 176.895 65.7762C176.91 65.6365 176.98 65.5239 177.112 65.4307C177.241 65.3414 177.388 65.3104 177.548 65.3414C177.707 65.3725 177.832 65.4463 177.921 65.5666C178.209 65.9238 178.582 66.2149 179.037 66.4323C179.492 66.6497 180.016 66.7623 180.615 66.7623C181.175 66.7623 181.676 66.6265 182.127 66.3586C182.578 66.0907 182.932 65.7103 183.196 65.2211C183.461 64.7319 183.593 64.1613 183.593 63.5013V61.2302L184.028 60.3645L184.732 60.5003V63.5479C184.732 64.3554 184.553 65.0813 184.191 65.7219C183.834 66.3663 183.344 66.871 182.726 67.2476C182.108 67.6242 181.4 67.8066 180.599 67.8066V67.8105ZM180.568 63.6139C181.155 63.6139 181.68 63.4819 182.131 63.2179C182.586 62.9539 182.943 62.589 183.2 62.1192C183.461 61.6495 183.589 61.1137 183.589 60.5042C183.589 59.8947 183.461 59.3551 183.2 58.8814C182.94 58.4078 182.586 58.039 182.131 57.775C181.676 57.511 181.155 57.379 180.568 57.379C179.981 57.379 179.457 57.511 178.998 57.775C178.539 58.039 178.178 58.4078 177.921 58.8814C177.661 59.3551 177.532 59.8947 177.532 60.5042C177.532 61.1137 177.661 61.6495 177.921 62.1192C178.181 62.589 178.539 62.9539 178.998 63.2179C179.457 63.4819 179.981 63.6139 180.568 63.6139Z" fill="#869A81"/>
<path d="M192.094 64.5844C191.935 64.5844 191.799 64.5262 191.682 64.4136C191.566 64.301 191.511 64.1613 191.511 64.0021V53.4929C191.511 53.3221 191.57 53.1824 191.682 53.0737C191.799 52.965 191.935 52.9106 192.094 52.9106C192.335 52.9106 192.506 53.0115 192.619 53.2095L197.665 63.2256H197.156L202.112 53.2095C202.233 53.0115 202.408 52.9106 202.637 52.9106C202.796 52.9106 202.932 52.965 203.041 53.0737C203.15 53.1824 203.204 53.3221 203.204 53.4929V64.0021C203.204 64.1613 203.15 64.2971 203.041 64.4136C202.932 64.5301 202.796 64.5844 202.637 64.5844C202.466 64.5844 202.326 64.5262 202.209 64.4136C202.093 64.301 202.038 64.1613 202.038 64.0021V55.0031L202.291 55.0187L197.875 64.0331C197.766 64.2234 197.595 64.3165 197.366 64.3165C197.117 64.3165 196.938 64.1962 196.825 63.9594L192.378 55.0808L192.678 55.007V64.006C192.678 64.1651 192.619 64.301 192.506 64.4175C192.394 64.5339 192.254 64.5883 192.094 64.5883V64.5844Z" fill="#869A81"/>
<path d="M209.654 64.6582C208.884 64.6582 208.196 64.4757 207.589 64.1108C206.979 63.7459 206.497 63.2528 206.143 62.6239C205.79 61.995 205.611 61.2884 205.611 60.5003C205.611 59.7122 205.793 58.9902 206.159 58.3612C206.524 57.7323 207.018 57.2393 207.648 56.8744C208.277 56.5094 208.985 56.327 209.774 56.327C210.563 56.327 211.267 56.5094 211.893 56.8744C212.515 57.2393 213.008 57.7323 213.374 58.3612C213.739 58.9902 213.926 59.7006 213.934 60.5003L213.471 60.8575C213.471 61.5757 213.304 62.2202 212.97 62.7947C212.635 63.3693 212.18 63.8196 211.609 64.1535C211.034 64.4874 210.384 64.6543 209.657 64.6543L209.654 64.6582ZM209.774 63.6139C210.353 63.6139 210.87 63.478 211.325 63.2101C211.78 62.9422 212.138 62.5695 212.402 62.0959C212.666 61.6223 212.798 61.0904 212.798 60.5042C212.798 59.918 212.666 59.3745 212.402 58.9047C212.138 58.435 211.78 58.0662 211.325 57.7906C210.87 57.5149 210.353 57.379 209.774 57.379C209.195 57.379 208.69 57.5149 208.231 57.7906C207.772 58.0662 207.407 58.435 207.138 58.9047C206.87 59.3745 206.734 59.9064 206.734 60.5042C206.734 61.1021 206.87 61.6223 207.138 62.0959C207.407 62.5695 207.772 62.9422 208.231 63.2101C208.69 63.478 209.203 63.6139 209.774 63.6139ZM213.35 64.5844C213.179 64.5844 213.039 64.5339 212.931 64.4291C212.822 64.3243 212.767 64.1884 212.767 64.0176V61.4631L213.051 60.2829L213.934 60.5081V64.0215C213.934 64.1923 213.879 64.3282 213.77 64.433C213.661 64.5378 213.522 64.5883 213.35 64.5883V64.5844Z" fill="#869A81"/>
<path d="M215.656 57.709C215.508 57.709 215.38 57.6624 215.283 57.5654C215.181 57.4722 215.135 57.3519 215.135 57.2121C215.135 57.0607 215.185 56.9403 215.283 56.8472C215.384 56.754 215.508 56.7035 215.656 56.7035H219.473C219.621 56.7035 219.749 56.7501 219.846 56.8472C219.947 56.9403 219.998 57.0646 219.998 57.2121C219.998 57.3519 219.947 57.4683 219.846 57.5654C219.745 57.6586 219.621 57.709 219.473 57.709H215.656ZM219.384 64.5844C218.855 64.5844 218.385 64.4602 217.969 64.2117C217.553 63.9633 217.226 63.6216 216.989 63.1868C216.748 62.752 216.631 62.259 216.631 61.6999V54.3897C216.631 54.2189 216.686 54.0792 216.787 53.9705C216.892 53.8618 217.028 53.8074 217.199 53.8074C217.37 53.8074 217.51 53.8618 217.619 53.9705C217.728 54.0792 217.782 54.2189 217.782 54.3897V61.6999C217.782 62.2085 217.93 62.6239 218.229 62.95C218.529 63.2722 218.913 63.4353 219.384 63.4353H219.788C219.947 63.4353 220.076 63.4896 220.177 63.5983C220.278 63.707 220.324 63.8468 220.324 64.0176C220.324 64.1884 220.266 64.3243 220.146 64.4291C220.025 64.5339 219.877 64.5844 219.695 64.5844H219.38H219.384Z" fill="#869A81"/>
<path d="M225.911 64.6582C225.102 64.6582 224.387 64.4796 223.761 64.1263C223.139 63.773 222.649 63.28 222.295 62.655C221.942 62.026 221.763 61.3078 221.763 60.5042C221.763 59.7006 221.93 58.9669 222.264 58.3457C222.599 57.7245 223.061 57.2315 223.648 56.8743C224.235 56.5172 224.915 56.3347 225.685 56.3347C226.455 56.3347 227.104 56.5055 227.668 56.8511C228.231 57.1966 228.667 57.6702 228.978 58.2797C229.285 58.8892 229.44 59.5802 229.44 60.3567C229.44 60.5159 229.39 60.644 229.293 60.7371C229.192 60.8303 229.063 60.8808 228.904 60.8808H222.54V59.9258H229.021L228.379 60.3877C228.391 59.8093 228.286 59.293 228.064 58.8349C227.843 58.3768 227.532 58.0196 227.127 57.7595C226.723 57.4994 226.241 57.3713 225.681 57.3713C225.122 57.3713 224.612 57.5072 224.185 57.775C223.757 58.0429 223.423 58.4156 223.189 58.8892C222.956 59.3628 222.836 59.9025 222.836 60.512C222.836 61.1215 222.968 61.6572 223.232 62.127C223.497 62.5967 223.858 62.9655 224.317 63.2334C224.776 63.5013 225.304 63.6372 225.903 63.6372C226.261 63.6372 226.622 63.575 226.987 63.4508C227.353 63.3266 227.644 63.1713 227.862 62.9811C227.971 62.8918 228.095 62.8452 228.235 62.8374C228.375 62.8335 228.496 62.8685 228.593 62.95C228.721 63.0703 228.791 63.1985 228.795 63.3382C228.799 63.478 228.745 63.5983 228.624 63.6954C228.294 63.9749 227.874 64.2078 227.365 64.3903C226.855 64.5728 226.365 64.6659 225.899 64.6659L225.911 64.6582Z" fill="#869A81"/>
<path d="M231.955 64.5844C231.777 64.5844 231.637 64.5339 231.536 64.433C231.435 64.3321 231.384 64.1923 231.384 64.0137V56.9714C231.384 56.7928 231.435 56.6531 231.536 56.5521C231.637 56.4512 231.777 56.4007 231.955 56.4007C232.134 56.4007 232.274 56.4512 232.375 56.5521C232.476 56.6531 232.523 56.7928 232.523 56.9714V64.0137C232.523 64.1923 232.473 64.3321 232.375 64.433C232.278 64.5339 232.134 64.5844 231.955 64.5844ZM231.866 59.5453C231.897 58.928 232.057 58.3729 232.352 57.8876C232.647 57.3984 233.032 57.0141 233.503 56.7385C233.977 56.4589 234.502 56.3192 235.081 56.3192C235.54 56.3192 235.893 56.3852 236.142 56.5133C236.391 56.6414 236.488 56.8316 236.426 57.0801C236.387 57.2276 236.317 57.3286 236.224 57.379C236.131 57.4295 236.014 57.4489 235.878 57.4373C235.742 57.4256 235.59 57.4179 235.419 57.4062C234.859 57.3557 234.366 57.414 233.93 57.577C233.495 57.7401 233.153 57.9924 232.896 58.3302C232.644 58.6679 232.515 59.0717 232.515 59.5414H231.858L231.866 59.5453Z" fill="#869A81"/>
<path d="M239.05 54.8517C238.828 54.8517 238.642 54.7702 238.482 54.611C238.323 54.4518 238.241 54.2577 238.241 54.0287C238.241 53.7802 238.323 53.5822 238.49 53.4386C238.653 53.2949 238.848 53.2212 239.065 53.2212C239.283 53.2212 239.462 53.2949 239.629 53.4386C239.792 53.5822 239.878 53.7802 239.878 54.0287C239.878 54.2577 239.796 54.4518 239.637 54.611C239.478 54.7702 239.283 54.8517 239.054 54.8517H239.05ZM239.065 64.5844C238.887 64.5844 238.743 64.5339 238.638 64.4291C238.533 64.3243 238.482 64.1807 238.482 64.0021V56.9908C238.482 56.8122 238.533 56.6686 238.638 56.5638C238.743 56.4589 238.887 56.4085 239.065 56.4085C239.236 56.4085 239.373 56.4589 239.478 56.5638C239.582 56.6686 239.633 56.8122 239.633 56.9908V64.0021C239.633 64.1807 239.582 64.3243 239.478 64.4291C239.373 64.5339 239.236 64.5844 239.065 64.5844Z" fill="#869A81"/>
<path d="M246.175 64.6582C245.406 64.6582 244.718 64.4757 244.111 64.1108C243.501 63.7459 243.019 63.2528 242.665 62.6239C242.311 61.995 242.133 61.2884 242.133 60.5003C242.133 59.7122 242.315 58.9902 242.681 58.3612C243.046 57.7323 243.54 57.2393 244.17 56.8744C244.799 56.5094 245.507 56.327 246.296 56.327C247.085 56.327 247.789 56.5094 248.415 56.8744C249.037 57.2393 249.53 57.7323 249.896 58.3612C250.261 58.9902 250.448 59.7006 250.455 60.5003L249.993 60.8575C249.993 61.5757 249.826 62.2202 249.491 62.7947C249.157 63.3693 248.702 63.8196 248.131 64.1535C247.555 64.4874 246.906 64.6543 246.179 64.6543L246.175 64.6582ZM246.296 63.6139C246.875 63.6139 247.392 63.478 247.847 63.2101C248.302 62.9422 248.659 62.5695 248.924 62.0959C249.188 61.6223 249.32 61.0904 249.32 60.5042C249.32 59.918 249.188 59.3745 248.924 58.9047C248.659 58.435 248.302 58.0662 247.847 57.7906C247.392 57.5149 246.875 57.379 246.296 57.379C245.717 57.379 245.211 57.5149 244.753 57.7906C244.294 58.0662 243.929 58.435 243.66 58.9047C243.392 59.3745 243.256 59.9064 243.256 60.5042C243.256 61.1021 243.392 61.6223 243.66 62.0959C243.929 62.5695 244.294 62.9422 244.753 63.2101C245.211 63.478 245.725 63.6139 246.296 63.6139ZM249.872 64.5844C249.701 64.5844 249.561 64.5339 249.452 64.4291C249.344 64.3243 249.289 64.1884 249.289 64.0176V61.4631L249.573 60.2829L250.455 60.5081V64.0215C250.455 64.1923 250.401 64.3282 250.292 64.433C250.183 64.5378 250.043 64.5883 249.872 64.5883V64.5844Z" fill="#869A81"/>
<path d="M254.467 64.5844C254.067 64.5844 253.713 64.4757 253.398 64.2544C253.083 64.037 252.838 63.7303 252.663 63.3421C252.489 62.9539 252.403 62.5036 252.403 61.995V53.4735C252.403 53.3027 252.454 53.1668 252.559 53.062C252.663 52.9572 252.8 52.9067 252.971 52.9067C253.142 52.9067 253.278 52.9572 253.383 53.062C253.488 53.1668 253.538 53.3027 253.538 53.4735V61.995C253.538 62.422 253.624 62.7714 253.799 63.0432C253.974 63.311 254.195 63.4469 254.463 63.4469H254.837C254.984 63.4469 255.105 63.4974 255.194 63.6022C255.284 63.707 255.33 63.8429 255.33 64.0137C255.33 64.1845 255.268 64.3204 255.144 64.4252C255.019 64.5301 254.856 64.5805 254.658 64.5805H254.463L254.467 64.5844Z" fill="#869A81"/>
<path d="M259.781 64.6582C259.194 64.6582 258.607 64.5572 258.028 64.3592C257.449 64.1613 256.978 63.8623 256.621 63.4625C256.512 63.3421 256.465 63.2101 256.485 63.0587C256.504 62.9073 256.578 62.7792 256.71 62.6705C256.85 62.5695 256.994 62.5307 257.146 62.5501C257.297 62.5695 257.422 62.6355 257.519 62.7442C257.76 63.0238 258.075 63.2373 258.471 63.3887C258.864 63.5362 259.303 63.6139 259.781 63.6139C260.52 63.6139 261.052 63.4857 261.383 63.2334C261.713 62.9811 261.88 62.6744 261.892 62.3133C261.892 61.9562 261.721 61.6572 261.383 61.4243C261.045 61.1914 260.485 61.0089 259.707 60.8769C258.701 60.7177 257.962 60.4382 257.492 60.0383C257.021 59.6385 256.788 59.1649 256.788 58.6175C256.788 58.1089 256.924 57.6857 257.192 57.348C257.461 57.0102 257.822 56.754 258.269 56.5871C258.716 56.4201 259.214 56.3347 259.75 56.3347C260.419 56.3347 260.994 56.4512 261.48 56.6802C261.962 56.9093 262.355 57.2199 262.654 57.6081C262.755 57.7362 262.794 57.8721 262.775 58.0118C262.755 58.1516 262.673 58.2642 262.534 58.3574C262.413 58.4272 262.277 58.4505 262.121 58.4234C261.966 58.4001 261.834 58.3263 261.725 58.2059C261.476 57.9187 261.185 57.7051 260.858 57.5693C260.528 57.4334 260.151 57.3674 259.719 57.3674C259.171 57.3674 258.732 57.48 258.401 57.7051C258.071 57.9303 257.908 58.2098 257.908 58.5515C257.908 58.7805 257.97 58.9785 258.094 59.1493C258.219 59.3201 258.432 59.4677 258.739 59.5958C259.043 59.7239 259.47 59.8365 260.018 59.9258C260.769 60.0461 261.36 60.2208 261.791 60.4576C262.226 60.6906 262.534 60.9662 262.72 61.2807C262.903 61.5951 262.996 61.9367 262.996 62.3056C262.996 62.7753 262.86 63.1868 262.584 63.5401C262.308 63.8934 261.931 64.169 261.445 64.3709C260.963 64.5689 260.403 64.6698 259.777 64.6698L259.781 64.6582Z" fill="#869A81"/>
<path d="M33.9173 1.75864C33.9173 2.72919 33.1282 3.51728 32.1563 3.51728C31.1845 3.51728 30.3915 2.72919 30.3915 1.75864C30.3915 0.788088 31.1806 0 32.1563 0C33.1321 0 33.9173 0.788088 33.9173 1.75864Z" fill="#869A81"/>
<path d="M26.3253 6.1106C26.3253 7.08115 25.5361 7.86924 24.5643 7.86924C23.5925 7.86924 22.7994 7.08115 22.7994 6.1106C22.7994 5.14004 23.5886 4.35196 24.5643 4.35196C25.54 4.35196 26.3253 5.14004 26.3253 6.1106Z" fill="#869A81"/>
<path d="M18.7449 10.4548C18.7449 11.4253 17.9558 12.2134 16.9839 12.2134C16.0121 12.2134 15.2191 11.4253 15.2191 10.4548C15.2191 9.48423 16.0082 8.69615 16.9839 8.69615C17.9596 8.69615 18.7449 9.48423 18.7449 10.4548Z" fill="#869A81"/>
<path d="M11.149 14.8378C11.149 15.8084 10.3599 16.5964 9.38803 16.5964C8.41619 16.5964 7.62317 15.8084 7.62317 14.8378C7.62317 13.8672 8.4123 13.0792 9.38803 13.0792C10.3638 13.0792 11.149 13.8672 11.149 14.8378Z" fill="#869A81"/>
<path d="M3.52973 19.1548C3.52973 20.1254 2.7406 20.9135 1.76875 20.9135C0.796911 20.9135 0 20.1292 0 19.1548C0 18.1804 0.789136 17.3962 1.76487 17.3962C2.7406 17.3962 3.52584 18.1843 3.52584 19.1548" fill="#869A81"/>
<path d="M3.53366 27.9014C3.53366 28.872 2.74452 29.6601 1.77268 29.6601C0.800836 29.6601 0.0078125 28.8759 0.0078125 27.9014C0.0078125 26.927 0.796949 26.1428 1.77268 26.1428C2.74841 26.1428 3.53366 26.9309 3.53366 27.9014Z" fill="#869A81"/>
<path d="M3.53366 36.5976C3.53366 37.5681 2.74452 38.3562 1.77268 38.3562C0.800836 38.3562 0.0078125 37.5681 0.0078125 36.5976C0.0078125 35.627 0.796949 34.8389 1.77268 34.8389C2.74841 34.8389 3.53366 35.627 3.53366 36.5976Z" fill="#869A81"/>
<path d="M3.53366 45.3209C3.53366 46.2914 2.74452 47.0795 1.77268 47.0795C0.800836 47.0795 0.0078125 46.2953 0.0078125 45.3209C0.0078125 44.3465 0.796949 43.5623 1.77268 43.5623C2.74841 43.5623 3.53366 44.3503 3.53366 45.3209Z" fill="#869A81"/>
<path d="M3.52584 54.1102C3.52584 55.0808 2.73671 55.8689 1.76487 55.8689C0.793023 55.8689 0 55.0808 0 54.1102C0 53.1397 0.789136 52.3516 1.76487 52.3516C2.7406 52.3516 3.52584 53.1397 3.52584 54.1102Z" fill="#869A81"/>
<path d="M3.53366 62.8025C3.53366 63.773 2.74452 64.5611 1.77268 64.5611C0.800836 64.5611 0.0078125 63.773 0.0078125 62.8025C0.0078125 61.8319 0.796949 61.0438 1.77268 61.0438C2.74841 61.0438 3.53366 61.8319 3.53366 62.8025Z" fill="#869A81"/>
<path d="M33.9251 80.2414C33.9251 81.2119 33.1359 82 32.1641 82C31.1923 82 30.3992 81.2119 30.3992 80.2414C30.3992 79.2708 31.1884 78.4827 32.1641 78.4827C33.1398 78.4827 33.9251 79.2708 33.9251 80.2414Z" fill="#869A81"/>
<path d="M41.4782 75.9282C41.4782 76.8988 40.6891 77.6869 39.7173 77.6869C38.7454 77.6869 37.9524 76.8988 37.9524 75.9282C37.9524 74.9577 38.7415 74.1696 39.7173 74.1696C40.693 74.1696 41.4782 74.9577 41.4782 75.9282Z" fill="#869A81"/>
<path d="M49.113 71.5336C49.113 72.5041 48.3239 73.2922 47.352 73.2922C46.3802 73.2922 45.5872 72.5041 45.5872 71.5336C45.5872 70.563 46.3763 69.7749 47.352 69.7749C48.3278 69.7749 49.113 70.563 49.113 71.5336Z" fill="#869A81"/>
<path d="M56.7206 67.1894C56.7206 68.1599 55.9315 68.948 54.9596 68.948C53.9878 68.948 53.1948 68.1599 53.1948 67.1894C53.1948 66.2188 53.9839 65.4307 54.9596 65.4307C55.9354 65.4307 56.7206 66.2188 56.7206 67.1894Z" fill="#869A81"/>
<path d="M64.3243 62.8297C64.3243 63.8002 63.5352 64.5883 62.5633 64.5883C61.5915 64.5883 60.7985 63.8002 60.7985 62.8297C60.7985 61.8591 61.5876 61.071 62.5633 61.071C63.5391 61.071 64.3243 61.8591 64.3243 62.8297Z" fill="#869A81"/>
<path d="M64.3127 54.0908C64.3127 55.0614 63.5235 55.8494 62.5517 55.8494C61.5798 55.8494 60.7868 55.0614 60.7868 54.0908C60.7868 53.1203 61.5759 52.3322 62.5517 52.3322C63.5274 52.3322 64.3127 53.1203 64.3127 54.0908Z" fill="#869A81"/>
<path d="M64.3243 45.3597C64.3243 46.3303 63.5352 47.1184 62.5633 47.1184C61.5915 47.1184 60.7985 46.3303 60.7985 45.3597C60.7985 44.3892 61.5876 43.6011 62.5633 43.6011C63.5391 43.6011 64.3243 44.3892 64.3243 45.3597Z" fill="#869A81"/>
<path d="M64.3204 36.6403C64.3204 37.6108 63.5313 38.3989 62.5594 38.3989C61.5876 38.3989 60.7946 37.6108 60.7946 36.6403C60.7946 35.6697 61.5837 34.8816 62.5594 34.8816C63.5351 34.8816 64.3204 35.6697 64.3204 36.6403Z" fill="#869A81"/>
<path d="M56.7284 40.9612C56.7284 41.9317 55.9392 42.7198 54.9674 42.7198C53.9955 42.7198 53.2025 41.9317 53.2025 40.9612C53.2025 39.9906 53.9916 39.2025 54.9674 39.2025C55.9431 39.2025 56.7284 39.9906 56.7284 40.9612Z" fill="#869A81"/>
<path d="M56.7206 58.4583C56.7206 59.4288 55.9315 60.2169 54.9596 60.2169C53.9878 60.2169 53.1948 59.4288 53.1948 58.4583C53.1948 57.4877 53.9839 56.6996 54.9596 56.6996C55.9354 56.6996 56.7206 57.4877 56.7206 58.4583Z" fill="#869A81"/>
<path d="M56.7206 49.6923C56.7206 50.6628 55.9315 51.4509 54.9596 51.4509C53.9878 51.4509 53.1948 50.6628 53.1948 49.6923C53.1948 48.7217 53.9839 47.9336 54.9596 47.9336C55.9354 47.9336 56.7206 48.7217 56.7206 49.6923Z" fill="#869A81"/>
<path d="M56.7206 32.2534C56.7206 33.2239 55.9315 34.012 54.9596 34.012C53.9878 34.012 53.1948 33.2239 53.1948 32.2534C53.1948 31.2828 53.9839 30.4947 54.9596 30.4947C55.9354 30.4947 56.7206 31.2828 56.7206 32.2534Z" fill="#869A81"/>
<path d="M49.0703 45.2821C49.0703 46.2526 48.2811 47.0407 47.3093 47.0407C46.3375 47.0407 45.5444 46.2526 45.5444 45.2821C45.5444 44.3115 46.3336 43.5234 47.3093 43.5234C48.285 43.5234 49.0703 44.3115 49.0703 45.2821Z" fill="#869A81"/>
<path d="M41.4899 49.6845C41.4899 50.6551 40.7008 51.4431 39.7289 51.4431C38.7571 51.4431 37.9641 50.6551 37.9641 49.6845C37.9641 48.7139 38.7532 47.9259 39.7289 47.9259C40.7046 47.9259 41.4899 48.7139 41.4899 49.6845Z" fill="#869A81"/>
<path d="M33.9484 54.052C33.9484 55.0225 33.1593 55.8106 32.1874 55.8106C31.2156 55.8106 30.4225 55.0225 30.4225 54.052C30.4225 53.0814 31.2117 52.2933 32.1874 52.2933C33.1631 52.2933 33.9484 53.0814 33.9484 54.052Z" fill="#869A81"/>
<path d="M26.3253 58.4195C26.3253 59.39 25.5361 60.1781 24.5643 60.1781C23.5925 60.1781 22.7994 59.39 22.7994 58.4195C22.7994 57.4489 23.5886 56.6608 24.5643 56.6608C25.54 56.6608 26.3253 57.4489 26.3253 58.4195Z" fill="#869A81"/>
<path d="M64.3127 27.9325C64.3127 28.903 63.5235 29.6911 62.5517 29.6911C61.5798 29.6911 60.7868 28.903 60.7868 27.9325C60.7868 26.9619 61.5759 26.1738 62.5517 26.1738C63.5274 26.1738 64.3127 26.9619 64.3127 27.9325Z" fill="#869A81"/>
<path d="M64.3282 19.1626C64.3282 20.1331 63.5391 20.9212 62.5672 20.9212C61.5954 20.9212 60.8024 20.1331 60.8024 19.1626C60.8024 18.192 61.5915 17.4039 62.5672 17.4039C63.543 17.4039 64.3282 18.192 64.3282 19.1626Z" fill="#869A81"/>
<path d="M56.7206 23.5223C56.7206 24.4929 55.9315 25.2809 54.9596 25.2809C53.9878 25.2809 53.1948 24.4929 53.1948 23.5223C53.1948 22.5517 53.9839 21.7637 54.9596 21.7637C55.9354 21.7637 56.7206 22.5517 56.7206 23.5223Z" fill="#869A81"/>
<path d="M56.7206 14.8223C56.7206 15.7928 55.9315 16.5809 54.9596 16.5809C53.9878 16.5809 53.1948 15.7928 53.1948 14.8223C53.1948 13.8517 53.9839 13.0636 54.9596 13.0636C55.9354 13.0636 56.7206 13.8517 56.7206 14.8223Z" fill="#869A81"/>
<path d="M49.1519 19.1626C49.1519 20.1331 48.3627 20.9212 47.3909 20.9212C46.4191 20.9212 45.626 20.1331 45.626 19.1626C45.626 18.192 46.4152 17.4039 47.3909 17.4039C48.3666 17.4039 49.1519 18.192 49.1519 19.1626Z" fill="#869A81"/>
<path d="M41.5404 23.4718C41.5404 24.4424 40.7513 25.2305 39.7795 25.2305C38.8076 25.2305 38.0146 24.4424 38.0146 23.4718C38.0146 22.5013 38.8037 21.7132 39.7795 21.7132C40.7552 21.7132 41.5404 22.5013 41.5404 23.4718Z" fill="#869A81"/>
<path d="M33.9095 27.8898C33.9095 28.8603 33.1204 29.6484 32.1485 29.6484C31.1767 29.6484 30.3837 28.8603 30.3837 27.8898C30.3837 26.9192 31.1728 26.1311 32.1485 26.1311C33.1243 26.1311 33.9095 26.9192 33.9095 27.8898Z" fill="#869A81"/>
<path d="M26.2825 32.2456C26.2825 33.2162 25.4934 34.0043 24.5215 34.0043C23.5497 34.0043 22.7567 33.2162 22.7567 32.2456C22.7567 31.2751 23.5458 30.487 24.5215 30.487C25.4972 30.487 26.2825 31.2751 26.2825 32.2456Z" fill="#869A81"/>
<path d="M25.6722 11.7553H23.4292C23.0793 11.7553 22.6517 12.0038 22.4768 12.3027L21.3572 14.2438C21.1823 14.5466 21.1823 15.0397 21.3572 15.3425L22.4768 17.2836C22.6517 17.5864 23.0793 17.831 23.4292 17.831H25.6722C26.0221 17.831 26.4497 17.5825 26.6246 17.2836L27.748 15.3425C27.923 15.0397 27.923 14.5466 27.748 14.2438L26.6285 12.3027C26.4536 11.9999 26.0259 11.7553 25.6761 11.7553" fill="#596F52"/>
<path d="M33.1671 7.36843H30.9241C30.5742 7.36843 30.1466 7.61689 29.9716 7.91582L28.8521 9.85693C28.6772 10.1597 28.6772 10.6528 28.8521 10.9556L29.9716 12.8967C30.1466 13.1995 30.5742 13.4441 30.9241 13.4441H33.1671C33.5169 13.4441 33.9445 13.1956 34.1195 12.8967L35.2429 10.9556C35.4179 10.6528 35.4179 10.1597 35.2429 9.85693L34.1234 7.91582C33.9484 7.61301 33.5208 7.36843 33.171 7.36843" fill="#596F52"/>
<path d="M40.8446 3.04753H38.6016C38.2517 3.04753 37.8241 3.29599 37.6492 3.59492L36.5296 5.53603C36.3547 5.83884 36.3547 6.33188 36.5296 6.63469L37.6492 8.5758C37.8241 8.87861 38.2517 9.12319 38.6016 9.12319H40.8446C41.1945 9.12319 41.6221 8.87473 41.797 8.5758L42.9205 6.63469C43.0954 6.33188 43.0954 5.83884 42.9205 5.53603L41.8009 3.59492C41.626 3.29211 41.1984 3.04753 40.8485 3.04753" fill="#596F52"/>
<path d="M48.4483 7.38784H46.2053C45.8554 7.38784 45.4278 7.6363 45.2529 7.93523L44.1333 9.87634C43.9584 10.1791 43.9584 10.6722 44.1333 10.975L45.2529 12.9161C45.4278 13.2189 45.8554 13.4635 46.2053 13.4635H48.4483C48.7982 13.4635 49.2258 13.215 49.4007 12.9161L50.5242 10.975C50.6991 10.6722 50.6991 10.1791 50.5242 9.87634L49.4046 7.93523C49.2297 7.63242 48.8021 7.38784 48.4522 7.38784" fill="#596F52"/>
<path d="M25.5983 20.4748H23.3553C23.0055 20.4748 22.5779 20.7232 22.4029 21.0222L21.2834 22.9633C21.1084 23.2661 21.1084 23.7591 21.2834 24.0619L22.4029 26.003C22.5779 26.3058 23.0055 26.5504 23.3553 26.5504H25.5983C25.9482 26.5504 26.3758 26.302 26.5507 26.003L27.6742 24.0619C27.8491 23.7591 27.8491 23.2661 27.6742 22.9633L26.5546 21.0222C26.3797 20.7193 25.9521 20.4748 25.6022 20.4748" fill="#596F52"/>
<path d="M33.1671 16.0646H30.9241C30.5742 16.0646 30.1466 16.313 29.9716 16.612L28.8521 18.5531C28.6772 18.8559 28.6772 19.3489 28.8521 19.6517L29.9716 21.5928C30.1466 21.8957 30.5742 22.1402 30.9241 22.1402H33.1671C33.5169 22.1402 33.9445 21.8918 34.1195 21.5928L35.2429 19.6517C35.4179 19.3489 35.4179 18.8559 35.2429 18.5531L34.1234 16.612C33.9484 16.3092 33.5208 16.0646 33.171 16.0646" fill="#596F52"/>
<path d="M40.8446 11.7398H38.6016C38.2517 11.7398 37.8241 11.9883 37.6492 12.2872L36.5296 14.2283C36.3547 14.5311 36.3547 15.0241 36.5296 15.327L37.6492 17.2681C37.8241 17.5709 38.2517 17.8155 38.6016 17.8155H40.8446C41.1945 17.8155 41.6221 17.567 41.797 17.2681L42.9205 15.327C43.0954 15.0241 43.0954 14.5311 42.9205 14.2283L41.8009 12.2872C41.626 11.9844 41.1984 11.7398 40.8485 11.7398" fill="#596F52"/>
<path d="M25.6333 37.9136H23.3903C23.0404 37.9136 22.6128 38.1621 22.4379 38.461L21.3183 40.4021C21.1434 40.705 21.1434 41.198 21.3183 41.5008L22.4379 43.4419C22.6128 43.7447 23.0404 43.9893 23.3903 43.9893H25.6333C25.9832 43.9893 26.4108 43.7408 26.5857 43.4419L27.7092 41.5008C27.8841 41.198 27.8841 40.705 27.7092 40.4021L26.5896 38.461C26.4147 38.1582 25.9871 37.9136 25.6372 37.9136" fill="#596F52"/>
<path d="M33.3109 33.5927H31.0679C30.718 33.5927 30.2904 33.8412 30.1154 34.1401L28.9959 36.0812C28.821 36.3841 28.821 36.8771 28.9959 37.1799L30.1154 39.121C30.2904 39.4238 30.718 39.6684 31.0679 39.6684H33.3109C33.6607 39.6684 34.0883 39.4199 34.2633 39.121L35.3867 37.1799C35.5617 36.8771 35.5617 36.3841 35.3867 36.0812L34.2672 34.1401C34.0922 33.8373 33.6646 33.5927 33.3148 33.5927" fill="#596F52"/>
<path d="M40.8796 29.1787H38.6366C38.2867 29.1787 37.8591 29.4271 37.6842 29.7261L36.5646 31.6672C36.3897 31.97 36.3897 32.463 36.5646 32.7658L37.6842 34.7069C37.8591 35.0098 38.2867 35.2543 38.6366 35.2543H40.8796C41.2295 35.2543 41.6571 35.0059 41.832 34.7069L42.9554 32.7658C43.1304 32.463 43.1304 31.97 42.9554 31.6672L41.8359 29.7261C41.661 29.4233 41.2333 29.1787 40.8835 29.1787" fill="#596F52"/>
<path d="M48.5571 24.8539H46.3141C45.9643 24.8539 45.5367 25.1024 45.3617 25.4013L44.2422 27.3424C44.0672 27.6452 44.0672 28.1382 44.2422 28.4411L45.3617 30.3822C45.5367 30.685 45.9643 30.9296 46.3141 30.9296H48.5571C48.907 30.9296 49.3346 30.6811 49.5095 30.3822L50.633 28.4411C50.8079 28.1382 50.8079 27.6452 50.633 27.3424L49.5134 25.4013C49.3385 25.0985 48.9109 24.8539 48.561 24.8539" fill="#596F52"/>
<path d="M25.6333 46.6098H23.3903C23.0404 46.6098 22.6128 46.8583 22.4379 47.1572L21.3183 49.0983C21.1434 49.4011 21.1434 49.8941 21.3183 50.197L22.4379 52.1381C22.6128 52.4409 23.0404 52.6855 23.3903 52.6855H25.6333C25.9832 52.6855 26.4108 52.437 26.5857 52.1381L27.7092 50.197C27.8841 49.8941 27.8841 49.4011 27.7092 49.0983L26.5896 47.1572C26.4147 46.8544 25.9871 46.6098 25.6372 46.6098" fill="#596F52"/>
<path d="M33.3109 42.285H31.0679C30.718 42.285 30.2904 42.5335 30.1154 42.8324L28.9959 44.7735C28.821 45.0763 28.821 45.5694 28.9959 45.8722L30.1154 47.8133C30.2904 48.1161 30.718 48.3607 31.0679 48.3607H33.3109C33.6607 48.3607 34.0883 48.1122 34.2633 47.8133L35.3867 45.8722C35.5617 45.5694 35.5617 45.0763 35.3867 44.7735L34.2672 42.8324C34.0922 42.5296 33.6646 42.285 33.3148 42.285" fill="#596F52"/>
<path d="M40.8796 37.8748H38.6366C38.2867 37.8748 37.8591 38.1233 37.6842 38.4222L36.5646 40.3633C36.3897 40.6661 36.3897 41.1592 36.5646 41.462L37.6842 43.4031C37.8591 43.7059 38.2867 43.9505 38.6366 43.9505H40.8796C41.2295 43.9505 41.6571 43.702 41.832 43.4031L42.9554 41.462C43.1304 41.1592 43.1304 40.6661 42.9554 40.3633L41.8359 38.4222C41.661 38.1194 41.2333 37.8748 40.8835 37.8748" fill="#596F52"/>
<path d="M48.5571 33.55H46.3141C45.9643 33.55 45.5367 33.7985 45.3617 34.0974L44.2422 36.0385C44.0672 36.3414 44.0672 36.8344 44.2422 37.1372L45.3617 39.0783C45.5367 39.3811 45.9643 39.6257 46.3141 39.6257H48.5571C48.907 39.6257 49.3346 39.3772 49.5095 39.0783L50.633 37.1372C50.8079 36.8344 50.8079 36.3414 50.633 36.0385L49.5134 34.0974C49.3385 33.7946 48.9109 33.55 48.561 33.55" fill="#596F52"/>
<path d="M18.0685 16.1073H15.8255C15.4756 16.1073 15.048 16.3557 14.8731 16.6547L13.7535 18.5958C13.5786 18.8986 13.5786 19.3916 13.7535 19.6944L14.8731 21.6355C15.048 21.9384 15.4756 22.1829 15.8255 22.1829H18.0685C18.4184 22.1829 18.846 21.9345 19.0209 21.6355L20.1443 19.6944C20.3193 19.3916 20.3193 18.8986 20.1443 18.5958L19.0248 16.6547C18.8499 16.3519 18.4222 16.1073 18.0724 16.1073" fill="#596F52"/>
<path d="M18.0685 24.7995H15.8255C15.4756 24.7995 15.048 25.048 14.8731 25.3469L13.7535 27.288C13.5786 27.5909 13.5786 28.0839 13.7535 28.3867L14.8731 30.3278C15.048 30.6306 15.4756 30.8752 15.8255 30.8752H18.0685C18.4184 30.8752 18.846 30.6267 19.0209 30.3278L20.1443 28.3867C20.3193 28.0839 20.3193 27.5909 20.1443 27.288L19.0248 25.3469C18.8499 25.0441 18.4222 24.7995 18.0724 24.7995" fill="#596F52"/>
<path d="M18.0685 33.5423H15.8255C15.4756 33.5423 15.048 33.7907 14.8731 34.0897L13.7535 36.0308C13.5786 36.3336 13.5786 36.8266 13.7535 37.1294L14.8731 39.0705C15.048 39.3734 15.4756 39.6179 15.8255 39.6179H18.0685C18.4184 39.6179 18.846 39.3695 19.0209 39.0705L20.1443 37.1294C20.3193 36.8266 20.3193 36.3336 20.1443 36.0308L19.0248 34.0897C18.8499 33.7869 18.4222 33.5423 18.0724 33.5423" fill="#596F52"/>
<path d="M18.0685 42.2384H15.8255C15.4756 42.2384 15.048 42.4869 14.8731 42.7858L13.7535 44.7269C13.5786 45.0297 13.5786 45.5228 13.7535 45.8256L14.8731 47.7667C15.048 48.0695 15.4756 48.3141 15.8255 48.3141H18.0685C18.4184 48.3141 18.846 48.0656 19.0209 47.7667L20.1443 45.8256C20.3193 45.5228 20.3193 45.0297 20.1443 44.7269L19.0248 42.7858C18.8499 42.483 18.4222 42.2384 18.0724 42.2384" fill="#596F52"/>
<path d="M18.0685 51.0472H15.8255C15.4756 51.0472 15.048 51.2956 14.8731 51.5945L13.7535 53.5356C13.5786 53.8385 13.5786 54.3315 13.7535 54.6343L14.8731 56.5754C15.048 56.8782 15.4756 57.1228 15.8255 57.1228H18.0685C18.4184 57.1228 18.846 56.8743 19.0209 56.5754L20.1443 54.6343C20.3193 54.3315 20.3193 53.8385 20.1443 53.5356L19.0248 51.5945C18.8499 51.2917 18.4222 51.0472 18.0724 51.0472" fill="#596F52"/>
<path d="M18.0685 59.7899H15.8255C15.4756 59.7899 15.048 60.0383 14.8731 60.3373L13.7535 62.2784C13.5786 62.5812 13.5786 63.0742 13.7535 63.377L14.8731 65.3181C15.048 65.621 15.4756 65.8655 15.8255 65.8655H18.0685C18.4184 65.8655 18.846 65.6171 19.0209 65.3181L20.1443 63.377C20.3193 63.0742 20.3193 62.5812 20.1443 62.2784L19.0248 60.3373C18.8499 60.0345 18.4222 59.7899 18.0724 59.7899" fill="#596F52"/>
<path d="M18.0685 68.486H15.8255C15.4756 68.486 15.048 68.7345 14.8731 69.0334L13.7535 70.9745C13.5786 71.2773 13.5786 71.7704 13.7535 72.0732L14.8731 74.0143C15.048 74.3171 15.4756 74.5617 15.8255 74.5617H18.0685C18.4184 74.5617 18.846 74.3132 19.0209 74.0143L20.1443 72.0732C20.3193 71.7704 20.3193 71.2773 20.1443 70.9745L19.0248 69.0334C18.8499 68.7306 18.4222 68.486 18.0724 68.486" fill="#596F52"/>
<path d="M10.5154 20.3583H8.27238C7.92252 20.3583 7.49491 20.6068 7.31998 20.9057L6.20041 22.8468C6.02548 23.1496 6.02548 23.6426 6.20041 23.9455L7.31998 25.8866C7.49491 26.1894 7.92252 26.434 8.27238 26.434H10.5154C10.8653 26.434 11.2929 26.1855 11.4678 25.8866L12.5912 23.9455C12.7662 23.6426 12.7662 23.1496 12.5912 22.8468L11.4717 20.9057C11.2968 20.6029 10.8691 20.3583 10.5193 20.3583" fill="#596F52"/>
<path d="M10.5154 29.101H8.27238C7.92252 29.101 7.49491 29.3495 7.31998 29.6484L6.20041 31.5895C6.02548 31.8923 6.02548 32.3854 6.20041 32.6882L7.31998 34.6293C7.49491 34.9321 7.92252 35.1767 8.27238 35.1767H10.5154C10.8653 35.1767 11.2929 34.9282 11.4678 34.6293L12.5912 32.6882C12.7662 32.3854 12.7662 31.8923 12.5912 31.5895L11.4717 29.6484C11.2968 29.3456 10.8691 29.101 10.5193 29.101" fill="#596F52"/>
<path d="M10.5154 37.7933H8.27238C7.92252 37.7933 7.49491 38.0418 7.31998 38.3407L6.20041 40.2818C6.02548 40.5846 6.02548 41.0776 6.20041 41.3805L7.31998 43.3216C7.49491 43.6244 7.92252 43.869 8.27238 43.869H10.5154C10.8653 43.869 11.2929 43.6205 11.4678 43.3216L12.5912 41.3805C12.7662 41.0776 12.7662 40.5846 12.5912 40.2818L11.4717 38.3407C11.2968 38.0379 10.8691 37.7933 10.5193 37.7933" fill="#596F52"/>
<path d="M10.5154 46.6059H8.27238C7.92252 46.6059 7.49491 46.8544 7.31998 47.1533L6.20041 49.0944C6.02548 49.3972 6.02548 49.8903 6.20041 50.1931L7.31998 52.1342C7.49491 52.437 7.92252 52.6816 8.27238 52.6816H10.5154C10.8653 52.6816 11.2929 52.4331 11.4678 52.1342L12.5912 50.1931C12.7662 49.8903 12.7662 49.3972 12.5912 49.0944L11.4717 47.1533C11.2968 46.8505 10.8691 46.6059 10.5193 46.6059" fill="#596F52"/>
<path d="M10.5154 55.3486H8.27238C7.92252 55.3486 7.49491 55.5971 7.31998 55.896L6.20041 57.8371C6.02548 58.1399 6.02548 58.633 6.20041 58.9358L7.31998 60.8769C7.49491 61.1797 7.92252 61.4243 8.27238 61.4243H10.5154C10.8653 61.4243 11.2929 61.1758 11.4678 60.8769L12.5912 58.9358C12.7662 58.633 12.7662 58.1399 12.5912 57.8371L11.4717 55.896C11.2968 55.5932 10.8691 55.3486 10.5193 55.3486" fill="#596F52"/>
<path d="M10.5154 64.0409H8.27238C7.92252 64.0409 7.49491 64.2894 7.31998 64.5883L6.20041 66.5294C6.02548 66.8322 6.02548 67.3253 6.20041 67.6281L7.31998 69.5692C7.49491 69.872 7.92252 70.1166 8.27238 70.1166H10.5154C10.8653 70.1166 11.2929 69.8681 11.4678 69.5692L12.5912 67.6281C12.7662 67.3253 12.7662 66.8322 12.5912 66.5294L11.4717 64.5883C11.2968 64.2855 10.8691 64.0409 10.5193 64.0409" fill="#596F52"/>
<path d="M25.851 63.9749H23.608C23.2581 63.9749 22.8305 64.2234 22.6556 64.5223L21.536 66.4634C21.3611 66.7662 21.3611 67.2593 21.536 67.5621L22.6556 69.5032C22.8305 69.806 23.2581 70.0506 23.608 70.0506H25.851C26.2009 70.0506 26.6285 69.8021 26.8034 69.5032L27.9269 67.5621C28.1018 67.2593 28.1018 66.7662 27.9269 66.4634L26.8073 64.5223C26.6324 64.2195 26.2048 63.9749 25.8549 63.9749" fill="#596F52"/>
<path d="M33.5286 59.6501H31.2856C30.9357 59.6501 30.5081 59.8986 30.3332 60.1975L29.2136 62.1386C29.0387 62.4414 29.0387 62.9345 29.2136 63.2373L30.3332 65.1784C30.5081 65.4812 30.9357 65.7258 31.2856 65.7258H33.5286C33.8784 65.7258 34.306 65.4773 34.481 65.1784L35.6044 63.2373C35.7794 62.9345 35.7794 62.4414 35.6044 62.1386L34.4849 60.1975C34.3099 59.8947 33.8823 59.6501 33.5325 59.6501" fill="#596F52"/>
<path d="M41.0973 55.2361H38.8543C38.5044 55.2361 38.0768 55.4845 37.9019 55.7835L36.7823 57.7246C36.6074 58.0274 36.6074 58.5204 36.7823 58.8232L37.9019 60.7643C38.0768 61.0671 38.5044 61.3117 38.8543 61.3117H41.0973C41.4472 61.3117 41.8748 61.0633 42.0497 60.7643L43.1732 58.8232C43.3481 58.5204 43.3481 58.0274 43.1732 57.7246L42.0536 55.7835C41.8787 55.4806 41.4511 55.2361 41.1012 55.2361" fill="#596F52"/>
<path d="M48.7749 50.9152H46.5318C46.182 50.9152 45.7544 51.1636 45.5794 51.4626L44.4599 53.4037C44.2849 53.7065 44.2849 54.1995 44.4599 54.5023L45.5794 56.4434C45.7544 56.7462 46.182 56.9908 46.5318 56.9908H48.7749C49.1247 56.9908 49.5523 56.7424 49.7273 56.4434L50.8507 54.5023C51.0256 54.1995 51.0256 53.7065 50.8507 53.4037L49.7311 51.4626C49.5562 51.1597 49.1286 50.9152 48.7787 50.9152" fill="#596F52"/>
<path d="M25.851 72.6672H23.608C23.2581 72.6672 22.8305 72.9156 22.6556 73.2146L21.536 75.1557C21.3611 75.4585 21.3611 75.9515 21.536 76.2543L22.6556 78.1954C22.8305 78.4982 23.2581 78.7428 23.608 78.7428H25.851C26.2009 78.7428 26.6285 78.4944 26.8034 78.1954L27.9269 76.2543C28.1018 75.9515 28.1018 75.4585 27.9269 75.1557L26.8073 73.2146C26.6324 72.9117 26.2048 72.6672 25.8549 72.6672" fill="#596F52"/>
<path d="M33.5286 68.3424H31.2856C30.9357 68.3424 30.5081 68.5909 30.3332 68.8898L29.2136 70.8309C29.0387 71.1337 29.0387 71.6267 29.2136 71.9296L30.3332 73.8707C30.5081 74.1735 30.9357 74.4181 31.2856 74.4181H33.5286C33.8784 74.4181 34.306 74.1696 34.481 73.8707L35.6044 71.9296C35.7794 71.6267 35.7794 71.1337 35.6044 70.8309L34.4849 68.8898C34.3099 68.587 33.8823 68.3424 33.5325 68.3424" fill="#596F52"/>
<path d="M41.0973 63.9322H38.8543C38.5044 63.9322 38.0768 64.1807 37.9019 64.4796L36.7823 66.4207C36.6074 66.7235 36.6074 67.2166 36.7823 67.5194L37.9019 69.4605C38.0768 69.7633 38.5044 70.0079 38.8543 70.0079H41.0973C41.4472 70.0079 41.8748 69.7594 42.0497 69.4605L43.1732 67.5194C43.3481 67.2166 43.3481 66.7235 43.1732 66.4207L42.0536 64.4796C41.8787 64.1768 41.4511 63.9322 41.1012 63.9322" fill="#596F52"/>
<path d="M48.7749 59.6074H46.5318C46.182 59.6074 45.7544 59.8559 45.5794 60.1548L44.4599 62.0959C44.2849 62.3987 44.2849 62.8918 44.4599 63.1946L45.5794 65.1357C45.7544 65.4385 46.182 65.6831 46.5318 65.6831H48.7749C49.1247 65.6831 49.5523 65.4346 49.7273 65.1357L50.8507 63.1946C51.0256 62.8918 51.0256 62.3987 50.8507 62.0959L49.7311 60.1548C49.5562 59.852 49.1286 59.6074 48.7787 59.6074" fill="#596F52"/>
<path d="M254.712 10.9478H250.273C250.082 10.9478 249.911 11.0138 249.787 11.1419C249.659 11.27 249.592 11.437 249.592 11.6311C249.592 11.8252 249.659 11.9921 249.787 12.1203C249.915 12.2484 250.082 12.3144 250.273 12.3144H251.781V17.2758C251.781 17.4738 251.855 17.6485 251.991 17.7844C252.127 17.9203 252.302 17.994 252.5 17.994C252.698 17.994 252.873 17.9242 253.009 17.7844C253.146 17.6485 253.215 17.4738 253.215 17.2758V12.3144H254.712C254.903 12.3144 255.074 12.2484 255.202 12.1203C255.33 11.9921 255.396 11.8252 255.396 11.6311C255.396 11.437 255.33 11.27 255.202 11.1419C255.074 11.0138 254.906 10.9478 254.712 10.9478Z" fill="#5A6F53"/>
<path d="M262.631 11.1497C262.495 11.0177 262.32 10.9478 262.125 10.9478C261.857 10.9478 261.632 11.0798 261.488 11.3399L259.342 15.7462L257.13 11.3244C256.99 11.0837 256.769 10.9478 256.5 10.9478C256.306 10.9478 256.131 11.0177 255.995 11.1497C255.855 11.2856 255.785 11.4642 255.785 11.666V17.2758C255.785 17.4699 255.855 17.6446 255.995 17.7844C256.267 18.0561 256.741 18.0561 257.013 17.7844C257.15 17.6485 257.219 17.4738 257.219 17.2758V14.4418L258.662 17.3263C258.79 17.598 259.023 17.7456 259.319 17.7456C259.494 17.7456 259.746 17.6873 259.948 17.369L261.414 14.3836V17.2758C261.414 17.4699 261.488 17.6485 261.62 17.7844C261.752 17.9203 261.931 17.994 262.129 17.994C262.327 17.994 262.491 17.9242 262.631 17.7883C262.771 17.6524 262.848 17.4738 262.848 17.2758V11.666C262.848 11.4642 262.775 11.2856 262.635 11.1497H262.631Z" fill="#5A6F53"/>
</g>
<defs>
<clipPath id="clip0_59_13">
<rect width="263" height="82" fill="white"/>
</clipPath>
</defs>
</svg>
