<svg width="122" height="120" viewBox="0 0 122 120" fill="none" xmlns="http://www.w3.org/2000/svg">
<path d="M2.67385 83.9092H118.352C118.961 83.9092 119.478 83.545 119.722 83.029C119.965 82.4826 119.874 81.8452 119.478 81.4202L100.822 60.5671C100.549 60.2332 100.122 60.0511 99.6964 60.0511H84.0231L96.3792 46.9686L98.3269 48.9112C98.9356 49.4879 99.879 49.4879 100.488 48.9112L114.152 35.2823C114.731 34.6752 114.731 33.7343 114.152 33.1272L97.4443 16.4325C96.8661 15.8558 95.8922 15.8558 95.2835 16.4325L81.6188 30.0614C81.0406 30.6685 81.0406 31.6095 81.6188 32.2166L82.8362 33.4307L77.5103 38.7426H57.0893C52.646 38.7426 48.3852 40.5032 45.281 43.6296L32.7423 56.1354C31.6467 57.2282 31.0989 58.6244 31.038 60.0511H21.3297C20.9036 60.0511 20.4776 60.2332 20.2037 60.5671L1.54781 81.3899C1.15217 81.8452 1.06087 82.4826 1.30434 82.9986C1.54781 83.545 2.09561 83.8789 2.67385 83.8789V83.9092ZM46.2244 63.8453C45.3723 64.6649 44.0332 64.6649 43.1811 63.8453L42.2985 62.965L50.8504 54.4356C50.9721 55.6801 51.459 56.8639 52.2808 57.8049L46.2244 63.8453ZM54.8372 59.5654C55.4763 59.8082 56.1763 59.9297 56.8762 59.9297H59.2805L55.3546 63.8453C54.5024 64.6649 53.1633 64.6649 52.3112 63.8453L51.4286 62.965L54.8372 59.5654ZM96.3792 19.6501L110.957 34.1896L99.4225 45.6937L84.8448 31.1542L96.3792 19.6501ZM34.9031 58.2298L47.4418 45.724C49.9982 43.144 53.4981 41.7173 57.1197 41.7173H78.1798C78.5755 41.7173 78.9711 41.5656 79.245 41.262L84.997 35.5251L94.2792 44.7831L81.3753 58.412C76.3842 62.3276 69.354 62.4187 64.2716 58.6244L62.3543 57.1675C62.0804 56.9853 61.7761 56.8639 61.4413 56.8639H56.8762C55.2024 56.8639 53.8329 55.498 53.8329 53.8285V52.3108H67.4976V49.2754H52.3112C51.9156 49.2754 51.5199 49.4272 51.246 49.7308L38.8291 62.1151C37.7335 63.1775 35.9683 63.1472 34.9031 62.0241C33.8684 60.9617 33.8684 59.2619 34.9031 58.1995V58.2298ZM21.9992 63.0258H31.7685C32.0119 63.4811 32.3163 63.906 32.6815 64.3006C33.1988 64.8166 33.7771 65.2112 34.4162 65.4844C34.2336 65.7273 34.0814 66.0308 34.0814 66.3647C34.0814 67.1842 34.751 67.8824 35.6031 67.8824H35.9379C36.7596 67.8824 37.4595 67.2146 37.4595 66.3647C37.4595 66.2129 37.4291 66.0915 37.3682 65.9397C38.2813 65.8487 39.2247 65.5451 40.016 64.9988L40.9899 65.9701C42.5115 67.4878 44.7028 67.852 46.5897 67.1235C46.8636 67.5485 47.3201 67.8824 47.8679 67.8824H48.2026C49.0243 67.8824 49.7243 67.2146 49.7243 66.3647C49.7243 65.879 49.4809 65.4844 49.1461 65.2112L49.2678 65.0898L50.1504 65.9701C52.1895 68.0038 55.4763 68.0038 57.4849 65.9701L60.4674 62.9954H65.9455C70.2671 64.847 75.106 64.847 79.4276 62.9954H99.0269L114.974 80.8435H6.05199L21.9992 62.9954V63.0258Z" fill="white"/>
<path d="M23.734 64.8773H23.3992C22.5775 64.8773 21.8775 65.5451 21.8775 66.395C21.8775 67.2449 22.547 67.9127 23.3992 67.9127H23.734C24.5557 67.9127 25.2556 67.2449 25.2556 66.395C25.2556 65.5451 24.5861 64.8773 23.734 64.8773Z" fill="white"/>
<path d="M18.8341 70.4625H18.4994C17.6777 70.4625 16.9777 71.1302 16.9777 71.9802C16.9777 72.8301 17.6472 73.4978 18.4994 73.4978H18.8341C19.6558 73.4978 20.3558 72.8301 20.3558 71.9802C20.3558 71.1302 19.6863 70.4625 18.8341 70.4625Z" fill="white"/>
<path d="M13.9343 76.0476H13.5995C12.7778 76.0476 12.0779 76.7154 12.0779 77.5653C12.0779 78.4152 12.7474 79.083 13.5995 79.083H13.9343C14.756 79.083 15.456 78.4152 15.456 77.5653C15.456 76.7154 14.7865 76.0476 13.9343 76.0476Z" fill="white"/>
<path d="M32.7119 70.4625H32.3771C31.5554 70.4625 30.8554 71.1302 30.8554 71.9802C30.8554 72.8301 31.525 73.4978 32.3771 73.4978H32.7119C33.5336 73.4978 34.2336 72.8301 34.2336 71.9802C34.2336 71.1302 33.564 70.4625 32.7119 70.4625Z" fill="white"/>
<path d="M29.4555 76.0476H29.1207C28.299 76.0476 27.599 76.7154 27.599 77.5653C27.599 78.4152 28.2686 79.083 29.1207 79.083H29.4555C30.2772 79.083 30.9772 78.4152 30.9772 77.5653C30.9772 76.7154 30.3076 76.0476 29.4555 76.0476Z" fill="white"/>
<path d="M46.6201 70.4625H46.2853C45.4636 70.4625 44.7636 71.1302 44.7636 71.9802C44.7636 72.8301 45.4332 73.4978 46.2853 73.4978H46.6201C47.4418 73.4978 48.1418 72.8301 48.1418 71.9802C48.1418 71.1302 47.4722 70.4625 46.6201 70.4625Z" fill="white"/>
<path d="M44.9767 76.0476H44.6419C43.8202 76.0476 43.1202 76.7154 43.1202 77.5653C43.1202 78.4152 43.7898 79.083 44.6419 79.083H44.9767C45.7984 79.083 46.4984 78.4152 46.4984 77.5653C46.4984 76.7154 45.8288 76.0476 44.9767 76.0476Z" fill="white"/>
<path d="M60.4978 64.8773H60.1631C59.3414 64.8773 58.6414 65.5451 58.6414 66.395C58.6414 67.2449 59.3109 67.9127 60.1631 67.9127H60.4978C61.3195 67.9127 62.0195 67.2449 62.0195 66.395C62.0195 65.5451 61.35 64.8773 60.4978 64.8773Z" fill="white"/>
<path d="M60.4978 70.4625H60.1631C59.3414 70.4625 58.6414 71.1302 58.6414 71.9802C58.6414 72.8301 59.3109 73.4978 60.1631 73.4978H60.4978C61.3195 73.4978 62.0195 72.8301 62.0195 71.9802C62.0195 71.1302 61.35 70.4625 60.4978 70.4625Z" fill="white"/>
<path d="M60.4978 76.0476H60.1631C59.3414 76.0476 58.6414 76.7154 58.6414 77.5653C58.6414 78.4152 59.3109 79.083 60.1631 79.083H60.4978C61.3195 79.083 62.0195 78.4152 62.0195 77.5653C62.0195 76.7154 61.35 76.0476 60.4978 76.0476Z" fill="white"/>
<path d="M97.2617 64.8773H96.927C96.1053 64.8773 95.4053 65.5451 95.4053 66.395C95.4053 67.2449 96.0748 67.9127 96.927 67.9127H97.2617C98.0834 67.9127 98.7834 67.2449 98.7834 66.395C98.7834 65.5451 98.1139 64.8773 97.2617 64.8773Z" fill="white"/>
<path d="M102.131 70.4625H101.796C100.975 70.4625 100.275 71.1302 100.275 71.9802C100.275 72.8301 100.944 73.4978 101.796 73.4978H102.131C102.953 73.4978 103.653 72.8301 103.653 71.9802C103.653 71.1302 102.983 70.4625 102.131 70.4625Z" fill="white"/>
<path d="M107.031 76.0476H106.696C105.874 76.0476 105.174 76.7154 105.174 77.5653C105.174 78.4152 105.844 79.083 106.696 79.083H107.031C107.853 79.083 108.553 78.4152 108.553 77.5653C108.553 76.7154 107.883 76.0476 107.031 76.0476Z" fill="white"/>
<path d="M84.997 64.8773H84.6622C83.8405 64.8773 83.1405 65.5451 83.1405 66.395C83.1405 67.2449 83.81 67.9127 84.6622 67.9127H84.997C85.8187 67.9127 86.5186 67.2449 86.5186 66.395C86.5186 65.5451 85.8491 64.8773 84.997 64.8773Z" fill="white"/>
<path d="M88.2534 70.4625H87.9186C87.0969 70.4625 86.3969 71.1302 86.3969 71.9802C86.3969 72.8301 87.0664 73.4978 87.9186 73.4978H88.2534C89.0751 73.4978 89.775 72.8301 89.775 71.9802C89.775 71.1302 89.1055 70.4625 88.2534 70.4625Z" fill="white"/>
<path d="M91.5098 76.0476H91.175C90.3533 76.0476 89.6533 76.7154 89.6533 77.5653C89.6533 78.4152 90.3228 79.083 91.175 79.083H91.5098C92.3315 79.083 93.0314 78.4152 93.0314 77.5653C93.0314 76.7154 92.3619 76.0476 91.5098 76.0476Z" fill="white"/>
<path d="M74.2539 66.395C74.2539 65.5755 73.5843 64.8773 72.7322 64.8773H72.3974C71.5757 64.8773 70.8757 65.5451 70.8757 66.395C70.8757 67.2449 71.5453 67.9127 72.3974 67.9127H72.7322C73.5539 67.9127 74.2539 67.2449 74.2539 66.395Z" fill="white"/>
<path d="M75.8669 71.9802C75.8669 71.1606 75.1973 70.4625 74.3452 70.4625H74.0104C73.1887 70.4625 72.4887 71.1302 72.4887 71.9802C72.4887 72.8301 73.1583 73.4978 74.0104 73.4978H74.3452C75.1669 73.4978 75.8669 72.8301 75.8669 71.9802Z" fill="white"/>
<path d="M75.9886 76.0476H75.6538C74.8321 76.0476 74.1321 76.7154 74.1321 77.5653C74.1321 78.4152 74.8017 79.083 75.6538 79.083H75.9886C76.8103 79.083 77.5103 78.4152 77.5103 77.5653C77.5103 76.7154 76.8407 76.0476 75.9886 76.0476Z" fill="white"/>
<path d="M2.52168 90.405H119.478C120.3 90.405 121 89.7372 121 88.8873C121 88.0374 120.33 87.3696 119.478 87.3696H2.52168C1.69997 87.3696 1 88.0374 1 88.8873C1 89.7372 1.66954 90.405 2.52168 90.405Z" fill="white"/>
<path d="M2.52168 116.965C1.69997 116.965 1 117.632 1 118.482C1 119.332 1.66954 120 2.52168 120H119.478C120.3 120 121 119.332 121 118.482C121 117.632 120.33 116.965 119.478 116.965H2.52168Z" fill="white"/>
<path d="M11.1344 92.9547C8.54755 92.9547 6.41719 95.0491 6.41719 97.6595C6.41719 100.27 8.51712 102.364 11.1344 102.364C13.7517 102.364 15.8516 100.27 15.8516 97.6595C15.8516 95.0491 13.7517 92.9547 11.1344 92.9547ZM11.1344 99.329C10.191 99.329 9.46056 98.5702 9.46056 97.6595C9.46056 96.7489 10.2214 95.9901 11.1344 95.9901C12.0474 95.9901 12.8083 96.7489 12.8083 97.6595C12.8083 98.5702 12.0474 99.329 11.1344 99.329Z" fill="white"/>
<path d="M31.0989 92.9547C28.512 92.9547 26.3817 95.0491 26.3817 97.6595C26.3817 100.27 28.4816 102.364 31.0989 102.364C33.7162 102.364 35.8161 100.27 35.8161 97.6595C35.8161 95.0491 33.7162 92.9547 31.0989 92.9547ZM31.0989 99.329C30.1555 99.329 29.4251 98.5702 29.4251 97.6595C29.4251 96.7489 30.1859 95.9901 31.0989 95.9901C32.0119 95.9901 32.7728 96.7489 32.7728 97.6595C32.7728 98.5702 32.0119 99.329 31.0989 99.329Z" fill="white"/>
<path d="M55.7806 97.6292C55.7806 95.0491 53.6807 92.9243 51.0634 92.9243C48.4461 92.9243 46.3462 95.0188 46.3462 97.6292C46.3462 100.24 48.4461 102.334 51.0634 102.334C53.6807 102.334 55.7806 100.24 55.7806 97.6292ZM49.3895 97.6292C49.3895 96.6882 50.1504 95.9597 51.0634 95.9597C51.9764 95.9597 52.7373 96.7186 52.7373 97.6292C52.7373 98.5398 51.9764 99.2987 51.0634 99.2987C50.1504 99.2987 49.3895 98.5398 49.3895 97.6292Z" fill="white"/>
<path d="M71.0583 92.9547C68.4715 92.9547 66.3411 95.0491 66.3411 97.6595C66.3411 100.27 68.441 102.364 71.0583 102.364C73.6756 102.364 75.7756 100.27 75.7756 97.6595C75.7756 95.0491 73.6756 92.9547 71.0583 92.9547ZM71.0583 99.329C70.1149 99.329 69.3845 98.5702 69.3845 97.6595C69.3845 96.7489 70.1453 95.9901 71.0583 95.9901C71.9713 95.9901 72.7322 96.7489 72.7322 97.6595C72.7322 98.5702 71.9713 99.329 71.0583 99.329Z" fill="white"/>
<path d="M95.74 97.6292C95.74 95.0491 93.6401 92.9243 91.0228 92.9243C88.4055 92.9243 86.3056 95.0188 86.3056 97.6292C86.3056 100.24 88.4055 102.334 91.0228 102.334C93.6401 102.334 95.74 100.24 95.74 97.6292ZM89.349 97.6292C89.349 96.6882 90.1098 95.9597 91.0228 95.9597C91.9358 95.9597 92.6967 96.7186 92.6967 97.6292C92.6967 98.5398 91.9358 99.2987 91.0228 99.2987C90.1098 99.2987 89.349 98.5398 89.349 97.6292Z" fill="white"/>
<path d="M110.987 92.9547C108.4 92.9547 106.27 95.0491 106.27 97.6595C106.27 100.27 108.37 102.364 110.987 102.364C113.605 102.364 115.705 100.27 115.705 97.6595C115.705 95.0491 113.605 92.9547 110.987 92.9547ZM110.987 99.329C110.044 99.329 109.313 98.5702 109.313 97.6595C109.313 96.7489 110.074 95.9901 110.987 95.9901C111.9 95.9901 112.661 96.7489 112.661 97.6595C112.661 98.5702 111.9 99.329 110.987 99.329Z" fill="white"/>
<path d="M11.1344 105.066C8.54755 105.066 6.41719 107.16 6.41719 109.771C6.41719 112.381 8.51712 114.476 11.1344 114.476C13.7517 114.476 15.8516 112.381 15.8516 109.771C15.8516 107.16 13.7517 105.066 11.1344 105.066ZM11.1344 111.44C10.191 111.44 9.46056 110.681 9.46056 109.771C9.46056 108.86 10.2214 108.101 11.1344 108.101C12.0474 108.101 12.8083 108.86 12.8083 109.771C12.8083 110.681 12.0474 111.44 11.1344 111.44Z" fill="white"/>
<path d="M30.9772 105.066C28.3903 105.066 26.26 107.16 26.26 109.771C26.26 112.381 28.3599 114.476 30.9772 114.476C33.5945 114.476 35.6944 112.381 35.6944 109.771C35.6944 107.16 33.5945 105.066 30.9772 105.066ZM30.9772 111.44C30.0337 111.44 29.3033 110.681 29.3033 109.771C29.3033 108.86 30.0642 108.101 30.9772 108.101C31.8902 108.101 32.651 108.86 32.651 109.771C32.651 110.681 31.8902 111.44 30.9772 111.44Z" fill="white"/>
<path d="M51.4895 114.476C54.0763 114.476 56.2067 112.381 56.2067 109.771C56.2067 107.16 54.1068 105.066 51.4895 105.066C48.8722 105.066 46.7723 107.16 46.7723 109.771C46.7723 112.381 48.8722 114.476 51.4895 114.476ZM51.4895 108.071C52.4329 108.071 53.1633 108.83 53.1633 109.74C53.1633 110.651 52.4025 111.41 51.4895 111.41C50.5765 111.41 49.8156 110.651 49.8156 109.74C49.8156 108.83 50.5765 108.071 51.4895 108.071Z" fill="white"/>
<path d="M71.0583 105.066C68.4715 105.066 66.3411 107.16 66.3411 109.771C66.3411 112.381 68.441 114.476 71.0583 114.476C73.6756 114.476 75.7756 112.381 75.7756 109.771C75.7756 107.16 73.6756 105.066 71.0583 105.066ZM71.0583 111.44C70.1149 111.44 69.3845 110.681 69.3845 109.771C69.3845 108.86 70.1453 108.101 71.0583 108.101C71.9713 108.101 72.7322 108.86 72.7322 109.771C72.7322 110.681 71.9713 111.44 71.0583 111.44Z" fill="white"/>
<path d="M91.3272 114.476C93.914 114.476 96.0444 112.381 96.0444 109.771C96.0444 107.16 93.9445 105.066 91.3272 105.066C88.7099 105.066 86.6099 107.16 86.6099 109.771C86.6099 112.381 88.7099 114.476 91.3272 114.476ZM91.3272 108.071C92.2706 108.071 93.001 108.83 93.001 109.74C93.001 110.651 92.2402 111.41 91.3272 111.41C90.4141 111.41 89.6533 110.651 89.6533 109.74C89.6533 108.83 90.4141 108.071 91.3272 108.071Z" fill="white"/>
<path d="M110.987 105.066C108.4 105.066 106.27 107.16 106.27 109.771C106.27 112.381 108.37 114.476 110.987 114.476C113.605 114.476 115.705 112.381 115.705 109.771C115.705 107.16 113.605 105.066 110.987 105.066ZM110.987 111.44C110.044 111.44 109.313 110.681 109.313 109.771C109.313 108.86 110.074 108.101 110.987 108.101C111.9 108.101 112.661 108.86 112.661 109.771C112.661 110.681 111.9 111.44 110.987 111.44Z" fill="white"/>
</svg>
