<svg width="122" height="120" viewBox="0 0 122 120" fill="none" xmlns="http://www.w3.org/2000/svg">
<path d="M27.5686 45.814C27.8729 46.1185 28.2381 46.2708 28.6642 46.2708C29.0903 46.2708 29.4555 46.1185 29.7598 45.814L36.3031 39.2663C36.9117 38.6573 36.9117 37.6827 36.3031 37.0736C35.6944 36.4646 34.7205 36.4646 34.1118 37.0736L30.2468 40.9413V11.5532C30.2468 10.7004 29.5468 10 28.6947 10C27.8425 10 27.1425 10.7004 27.1425 11.5532V40.9718L23.247 37.0736C22.6383 36.4646 21.6645 36.4646 21.0558 37.0736C20.4471 37.6827 20.4471 38.6573 21.0558 39.2663L27.599 45.814H27.5686Z" fill="white"/>
<path d="M49.1157 50.2602C49.42 50.5648 49.7852 50.7171 50.2113 50.7171C50.6373 50.7171 51.0025 50.5648 51.3069 50.2602L57.8501 43.7126C58.4588 43.1035 58.4588 42.129 57.8501 41.5199C57.2414 40.9109 56.2676 40.9109 55.6589 41.5199L51.7938 45.3876V15.9994C51.7938 15.1467 51.0938 14.4463 50.2417 14.4463C49.3896 14.4463 48.6896 15.1467 48.6896 15.9994V45.4181L44.7941 41.5199C44.1854 40.9109 43.2115 40.9109 42.6028 41.5199C41.9942 42.129 41.9942 43.1035 42.6028 43.7126L49.1461 50.2602H49.1157Z" fill="white"/>
<path d="M70.6627 50.2602C70.967 50.5648 71.3322 50.7171 71.7583 50.7171C72.1844 50.7171 72.5496 50.5648 72.8539 50.2602L79.3972 43.7126C80.0058 43.1035 80.0058 42.129 79.3972 41.5199C78.7885 40.9109 77.8146 40.9109 77.2059 41.5199L73.3409 45.3876V15.9994C73.3409 15.1467 72.6409 14.4463 71.7887 14.4463C70.9366 14.4463 70.2366 15.1467 70.2366 15.9994V45.4181L66.3411 41.5199C65.7324 40.9109 64.7586 40.9109 64.1499 41.5199C63.5412 42.129 63.5412 43.1035 64.1499 43.7126L70.6931 50.2602H70.6627Z" fill="white"/>
<path d="M92.2097 45.814C92.5141 46.1185 92.8793 46.2708 93.3054 46.2708C93.7314 46.2708 94.0966 46.1185 94.401 45.814L100.944 39.2663C101.553 38.6573 101.553 37.6827 100.944 37.0736C100.336 36.4646 99.3617 36.4646 98.753 37.0736L94.8879 40.9413V11.5532C94.8879 10.7004 94.1879 10 93.3358 10C92.4836 10 91.7837 10.7004 91.7837 11.5532V40.9718L87.8882 37.0736C87.2795 36.4646 86.3056 36.4646 85.6969 37.0736C85.0883 37.6827 85.0883 38.6573 85.6969 39.2663L92.2402 45.814H92.2097Z" fill="white"/>
<path d="M28.3903 62.1373H28.7251C29.5468 62.1373 30.2468 61.4673 30.2468 60.6146C30.2468 59.7619 29.5772 59.0919 28.7251 59.0919H28.3903C27.5686 59.0919 26.8686 59.7619 26.8686 60.6146C26.8686 61.4673 27.5382 62.1373 28.3903 62.1373Z" fill="white"/>
<path d="M23.8253 67.7104C24.647 67.7104 25.3469 67.0404 25.3469 66.1877C25.3469 65.335 24.6774 64.665 23.8253 64.665H23.4905C22.6688 64.665 21.9688 65.335 21.9688 66.1877C21.9688 67.0404 22.6383 67.7104 23.4905 67.7104H23.8253Z" fill="white"/>
<path d="M18.9254 70.299H18.5907C17.769 70.299 17.069 70.969 17.069 71.8217C17.069 72.6744 17.7385 73.3444 18.5907 73.3444H18.9254C19.7471 73.3444 20.4471 72.6744 20.4471 71.8217C20.4471 70.969 19.7776 70.299 18.9254 70.299Z" fill="white"/>
<path d="M39.4073 62.1069H39.7421C40.5638 62.1069 41.2638 61.4369 41.2638 60.5842C41.2638 59.7315 40.5942 59.0615 39.7421 59.0615H39.4073C38.5856 59.0615 37.8856 59.7315 37.8856 60.5842C37.8856 61.4369 38.5552 62.1069 39.4073 62.1069Z" fill="white"/>
<path d="M36.1205 67.7104H36.4552C37.2769 67.7104 37.9769 67.0404 37.9769 66.1877C37.9769 65.335 37.3074 64.665 36.4552 64.665H36.1205C35.2988 64.665 34.5988 65.335 34.5988 66.1877C34.5988 67.0404 35.2683 67.7104 36.1205 67.7104Z" fill="white"/>
<path d="M32.8641 73.314H33.1988C34.0205 73.314 34.7205 72.644 34.7205 71.7913C34.7205 70.9385 34.051 70.2686 33.1988 70.2686H32.8641C32.0424 70.2686 31.3424 70.9385 31.3424 71.7913C31.3424 72.644 32.0119 73.314 32.8641 73.314Z" fill="white"/>
<path d="M49.9678 66.2182H50.3026C51.1243 66.2182 51.8242 65.5482 51.8242 64.6955C51.8242 63.8427 51.1547 63.1728 50.3026 63.1728H49.9678C49.1461 63.1728 48.4461 63.8427 48.4461 64.6955C48.4461 65.5482 49.1157 66.2182 49.9678 66.2182Z" fill="white"/>
<path d="M48.3548 71.8217H48.6896C49.5113 71.8217 50.2113 71.1517 50.2113 70.299C50.2113 69.4463 49.5417 68.7763 48.6896 68.7763H48.3548C47.5331 68.7763 46.8331 69.4463 46.8331 70.299C46.8331 71.1517 47.5027 71.8217 48.3548 71.8217Z" fill="white"/>
<path d="M46.7114 77.4253H47.0462C47.8679 77.4253 48.5678 76.7553 48.5678 75.9026C48.5678 75.0498 47.8983 74.3798 47.0462 74.3798H46.7114C45.8897 74.3798 45.1897 75.0498 45.1897 75.9026C45.1897 76.7553 45.8592 77.4253 46.7114 77.4253Z" fill="white"/>
<path d="M62.1108 67.7104H62.4456C63.2673 67.7104 63.9673 67.0404 63.9673 66.1877C63.9673 65.335 63.2977 64.665 62.4456 64.665H62.1108C61.2891 64.665 60.5892 65.335 60.5892 66.1877C60.5892 67.0404 61.2587 67.7104 62.1108 67.7104Z" fill="white"/>
<path d="M62.1108 73.314H62.4456C63.2673 73.314 63.9673 72.644 63.9673 71.7913C63.9673 70.9385 63.2977 70.2686 62.4456 70.2686H62.1108C61.2891 70.2686 60.5892 70.9385 60.5892 71.7913C60.5892 72.644 61.2587 73.314 62.1108 73.314Z" fill="white"/>
<path d="M62.1108 78.9175H62.4456C63.2673 78.9175 63.9673 78.2475 63.9673 77.3948C63.9673 76.5421 63.2977 75.8721 62.4456 75.8721H62.1108C61.2891 75.8721 60.5892 76.5421 60.5892 77.3948C60.5892 78.2475 61.2587 78.9175 62.1108 78.9175Z" fill="white"/>
<path d="M91.4489 61.6805H91.7837C92.6054 61.6805 93.3054 61.0105 93.3054 60.1578C93.3054 59.3051 92.6358 58.6351 91.7837 58.6351H91.4489C90.6272 58.6351 89.9272 59.3051 89.9272 60.1578C89.9272 61.0105 90.5968 61.6805 91.4489 61.6805Z" fill="white"/>
<path d="M96.3487 67.284H96.6835C97.5052 67.284 98.2052 66.6141 98.2052 65.7613C98.2052 64.9086 97.5356 64.2386 96.6835 64.2386H96.3487C95.527 64.2386 94.827 64.9086 94.827 65.7613C94.827 66.6141 95.4966 67.284 96.3487 67.284Z" fill="white"/>
<path d="M101.249 72.8876H101.583C102.405 72.8876 103.105 72.2176 103.105 71.3649C103.105 70.5122 102.435 69.8422 101.583 69.8422H101.249C100.427 69.8422 99.7269 70.5122 99.7269 71.3649C99.7269 72.2176 100.396 72.8876 101.249 72.8876Z" fill="white"/>
<path d="M81.984 63.1728H82.3188C83.1405 63.1728 83.8405 62.5028 83.8405 61.6501C83.8405 60.7973 83.1709 60.1273 82.3188 60.1273H81.984C81.1623 60.1273 80.4623 60.7973 80.4623 61.6501C80.4623 62.5028 81.1319 63.1728 81.984 63.1728Z" fill="white"/>
<path d="M85.2404 68.7763H85.5752C86.3969 68.7763 87.0969 68.1063 87.0969 67.2536C87.0969 66.4009 86.4273 65.7309 85.5752 65.7309H85.2404C84.4187 65.7309 83.7187 66.4009 83.7187 67.2536C83.7187 68.1063 84.3883 68.7763 85.2404 68.7763Z" fill="white"/>
<path d="M88.4968 74.3798H88.8316C89.6533 74.3798 90.3533 73.7099 90.3533 72.8571C90.3533 72.0044 89.6837 71.3344 88.8316 71.3344H88.4968C87.6751 71.3344 86.9751 72.0044 86.9751 72.8571C86.9751 73.7099 87.6447 74.3798 88.4968 74.3798Z" fill="white"/>
<path d="M72.58 65.8832H72.9148C73.7365 65.8832 74.4365 65.2132 74.4365 64.3605C74.4365 63.5078 73.7669 62.8378 72.9148 62.8378H72.58C71.7583 62.8378 71.0583 63.5078 71.0583 64.3605C71.0583 65.2132 71.7279 65.8832 72.58 65.8832Z" fill="white"/>
<path d="M72.6713 69.964C72.6713 70.7863 73.3409 71.4867 74.193 71.4867H74.5278C75.3495 71.4867 76.0495 70.8167 76.0495 69.964C76.0495 69.1113 75.3799 68.4413 74.5278 68.4413H74.193C73.3713 68.4413 72.6713 69.1113 72.6713 69.964Z" fill="white"/>
<path d="M74.3147 75.5676C74.3147 76.3898 74.9843 77.0903 75.8364 77.0903H76.1712C76.9929 77.0903 77.6929 76.4203 77.6929 75.5676C77.6929 74.7148 77.0233 74.0449 76.1712 74.0449H75.8364C75.0147 74.0449 74.3147 74.7148 74.3147 75.5676Z" fill="white"/>
<path d="M2.52168 116.955C1.69997 116.955 1 117.625 1 118.477C1 119.33 1.66954 120 2.52168 120H119.478C120.3 120 121 119.33 121 118.477C121 117.625 120.33 116.955 119.478 116.955H2.52168Z" fill="white"/>
<path d="M11.1344 92.8654C8.54755 92.8654 6.41719 94.9668 6.41719 97.5858C6.41719 100.205 8.51712 102.306 11.1344 102.306C13.7517 102.306 15.8516 100.205 15.8516 97.5858C15.8516 94.9668 13.7517 92.8654 11.1344 92.8654ZM11.1344 99.2608C10.191 99.2608 9.46056 98.4994 9.46056 97.5858C9.46056 96.6722 10.2214 95.9108 11.1344 95.9108C12.0474 95.9108 12.8083 96.6722 12.8083 97.5858C12.8083 98.4994 12.0474 99.2608 11.1344 99.2608Z" fill="white"/>
<path d="M31.0989 91.16C28.512 91.16 26.3817 93.2614 26.3817 95.8804C26.3817 98.4994 28.4816 100.601 31.0989 100.601C33.7162 100.601 35.8161 98.4994 35.8161 95.8804C35.8161 93.2614 33.7162 91.16 31.0989 91.16ZM31.0989 97.5858C30.1555 97.5858 29.4251 96.8245 29.4251 95.9108C29.4251 94.9972 30.1859 94.2359 31.0989 94.2359C32.0119 94.2359 32.7728 94.9972 32.7728 95.9108C32.7728 96.8245 32.0119 97.5858 31.0989 97.5858Z" fill="white"/>
<path d="M55.7806 99.2608C55.7806 96.6722 53.6807 94.5404 51.0634 94.5404C48.4461 94.5404 46.3462 96.6417 46.3462 99.2608C46.3462 101.88 48.4461 103.981 51.0634 103.981C53.6807 103.981 55.7806 101.88 55.7806 99.2608ZM49.3896 99.2608C49.3896 98.3167 50.1504 97.5858 51.0634 97.5858C51.9764 97.5858 52.7373 98.3472 52.7373 99.2608C52.7373 100.174 51.9764 100.936 51.0634 100.936C50.1504 100.936 49.3896 100.174 49.3896 99.2608Z" fill="white"/>
<path d="M71.0583 94.5404C68.4715 94.5404 66.3411 96.6417 66.3411 99.2608C66.3411 101.88 68.441 103.981 71.0583 103.981C73.6756 103.981 75.7755 101.88 75.7755 99.2608C75.7755 96.6417 73.6756 94.5404 71.0583 94.5404ZM71.0583 100.936C70.1149 100.936 69.3845 100.174 69.3845 99.2608C69.3845 98.3472 70.1453 97.5858 71.0583 97.5858C71.9713 97.5858 72.7322 98.3472 72.7322 99.2608C72.7322 100.174 71.9713 100.936 71.0583 100.936Z" fill="white"/>
<path d="M95.7401 95.8804C95.7401 93.2918 93.6401 91.16 91.0228 91.16C88.4055 91.16 86.3056 93.2614 86.3056 95.8804C86.3056 98.4994 88.4055 100.601 91.0228 100.601C93.6401 100.601 95.7401 98.4994 95.7401 95.8804ZM89.349 95.8804C89.349 94.9363 90.1098 94.2054 91.0228 94.2054C91.9358 94.2054 92.6967 94.9668 92.6967 95.8804C92.6967 96.794 91.9358 97.5554 91.0228 97.5554C90.1098 97.5554 89.349 96.794 89.349 95.8804Z" fill="white"/>
<path d="M110.987 92.8654C108.4 92.8654 106.27 94.9668 106.27 97.5858C106.27 100.205 108.37 102.306 110.987 102.306C113.605 102.306 115.705 100.205 115.705 97.5858C115.705 94.9668 113.605 92.8654 110.987 92.8654ZM110.987 99.2608C110.044 99.2608 109.313 98.4994 109.313 97.5858C109.313 96.6722 110.074 95.9108 110.987 95.9108C111.9 95.9108 112.661 96.6722 112.661 97.5858C112.661 98.4994 111.9 99.2608 110.987 99.2608Z" fill="white"/>
<path d="M11.1344 105.017C8.54755 105.017 6.41719 107.118 6.41719 109.737C6.41719 112.356 8.51712 114.457 11.1344 114.457C13.7517 114.457 15.8516 112.356 15.8516 109.737C15.8516 107.118 13.7517 105.017 11.1344 105.017ZM11.1344 111.412C10.191 111.412 9.46056 110.651 9.46056 109.737C9.46056 108.823 10.2214 108.062 11.1344 108.062C12.0474 108.062 12.8083 108.823 12.8083 109.737C12.8083 110.651 12.0474 111.412 11.1344 111.412Z" fill="white"/>
<path d="M30.9772 104.073C28.3903 104.073 26.26 106.174 26.26 108.793C26.26 111.412 28.3599 113.513 30.9772 113.513C33.5945 113.513 35.6944 111.412 35.6944 108.793C35.6944 106.174 33.5945 104.073 30.9772 104.073ZM30.9772 110.468C30.0337 110.468 29.3033 109.707 29.3033 108.793C29.3033 107.879 30.0642 107.118 30.9772 107.118C31.8902 107.118 32.651 107.879 32.651 108.793C32.651 109.707 31.8902 110.468 30.9772 110.468Z" fill="white"/>
<path d="M51.4895 116.132C54.0763 116.132 56.2067 114.031 56.2067 111.412C56.2067 108.793 54.1068 106.692 51.4895 106.692C48.8722 106.692 46.7723 108.793 46.7723 111.412C46.7723 114.031 48.8722 116.132 51.4895 116.132ZM51.4895 109.737C52.4329 109.737 53.1633 110.498 53.1633 111.412C53.1633 112.326 52.4025 113.087 51.4895 113.087C50.5765 113.087 49.8156 112.326 49.8156 111.412C49.8156 110.498 50.5765 109.737 51.4895 109.737Z" fill="white"/>
<path d="M71.0583 106.722C68.4715 106.722 66.3411 108.823 66.3411 111.442C66.3411 114.061 68.441 116.163 71.0583 116.163C73.6756 116.163 75.7755 114.061 75.7755 111.442C75.7755 108.823 73.6756 106.722 71.0583 106.722ZM71.0583 113.117C70.1149 113.117 69.3845 112.356 69.3845 111.442C69.3845 110.529 70.1453 109.767 71.0583 109.767C71.9713 109.767 72.7322 110.529 72.7322 111.442C72.7322 112.356 71.9713 113.117 71.0583 113.117Z" fill="white"/>
<path d="M91.3272 113.483C93.914 113.483 96.0444 111.382 96.0444 108.762C96.0444 106.143 93.9445 104.042 91.3272 104.042C88.7099 104.042 86.6099 106.143 86.6099 108.762C86.6099 111.382 88.7099 113.483 91.3272 113.483ZM91.3272 107.087C92.2706 107.087 93.001 107.849 93.001 108.762C93.001 109.676 92.2402 110.437 91.3272 110.437C90.4142 110.437 89.6533 109.676 89.6533 108.762C89.6533 107.849 90.4142 107.087 91.3272 107.087Z" fill="white"/>
<path d="M110.987 105.017C108.4 105.017 106.27 107.118 106.27 109.737C106.27 112.356 108.37 114.457 110.987 114.457C113.605 114.457 115.705 112.356 115.705 109.737C115.705 107.118 113.605 105.017 110.987 105.017ZM110.987 111.412C110.044 111.412 109.313 110.651 109.313 109.737C109.313 108.823 110.074 108.062 110.987 108.062C111.9 108.062 112.661 108.823 112.661 109.737C112.661 110.651 111.9 111.412 110.987 111.412Z" fill="white"/>
<path d="M2.97819 95.3627C3.22166 95.515 3.49556 95.5759 3.76947 95.5759C4.28684 95.5759 4.77378 95.3322 5.07811 94.845C5.35202 94.4186 11.5605 84.4297 23.9166 85.0083C29.6381 85.3128 33.6249 86.6224 37.8248 87.9928C43.3028 89.7896 48.9635 91.6777 58.8849 91.6777C68.8062 91.6777 76.2016 89.6678 83.0188 87.9014C88.8012 86.4092 94.2488 84.9779 100.001 84.9779C111.657 84.9779 115.887 94.2663 116.039 94.6622C116.374 95.4236 117.287 95.789 118.048 95.454C118.809 95.119 119.174 94.2359 118.839 93.4441C118.626 92.9873 113.696 81.9324 100.001 81.9324C93.8836 81.9324 88.2229 83.3942 82.2579 84.9474C75.2886 86.7442 68.1063 88.6323 58.9153 88.6323C49.7243 88.6323 44.0637 86.8355 38.7986 85.0997C34.3857 83.6379 30.2163 82.2674 24.0992 81.9629C10.0388 81.1711 2.82602 92.7741 2.52168 93.2614C2.09561 93.9618 2.30865 94.9059 3.03906 95.3627H2.97819Z" fill="white"/>
<path d="M2.94776 87.3228C3.6173 87.7796 4.56074 87.5969 5.01725 86.8965L5.53462 86.1351C7.2389 83.7901 13.2648 76.4507 23.8861 76.9989C29.6077 77.3034 33.5945 78.613 37.7943 79.9834C43.2724 81.7802 48.9331 83.6683 58.8544 83.6683C68.7758 83.6683 76.1712 81.6584 82.9883 79.892C88.7707 78.3998 94.2184 76.9684 99.9703 76.9684C106.635 76.9684 110.866 79.9834 113.3 82.6634L116.161 86.8965C116.465 87.3228 116.922 87.5664 117.409 87.5664C117.652 87.5664 117.896 87.5055 118.139 87.3837C118.839 87.0183 119.113 86.1656 118.809 85.4347C118.717 85.2215 117.774 83.1202 115.674 80.7752L104.048 63.6296C103.896 63.2641 100.123 54.8588 89.7446 54.8588C85.1491 54.8588 80.9797 55.9551 76.5364 57.1124C71.4235 58.4524 66.0976 59.8228 59.3414 59.8228C52.5851 59.8228 48.4461 58.5133 44.581 57.2342C41.4464 56.1988 38.19 55.1329 33.5945 54.8893C23.1862 54.2802 17.7385 62.6855 17.282 63.3859L3.03906 84.4601C2.70429 84.917 2.52168 85.191 2.49125 85.2824C2.06518 85.9828 2.27821 86.8965 2.97819 87.3533L2.94776 87.3228ZM19.808 65.0609C19.808 65.0609 19.808 65.0305 19.8385 65C19.8993 64.9391 24.5252 57.5692 33.4119 57.9042C37.5813 58.1174 40.5029 59.0919 43.6072 60.0969C47.6853 61.4369 51.9156 62.8378 59.3109 62.8378C66.7063 62.8378 72.1844 61.3455 77.2668 60.036C81.4971 58.9396 85.5143 57.9042 89.7142 57.9042C98.053 57.9042 101.096 64.5432 101.37 65.0609L108.492 75.5676C106.118 74.5626 103.318 73.8926 99.9703 73.8926C93.8532 73.8926 88.1925 75.3544 82.2275 76.9075C75.2582 78.7043 68.0758 80.5925 58.8849 80.5925C49.6939 80.5925 44.0332 78.7957 38.7682 77.0598C34.3553 75.598 30.1859 74.2276 24.0687 73.923C23.6427 73.923 23.2166 73.8926 22.7905 73.8926C18.5298 73.8926 14.9386 75.0194 12.017 76.5725L19.808 65.0305V65.0609Z" fill="white"/>
</svg>
