<svg width="53" height="53" viewBox="0 0 53 53" fill="none" xmlns="http://www.w3.org/2000/svg">
<path d="M48.1818 0H4.81818C2.15614 0 0 2.15614 0 4.81818V48.1818C0 50.8439 2.15614 53 4.81818 53H48.1818C50.8439 53 53 50.8439 53 48.1818V4.81818C53 2.15614 50.8439 0 48.1818 0Z" fill="white"/>
<path d="M28.4812 20.4308C28.4812 19.4552 28.5786 18.9372 30.1007 18.9372H32.1221V15.3115H28.883C24.9863 15.3115 23.6225 17.1304 23.6225 20.1779V22.5388H21.1992V26.1645H23.6225V37.0054H28.4812V26.1645H31.7203L32.1465 22.5388H28.4812V20.4429V20.4308Z" fill="#566455"/>
</svg>
