<svg width="53" height="53" viewBox="0 0 53 53" fill="none" xmlns="http://www.w3.org/2000/svg">
<path d="M48.1818 0H4.81818C2.15614 0 0 2.15614 0 4.81818V48.1818C0 50.8439 2.15614 53 4.81818 53H48.1818C50.8439 53 53 50.8439 53 48.1818V4.81818C53 2.15614 50.8439 0 48.1818 0Z" fill="#4F6454"/>
<path d="M28.4819 20.4305C28.4819 19.4548 28.5793 18.9369 30.1015 18.9369H32.1229V15.3112H28.8837C24.9871 15.3112 23.6232 17.1301 23.6232 20.1776V22.5385H21.2V26.1642H23.6232V37.0051H28.4819V26.1642H31.721L32.1472 22.5385H28.4819V20.4426V20.4305Z" fill="white"/>
</svg>
