<svg width="200" height="200" viewBox="0 0 200 200" fill="none" xmlns="http://www.w3.org/2000/svg">
<circle cx="100" cy="100" r="100" fill="white"/>
<path d="M119.302 29.9881C123.355 29.9881 126.641 26.7212 126.641 22.6914C126.641 18.6615 123.355 15.3947 119.302 15.3947C115.249 15.3947 111.963 18.6615 111.963 22.6914C111.963 26.7212 115.249 29.9881 119.302 29.9881Z" fill="#788E72"/>
<path d="M100.348 38.2673C104.401 38.2673 107.687 35.0005 107.687 30.9706C107.687 26.9408 104.401 23.6739 100.348 23.6739C96.2951 23.6739 93.0095 26.9408 93.0095 30.9706C93.0095 35.0005 96.2951 38.2673 100.348 38.2673Z" fill="#788E72"/>
<path d="M81.3127 49.2043C85.3658 49.2043 88.6514 45.9375 88.6514 41.9076C88.6514 37.8778 85.3658 34.6109 81.3127 34.6109C77.2597 34.6109 73.9741 37.8778 73.9741 41.9076C73.9741 45.9375 77.2597 49.2043 81.3127 49.2043Z" fill="#788E72"/>
<path d="M62.0996 59.8353C66.1526 59.8353 69.4382 56.5684 69.4382 52.5386C69.4382 48.5087 66.1526 45.2419 62.0996 45.2419C58.0466 45.2419 54.761 48.5087 54.761 52.5386C54.761 56.5684 58.0466 59.8353 62.0996 59.8353Z" fill="#788E72"/>
<path d="M42.854 70.2407C46.907 70.2407 50.1926 66.9739 50.1926 62.9441C50.1926 58.9142 46.907 55.6473 42.854 55.6473C38.801 55.6473 35.5154 58.9142 35.5154 62.9441C35.5154 66.9739 38.801 70.2407 42.854 70.2407Z" fill="#788E72"/>
<path d="M42.854 88.5389C46.907 88.5389 50.1926 85.272 50.1926 81.2422C50.1926 77.2123 46.907 73.9455 42.854 73.9455C38.801 73.9455 35.5154 77.2123 35.5154 81.2422C35.5154 85.272 38.801 88.5389 42.854 88.5389Z" fill="#788E72"/>
<path d="M42.854 106.837C46.907 106.837 50.1926 103.57 50.1926 99.5403C50.1926 95.5104 46.907 92.2436 42.854 92.2436C38.801 92.2436 35.5154 95.5104 35.5154 99.5403C35.5154 103.57 38.801 106.837 42.854 106.837Z" fill="#788E72"/>
<path d="M42.854 125.151C46.907 125.151 50.1926 121.884 50.1926 117.855C50.1926 113.825 46.907 110.558 42.854 110.558C38.801 110.558 35.5154 113.825 35.5154 117.855C35.5154 121.884 38.801 125.151 42.854 125.151Z" fill="#788E72"/>
<path d="M42.854 143.449C46.907 143.449 50.1926 140.183 50.1926 136.153C50.1926 132.123 46.907 128.856 42.854 128.856C38.801 128.856 35.5154 132.123 35.5154 136.153C35.5154 140.183 38.801 143.449 42.854 143.449Z" fill="#788E72"/>
<path d="M42.854 161.747C46.907 161.747 50.1926 158.481 50.1926 154.451C50.1926 150.421 46.907 147.154 42.854 147.154C38.801 147.154 35.5154 150.421 35.5154 154.451C35.5154 158.481 38.801 161.747 42.854 161.747Z" fill="#788E72"/>
<path d="M62.0835 78.4394C66.1365 78.4394 69.4221 75.1726 69.4221 71.1427C69.4221 67.1129 66.1365 63.846 62.0835 63.846C58.0305 63.846 54.7449 67.1129 54.7449 71.1427C54.7449 75.1726 58.0305 78.4394 62.0835 78.4394Z" fill="#788E72"/>
<path d="M62.0835 97.9295C66.1365 97.9295 69.4221 94.6627 69.4221 90.6328C69.4221 86.603 66.1365 83.3361 62.0835 83.3361C58.0305 83.3361 54.7449 86.603 54.7449 90.6328C54.7449 94.6627 58.0305 97.9295 62.0835 97.9295Z" fill="#788E72"/>
<path d="M62.0835 116.55C66.1365 116.55 69.4221 113.283 69.4221 109.253C69.4221 105.223 66.1365 101.956 62.0835 101.956C58.0305 101.956 54.7449 105.223 54.7449 109.253C54.7449 113.283 58.0305 116.55 62.0835 116.55Z" fill="#788E72"/>
<path d="M62.0835 135.202C66.1365 135.202 69.4221 131.935 69.4221 127.906C69.4221 123.876 66.1365 120.609 62.0835 120.609C58.0305 120.609 54.7449 123.876 54.7449 127.906C54.7449 131.935 58.0305 135.202 62.0835 135.202Z" fill="#788E72"/>
<path d="M62.0996 154.048C66.1526 154.048 69.4382 150.781 69.4382 146.751C69.4382 142.722 66.1526 139.455 62.0996 139.455C58.0466 139.455 54.761 142.722 54.761 146.751C54.761 150.781 58.0466 154.048 62.0996 154.048Z" fill="#788E72"/>
<path d="M62.0835 172.878C66.1365 172.878 69.4221 169.611 69.4221 165.581C69.4221 161.551 66.1365 158.284 62.0835 158.284C58.0305 158.284 54.7449 161.551 54.7449 165.581C54.7449 169.611 58.0305 172.878 62.0835 172.878Z" fill="#788E72"/>
<path d="M81.3127 183.686C85.3658 183.686 88.6514 180.419 88.6514 176.389C88.6514 172.359 85.3658 169.092 81.3127 169.092C77.2597 169.092 73.9741 172.359 73.9741 176.389C73.9741 180.419 77.2597 183.686 81.3127 183.686Z" fill="#788E72"/>
<path d="M100.348 175.068C104.401 175.068 107.687 171.802 107.687 167.772C107.687 163.742 104.401 160.475 100.348 160.475C96.2951 160.475 93.0095 163.742 93.0095 167.772C93.0095 171.802 96.2951 175.068 100.348 175.068Z" fill="#788E72"/>
<path d="M100.348 155.562C104.401 155.562 107.687 152.295 107.687 148.265C107.687 144.236 104.401 140.969 100.348 140.969C96.2951 140.969 93.0095 144.236 93.0095 148.265C93.0095 152.295 96.2951 155.562 100.348 155.562Z" fill="#788E72"/>
<path d="M119.302 145.253C123.355 145.253 126.641 141.987 126.641 137.957C126.641 133.927 123.355 130.66 119.302 130.66C115.249 130.66 111.963 133.927 111.963 137.957C111.963 141.987 115.249 145.253 119.302 145.253Z" fill="#788E72"/>
<path d="M119.302 164.47C123.355 164.47 126.641 161.203 126.641 157.173C126.641 153.143 123.355 149.876 119.302 149.876C115.249 149.876 111.963 153.143 111.963 157.173C111.963 161.203 115.249 164.47 119.302 164.47Z" fill="#788E72"/>
<path d="M138.175 154.048C142.228 154.048 145.514 150.781 145.514 146.751C145.514 142.722 142.228 139.455 138.175 139.455C134.122 139.455 130.836 142.722 130.836 146.751C130.836 150.781 134.122 154.048 138.175 154.048Z" fill="#788E72"/>
<path d="M138.175 135.202C142.228 135.202 145.514 131.935 145.514 127.906C145.514 123.876 142.228 120.609 138.175 120.609C134.122 120.609 130.836 123.876 130.836 127.906C130.836 131.935 134.122 135.202 138.175 135.202Z" fill="#788E72"/>
<path d="M81.3127 164.47C85.3658 164.47 88.6514 161.203 88.6514 157.173C88.6514 153.143 85.3658 149.876 81.3127 149.876C77.2597 149.876 73.9741 153.143 73.9741 157.173C73.9741 161.203 77.2597 164.47 81.3127 164.47Z" fill="#788E72"/>
<path d="M81.3127 125.892C85.3658 125.892 88.6514 122.625 88.6514 118.595C88.6514 114.566 85.3658 111.299 81.3127 111.299C77.2597 111.299 73.9741 114.566 73.9741 118.595C73.9741 122.625 77.2597 125.892 81.3127 125.892Z" fill="#788E72"/>
<path d="M81.3127 106.837C85.3658 106.837 88.6514 103.57 88.6514 99.5403C88.6514 95.5104 85.3658 92.2436 81.3127 92.2436C77.2597 92.2436 73.9741 95.5104 73.9741 99.5403C73.9741 103.57 77.2597 106.837 81.3127 106.837Z" fill="#788E72"/>
<path d="M81.3127 68.4206C85.3658 68.4206 88.6514 65.1537 88.6514 61.1239C88.6514 57.094 85.3658 53.8272 81.3127 53.8272C77.2597 53.8272 73.9741 57.094 73.9741 61.1239C73.9741 65.1537 77.2597 68.4206 81.3127 68.4206Z" fill="#788E72"/>
<path d="M100.348 58.0312C104.401 58.0312 107.687 54.7644 107.687 50.7345C107.687 46.7047 104.401 43.4378 100.348 43.4378C96.2951 43.4378 93.0095 46.7047 93.0095 50.7345C93.0095 54.7644 96.2951 58.0312 100.348 58.0312Z" fill="#788E72"/>
<path d="M119.334 49.2043C123.388 49.2043 126.673 45.9375 126.673 41.9076C126.673 37.8778 123.388 34.6109 119.334 34.6109C115.281 34.6109 111.996 37.8778 111.996 41.9076C111.996 45.9375 115.281 49.2043 119.334 49.2043Z" fill="#788E72"/>
<path d="M138.175 40.9895C142.228 40.9895 145.514 37.7227 145.514 33.6928C145.514 29.663 142.228 26.3961 138.175 26.3961C134.122 26.3961 130.836 29.663 130.836 33.6928C130.836 37.7227 134.122 40.9895 138.175 40.9895Z" fill="#788E72"/>
<path d="M100.332 97.0436C104.385 97.0436 107.67 93.7768 107.67 89.7469C107.67 85.7171 104.385 82.4502 100.332 82.4502C96.2788 82.4502 92.9932 85.7171 92.9932 89.7469C92.9932 93.7768 96.2788 97.0436 100.332 97.0436Z" fill="#788E72"/>
<path d="M100.332 116.55C104.385 116.55 107.67 113.283 107.67 109.253C107.67 105.223 104.385 101.956 100.332 101.956C96.2788 101.956 92.9932 105.223 92.9932 109.253C92.9932 113.283 96.2788 116.55 100.332 116.55Z" fill="#788E72"/>
<path d="M119.334 106.853C123.388 106.853 126.673 103.586 126.673 99.5564C126.673 95.5265 123.388 92.2597 119.334 92.2597C115.281 92.2597 111.996 95.5265 111.996 99.5564C111.996 103.586 115.281 106.853 119.334 106.853Z" fill="#788E72"/>
<path d="M119.334 87.6207C123.388 87.6207 126.673 84.3539 126.673 80.324C126.673 76.2941 123.388 73.0273 119.334 73.0273C115.281 73.0273 111.996 76.2941 111.996 80.324C111.996 84.3539 115.281 87.6207 119.334 87.6207Z" fill="#788E72"/>
<path d="M138.159 78.4394C142.212 78.4394 145.497 75.1726 145.497 71.1427C145.497 67.1129 142.212 63.846 138.159 63.846C134.106 63.846 130.82 67.1129 130.82 71.1427C130.82 75.1726 134.106 78.4394 138.159 78.4394Z" fill="#788E72"/>
<path d="M138.159 97.5107C142.212 97.5107 145.497 94.2439 145.497 90.214C145.497 86.1842 142.212 82.9173 138.159 82.9173C134.106 82.9173 130.82 86.1842 130.82 90.214C130.82 94.2439 134.106 97.5107 138.159 97.5107Z" fill="#788E72"/>
<path d="M23.7378 145.946C25.2499 145.946 26.4756 144.727 26.4756 143.224C26.4756 141.72 25.2499 140.502 23.7378 140.502C22.2258 140.502 21 141.72 21 143.224C21 144.727 22.2258 145.946 23.7378 145.946Z" fill="#BFD0C7"/>
<path d="M23.7378 128.421C25.2499 128.421 26.4756 127.202 26.4756 125.699C26.4756 124.195 25.2499 122.977 23.7378 122.977C22.2258 122.977 21 124.195 21 125.699C21 127.202 22.2258 128.421 23.7378 128.421Z" fill="#BFD0C7"/>
<path d="M23.7378 110.88C25.2499 110.88 26.4756 109.661 26.4756 108.158C26.4756 106.654 25.2499 105.436 23.7378 105.436C22.2258 105.436 21 106.654 21 108.158C21 109.661 22.2258 110.88 23.7378 110.88Z" fill="#BFD0C7"/>
<path d="M23.7378 93.355C25.2499 93.355 26.4756 92.1363 26.4756 90.6329C26.4756 89.1295 25.2499 87.9107 23.7378 87.9107C22.2258 87.9107 21 89.1295 21 90.6329C21 92.1363 22.2258 93.355 23.7378 93.355Z" fill="#BFD0C7"/>
<path d="M23.7378 75.8139C25.2499 75.8139 26.4756 74.5952 26.4756 73.0918C26.4756 71.5884 25.2499 70.3696 23.7378 70.3696C22.2258 70.3696 21 71.5884 21 73.0918C21 74.5952 22.2258 75.8139 23.7378 75.8139Z" fill="#BFD0C7"/>
<path d="M23.7378 58.289C25.2499 58.289 26.4756 57.0702 26.4756 55.5668C26.4756 54.0634 25.2499 52.8446 23.7378 52.8446C22.2258 52.8446 21 54.0634 21 55.5668C21 57.0702 22.2258 58.289 23.7378 58.289Z" fill="#BFD0C7"/>
<path d="M157.745 65.6662C159.257 65.6662 160.483 64.4475 160.483 62.944C160.483 61.4406 159.257 60.2219 157.745 60.2219C156.233 60.2219 155.007 61.4406 155.007 62.944C155.007 64.4475 156.233 65.6662 157.745 65.6662Z" fill="#BFD0C7"/>
<path d="M157.745 47.3681C159.257 47.3681 160.483 46.1493 160.483 44.6459C160.483 43.1425 159.257 41.9238 157.745 41.9238C156.233 41.9238 155.007 43.1425 155.007 44.6459C155.007 46.1493 156.233 47.3681 157.745 47.3681Z" fill="#BFD0C7"/>
<path d="M157.745 102.279C159.257 102.279 160.483 101.06 160.483 99.5564C160.483 98.053 159.257 96.8342 157.745 96.8342C156.233 96.8342 155.007 98.053 155.007 99.5564C155.007 101.06 156.233 102.279 157.745 102.279Z" fill="#BFD0C7"/>
<path d="M157.745 83.9643C159.257 83.9643 160.483 82.7455 160.483 81.2421C160.483 79.7387 159.257 78.52 157.745 78.52C156.233 78.52 155.007 79.7387 155.007 81.2421C155.007 82.7455 156.233 83.9643 157.745 83.9643Z" fill="#BFD0C7"/>
<path d="M157.745 138.875C159.257 138.875 160.483 137.656 160.483 136.153C160.483 134.649 159.257 133.43 157.745 133.43C156.233 133.43 155.007 134.649 155.007 136.153C155.007 137.656 156.233 138.875 157.745 138.875Z" fill="#BFD0C7"/>
<path d="M157.745 157.173C159.257 157.173 160.483 155.954 160.483 154.451C160.483 152.947 159.257 151.729 157.745 151.729C156.233 151.729 155.007 152.947 155.007 154.451C155.007 155.954 156.233 157.173 157.745 157.173Z" fill="#BFD0C7"/>
<path d="M157.745 120.577C159.257 120.577 160.483 119.358 160.483 117.855C160.483 116.351 159.257 115.132 157.745 115.132C156.233 115.132 155.007 116.351 155.007 117.855C155.007 119.358 156.233 120.577 157.745 120.577Z" fill="#BFD0C7"/>
<path d="M176.683 58.2728C178.195 58.2728 179.42 57.0541 179.42 55.5507C179.42 54.0473 178.195 52.8285 176.683 52.8285C175.17 52.8285 173.945 54.0473 173.945 55.5507C173.945 57.0541 175.17 58.2728 176.683 58.2728Z" fill="#BFD0C7"/>
<path d="M176.683 93.4516C178.195 93.4516 179.42 92.2329 179.42 90.7295C179.42 89.2261 178.195 88.0073 176.683 88.0073C175.17 88.0073 173.945 89.2261 173.945 90.7295C173.945 92.2329 175.17 93.4516 176.683 93.4516Z" fill="#BFD0C7"/>
<path d="M176.683 75.8622C178.195 75.8622 179.42 74.6435 179.42 73.1401C179.42 71.6367 178.195 70.4179 176.683 70.4179C175.17 70.4179 173.945 71.6367 173.945 73.1401C173.945 74.6435 175.17 75.8622 176.683 75.8622Z" fill="#BFD0C7"/>
<path d="M176.683 128.63C178.195 128.63 179.42 127.412 179.42 125.908C179.42 124.405 178.195 123.186 176.683 123.186C175.17 123.186 173.945 124.405 173.945 125.908C173.945 127.412 175.17 128.63 176.683 128.63Z" fill="#BFD0C7"/>
<path d="M176.683 146.22C178.195 146.22 179.42 145.001 179.42 143.498C179.42 141.994 178.195 140.775 176.683 140.775C175.17 140.775 173.945 141.994 173.945 143.498C173.945 145.001 175.17 146.22 176.683 146.22Z" fill="#BFD0C7"/>
<path d="M176.683 111.041C178.195 111.041 179.42 109.822 179.42 108.319C179.42 106.815 178.195 105.597 176.683 105.597C175.17 105.597 173.945 106.815 173.945 108.319C173.945 109.822 175.17 111.041 176.683 111.041Z" fill="#BFD0C7"/>
<path d="M138.175 55.2608C139.687 55.2608 140.913 54.042 140.913 52.5386C140.913 51.0352 139.687 49.8164 138.175 49.8164C136.663 49.8164 135.437 51.0352 135.437 52.5386C135.437 54.042 136.663 55.2608 138.175 55.2608Z" fill="#BFD0C7"/>
<path d="M138.159 111.782C139.671 111.782 140.897 110.563 140.897 109.06C140.897 107.556 139.671 106.338 138.159 106.338C136.647 106.338 135.421 107.556 135.421 109.06C135.421 110.563 136.647 111.782 138.159 111.782Z" fill="#BFD0C7"/>
<path d="M138.143 168.303C139.655 168.303 140.881 167.084 140.881 165.581C140.881 164.078 139.655 162.859 138.143 162.859C136.631 162.859 135.405 164.078 135.405 165.581C135.405 167.084 136.631 168.303 138.143 168.303Z" fill="#BFD0C7"/>
<path d="M62.0994 36.415C63.6114 36.415 64.8372 35.1962 64.8372 33.6928C64.8372 32.1894 63.6114 30.9706 62.0994 30.9706C60.5873 30.9706 59.3616 32.1894 59.3616 33.6928C59.3616 35.1962 60.5873 36.415 62.0994 36.415Z" fill="#BFD0C7"/>
<path d="M119.334 63.8461C120.846 63.8461 122.072 62.6273 122.072 61.1239C122.072 59.6205 120.846 58.4017 119.334 58.4017C117.822 58.4017 116.596 59.6205 116.596 61.1239C116.596 62.6273 117.822 63.8461 119.334 63.8461Z" fill="#BFD0C7"/>
<path d="M119.318 121.479C120.83 121.479 122.056 120.26 122.056 118.757C122.056 117.253 120.83 116.034 119.318 116.034C117.806 116.034 116.581 117.253 116.581 118.757C116.581 120.26 117.806 121.479 119.318 121.479Z" fill="#BFD0C7"/>
<path d="M119.302 179.111C120.814 179.111 122.04 177.893 122.04 176.389C122.04 174.886 120.814 173.667 119.302 173.667C117.79 173.667 116.564 174.886 116.564 176.389C116.564 177.893 117.79 179.111 119.302 179.111Z" fill="#BFD0C7"/>
<path d="M81.3128 25.4135C82.8248 25.4135 84.0506 24.1948 84.0506 22.6914C84.0506 21.188 82.8248 19.9692 81.3128 19.9692C79.8007 19.9692 78.575 21.188 78.575 22.6914C78.575 24.1948 79.8007 25.4135 81.3128 25.4135Z" fill="#BFD0C7"/>
<path d="M81.3128 83.0462C82.8248 83.0462 84.0506 81.8274 84.0506 80.324C84.0506 78.8206 82.8248 77.6018 81.3128 77.6018C79.8007 77.6018 78.575 78.8206 78.575 80.324C78.575 81.8274 79.8007 83.0462 81.3128 83.0462Z" fill="#BFD0C7"/>
<path d="M81.3128 140.679C82.8248 140.679 84.0506 139.46 84.0506 137.957C84.0506 136.453 82.8248 135.235 81.3128 135.235C79.8007 135.235 78.575 136.453 78.575 137.957C78.575 139.46 79.8007 140.679 81.3128 140.679Z" fill="#BFD0C7"/>
<path d="M100.348 72.9629C101.86 72.9629 103.086 71.7441 103.086 70.2407C103.086 68.7373 101.86 67.5186 100.348 67.5186C98.8361 67.5186 97.6104 68.7373 97.6104 70.2407C97.6104 71.7441 98.8361 72.9629 100.348 72.9629Z" fill="#BFD0C7"/>
<path d="M100.348 14.4443C101.86 14.4443 103.086 13.2256 103.086 11.7222C103.086 10.2188 101.86 9 100.348 9C98.8361 9 97.6104 10.2188 97.6104 11.7222C97.6104 13.2256 98.8361 14.4443 100.348 14.4443Z" fill="#BFD0C7"/>
<path d="M100.332 131.481C101.844 131.481 103.069 130.263 103.069 128.759C103.069 127.256 101.844 126.037 100.332 126.037C98.8195 126.037 97.5938 127.256 97.5938 128.759C97.5938 130.263 98.8195 131.481 100.332 131.481Z" fill="#BFD0C7"/>
<path d="M100.315 190C101.827 190 103.053 188.781 103.053 187.278C103.053 185.774 101.827 184.556 100.315 184.556C98.8034 184.556 97.5776 185.774 97.5776 187.278C97.5776 188.781 98.8034 190 100.315 190Z" fill="#BFD0C7"/>
<path d="M42.8538 47.3681C44.3658 47.3681 45.5916 46.1493 45.5916 44.6459C45.5916 43.1425 44.3658 41.9238 42.8538 41.9238C41.3417 41.9238 40.116 43.1425 40.116 44.6459C40.116 46.1493 41.3417 47.3681 42.8538 47.3681Z" fill="#BFD0C7"/>
</svg>
