<svg width="100" height="80" viewBox="0 0 100 80" fill="none" xmlns="http://www.w3.org/2000/svg">
<path d="M98.7456 77.2451H1.25439C0.551932 77.2451 0 77.797 0 78.4995C0 79.202 0.551932 79.7539 1.25439 79.7539H98.7456C99.4481 79.7539 100 79.202 100 78.4995C100 77.797 99.4481 77.2451 98.7456 77.2451Z" fill="#788E72"/>
<path d="M1.25439 49.7257H98.7456C99.4481 49.7257 100 49.1738 100 48.4713C100 47.7688 99.4481 47.2169 98.7456 47.2169H61.9669C63.6227 46.3639 65.0276 45.5862 65.9809 44.9841C71.0487 41.823 74.7366 38.386 77.2454 34.4472L80.9834 28.5767L78.3743 26.9209L74.6362 32.7914C69.4681 40.8948 60.6623 45.7367 51.0537 45.7367C41.4451 45.7367 32.6392 40.8948 27.4711 32.7914L25.6648 29.9565L30.4817 30.96L31.1089 27.9495L21.0988 25.8672L19.0166 35.8772L22.0271 36.5044L23.0306 31.6123L24.8369 34.4472C27.6217 38.8376 31.5103 42.4753 36.0763 44.9841C36.0763 44.9841 36.1264 45.0092 36.1766 45.0594C37.6819 46.0629 39.1621 46.7653 40.3161 47.2169H1.25439C0.551932 47.2169 0 47.7688 0 48.4713C0 49.1738 0.551932 49.7257 1.25439 49.7257Z" fill="#788E72"/>
<path d="M98.7456 71.9268H1.25439C0.551932 71.9268 0 72.4787 0 73.1811C0 73.8836 0.551932 74.4355 1.25439 74.4355H98.7456C99.4481 74.4355 100 73.8836 100 73.1811C100 72.4787 99.4481 71.9268 98.7456 71.9268Z" fill="#788E72"/>
<path d="M8.45441 51.8564C6.29686 51.8564 4.51562 53.6126 4.51562 55.7952C4.51562 57.9779 6.27177 59.734 8.45441 59.734C10.637 59.734 12.3932 57.9779 12.3932 55.7952C12.3932 53.6126 10.637 51.8564 8.45441 51.8564ZM8.45441 57.2001C7.67669 57.2001 7.04949 56.573 7.04949 55.7952C7.04949 55.0175 7.67669 54.3903 8.45441 54.3903C9.23213 54.3903 9.85933 55.0175 9.85933 55.7952C9.85933 56.573 9.23213 57.2001 8.45441 57.2001Z" fill="#788E72"/>
<path d="M25.0872 51.8564C22.9297 51.8564 21.1484 53.6126 21.1484 55.7952C21.1484 57.9779 22.9046 59.734 25.0872 59.734C27.2699 59.734 29.026 57.9779 29.026 55.7952C29.026 53.6126 27.2699 51.8564 25.0872 51.8564ZM25.0872 57.2001C24.3095 57.2001 23.6823 56.573 23.6823 55.7952C23.6823 55.0175 24.3095 54.3903 25.0872 54.3903C25.8649 54.3903 26.4921 55.0175 26.4921 55.7952C26.4921 56.573 25.8649 57.2001 25.0872 57.2001Z" fill="#788E72"/>
<path d="M45.6862 55.7952C45.6862 53.6377 43.93 51.8564 41.7474 51.8564C39.5647 51.8564 37.8086 53.6126 37.8086 55.7952C37.8086 57.9779 39.5647 59.734 41.7474 59.734C43.93 59.734 45.6862 57.9779 45.6862 55.7952ZM40.3425 55.7952C40.3425 55.0175 40.9697 54.3903 41.7474 54.3903C42.5251 54.3903 43.1523 55.0175 43.1523 55.7952C43.1523 56.573 42.5251 57.2001 41.7474 57.2001C40.9697 57.2001 40.3425 56.573 40.3425 55.7952Z" fill="#788E72"/>
<path d="M58.4046 51.8564C56.2471 51.8564 54.4658 53.6126 54.4658 55.7952C54.4658 57.9779 56.222 59.734 58.4046 59.734C60.5872 59.734 62.3434 57.9779 62.3434 55.7952C62.3434 53.6126 60.5872 51.8564 58.4046 51.8564ZM58.4046 57.2001C57.6269 57.2001 56.9997 56.573 56.9997 55.7952C56.9997 55.0175 57.6269 54.3903 58.4046 54.3903C59.1823 54.3903 59.8095 55.0175 59.8095 55.7952C59.8095 56.573 59.1823 57.2001 58.4046 57.2001Z" fill="#788E72"/>
<path d="M78.9762 55.7952C78.9762 53.6377 77.2201 51.8564 75.0374 51.8564C72.8548 51.8564 71.0986 53.6126 71.0986 55.7952C71.0986 57.9779 72.8548 59.734 75.0374 59.734C77.2201 59.734 78.9762 57.9779 78.9762 55.7952ZM73.6325 55.7952C73.6325 55.0175 74.2597 54.3903 75.0374 54.3903C75.8151 54.3903 76.4423 55.0175 76.4423 55.7952C76.4423 56.573 75.8151 57.2001 75.0374 57.2001C74.2597 57.2001 73.6325 56.573 73.6325 55.7952Z" fill="#788E72"/>
<path d="M91.6976 51.8564C89.54 51.8564 87.7588 53.6126 87.7588 55.7952C87.7588 57.9779 89.5149 59.734 91.6976 59.734C93.8802 59.734 95.6364 57.9779 95.6364 55.7952C95.6364 53.6126 93.8802 51.8564 91.6976 51.8564ZM91.6976 57.2001C90.9199 57.2001 90.2927 56.573 90.2927 55.7952C90.2927 55.0175 90.9199 54.3903 91.6976 54.3903C92.4753 54.3903 93.1025 55.0175 93.1025 55.7952C93.1025 56.573 92.4753 57.2001 91.6976 57.2001Z" fill="#788E72"/>
<path d="M4.51562 65.931C4.51562 68.0885 6.27177 69.8698 8.45441 69.8698C10.637 69.8698 12.3932 68.1136 12.3932 65.931C12.3932 63.7483 10.637 61.9922 8.45441 61.9922C6.27177 61.9922 4.51562 63.7483 4.51562 65.931ZM9.85933 65.931C9.85933 66.7087 9.23213 67.3359 8.45441 67.3359C7.67669 67.3359 7.04949 66.7087 7.04949 65.931C7.04949 65.1533 7.67669 64.5261 8.45441 64.5261C9.23213 64.5261 9.85933 65.1533 9.85933 65.931Z" fill="#788E72"/>
<path d="M24.9866 61.9922C22.8291 61.9922 21.0479 63.7483 21.0479 65.931C21.0479 68.1136 22.804 69.8698 24.9866 69.8698C27.1693 69.8698 28.9254 68.1136 28.9254 65.931C28.9254 63.7483 27.1693 61.9922 24.9866 61.9922ZM24.9866 67.3359C24.2089 67.3359 23.5817 66.7087 23.5817 65.931C23.5817 65.1533 24.2089 64.5261 24.9866 64.5261C25.7644 64.5261 26.3916 65.1533 26.3916 65.931C26.3916 66.7087 25.7644 67.3359 24.9866 67.3359Z" fill="#788E72"/>
<path d="M42.0726 69.8453C44.2301 69.8453 46.0114 68.0892 46.0114 65.9066C46.0114 63.7239 44.2552 61.9678 42.0726 61.9678C39.8899 61.9678 38.1338 63.7239 38.1338 65.9066C38.1338 68.0892 39.8899 69.8453 42.0726 69.8453ZM42.0726 64.5267C42.8503 64.5267 43.4775 65.1539 43.4775 65.9317C43.4775 66.7094 42.8503 67.3366 42.0726 67.3366C41.2949 67.3366 40.6677 66.7094 40.6677 65.9317C40.6677 65.1539 41.2949 64.5267 42.0726 64.5267Z" fill="#788E72"/>
<path d="M58.4046 61.9922C56.2471 61.9922 54.4658 63.7483 54.4658 65.931C54.4658 68.1136 56.222 69.8698 58.4046 69.8698C60.5872 69.8698 62.3434 68.1136 62.3434 65.931C62.3434 63.7483 60.5872 61.9922 58.4046 61.9922ZM58.4046 67.3359C57.6269 67.3359 56.9997 66.7087 56.9997 65.931C56.9997 65.1533 57.6269 64.5261 58.4046 64.5261C59.1823 64.5261 59.8095 65.1533 59.8095 65.931C59.8095 66.7087 59.1823 67.3359 58.4046 67.3359Z" fill="#788E72"/>
<path d="M75.3138 69.8453C77.4713 69.8453 79.2526 68.0892 79.2526 65.9066C79.2526 63.7239 77.4964 61.9678 75.3138 61.9678C73.1311 61.9678 71.375 63.7239 71.375 65.9066C71.375 68.0892 73.1311 69.8453 75.3138 69.8453ZM75.3138 64.5267C76.0915 64.5267 76.7187 65.1539 76.7187 65.9317C76.7187 66.7094 76.0915 67.3366 75.3138 67.3366C74.5361 67.3366 73.9089 66.7094 73.9089 65.9317C73.9089 65.1539 74.5361 64.5267 75.3138 64.5267Z" fill="#788E72"/>
<path d="M87.7832 65.931C87.7832 68.0885 89.5393 69.8698 91.722 69.8698C93.9046 69.8698 95.6608 68.1136 95.6608 65.931C95.6608 63.7483 93.9046 61.9922 91.722 61.9922C89.5393 61.9922 87.7832 63.7483 87.7832 65.931ZM93.1018 65.931C93.1018 66.7087 92.4746 67.3359 91.6969 67.3359C90.9192 67.3359 90.292 66.7087 90.292 65.931C90.292 65.1533 90.9192 64.5261 91.6969 64.5261C92.4746 64.5261 93.1018 65.1533 93.1018 65.931Z" fill="#788E72"/>
<path d="M49.9998 41.3949C53.2863 41.3949 56.4976 40.2659 59.0565 38.2087L59.1318 38.1586C62.5688 35.3738 64.5257 31.2594 64.5257 26.869C64.5257 22.1525 63.2462 17.3106 60.7876 12.9202C58.4795 8.73056 55.1428 4.96739 51.2041 2.0572L48.3942 0L48.7455 3.46212C49.0465 6.44757 48.6953 9.55845 47.7419 12.4185C47.3907 13.4471 46.9391 14.0241 46.6381 14.1244L46.5126 14.1746L46.3872 14.1244C46.2116 14.0492 45.9607 13.7983 45.8353 13.4722C45.6095 12.87 45.6346 12.0672 45.6597 11.2644L45.7851 7.52634L43.0505 10.0853C38.2838 14.576 35.4238 20.848 35.4238 26.8941C35.4238 34.8971 41.9467 41.42 49.9497 41.42L49.9998 41.3949ZM56.2969 36.277V36.4275L56.1464 36.5028C54.3149 37.6819 52.1825 38.3091 49.9748 38.3091C48.0179 38.3091 46.0861 37.8073 44.3802 36.8289L44.2296 36.7536V36.578C44.1544 35.2484 44.7565 33.7431 45.9356 32.3382C46.8137 31.3096 47.8674 30.4315 48.9963 29.4782C49.473 29.0768 49.9748 28.6754 50.4514 28.2489C51.3797 27.4461 52.5086 26.2168 53.487 24.9373L53.763 24.5861L53.9888 24.9875C56.0209 28.3241 56.8488 32.4385 56.2467 36.3021L56.2969 36.277ZM42.7495 15.0778L43.0505 14.7015L43.2763 15.1279C43.9788 16.4074 45.2081 17.2102 46.5126 17.2102C48.3441 17.2102 49.8493 15.8304 50.6772 13.3718C51.3295 11.415 51.756 9.35775 51.8814 7.27546L51.9316 6.62318L52.4083 7.07476C58.1534 12.5188 61.4399 19.7441 61.4399 26.869C61.4399 28.7506 60.9632 30.6322 60.0851 32.288L59.5834 33.2163L59.483 32.1626C59.1318 27.9227 57.476 23.9338 54.8669 20.9232L53.3616 19.1922L52.333 21.2494C51.8062 22.278 49.8995 24.7115 48.4695 25.9659C48.0179 26.3673 47.5663 26.7436 47.0897 27.1199C45.9105 28.0983 44.6812 29.1019 43.6275 30.3562C42.6742 31.4601 41.9968 32.6643 41.5954 33.8685L41.4198 34.4205L41.0686 33.9689C39.463 31.9368 38.61 29.4782 38.61 26.869C38.61 22.8299 40.0902 18.6402 42.7746 15.0778H42.7495Z" fill="#788E72"/>
</svg>
