<svg width="27" height="27" viewBox="0 0 27 27" fill="none" xmlns="http://www.w3.org/2000/svg">
<path d="M17.1875 26.875H9.6875C2.9 26.875 0 23.975 0 17.1875V9.6875C0 2.9 2.9 0 9.6875 0H17.1875C23.975 0 26.875 2.9 26.875 9.6875V17.1875C26.875 23.975 23.975 26.875 17.1875 26.875ZM9.6875 1.875C3.925 1.875 1.875 3.925 1.875 9.6875V17.1875C1.875 22.95 3.925 25 9.6875 25H17.1875C22.95 25 25 22.95 25 17.1875V9.6875C25 3.925 22.95 1.875 17.1875 1.875H9.6875Z" fill="#262626"/>
<path d="M11.8641 18.7877C11.6266 18.7877 11.3891 18.7002 11.2016 18.5127C10.8391 18.1502 10.8391 17.5502 11.2016 17.1877L14.9516 13.4377L11.2016 9.6877C10.8391 9.3252 10.8391 8.7252 11.2016 8.3627C11.5641 8.0002 12.1641 8.0002 12.5266 8.3627L16.9391 12.7752C17.3016 13.1377 17.3016 13.7377 16.9391 14.1002L12.5266 18.5127C12.3391 18.7002 12.1016 18.7877 11.8641 18.7877Z" fill="#262626"/>
</svg>
