<svg width="27" height="27" viewBox="0 0 27 27" fill="none" xmlns="http://www.w3.org/2000/svg">
<path d="M9.6875 1.50258e-06L17.1875 8.46908e-07C23.975 2.53526e-07 26.875 2.9 26.875 9.6875L26.875 17.1875C26.875 23.975 23.975 26.875 17.1875 26.875L9.6875 26.875C2.9 26.875 2.09596e-06 23.975 1.50258e-06 17.1875L8.46908e-07 9.6875C2.53526e-07 2.9 2.9 2.09596e-06 9.6875 1.50258e-06ZM17.1875 25C22.95 25 25 22.95 25 17.1875L25 9.6875C25 3.925 22.95 1.875 17.1875 1.875L9.6875 1.875C3.925 1.875 1.875 3.925 1.875 9.6875L1.875 17.1875C1.875 22.95 3.925 25 9.6875 25L17.1875 25Z" fill="#262626"/>
<path d="M15.0109 8.0873C15.2484 8.0873 15.4859 8.1748 15.6734 8.3623C16.0359 8.7248 16.0359 9.3248 15.6734 9.6873L11.9234 13.4373L15.6734 17.1873C16.0359 17.5498 16.0359 18.1498 15.6734 18.5123C15.3109 18.8748 14.7109 18.8748 14.3484 18.5123L9.93594 14.0998C9.57344 13.7373 9.57344 13.1373 9.93594 12.7748L14.3484 8.3623C14.5359 8.1748 14.7734 8.0873 15.0109 8.0873Z" fill="#262626"/>
</svg>
