<svg width="136" height="66" viewBox="0 0 136 66" fill="none" xmlns="http://www.w3.org/2000/svg">
<g clip-path="url(#clip0_129_105)">
<path d="M12.0613 33.0813C12.0613 37.0479 15.7533 37.5447 17.6856 37.5447C22.7844 37.5447 25.0509 35.1828 26.0563 35.1828C27.0608 35.1828 25.4572 37.5848 23.9407 38.5441C11.3014 46.2165 0.912109 52.8237 0.912109 58.9384C0.912109 61.704 3.45523 61.8869 5.38923 61.8869C7.3241 61.8869 16.7812 60.6715 31.2579 38.1335C31.9377 37.0753 33.0549 36.463 34.1253 35.6888C35.1952 34.915 38.6462 32.3806 39.3299 32.3767C40.0105 32.3723 39.9867 32.6728 39.9607 32.9802C39.9225 33.424 39.4604 34.4068 39.4604 35.6026C39.4604 36.8005 40.6734 38.1888 42.6451 38.1888C47.0438 38.1888 50.2537 35.0434 52.887 32.2043C52.0164 32.0201 51.0215 31.8002 49.9146 31.5384C48.8702 32.4298 47.8449 33.0978 47.2987 33.1109C46.2916 33.1366 45.9812 32.5592 45.9378 32.0379C45.9018 31.612 45.9985 31.1304 46.1966 30.6122C44.1933 30.0857 41.9649 29.4582 39.5488 28.7149C38.9115 29.1112 38.2408 29.413 37.7518 29.345C37.5988 29.3233 37.5047 29.18 37.8441 28.694C37.8879 28.6322 37.9937 28.4837 38.1428 28.2751C36.407 27.7238 34.5844 27.1142 32.6903 26.4431C29.0234 29.8253 24.8012 33.2163 22.4866 33.2163C21.5614 33.2163 20.6978 32.5962 20.6978 31.1108C20.6978 30.128 21.9902 26.9304 24.5463 23.3196C22.6283 22.5275 20.6679 21.6762 18.6741 20.7617C14.1527 25.5892 12.0613 29.9638 12.0613 33.0813ZM6.98074 56.3357C6.98074 53.6223 16.3685 46.503 17.4823 46.493C17.7701 46.4891 17.8456 46.604 17.8473 46.8339C17.8586 49.0078 11.0018 57.6377 8.24797 57.6377C7.37569 57.6377 6.98074 57.1608 6.98074 56.3357ZM90.5911 34.2183C90.5807 35.809 90.9713 38.3577 93.6631 38.3577C98.9774 38.3577 105.59 31.5933 105.905 31.5445C106.125 31.5097 106.161 31.6011 106.161 31.8167C106.161 32.0579 105.412 34.7347 97.6413 44.2125C89.8697 53.6915 86.1075 57.4082 86.1075 59.4531C86.1075 61.4976 87.8338 62.2405 88.6359 62.2405C89.4379 62.2405 92.8299 62.0545 100.909 48.8597C106.677 39.4403 109.4 33.63 112.461 28.9483C106.934 31.3664 99.9824 32.941 90.5911 34.2183ZM58.301 33.3717C58.301 35.2721 58.9283 37.9937 63.3278 37.9937C65.7664 37.9937 67.9931 36.6769 69.8933 34.7661C66.1974 34.4795 62.3315 33.9801 58.304 33.2293C58.3022 33.2768 58.301 33.3251 58.301 33.3717ZM74.6379 35.0247C74.0639 35.9013 73.5731 36.6455 73.2371 37.1711C73.2371 37.1711 72.8266 37.6671 73.4435 37.6671H79.1995C79.4462 37.6671 79.6929 37.4602 79.8988 37.1711C79.9691 37.0714 80.5578 36.1687 81.3091 35.0108C79.1588 35.0874 76.9343 35.0961 74.6379 35.0247Z" fill="url(#paint0_radial_129_105)"/>
<path d="M117.901 15.1893C117.901 16.1795 119.406 16.861 119.907 16.861C120.678 16.861 123.237 15.1893 123.237 12.8974C123.237 12.0601 122.651 11.1308 121.788 11.1308C120.586 11.1308 117.901 13.8572 117.901 15.1893ZM111.086 23.1495C107.448 27.1143 103.068 32.4426 99.1203 32.4426C97.6614 32.4426 97.2092 31.5137 97.2092 30.5832C97.2092 29.903 97.7403 29.2724 98.7509 28.9724C102.473 27.8703 108.312 22.9979 108.312 19.6802C108.312 18.8127 107.881 17.8773 106.77 17.8773C105.158 17.8773 100.663 18.6307 95.0637 25.3546C94.4359 26.1071 93.7605 26.6192 93.2615 26.6192C92.7386 26.6192 92.1213 25.6276 92.1213 23.6454C92.1213 23.4351 92.1295 23.2361 92.1421 23.0436C88.072 24.5207 83.9266 25.669 79.769 26.5164C78.3973 29.2232 76.2062 32.6255 74.6376 35.0249C76.9341 35.0963 79.1586 35.0876 81.3089 35.0109C82.756 32.7809 84.8071 29.6121 84.915 29.4479C85.0789 29.2006 85.3252 29.0355 85.5718 29.0355C86.4771 29.0355 85.3676 31.3487 88.7388 31.3487C89.6852 31.3487 90.6212 30.8627 90.8692 30.8627C91.1159 30.8627 91.1467 31.08 91.1467 31.2647C91.1467 31.6352 90.6841 32.4892 90.6104 33.681C90.5996 33.8417 90.5935 34.0237 90.5909 34.2184C99.9821 32.9412 106.934 31.3666 112.461 28.9485C113.687 27.0708 115.482 24.5865 116.762 23.3354C119.167 20.9809 119.783 19.7415 119.783 19.185C119.783 18.4626 119.351 17.7598 118.488 17.7598C117.624 17.7598 114.726 19.185 111.086 23.1495ZM99.2828 26.0953C99.2828 25.0049 102.914 21.4951 104.133 21.4951C104.304 21.4951 104.541 21.6319 104.541 21.8361C104.541 23.2331 100.912 26.5373 99.7576 26.5373C99.5204 26.5373 99.2828 26.3684 99.2828 26.0953ZM18.6738 20.7618C20.6677 21.6763 22.6281 22.5276 24.5461 23.3197C24.8699 22.8612 25.2154 22.3957 25.5814 21.9271C23.5121 21.2199 21.5248 20.491 19.6367 19.7611C19.3029 20.0973 18.9842 20.4296 18.6738 20.7618ZM32.69 26.4433C34.5842 27.1143 36.4067 27.7239 38.1426 28.2752C38.4946 27.7832 39.1029 26.9388 39.8026 25.9734C38.0299 25.578 36.2793 25.1421 34.5603 24.6788C33.9629 25.254 33.3356 25.8489 32.69 26.4433ZM41.3287 27.3316C41.0395 27.616 40.3185 28.2352 39.5486 28.715C41.9647 29.4584 44.193 30.0859 46.1964 30.6123C46.5619 29.6548 47.2781 28.5753 48.1586 27.501C46.1578 27.2214 44.1675 26.8778 42.1992 26.4829C41.9148 26.7577 41.6252 27.039 41.3287 27.3316ZM71.3501 27.8285C69.9641 30.3663 67.995 32.6904 65.627 32.696C64.8896 32.6982 64.4196 32.2971 64.3975 31.5947C64.3702 30.7399 64.9494 29.4989 65.7311 28.2731C63.5205 28.3824 61.3277 28.4137 59.1613 28.3715C59.0325 29.0286 58.3406 31.5063 58.3037 33.2295C62.3313 33.9802 66.1971 34.4797 69.893 34.7662C71.9489 32.6995 73.6232 29.9378 74.7681 27.3908C73.6271 27.558 72.4877 27.7039 71.3501 27.8285ZM49.9144 31.5386C51.0212 31.8003 52.0162 32.0202 52.8867 32.2044C54.3794 30.5962 55.6865 29.0839 56.9195 28.3001C55.6033 28.2417 54.2979 28.1577 53.0059 28.0471C52.5056 29.0203 51.1959 30.4469 49.9144 31.5386Z" fill="url(#paint1_radial_129_105)"/>
<path d="M26.9795 13.5265C24.0913 15.6359 21.6522 17.7331 19.6367 19.761C21.5248 20.4908 23.5121 21.2198 25.5814 21.927C26.6947 20.4995 27.9966 19.0455 29.4866 17.6664C35.3151 12.2768 42.0691 9.64397 46.2632 9.64397C48.0212 9.64397 50.1255 9.99234 50.4364 10.0368C50.6523 10.0672 50.7247 10.0259 50.817 9.87172C50.9454 9.65704 54.0885 4.04484 54.0885 4.04484C54.1383 3.96341 54.1102 3.89156 54.0343 3.86717C53.9589 3.84279 53.4078 3.64508 52.2642 3.64508C47.5586 3.64508 37.3016 5.9896 26.9795 13.5265ZM56.7174 9.05566C56.7174 12.029 58.4906 16.1027 65.9387 18.5957C66.1234 18.658 66.3081 18.6811 66.3081 18.8361C66.3081 19.1535 62.793 23.9235 59.6161 24.4814C59.2519 24.5462 58.9996 24.234 58.9996 23.8931C58.9996 23.5521 59.4934 22.561 59.4934 21.043C59.4934 19.5254 59.0304 17.3882 56.1625 17.3882C53.3927 17.3882 50.2188 18.7181 42.1992 26.4827C44.1675 26.8777 46.1578 27.2213 48.1586 27.5008C50.654 24.4583 54.4743 21.4645 55.4407 21.4401C56.0377 21.4244 56.2835 21.6792 56.3052 21.94C56.3953 23.0117 54.8619 23.7607 53.9112 24.4509C52.8009 25.256 52.4424 25.5091 52.5538 26.1853C52.6162 26.5568 53.1516 26.6565 53.2171 27.3123C53.2362 27.5017 53.156 27.7543 53.0059 28.0469C54.2979 28.1575 55.6033 28.2416 56.9195 28.2999C57.4774 27.945 58.0189 27.7386 58.5556 27.7386C59.0104 27.7386 59.1821 27.9389 59.1821 28.2285C59.1821 28.2537 59.1752 28.3038 59.1613 28.3713C61.3277 28.4136 63.5205 28.3822 65.7311 28.2729C66.8791 26.4753 68.4645 24.7122 69.2223 24.2527C70.4974 23.4794 71.1949 22.7173 71.1806 22.2823C71.1672 21.8473 70.2585 21.262 70.167 20.8357C70.0612 20.3397 70.4592 20.0728 71.3449 20.2975C72.613 20.6197 73.5339 20.6602 73.5642 21.5969C73.5885 22.362 72.7804 25.2095 71.3501 27.8283C72.4877 27.7038 73.6271 27.5579 74.7681 27.3907C75.8671 24.9495 76.4802 22.7069 76.4802 21.4676C76.4802 21.198 76.5686 20.8718 77.0602 20.8718C77.5523 20.8718 78.921 21.0199 79.5262 21.0804C80.186 21.1471 81.0496 21.6835 81.0496 22.9229C81.0496 23.7028 80.5372 25.0009 79.769 26.5163C83.9266 25.6689 88.072 24.5206 92.1421 23.0435C92.3172 20.422 93.6009 19.3525 93.6009 18.4912C93.6009 17.9016 93.3599 17.6664 92.6688 17.6664C91.0964 17.6664 88.0183 21.4453 87.4642 21.4453C87.0133 21.4453 86.4948 19.7153 85.9846 19.0294C85.2432 18.0379 84.2253 17.7901 81.3271 17.7901C79.8778 17.7901 79.0454 17.9151 77.75 17.9151C76.2751 17.9151 75.93 17.8524 75.653 17.2018C75.3751 16.5521 71.0575 5.12129 61.2201 5.12129C59.0304 5.12129 56.7174 6.08235 56.7174 9.05566ZM61.6519 10.4517C61.6519 9.13623 62.542 8.37722 63.7979 8.37722C69.7573 8.37722 72.7292 16.8926 72.7292 17.4326C72.7292 17.7026 72.5701 17.8537 72.1409 17.8537C69.9641 17.8537 61.6519 14.5995 61.6519 10.4517ZM39.2932 19.9587C38.6264 20.6062 36.8099 22.5087 34.5603 24.6786C36.2793 25.142 38.0299 25.5779 39.8026 25.9732C41.398 23.7737 43.4612 20.9598 44.0118 20.331C44.9062 19.309 45.3688 18.8126 45.3688 18.4716C45.3688 18.0792 44.8139 17.7596 44.1349 17.7596C43.5492 17.7596 41.144 18.1629 39.2932 19.9587Z" fill="url(#paint2_radial_129_105)"/>
<mask id="mask0_129_105" style="mask-type:luminance" maskUnits="userSpaceOnUse" x="-17" y="-29" width="408" height="124">
<path d="M-16.9785 -28.1094H390.045V94.1675H-16.9785V-28.1094Z" fill="white"/>
</mask>
<g mask="url(#mask0_129_105)">
<path d="M41.1293 27.1272C40.6945 27.5544 39.9215 28.1788 39.1836 28.6016C39.4259 28.6774 39.6657 28.7506 39.9046 28.8237C40.789 28.2372 41.513 27.5474 41.526 27.5348C41.8732 27.1929 42.2084 26.8672 42.5387 26.5485C42.3124 26.504 42.0865 26.4592 41.8611 26.4126C41.6209 26.6456 41.3777 26.8825 41.1293 27.1272Z" fill="#63BBEB"/>
</g>
<path d="M84.6776 29.2896L83.4377 31.2022C82.7176 32.3135 81.7409 33.821 80.9609 35.0225C81.1929 35.0151 81.4244 35.0063 81.6546 34.9981C82.2984 34.0057 83.0887 32.7859 83.9129 31.5127L85.1498 29.6058C85.2655 29.4325 85.4307 29.3197 85.5716 29.3197C85.6405 29.3197 85.6735 29.3537 85.7784 29.7351C85.9739 30.4445 86.3004 31.6324 88.7381 31.6324C89.4105 31.6324 90.0652 31.409 90.4987 31.261C90.6331 31.2152 90.7914 31.1617 90.8533 31.1517C90.8577 31.1734 90.8607 31.2065 90.8607 31.2645C90.8607 31.3616 90.7922 31.5776 90.7194 31.807C90.5729 32.2647 90.373 32.8918 90.3257 33.6625C90.314 33.8515 90.3071 34.0505 90.3062 34.2565C90.4957 34.2308 90.686 34.2064 90.8742 34.1798C90.8772 34.0057 90.8828 33.8419 90.8915 33.6987C90.9353 32.998 91.1226 32.4101 91.2596 31.9808C91.3575 31.6733 91.4291 31.4508 91.4291 31.2645C91.4291 30.6444 91.0363 30.5773 90.8677 30.5773C90.7372 30.5773 90.5694 30.6348 90.3153 30.721C89.9178 30.8569 89.3165 31.0628 88.7381 31.0628C86.7326 31.0628 86.5067 30.242 86.3255 29.5827C86.2236 29.2117 86.0962 28.7497 85.5716 28.7497C85.236 28.7497 84.9022 28.9517 84.6776 29.2896Z" fill="url(#paint3_linear_129_105)"/>
<path d="M71.0119 27.8636C70.4374 28.8922 69.7607 29.8802 68.989 30.6828C67.8891 31.8267 66.7576 32.4081 65.6265 32.4111C65.2831 32.412 64.7044 32.3057 64.6814 31.5851C64.6545 30.7437 65.2671 29.4857 66.0748 28.2555C65.8424 28.2677 65.61 28.2791 65.3785 28.2904C64.6276 29.5023 64.0862 30.7233 64.1143 31.6042C64.1412 32.4551 64.7208 32.9833 65.6278 32.9807C66.9189 32.9772 68.1865 32.3371 69.3974 31.0786C70.2809 30.1598 71.0548 28.9928 71.6986 27.7883C71.4697 27.8149 71.2408 27.8392 71.0119 27.8636Z" fill="url(#paint4_linear_129_105)"/>
<mask id="mask1_129_105" style="mask-type:luminance" maskUnits="userSpaceOnUse" x="-17" y="-29" width="408" height="124">
<path d="M-16.9785 -28.1094H390.045V94.1675H-16.9785V-28.1094Z" fill="white"/>
</mask>
<g mask="url(#mask1_129_105)">
<path d="M45.9219 30.54C46.1074 30.5883 46.2908 30.6371 46.4725 30.6846C46.8163 29.7984 47.5004 28.7311 48.4893 27.5449C48.269 27.5149 48.0484 27.4848 47.8281 27.4535C47.0486 28.4202 46.3077 29.5128 45.9219 30.54Z" fill="#3777C5"/>
<path d="M32.3887 26.3357C32.5894 26.4071 32.7906 26.4785 32.9896 26.5491C33.6173 25.9664 34.2472 25.3677 34.8741 24.7619C34.6626 24.7053 34.451 24.6492 34.2403 24.5921C33.6477 25.1621 33.0255 25.7491 32.3887 26.3357Z" fill="#63BBEB"/>
<path d="M52.7004 28.019C52.5014 28.3761 52.1642 28.8516 51.64 29.4478C51.0057 30.1697 50.2657 30.8769 49.5664 31.457C49.8009 31.5123 50.0303 31.5663 50.2549 31.6194C50.9355 31.0237 51.5841 30.3731 52.0653 29.8249C52.6736 29.1325 53.0871 28.5481 53.3096 28.0726C53.1067 28.056 52.9038 28.0377 52.7004 28.019Z" fill="#63BBEB"/>
<path d="M53.2859 31.3504C53.0491 31.6073 52.8072 31.8699 52.5605 32.1355C52.7838 32.183 53.0015 32.2296 53.2087 32.2727C53.376 32.092 53.5408 31.9135 53.7025 31.7371C55.0785 30.2404 56.3137 28.8966 57.4517 28.3209C57.1179 28.3083 56.7845 28.2935 56.452 28.2774C55.4479 29.0011 54.4122 30.1255 53.2859 31.3504Z" fill="#4980CA"/>
<path d="M24.2715 23.2063C24.4531 23.2816 24.6344 23.3569 24.8151 23.4314C25.1451 22.9672 25.4967 22.4969 25.8678 22.024C25.6757 21.9587 25.4854 21.8934 25.2946 21.828C24.9344 22.2914 24.5923 22.7521 24.2715 23.2063Z" fill="#2F67AB"/>
</g>
<path d="M108.025 19.68C108.025 22.9006 102.189 27.6563 98.6684 28.6992C97.5759 29.0228 96.9238 29.7273 96.9238 30.583H97.4909C97.4909 29.9938 97.9912 29.4939 98.8296 29.2457C102.508 28.1558 108.593 23.2338 108.593 19.68H108.025Z" fill="url(#paint5_linear_129_105)"/>
<path d="M94.8455 25.1711C94.2486 25.8883 93.6412 26.3333 93.2614 26.3333C92.9714 26.3333 92.4039 25.5216 92.4039 23.6448C92.4039 23.3953 92.4143 23.1592 92.4329 22.9354C92.2391 23.0064 92.0449 23.0778 91.8511 23.1475C91.8416 23.3086 91.8359 23.4728 91.8359 23.6448C91.8359 25.8839 92.5751 26.9033 93.2614 26.9033C94.0283 26.9033 94.8555 26.0472 95.2804 25.5368C95.9927 24.6816 96.6872 23.9248 97.3592 23.255L97.1181 22.6889C96.3846 23.4109 95.6263 24.234 94.8455 25.1711Z" fill="url(#paint6_linear_129_105)"/>
<path d="M97.1191 22.689L97.3602 23.2551C102.063 18.5696 105.673 18.162 106.771 18.162C107.968 18.162 108.028 19.4266 108.028 19.68H108.595C108.595 18.6406 108.031 17.5924 106.771 17.5924C105.315 17.5924 101.734 18.142 97.1191 22.689Z" fill="url(#paint7_linear_129_105)"/>
<path d="M99 26.0952C99 26.5506 99.3863 26.8232 99.7591 26.8232C101.094 26.8232 104.826 23.4058 104.826 21.8355C104.826 21.4667 104.462 21.2102 104.135 21.2102C102.791 21.2102 99 24.8166 99 26.0952ZM99.5675 26.0952C99.5675 25.1267 103.11 21.7798 104.135 21.7798C104.178 21.7798 104.248 21.8194 104.26 21.8446C104.258 23.0652 100.771 26.2528 99.7591 26.2528C99.6794 26.2528 99.5675 26.2036 99.5675 26.0952Z" fill="url(#paint8_linear_129_105)"/>
<path d="M117.617 15.1882C117.617 16.3661 119.246 17.146 119.905 17.146C120.779 17.146 123.52 15.3828 123.52 12.8964C123.52 11.9061 122.824 10.8453 121.787 10.8453C120.384 10.8453 117.617 13.7272 117.617 15.1882ZM118.185 15.1882C118.185 14.0603 120.71 11.4154 121.787 11.4154C122.474 11.4154 122.952 12.1961 122.952 12.8964C122.952 15.0109 120.542 16.576 119.905 16.576C119.484 16.576 118.185 15.9515 118.185 15.1882Z" fill="url(#paint9_linear_129_105)"/>
<mask id="mask2_129_105" style="mask-type:luminance" maskUnits="userSpaceOnUse" x="-17" y="-29" width="408" height="124">
<path d="M-16.9785 -28.1094H390.045V94.1675H-16.9785V-28.1094Z" fill="white"/>
</mask>
<g mask="url(#mask2_129_105)">
<path d="M74.3047 35.0136C74.5275 35.0214 74.7491 35.0288 74.9697 35.0349C76.582 32.5672 78.774 29.1506 80.1197 26.4424C79.8843 26.4916 79.6493 26.54 79.4139 26.5866C77.9984 29.3278 75.78 32.7588 74.3047 35.0136Z" fill="#72C1ED"/>
<path d="M18.3965 20.6329C18.576 20.7156 18.7559 20.7997 18.9349 20.8811C19.2492 20.5475 19.5796 20.2096 19.9199 19.87C19.727 19.7959 19.5362 19.7219 19.3451 19.6479C19.0186 19.9788 18.6995 20.3076 18.3965 20.6329Z" fill="#63BBEB"/>
<path d="M39.5025 25.9046C38.7945 26.8818 38.1889 27.7231 37.8594 28.1838C38.0493 28.2444 38.2405 28.3058 38.4286 28.365C38.7984 27.8498 39.4114 26.9994 40.1077 26.0401C39.9057 25.9957 39.7041 25.9504 39.5025 25.9046Z" fill="#326CB3"/>
<path d="M58.7368 28.9547C58.4966 29.9619 58.0609 31.7943 58.0215 33.1756C58.2101 33.2113 58.3991 33.2479 58.5868 33.2827C58.6059 31.9554 59.0481 30.0969 59.2883 29.0875C59.3771 28.7156 59.4261 28.507 59.4491 28.3755C59.2566 28.372 59.0654 28.3681 58.8734 28.3642C58.8435 28.5066 58.7897 28.7317 58.7368 28.9547Z" fill="#63BBEB"/>
<path d="M74.4345 27.439C73.9004 28.6051 73.257 29.8126 72.5161 30.9744C71.819 32.0683 70.7954 33.4836 69.5117 34.7346C69.7528 34.7542 69.9964 34.7773 70.2357 34.7952C72.2898 32.6762 73.9607 29.8976 75.0978 27.3405C74.8772 27.3745 74.6556 27.4076 74.4345 27.439Z" fill="#4980CA"/>
</g>
<path d="M110.876 22.9559L109.75 24.1943C106.371 27.9266 102.542 32.1567 99.1193 32.1567C97.774 32.1567 97.4909 31.301 97.4909 30.5829H96.9238C96.9238 31.8192 97.6205 32.5948 98.8045 32.7102C100.03 32.7358 100.818 32.5177 102.169 31.8554C104.899 30.3996 107.656 27.3544 110.17 24.5775L111.293 23.3421C114.931 19.3781 117.756 18.0443 118.486 18.0443V17.4748C117.489 17.4748 114.541 18.9623 110.876 22.9559Z" fill="url(#paint10_linear_129_105)"/>
<path d="M118.487 18.0444C119.186 18.0444 119.499 18.617 119.499 19.1848C119.499 19.4357 119.287 20.4642 116.562 23.131C115.195 24.4687 113.315 27.0971 111.996 29.1477C112.32 29.0088 112.637 28.8703 112.948 28.7318C114.077 27.0388 115.79 24.6834 116.958 23.539C118.992 21.5494 120.067 20.0431 120.067 19.1848C120.067 18.3344 119.524 17.4748 118.487 17.4748V18.0444Z" fill="url(#paint11_linear_129_105)"/>
<path d="M45.6546 32.0622C45.7261 32.9218 46.3435 33.4204 47.3055 33.3956C48.0022 33.3791 49.1688 32.57 50.2549 31.6194C50.0299 31.5662 49.8005 31.5122 49.566 31.4565C48.6005 32.2573 47.7126 32.8156 47.2912 32.8269C46.627 32.843 46.2668 32.57 46.2199 32.0148C46.1883 31.6385 46.2763 31.1904 46.4727 30.6844C46.291 30.6365 46.1077 30.5882 45.9225 30.5399C45.7218 31.0746 45.6152 31.5915 45.6546 32.0622Z" fill="url(#paint12_linear_129_105)"/>
<path d="M37.6109 28.5302C37.3495 28.9043 37.2736 29.1656 37.3655 29.3763C37.4249 29.5131 37.5507 29.6045 37.7115 29.6263C38.3484 29.7151 39.1803 29.304 39.9048 28.8233C39.6659 28.7506 39.4266 28.677 39.1838 28.6016C38.7303 28.862 38.2894 29.0471 37.9495 29.0619C37.9759 29.0105 38.0124 28.9474 38.0752 28.8573C38.1194 28.7941 38.2439 28.6191 38.4268 28.3652C38.2382 28.3055 38.0475 28.2441 37.8572 28.1836C37.7336 28.3569 37.6465 28.4788 37.6109 28.5302Z" fill="url(#paint13_linear_129_105)"/>
<path d="M17.4797 46.2073C16.7379 46.2139 13.8662 48.2766 11.6305 50.1831C9.78794 51.7551 6.69727 54.6431 6.69727 56.3357C6.69727 57.359 7.24786 57.9216 8.24802 57.9216C9.52912 57.9216 11.3513 56.3544 12.654 55.0389C15.2462 52.4218 18.1387 48.3563 18.1313 46.8322C18.13 46.702 18.1123 46.5126 17.9683 46.3693C17.8582 46.2609 17.7034 46.2069 17.4953 46.2069C17.4901 46.2069 17.4849 46.2069 17.4797 46.2073ZM7.26476 56.3357C7.26476 53.8218 16.4128 46.8061 17.4849 46.7769C17.4849 46.7769 17.5296 46.7822 17.5586 46.7843C17.5608 46.8074 17.5634 46.8344 17.5634 46.8344V46.8396C17.5634 48.0685 14.9362 51.9267 12.2522 54.6365C10.5432 56.3618 9.08345 57.3521 8.24802 57.3521C7.5678 57.3521 7.26476 57.0385 7.26476 56.3357Z" fill="url(#paint14_linear_129_105)"/>
<path d="M20.4141 31.1099C20.4141 32.8753 21.5308 33.5015 22.4868 33.5015C24.8465 33.5015 28.8689 30.3714 32.9896 26.5489C32.7906 26.4784 32.5895 26.4074 32.3887 26.336C28.79 29.6485 24.6965 32.9315 22.4868 32.9315C21.5439 32.9315 20.9811 32.2504 20.9811 31.1099C20.9811 30.1184 22.3025 26.9626 24.8162 23.431C24.635 23.357 24.4537 23.2812 24.2725 23.2059C21.7177 26.8237 20.4141 30.0413 20.4141 31.1099Z" fill="url(#paint15_linear_129_105)"/>
<path d="M0.628906 58.9385H1.19597C1.19597 53.1325 10.6835 46.9242 24.0871 38.7872L23.7897 38.3025C10.23 46.5336 0.628906 52.8342 0.628906 58.9385Z" fill="url(#paint16_linear_129_105)"/>
<path d="M11.7773 33.0818C11.7773 36.0991 13.9307 37.8296 17.6851 37.8296V37.26C15.6904 37.26 12.3448 36.717 12.3448 33.0818C12.3448 30.24 14.1986 25.9106 18.9346 20.8811C18.7555 20.7997 18.5756 20.7156 18.3961 20.6329C13.6402 25.7373 11.7773 30.1581 11.7773 33.0818Z" fill="url(#paint17_linear_129_105)"/>
<mask id="mask3_129_105" style="mask-type:luminance" maskUnits="userSpaceOnUse" x="-17" y="-29" width="408" height="124">
<path d="M-16.9785 -28.1094H390.045V94.1675H-16.9785V-28.1094Z" fill="white"/>
</mask>
<g mask="url(#mask3_129_105)">
<path d="M24.0871 38.7874C25.344 37.9922 26.8553 36.0836 26.6272 35.2911C26.5566 35.045 26.3428 34.8987 26.0558 34.8987C25.6778 34.8987 25.2234 35.1352 24.5948 35.4626C23.3055 36.1354 21.1478 37.2598 17.6855 37.2598V37.8298C21.2861 37.8298 23.5209 36.6645 24.8558 35.9686C25.3925 35.6891 25.8399 35.4583 26.0558 35.4583C26.0866 35.4583 26.0983 35.4813 26.0983 35.5162C26.0983 35.9273 25.0825 37.4845 23.7893 38.3027" fill="#AF0A55"/>
</g>
<path d="M42.6465 37.9029C40.7532 37.9029 39.7452 36.566 39.7452 35.6019H39.1777C39.1777 36.9875 40.5716 38.4729 42.6465 38.4729C47.2276 38.4729 50.5381 35.1643 53.2117 32.2728C53.0045 32.2297 52.7869 32.1831 52.5636 32.1357C50.0066 34.8817 46.8587 37.9029 42.6465 37.9029Z" fill="url(#paint18_linear_129_105)"/>
<path d="M34.2119 35.2755L33.9596 35.4571L33.3032 35.9156C32.4227 36.5196 31.5903 37.0905 31.0197 37.9793C16.5774 60.462 7.13584 61.6012 5.38956 61.6012C2.87245 61.6012 1.19597 61.1487 1.19597 58.9383H0.628906C0.628906 62.1716 3.84444 62.1716 5.38956 62.1716C6.43482 62.1716 9.34427 61.8324 13.7837 58.6949C19.3806 54.7392 25.3391 47.8729 31.4962 38.288C32.0052 37.4959 32.7912 36.9568 33.6231 36.3859L34.2912 35.92L34.5435 35.7371C38.0452 33.1975 39.0211 32.7054 39.3298 32.661C39.5821 32.6253 39.6406 32.6858 39.6627 32.7024L40.0633 32.2996C39.8834 32.1158 39.7134 32.091 39.3298 32.091C38.8056 32.091 37.3706 32.9841 34.2119 35.2755Z" fill="url(#paint19_linear_129_105)"/>
<path d="M58.0176 33.3716C58.0176 36.5814 59.854 38.2788 63.3275 38.2788C65.898 38.2788 68.2469 36.847 70.2376 34.7947C69.9979 34.7768 69.7543 34.7542 69.5132 34.7346C67.8441 36.3606 65.7354 37.7088 63.3275 37.7088C60.1367 37.7088 58.5855 36.2901 58.5855 33.3716C58.5855 33.3429 58.5864 33.3124 58.5868 33.2824C58.3995 33.2475 58.2105 33.2114 58.0215 33.1757C58.0197 33.2419 58.0176 33.308 58.0176 33.3716Z" fill="url(#paint20_linear_129_105)"/>
<path d="M80.9625 35.0226C80.2698 36.0903 79.7322 36.9151 79.6684 37.0052C79.4712 37.283 79.2973 37.381 79.1998 37.381H73.4433H73.4372C73.4446 37.371 73.4502 37.3601 73.4572 37.3523L73.4658 37.3405L74.4214 35.8743C74.5943 35.61 74.779 35.3283 74.9702 35.0348C74.7495 35.0291 74.5276 35.0213 74.3052 35.0139C74.1807 35.2042 74.0602 35.3875 73.9475 35.5604C73.9475 35.5604 73.0124 36.9978 73.0037 37.0104C72.9495 37.0788 72.8203 37.2639 72.8203 37.4742C72.8203 37.5369 72.8325 37.6014 72.8619 37.6645C72.9226 37.7956 73.0731 37.9519 73.4433 37.9519H79.1998C79.5223 37.9519 79.8445 37.7385 80.1297 37.337C80.2056 37.2308 80.8021 36.315 81.6562 34.9982C81.426 35.0065 81.1945 35.0152 80.9625 35.0226Z" fill="url(#paint21_linear_129_105)"/>
<path d="M90.3071 34.2567C90.3071 34.2698 90.3066 34.2816 90.3066 34.2942C90.3066 35.4617 90.5212 36.8347 91.3619 37.7339C91.9268 38.3374 92.7006 38.6436 93.6626 38.6436V38.0731C92.8636 38.0731 92.2289 37.8279 91.7759 37.3433C91.0081 36.5224 90.8659 35.1542 90.875 34.1801C90.6869 34.2067 90.4965 34.2311 90.3071 34.2567Z" fill="url(#paint22_linear_129_105)"/>
<path d="M39.8666 32.4947L39.6637 32.7011C39.7032 32.7424 39.7105 32.8021 39.7071 32.8753C39.7032 32.9493 39.6798 33.0268 39.6646 33.0965C39.649 33.1662 39.5961 33.3956 39.5185 33.6595C39.3746 34.1494 39.1777 34.8196 39.1777 35.6025H39.7452C39.7452 34.9019 39.9212 34.3023 40.0626 33.8211C40.1562 33.5019 40.2048 33.309 40.2395 33.0804L40.2507 32.9253C40.2538 32.7011 40.2373 32.4755 40.0643 32.2996L39.8666 32.4947Z" fill="url(#paint23_linear_129_105)"/>
<path d="M97.4206 44.0318C95.3535 46.5522 93.6068 48.6232 92.0647 50.4491C87.7792 55.5296 85.8223 57.8476 85.8223 59.4531C85.8223 60.2666 86.0802 60.9032 86.4535 61.3792L86.8107 60.9097C86.5597 60.5439 86.3898 60.0658 86.3898 59.4531C86.3898 58.057 88.4308 55.6372 92.4987 50.8184C94.0404 48.9899 95.7893 46.918 97.8581 44.3936C100.629 41.0153 102.505 38.5041 103.775 36.6542L103.187 36.5053C101.935 38.3142 100.101 40.7623 97.4206 44.0318Z" fill="url(#paint24_linear_129_105)"/>
<path d="M111.995 29.1481C110.554 31.389 109.664 33.1217 107.908 36.25C105.899 39.8282 103.622 43.8828 100.667 48.709C93.6099 60.2343 90.0996 61.9547 88.6347 61.9547C88.2272 61.9547 87.3388 61.6817 86.8104 60.9096L86.4531 61.3791C87.0761 62.1738 88.0217 62.5256 88.6347 62.5256C91.4076 62.5256 95.7351 57.851 101.15 49.0086C104.111 44.1719 106.391 40.1126 108.402 36.53C110.348 33.062 111.369 31.0968 112.947 28.7318C112.637 28.8703 112.319 29.0088 111.995 29.1481Z" fill="url(#paint25_linear_129_105)"/>
<path d="M105.863 31.2647C105.747 31.3004 105.639 31.3575 104.976 31.9331C103.044 33.6127 97.9092 38.0731 93.6602 38.0731V38.6436C98.1199 38.6436 103.371 34.0817 105.348 32.3647C105.537 32.2001 105.714 32.0472 105.843 31.9397C105.725 32.3072 105.223 33.5652 103.188 36.5054L103.776 36.6544C106.4 32.8358 106.445 31.8308 106.445 31.8164C106.445 31.7023 106.445 31.4911 106.284 31.3535C106.188 31.2708 106.074 31.249 105.986 31.249C105.932 31.249 105.888 31.2573 105.863 31.2647Z" fill="url(#paint26_linear_129_105)"/>
<path d="M76.1966 21.467C76.1966 22.7129 75.5619 24.9816 74.4355 27.4385C74.6566 27.4071 74.8782 27.374 75.0989 27.3405C76.1671 24.9411 76.7645 22.739 76.7645 21.467C76.7645 21.2262 76.8304 21.1561 77.0597 21.1561C77.4712 21.1561 78.5619 21.2676 79.214 21.3346L79.4975 21.3634C79.9683 21.4109 80.7656 21.7923 80.7656 22.9223C80.7656 23.6896 80.2193 25.026 79.4134 26.5867C79.6484 26.5397 79.8838 26.4914 80.1192 26.4426C80.8506 24.9703 81.3331 23.707 81.3331 22.9223C81.3331 21.5842 80.411 20.8822 79.5539 20.7964L79.2716 20.7677C78.5663 20.6954 77.4998 20.5865 77.0597 20.5865C76.5191 20.5865 76.1966 20.9157 76.1966 21.467Z" fill="url(#paint27_linear_129_105)"/>
<path d="M61.3672 10.4508C61.3672 14.8681 69.8883 18.1384 72.1401 18.1384C72.8984 18.1384 73.012 17.6956 73.012 17.4321C73.012 16.8691 70.05 8.09195 63.7967 8.09195C62.321 8.09195 61.3672 9.01818 61.3672 10.4508ZM61.9347 10.4508C61.9347 9.34738 62.6483 8.66197 63.7967 8.66197C69.4531 8.66197 72.402 16.8634 72.4445 17.4378C72.4445 17.4992 72.4445 17.5684 72.1401 17.5684C70.1398 17.5684 61.9347 14.3713 61.9347 10.4508Z" fill="url(#paint28_linear_129_105)"/>
<path d="M56.4551 28.2773C56.788 28.2934 57.121 28.3082 57.4552 28.3208C57.8329 28.1301 58.1992 28.023 58.5564 28.023C58.8994 28.023 58.8994 28.1414 58.8994 28.2276C58.8981 28.2485 58.8885 28.2982 58.8746 28.3635C59.0667 28.3678 59.2579 28.3718 59.4499 28.3752C59.4612 28.3108 59.4668 28.2638 59.4668 28.2276C59.4668 28.046 59.4014 27.4529 58.5564 27.4529C57.8589 27.4529 57.1652 27.7665 56.4551 28.2773Z" fill="url(#paint29_linear_129_105)"/>
<path d="M70.0752 20.1685C69.8927 20.3453 69.8263 20.6036 69.8892 20.8953C69.9482 21.174 70.1931 21.4322 70.4528 21.7061C70.6171 21.879 70.892 22.169 70.8959 22.291C70.9032 22.5231 70.4155 23.1945 69.0741 24.0084C68.2487 24.5088 66.5549 26.3878 65.377 28.2903C65.6085 28.279 65.8408 28.2676 66.0732 28.2554C67.1852 26.5611 68.6684 24.9198 69.3681 24.4957C70.6982 23.6888 71.482 22.8575 71.4634 22.2727C71.4525 21.933 71.1664 21.6321 70.8633 21.3129C70.6973 21.1374 70.4697 20.8975 70.4433 20.776C70.4233 20.6815 70.432 20.6149 70.4693 20.5792C70.5482 20.5021 70.8066 20.4546 71.2735 20.5731L71.8431 20.7089C72.9148 20.9545 73.2621 21.0778 73.279 21.6056C73.2998 22.2727 72.4978 25.202 71.0103 27.8635C71.2392 27.8391 71.4681 27.8148 71.697 27.7882C73.0878 25.1885 73.8725 22.4146 73.8461 21.5873C73.8136 20.5761 72.9595 20.3802 71.9697 20.1529L71.4131 20.0209C71.1651 19.9578 70.9574 19.9325 70.784 19.9325C70.4146 19.9325 70.1992 20.0488 70.0752 20.1685Z" fill="url(#paint30_linear_129_105)"/>
<path d="M39.0958 19.7539L38.0558 20.7995C37.1354 21.734 35.7854 23.1048 34.2402 24.5919C34.4505 24.6494 34.6621 24.7055 34.8741 24.7617C36.0949 23.5816 37.304 22.3732 38.4594 21.2001L39.4904 20.1633C41.2843 18.4214 43.6462 18.0443 44.1348 18.0443C44.691 18.0443 45.0843 18.2869 45.0843 18.4728L45.6513 18.4715C45.6513 17.851 44.8887 17.4747 44.1348 17.4747C43.566 17.4747 41.045 17.861 39.0958 19.7539Z" fill="url(#paint31_linear_129_105)"/>
<path d="M45.085 18.4728C45.085 18.6757 44.6372 19.1861 44.0172 19.8928L43.7987 20.1419C43.2299 20.792 41.1073 23.6891 39.502 25.9043C39.7031 25.9505 39.9047 25.9958 40.1067 26.0393C41.6887 23.8598 43.6947 21.1243 44.2253 20.5181L44.4434 20.2699C45.2732 19.3232 45.6521 18.8908 45.6521 18.4715L45.085 18.4728Z" fill="url(#paint32_linear_129_105)"/>
<path d="M29.2943 17.4566C27.7661 18.8697 26.4334 20.3628 25.2949 21.8277C25.4852 21.893 25.676 21.9588 25.8676 22.0237C26.964 20.6272 28.2356 19.2102 29.678 17.8759C31.8513 15.8667 34.1221 14.2638 36.3236 13.0389L36.0678 12.5333C33.82 13.7809 31.5049 15.4125 29.2943 17.4566Z" fill="url(#paint33_linear_129_105)"/>
<path d="M41.8613 26.4127C42.0868 26.4589 42.3126 26.5042 42.5389 26.5486C50.1887 19.1602 53.3674 17.6726 56.1615 17.6726C57.3797 17.6726 58.236 18.0846 58.7241 18.9006C59.0462 19.4397 59.2079 20.1543 59.2079 21.0426C59.2079 22.0324 58.9907 22.7875 58.8464 23.2874C58.767 23.5618 58.7146 23.7429 58.7146 23.8923C58.7146 24.1666 58.8312 24.4288 59.0267 24.5934L59.3918 24.1575C59.3241 24.1 59.2821 23.999 59.2821 23.8923C59.2821 23.8239 59.338 23.6314 59.3909 23.4459C59.5444 22.9151 59.7755 22.113 59.7755 21.0426C59.7755 20.2044 59.6354 19.4902 59.3649 18.9098C58.8143 17.731 57.7227 17.103 56.1615 17.103C53.1892 17.103 49.8579 18.6502 41.8613 26.4127Z" fill="url(#paint34_linear_129_105)"/>
<path d="M65.9669 18.9041C65.4727 19.7349 62.3859 23.7059 59.5667 24.201C59.4986 24.2127 59.4409 24.1984 59.3924 24.1574L59.0273 24.5938C59.2047 24.7436 59.4314 24.8032 59.6651 24.7619C62.9656 24.1827 66.5917 19.3526 66.5917 18.8361L65.9669 18.9041Z" fill="url(#paint35_linear_129_105)"/>
<path d="M88.7325 20.0546C88.2599 20.4997 87.6833 21.0418 87.4739 21.1446C87.3135 21.0344 87.0217 20.4165 86.8431 20.035C86.6394 19.6009 86.4291 19.1524 86.2102 18.8589C85.4172 17.7963 84.3676 17.5059 81.3264 17.5059C80.5733 17.5059 79.9859 17.5386 79.418 17.5708L79.4492 18.1399C80.0097 18.1081 80.5894 18.0755 81.3264 18.0755C84.1782 18.0755 85.089 18.3071 85.7563 19.2007C85.9405 19.4476 86.1386 19.87 86.3294 20.278C86.7096 21.0897 87.0105 21.7307 87.4635 21.7307C87.7579 21.7307 88.1095 21.4228 89.1209 20.4705C90.1853 19.4672 91.7937 17.9518 92.6681 17.9518C93.2573 17.9518 93.3167 18.1073 93.3167 18.4905C93.3167 18.7487 93.1424 19.0831 92.9222 19.5068C92.5259 20.2693 91.9458 21.3902 91.8509 23.1477C92.0447 23.078 92.2389 23.0066 92.4327 22.9356C92.5554 21.4446 93.0501 20.4918 93.4255 19.7707C93.6817 19.2778 93.8842 18.8885 93.8842 18.4905C93.8842 18.1752 93.8161 17.93 93.6787 17.7511C93.4845 17.5015 93.1519 17.3818 92.6681 17.3818C91.5691 17.3818 89.9962 18.8637 88.7325 20.0546Z" fill="url(#paint36_linear_129_105)"/>
<path d="M75.3906 17.3144C75.7539 18.1657 76.3401 18.1992 77.7486 18.1992L79.4485 18.14L79.4173 17.5704L77.7486 17.6296C76.2516 17.6296 76.1107 17.5547 75.9126 17.0901L75.3906 17.3144Z" fill="url(#paint37_linear_129_105)"/>
<path d="M55.4347 21.1546C54.4346 21.1798 51.2858 23.631 48.9109 26.2046C48.8068 26.3174 48.705 26.4293 48.6048 26.5416C48.3503 26.8268 48.0885 27.133 47.8301 27.453C48.0503 27.4853 48.271 27.5144 48.4912 27.5449C48.6616 27.3403 48.8389 27.1334 49.0271 26.9218C49.2243 26.701 49.4255 26.4828 49.6288 26.2686C52.0423 23.729 54.7849 21.7411 55.449 21.7246C55.785 21.7159 56.0109 21.8095 56.0235 21.9628C56.0256 21.9841 56.0265 22.0054 56.0265 22.0263C56.0265 22.7004 55.1339 23.2905 54.3431 23.8126L53.7461 24.2193L53.7175 24.2402C52.7273 24.9574 52.2508 25.3036 52.2508 25.9577C52.2508 26.0435 52.2591 26.1336 52.2751 26.2316C52.3163 26.4794 52.475 26.6361 52.615 26.7737C52.7442 26.9013 52.8582 27.0154 52.9102 27.2061H53.4882C53.421 26.7742 53.1873 26.539 53.0126 26.3666C52.909 26.2655 52.8452 26.1994 52.8353 26.1375C52.7576 25.6733 52.9159 25.5244 54.0491 24.7022L54.0782 24.6813L54.6548 24.289C55.6021 23.6628 56.6755 22.9539 56.5892 21.9149C56.5589 21.56 56.2524 21.1537 55.4898 21.1537C55.472 21.1537 55.4534 21.1541 55.4347 21.1546Z" fill="url(#paint38_linear_129_105)"/>
<path d="M52.9097 27.2059C52.921 27.2473 52.9305 27.2909 52.9353 27.3401C52.9366 27.3514 52.9366 27.3623 52.9366 27.3736C52.9366 27.5077 52.8663 27.7228 52.7012 28.0185C52.9045 28.0377 53.107 28.0555 53.3103 28.0725C53.456 27.762 53.5214 27.4973 53.4997 27.2839C53.4976 27.256 53.4915 27.2321 53.4876 27.2059H52.9097Z" fill="url(#paint39_linear_129_105)"/>
<path d="M56.76 7.2816C56.545 7.80067 56.4336 8.39507 56.4336 9.05522C56.4336 11.5421 57.657 16.1236 65.8483 18.8661L65.9514 18.8983C65.9514 18.8983 65.964 18.9027 65.967 18.9036L66.5918 18.8361C66.5918 18.4951 66.2801 18.4019 66.1131 18.3518L66.0277 18.3257C58.1738 15.696 57.0011 11.3888 57.0011 9.05522C57.0011 8.41989 57.1108 7.89386 57.2968 7.45883C58.0767 5.63774 60.1962 5.40608 61.2198 5.40608C69.8615 5.40608 74.2177 14.4388 75.3474 17.207L75.3912 17.3141L75.9132 17.0899L75.8725 16.991C74.7089 14.1396 70.2144 4.8365 61.2198 4.8365C58.9719 4.8365 57.4038 5.72353 56.76 7.2816Z" fill="url(#paint40_linear_129_105)"/>
<path d="M53.2351 3.9865C53.4466 4.01393 53.6153 4.04833 53.7432 4.08055C52.6281 6.07016 50.6698 9.56298 50.5732 9.7241C50.5732 9.7241 50.5597 9.74413 50.5497 9.75937C50.5276 9.75763 50.4765 9.75415 50.4765 9.75415L50.3486 9.73499C48.7107 9.48503 47.3359 9.35919 46.2629 9.35919C43.6691 9.35919 39.9706 10.3668 36.0684 12.5333L36.3241 13.0388C40.1375 10.9164 43.7415 9.92877 46.2629 9.92877C47.3073 9.92877 48.6535 10.0533 50.2636 10.2985L50.3963 10.3185C50.5497 10.3403 50.672 10.3324 50.7748 10.2898C50.8879 10.2432 50.9781 10.1552 51.0596 10.018C51.1883 9.80249 54.2071 4.41368 54.3358 4.18463C54.4 4.08055 54.4156 3.94904 54.374 3.83365C54.3328 3.72086 54.2409 3.63421 54.1217 3.59589C53.8763 3.51402 53.5737 3.45349 53.2351 3.41343V3.9865Z" fill="url(#paint41_linear_129_105)"/>
<mask id="mask4_129_105" style="mask-type:luminance" maskUnits="userSpaceOnUse" x="-17" y="-29" width="408" height="124">
<path d="M-16.9785 -28.1094H390.045V94.1675H-16.9785V-28.1094Z" fill="white"/>
</mask>
<g mask="url(#mask4_129_105)">
<path d="M27.1463 13.7569C37.7705 5.9992 47.9339 3.92946 52.2645 3.92946C52.6616 3.92946 52.969 3.94209 53.2399 3.98694V3.41388C52.9261 3.36728 52.61 3.35944 52.2645 3.35944C47.8654 3.35944 37.5546 5.45226 26.8125 13.2957C23.8246 15.4778 21.359 17.6111 19.3457 19.6478C19.5365 19.7218 19.7276 19.7958 19.9201 19.8699C21.8793 17.912 24.2659 15.8606 27.1463 13.7569Z" fill="#90C643"/>
</g>
</g>
<defs>
<radialGradient id="paint0_radial_129_105" cx="0" cy="0" r="1" gradientUnits="userSpaceOnUse" gradientTransform="translate(62.1078 34.8813) scale(89.2682 89.6643)">
<stop stop-color="#C11566"/>
<stop offset="0.994385" stop-color="#AF0A55"/>
<stop offset="1" stop-color="#AF0A55"/>
</radialGradient>
<radialGradient id="paint1_radial_129_105" cx="0" cy="0" r="1" gradientUnits="userSpaceOnUse" gradientTransform="translate(70.9552 23.1023) scale(37.9172 38.0854)">
<stop stop-color="#63BBEB"/>
<stop offset="1" stop-color="#3777C5"/>
</radialGradient>
<radialGradient id="paint2_radial_129_105" cx="0" cy="0" r="1" gradientUnits="userSpaceOnUse" gradientTransform="translate(73.7639 26.249) scale(48.1031 48.3166)">
<stop stop-color="#90C643"/>
<stop offset="0.830933" stop-color="#5FB233"/>
<stop offset="1" stop-color="#5FB233"/>
</radialGradient>
<linearGradient id="paint3_linear_129_105" x1="85.261" y1="32.16" x2="88.6438" y2="34.9859" gradientUnits="userSpaceOnUse">
<stop stop-color="#4980CA"/>
<stop offset="1" stop-color="#63BBEB"/>
</linearGradient>
<linearGradient id="paint4_linear_129_105" x1="69.8813" y1="31.2668" x2="65.8794" y2="28.8978" gradientUnits="userSpaceOnUse">
<stop stop-color="#82C7EF"/>
<stop offset="1" stop-color="#3777C5"/>
</linearGradient>
<linearGradient id="paint5_linear_129_105" x1="96.9236" y1="25.1314" x2="108.593" y2="25.1314" gradientUnits="userSpaceOnUse">
<stop stop-color="#2F67AB"/>
<stop offset="1" stop-color="#2D61A2"/>
</linearGradient>
<linearGradient id="paint6_linear_129_105" x1="96.1875" y1="24.4939" x2="92.9796" y2="24.9033" gradientUnits="userSpaceOnUse">
<stop stop-color="#63BBEB"/>
<stop offset="1" stop-color="#3777C5"/>
</linearGradient>
<linearGradient id="paint7_linear_129_105" x1="105.285" y1="20.6893" x2="107.259" y2="20.853" gradientUnits="userSpaceOnUse">
<stop stop-color="#63BBEB"/>
<stop offset="1" stop-color="#2D61A2"/>
</linearGradient>
<linearGradient id="paint8_linear_129_105" x1="102.385" y1="24.5875" x2="101.381" y2="23.3378" gradientUnits="userSpaceOnUse">
<stop stop-color="#5AAAD7"/>
<stop offset="1" stop-color="#2F67AB"/>
</linearGradient>
<linearGradient id="paint9_linear_129_105" x1="119.957" y1="13.626" x2="121.439" y2="14.2408" gradientUnits="userSpaceOnUse">
<stop stop-color="#63BBEB"/>
<stop offset="1" stop-color="#2B5C99"/>
</linearGradient>
<linearGradient id="paint10_linear_129_105" x1="117.596" y1="20.3564" x2="112.775" y2="23.0642" gradientUnits="userSpaceOnUse">
<stop stop-color="#63BBEB"/>
<stop offset="1" stop-color="#2F67AB"/>
</linearGradient>
<linearGradient id="paint11_linear_129_105" x1="114.264" y1="21.2097" x2="114.797" y2="22.007" gradientUnits="userSpaceOnUse">
<stop stop-color="#63BBEB"/>
<stop offset="1" stop-color="#2B5C99"/>
</linearGradient>
<linearGradient id="paint12_linear_129_105" x1="45.6464" y1="31.9682" x2="50.2549" y2="31.9682" gradientUnits="userSpaceOnUse">
<stop stop-color="#AF0A55"/>
<stop offset="1" stop-color="#DB4990"/>
</linearGradient>
<linearGradient id="paint13_linear_129_105" x1="37.3283" y1="28.9111" x2="39.9047" y2="28.9111" gradientUnits="userSpaceOnUse">
<stop stop-color="#A2094D"/>
<stop offset="1" stop-color="#D73585"/>
</linearGradient>
<linearGradient id="paint14_linear_129_105" x1="12.1316" y1="51.3666" x2="13.2486" y2="52.973" gradientUnits="userSpaceOnUse">
<stop stop-color="#AF0A55"/>
<stop offset="1" stop-color="#DB4990"/>
</linearGradient>
<linearGradient id="paint15_linear_129_105" x1="23.1552" y1="26.7706" x2="27.6912" y2="30.2348" gradientUnits="userSpaceOnUse">
<stop stop-color="#A2094D"/>
<stop offset="1" stop-color="#DB4990"/>
</linearGradient>
<linearGradient id="paint16_linear_129_105" x1="19.8653" y1="44.1493" x2="24.2342" y2="41.523" gradientUnits="userSpaceOnUse">
<stop stop-color="#DB4990"/>
<stop offset="1" stop-color="#AF0A55"/>
</linearGradient>
<linearGradient id="paint17_linear_129_105" x1="18.7927" y1="32.5656" x2="19.8678" y2="34.0476" gradientUnits="userSpaceOnUse">
<stop stop-color="#DB4990"/>
<stop offset="1" stop-color="#AF0A55"/>
</linearGradient>
<linearGradient id="paint18_linear_129_105" x1="43.4876" y1="33.6746" x2="41.5732" y2="32.8753" gradientUnits="userSpaceOnUse">
<stop stop-color="#A2094D"/>
<stop offset="1" stop-color="#DF5E9C"/>
</linearGradient>
<linearGradient id="paint19_linear_129_105" x1="11.5303" y1="41.647" x2="13.3232" y2="42.6318" gradientUnits="userSpaceOnUse">
<stop stop-color="#DB4990"/>
<stop offset="1" stop-color="#A2094D"/>
</linearGradient>
<linearGradient id="paint20_linear_129_105" x1="63.4109" y1="35.94" x2="60.0185" y2="35.6944" gradientUnits="userSpaceOnUse">
<stop stop-color="#A2094D"/>
<stop offset="1" stop-color="#DF5E9C"/>
</linearGradient>
<linearGradient id="paint21_linear_129_105" x1="77.7816" y1="36.9488" x2="75.7278" y2="34.5944" gradientUnits="userSpaceOnUse">
<stop stop-color="#A2094D"/>
<stop offset="1" stop-color="#DB4990"/>
</linearGradient>
<linearGradient id="paint22_linear_129_105" x1="93.4624" y1="38.3119" x2="92.5331" y2="37.3867" gradientUnits="userSpaceOnUse">
<stop stop-color="#C01F6E"/>
<stop offset="1" stop-color="#D63384"/>
</linearGradient>
<linearGradient id="paint23_linear_129_105" x1="39.8894" y1="35.1568" x2="39.5162" y2="33.072" gradientUnits="userSpaceOnUse">
<stop stop-color="#DF5E9C"/>
<stop offset="1" stop-color="#A2094D"/>
</linearGradient>
<linearGradient id="paint24_linear_129_105" x1="95.7206" y1="47.806" x2="102.604" y2="39.3215" gradientUnits="userSpaceOnUse">
<stop stop-color="#DF5E9C"/>
<stop offset="1" stop-color="#A2094D"/>
</linearGradient>
<linearGradient id="paint25_linear_129_105" x1="93.4077" y1="43.117" x2="94.9709" y2="43.6571" gradientUnits="userSpaceOnUse">
<stop stop-color="#DF5E9C"/>
<stop offset="1" stop-color="#A2094D"/>
</linearGradient>
<linearGradient id="paint26_linear_129_105" x1="93.6602" y1="34.9465" x2="106.444" y2="34.9465" gradientUnits="userSpaceOnUse">
<stop stop-color="#C01F6E"/>
<stop offset="1" stop-color="#A2094D"/>
</linearGradient>
<linearGradient id="paint27_linear_129_105" x1="78.3761" y1="25.0146" x2="79.2426" y2="25.6925" gradientUnits="userSpaceOnUse">
<stop stop-color="#5FB233"/>
<stop offset="1" stop-color="#90C643"/>
</linearGradient>
<linearGradient id="paint28_linear_129_105" x1="68.2772" y1="12.9456" x2="69.9444" y2="12.3308" gradientUnits="userSpaceOnUse">
<stop stop-color="#5FB233"/>
<stop offset="1" stop-color="#90C643"/>
</linearGradient>
<linearGradient id="paint29_linear_129_105" x1="57.9248" y1="28.0038" x2="58.6943" y2="28.4149" gradientUnits="userSpaceOnUse">
<stop stop-color="#5FB233"/>
<stop offset="1" stop-color="#90C643"/>
</linearGradient>
<linearGradient id="paint30_linear_129_105" x1="70.7442" y1="25.1448" x2="71.733" y2="25.637" gradientUnits="userSpaceOnUse">
<stop stop-color="#5FB233"/>
<stop offset="1" stop-color="#90C643"/>
</linearGradient>
<linearGradient id="paint31_linear_129_105" x1="43.5217" y1="22.0914" x2="41.4546" y2="21.577" gradientUnits="userSpaceOnUse">
<stop stop-color="#5FB233"/>
<stop offset="1" stop-color="#90C643"/>
</linearGradient>
<linearGradient id="paint32_linear_129_105" x1="39.5017" y1="22.2558" x2="45.6525" y2="22.2558" gradientUnits="userSpaceOnUse">
<stop stop-color="#529B2B"/>
<stop offset="0.829666" stop-color="#5FB233"/>
<stop offset="1" stop-color="#5FB233"/>
</linearGradient>
<linearGradient id="paint33_linear_129_105" x1="25.2948" y1="17.2784" x2="36.3237" y2="17.2784" gradientUnits="userSpaceOnUse">
<stop stop-color="#529B2B"/>
<stop offset="0.039566" stop-color="#529B2B"/>
<stop offset="0.830933" stop-color="#5AAB30"/>
<stop offset="1" stop-color="#5AAB30"/>
</linearGradient>
<linearGradient id="paint34_linear_129_105" x1="41.8612" y1="21.8256" x2="59.7754" y2="21.8256" gradientUnits="userSpaceOnUse">
<stop stop-color="#90C643"/>
<stop offset="1" stop-color="#56A32E"/>
</linearGradient>
<linearGradient id="paint35_linear_129_105" x1="60.8463" y1="23.911" x2="65.0451" y2="20.2195" gradientUnits="userSpaceOnUse">
<stop stop-color="#56A32E"/>
<stop offset="0.5" stop-color="#83B43C"/>
<stop offset="1" stop-color="#5AAB30"/>
</linearGradient>
<linearGradient id="paint36_linear_129_105" x1="92.8422" y1="20.3939" x2="83.51" y2="17.5619" gradientUnits="userSpaceOnUse">
<stop stop-color="#56A32E"/>
<stop offset="0.298553" stop-color="#90C643"/>
<stop offset="0.664841" stop-color="#59A72F"/>
<stop offset="1" stop-color="#90C643"/>
</linearGradient>
<linearGradient id="paint37_linear_129_105" x1="75.3908" y1="17.6447" x2="79.4489" y2="17.6447" gradientUnits="userSpaceOnUse">
<stop stop-color="#5FB233"/>
<stop offset="1" stop-color="#90C643"/>
</linearGradient>
<linearGradient id="paint38_linear_129_105" x1="51.8798" y1="24.153" x2="53.7721" y2="26.6468" gradientUnits="userSpaceOnUse">
<stop stop-color="#56A32E"/>
<stop offset="0.494507" stop-color="#90C643"/>
<stop offset="1" stop-color="#90C643"/>
</linearGradient>
<linearGradient id="paint39_linear_129_105" x1="50.9965" y1="24.823" x2="52.8885" y2="27.3163" gradientUnits="userSpaceOnUse">
<stop stop-color="#5FB233"/>
<stop offset="1" stop-color="#90C643"/>
</linearGradient>
<linearGradient id="paint40_linear_129_105" x1="60.5244" y1="6.77008" x2="59.2546" y2="5.26346" gradientUnits="userSpaceOnUse">
<stop stop-color="#5FB233"/>
<stop offset="0.813187" stop-color="#9BCB52"/>
<stop offset="1" stop-color="#9BCB52"/>
</linearGradient>
<linearGradient id="paint41_linear_129_105" x1="45.4465" y1="8.70883" x2="45.0523" y2="7.79674" gradientUnits="userSpaceOnUse">
<stop stop-color="#5AAB30"/>
<stop offset="1" stop-color="#90C643"/>
</linearGradient>
<clipPath id="clip0_129_105">
<rect width="124" height="60" fill="white" transform="translate(0 3)"/>
</clipPath>
</defs>
</svg>
