<svg width="53" height="53" viewBox="0 0 53 53" fill="none" xmlns="http://www.w3.org/2000/svg">
<path d="M48.1818 0H4.81818C2.15614 0 0 2.15614 0 4.81818V48.1818C0 50.8439 2.15614 53 4.81818 53H48.1818C50.8439 53 53 50.8439 53 48.1818V4.81818C53 2.15614 50.8439 0 48.1818 0Z" fill="white"/>
<path d="M33.1162 15.3115H21.1582C18.4062 15.3115 16.1777 17.5279 16.1777 20.2381V32.0668C16.1777 34.789 18.4183 36.9933 21.1582 36.9933H33.1162C35.8682 36.9933 38.0967 34.777 38.0967 32.0668V20.2381C38.0967 17.5158 35.8561 15.3115 33.1162 15.3115ZM36.0996 32.0668C36.0996 33.6929 34.7601 35.0299 33.104 35.0299H21.146C19.5021 35.0299 18.1504 33.7049 18.1504 32.0668V20.2381C18.1504 18.612 19.4899 17.2749 21.146 17.2749H33.104C34.7479 17.2749 36.0996 18.5999 36.0996 20.2381V32.0668Z" fill="#566455"/>
<path d="M27.1367 21.2256C24.3847 21.2256 22.1562 23.4419 22.1562 26.1522C22.1562 28.8624 24.3968 31.0788 27.1367 31.0788C29.8766 31.0788 32.1172 28.8624 32.1172 26.1522C32.1172 23.4419 29.8766 21.2256 27.1367 21.2256ZM27.1367 29.1154C25.4928 29.1154 24.1411 27.7904 24.1411 26.1522C24.1411 24.514 25.4806 23.189 27.1367 23.189C28.7928 23.189 30.1323 24.514 30.1323 26.1522C30.1323 27.7904 28.7928 29.1154 27.1367 29.1154Z" fill="#566455"/>
<path d="M32.9214 21.5878C33.5738 21.5878 34.1026 21.0647 34.1026 20.4194C34.1026 19.7741 33.5738 19.251 32.9214 19.251C32.2691 19.251 31.7402 19.7741 31.7402 20.4194C31.7402 21.0647 32.2691 21.5878 32.9214 21.5878Z" fill="#566455"/>
</svg>
