<svg width="54" height="53" viewBox="0 0 54 53" fill="none" xmlns="http://www.w3.org/2000/svg">
<path d="M48.8486 0H5.48493C2.82288 0 0.666748 2.15614 0.666748 4.81818V48.1818C0.666748 50.8439 2.82288 53 5.48493 53H48.8486C51.5106 53 53.6667 50.8439 53.6667 48.1818V4.81818C53.6667 2.15614 51.5106 0 48.8486 0Z" fill="#4F6454"/>
<path d="M33.7837 15.3112H21.8257C19.0736 15.3112 16.8452 17.5276 16.8452 20.2378V32.0664C16.8452 34.7887 19.0858 36.993 21.8257 36.993H33.7837C36.5357 36.993 38.7641 34.7767 38.7641 32.0664V20.2378C38.7641 17.5155 36.5235 15.3112 33.7837 15.3112ZM36.7671 32.0664C36.7671 33.6926 35.4276 35.0296 33.7715 35.0296H21.8135C20.1696 35.0296 18.8179 33.7046 18.8179 32.0664V20.2378C18.8179 18.6117 20.1574 17.2746 21.8135 17.2746H33.7715C35.4154 17.2746 36.7671 18.5996 36.7671 20.2378V32.0664Z" fill="white"/>
<path d="M27.8047 21.2257C25.0526 21.2257 22.8242 23.442 22.8242 26.1523C22.8242 28.8625 25.0648 31.0788 27.8047 31.0788C30.5445 31.0788 32.7851 28.8625 32.7851 26.1523C32.7851 23.442 30.5445 21.2257 27.8047 21.2257ZM27.8047 29.1154C26.1608 29.1154 24.8091 27.7904 24.8091 26.1523C24.8091 24.5141 26.1486 23.1891 27.8047 23.1891C29.4608 23.1891 30.8003 24.5141 30.8003 26.1523C30.8003 27.7904 29.4608 29.1154 27.8047 29.1154Z" fill="white"/>
<path d="M33.5889 21.5871C34.2413 21.5871 34.7701 21.0639 34.7701 20.4186C34.7701 19.7734 34.2413 19.2502 33.5889 19.2502C32.9366 19.2502 32.4077 19.7734 32.4077 20.4186C32.4077 21.0639 32.9366 21.5871 33.5889 21.5871Z" fill="white"/>
</svg>
