<svg width="93" height="100" viewBox="0 0 93 100" fill="none" xmlns="http://www.w3.org/2000/svg">
<path d="M26.0154 37.8446C28.2086 39.0112 30.5185 39.8978 32.9217 40.4811C35.1849 41.0644 36.0715 41.0644 36.4215 41.1111C37.0281 41.1811 37.6581 41.2277 38.2647 41.2277C39.688 41.2277 41.6945 41.1577 44.7277 39.7811C45.8243 39.2678 46.8276 38.6145 47.7842 37.8679L50.1407 35.5347C50.934 34.5548 51.634 33.5048 52.1706 32.3382L52.3339 32.0116L52.5672 32.2915C52.7072 32.4782 52.9172 32.6182 53.1505 32.6882C53.5239 32.8049 53.9438 32.7349 54.2705 32.4782L59.3335 28.4418C59.5902 28.2318 59.7535 27.9518 59.7768 27.6485C59.8002 27.3218 59.7302 27.0185 59.5202 26.7619C59.1002 26.2486 58.3536 26.1552 57.8403 26.5752L54.1772 29.4917L53.5005 27.2052C53.3372 26.6685 52.8239 26.3185 52.2406 26.3419C51.6806 26.3885 51.214 26.8319 51.144 27.3918C50.724 30.8216 48.9974 33.9015 46.2909 36.0247C43.5611 38.1712 40.1779 39.1278 36.7481 38.7079C33.2483 38.2879 29.9352 37.2379 26.902 35.5814L26.552 35.3947L26.902 35.1847C29.8418 33.4348 32.2917 30.9616 34.0183 28.0218C35.3249 25.7819 37.2381 23.9387 39.548 22.7021C39.9913 22.4688 40.2479 21.9555 40.1779 21.4655C40.1079 20.9755 39.7113 20.5555 39.2213 20.4622L37.0281 20.0189L37.1448 19.7622C39.5713 13.9759 44.9377 9.93945 51.144 9.21616C51.6806 9.14616 52.1239 8.72618 52.1939 8.18955C52.2639 7.65291 51.9839 7.11627 51.4706 6.90629L50.1174 6.32298L51.5873 5.27304C56.8137 1.51658 63.8833 1.44659 69.203 5.08639L69.553 5.31971L69.1797 5.48303C57.3503 10.6627 47.0609 18.9223 39.408 29.375C39.2213 29.6317 39.1513 29.9583 39.198 30.2617C39.2446 30.5883 39.408 30.8683 39.688 31.055C40.2013 31.4283 40.9945 31.3116 41.3679 30.7983C48.7874 20.6255 58.7969 12.5993 70.3229 7.60625L70.6729 7.46625V7.83957C70.3929 11.5027 69.1797 15.0258 67.1498 18.0357C66.7765 18.5956 66.9164 19.3423 67.4531 19.7156C67.9897 20.0889 68.7597 19.9489 69.133 19.4123C71.6762 15.7025 73.0761 11.176 73.0994 6.67296V6.50964L73.2394 6.46298C76.2259 5.31971 79.3058 4.38642 82.4089 3.66313C82.7122 3.59314 82.9922 3.40648 83.1555 3.12649C83.3189 2.84651 83.3889 2.51986 83.2955 2.21654C83.2255 1.91323 83.0389 1.63324 82.7589 1.46992C82.4789 1.30659 82.1756 1.2366 81.849 1.32993C78.6058 2.07655 75.3626 3.07983 72.2362 4.26976L72.1195 4.31643L72.0262 4.2231C68.7363 1.42325 64.6532 0 60.5701 0C56.9537 0 53.3372 1.09661 50.234 3.33648L47.0375 5.62302C46.6876 5.87968 46.5009 6.29965 46.5476 6.71963C46.5709 6.97628 46.6876 7.2096 46.8509 7.39626L47.0842 7.65291L46.7576 7.76957C40.8546 9.82279 36.2115 14.6059 34.3449 20.5789C34.2516 20.9055 34.2749 21.2555 34.4616 21.5588C34.6249 21.8621 34.9282 22.0488 35.2549 22.1188L35.9315 22.2588L35.5582 22.5621C34.1349 23.7754 32.945 25.1986 31.9884 26.8085C30.0752 30.075 27.1353 32.6882 23.6588 34.1814C23.2622 34.3681 22.9822 34.7414 22.9355 35.1847C22.9355 35.3014 22.9822 35.418 23.0055 35.5347C23.5422 36.188 26.132 37.8679 26.132 37.8679L26.0154 37.8446Z" fill="#788E72"/>
<path d="M60.4067 24.2185C60.4067 24.9651 61.0134 25.5718 61.76 25.5718C62.5066 25.5718 63.1133 24.9651 63.1133 24.2185C63.1133 23.4719 62.5066 22.8652 61.76 22.8652C61.0134 22.8652 60.4067 23.4719 60.4067 24.2185Z" fill="#788E72"/>
<path d="M91.8349 74.7334H1.1666C0.513305 74.7334 0 75.2467 0 75.9C0 76.5533 0.536637 77.0666 1.1666 77.0666H91.8349C92.4882 77.0666 93.0015 76.5533 93.0015 75.9C93.0015 75.2467 92.4882 74.7334 91.8349 74.7334Z" fill="#788E72"/>
<path d="M1.1666 49.1613H91.8349C92.4882 49.1613 93.0015 48.648 93.0015 47.9947C93.0015 47.3414 92.4882 46.8281 91.8349 46.8281H1.1666C0.513305 46.8281 0 47.3414 0 47.9947C0 48.648 0.536637 49.1613 1.1666 49.1613Z" fill="#788E72"/>
<path d="M91.8349 69.8096H1.1666C0.513305 69.8096 0 70.3229 0 70.9762C0 71.6295 0.536637 72.1428 1.1666 72.1428H91.8349C92.4882 72.1428 93.0015 71.6295 93.0015 70.9762C93.0015 70.3229 92.4882 69.8096 91.8349 69.8096Z" fill="#788E72"/>
<path d="M7.86235 51.1436C5.85579 51.1436 4.19922 52.7768 4.19922 54.8067C4.19922 56.8366 5.83246 58.4698 7.86235 58.4698C9.89224 58.4698 11.5255 56.8366 11.5255 54.8067C11.5255 52.7768 9.89224 51.1436 7.86235 51.1436ZM7.86235 56.1133C7.13906 56.1133 6.55576 55.53 6.55576 54.8067C6.55576 54.0834 7.13906 53.5001 7.86235 53.5001C8.58564 53.5001 9.16894 54.0834 9.16894 54.8067C9.16894 55.53 8.58564 56.1133 7.86235 56.1133Z" fill="#788E72"/>
<path d="M23.3326 51.1436C21.326 51.1436 19.6694 52.7768 19.6694 54.8067C19.6694 56.8366 21.3027 58.4698 23.3326 58.4698C25.3625 58.4698 26.9957 56.8366 26.9957 54.8067C26.9957 52.7768 25.3625 51.1436 23.3326 51.1436ZM23.3326 56.1133C22.6093 56.1133 22.026 55.53 22.026 54.8067C22.026 54.0834 22.6093 53.5001 23.3326 53.5001C24.0559 53.5001 24.6392 54.0834 24.6392 54.8067C24.6392 55.53 24.0559 56.1133 23.3326 56.1133Z" fill="#788E72"/>
<path d="M42.4874 54.8067C42.4874 52.8001 40.8542 51.1436 38.8243 51.1436C36.7944 51.1436 35.1611 52.7768 35.1611 54.8067C35.1611 56.8366 36.7944 58.4698 38.8243 58.4698C40.8542 58.4698 42.4874 56.8366 42.4874 54.8067ZM37.5177 54.8067C37.5177 54.0834 38.101 53.5001 38.8243 53.5001C39.5476 53.5001 40.1309 54.0834 40.1309 54.8067C40.1309 55.53 39.5476 56.1133 38.8243 56.1133C38.101 56.1133 37.5177 55.53 37.5177 54.8067Z" fill="#788E72"/>
<path d="M54.3169 51.1436C52.3104 51.1436 50.6538 52.7768 50.6538 54.8067C50.6538 56.8366 52.2871 58.4698 54.3169 58.4698C56.3468 58.4698 57.9801 56.8366 57.9801 54.8067C57.9801 52.7768 56.3468 51.1436 54.3169 51.1436ZM54.3169 56.1133C53.5936 56.1133 53.0103 55.53 53.0103 54.8067C53.0103 54.0834 53.5936 53.5001 54.3169 53.5001C55.0402 53.5001 55.6235 54.0834 55.6235 54.8067C55.6235 55.53 55.0402 56.1133 54.3169 56.1133Z" fill="#788E72"/>
<path d="M73.4488 54.8067C73.4488 52.8001 71.8156 51.1436 69.7857 51.1436C67.7558 51.1436 66.1226 52.7768 66.1226 54.8067C66.1226 56.8366 67.7558 58.4698 69.7857 58.4698C71.8156 58.4698 73.4488 56.8366 73.4488 54.8067ZM68.4791 54.8067C68.4791 54.0834 69.0624 53.5001 69.7857 53.5001C70.509 53.5001 71.0923 54.0834 71.0923 54.8067C71.0923 55.53 70.509 56.1133 69.7857 56.1133C69.0624 56.1133 68.4791 55.53 68.4791 54.8067Z" fill="#788E72"/>
<path d="M85.2784 51.1436C83.2718 51.1436 81.6152 52.7768 81.6152 54.8067C81.6152 56.8366 83.2485 58.4698 85.2784 58.4698C87.3083 58.4698 88.9415 56.8366 88.9415 54.8067C88.9415 52.7768 87.3083 51.1436 85.2784 51.1436ZM85.2784 56.1133C84.5551 56.1133 83.9718 55.53 83.9718 54.8067C83.9718 54.0834 84.5551 53.5001 85.2784 53.5001C86.0017 53.5001 86.585 54.0834 86.585 54.8067C86.585 55.53 86.0017 56.1133 85.2784 56.1133Z" fill="#788E72"/>
<path d="M4.19922 64.2334C4.19922 66.24 5.83246 67.8966 7.86235 67.8966C9.89224 67.8966 11.5255 66.2633 11.5255 64.2334C11.5255 62.2036 9.89224 60.5703 7.86235 60.5703C5.83246 60.5703 4.19922 62.2036 4.19922 64.2334ZM9.16894 64.2334C9.16894 64.9567 8.58564 65.54 7.86235 65.54C7.13906 65.54 6.55576 64.9567 6.55576 64.2334C6.55576 63.5102 7.13906 62.9268 7.86235 62.9268C8.58564 62.9268 9.16894 63.5102 9.16894 64.2334Z" fill="#788E72"/>
<path d="M23.2388 60.5703C21.2323 60.5703 19.5757 62.2036 19.5757 64.2334C19.5757 66.2633 21.2089 67.8966 23.2388 67.8966C25.2687 67.8966 26.9019 66.2633 26.9019 64.2334C26.9019 62.2036 25.2687 60.5703 23.2388 60.5703ZM23.2388 65.54C22.5155 65.54 21.9322 64.9567 21.9322 64.2334C21.9322 63.5102 22.5155 62.9268 23.2388 62.9268C23.9621 62.9268 24.5454 63.5102 24.5454 64.2334C24.5454 64.9567 23.9621 65.54 23.2388 65.54Z" fill="#788E72"/>
<path d="M39.1285 67.8731C41.135 67.8731 42.7916 66.2399 42.7916 64.21C42.7916 62.1801 41.1584 60.5469 39.1285 60.5469C37.0986 60.5469 35.4653 62.1801 35.4653 64.21C35.4653 66.2399 37.0986 67.8731 39.1285 67.8731ZM39.1285 62.9267C39.8518 62.9267 40.4351 63.51 40.4351 64.2333C40.4351 64.9566 39.8518 65.5399 39.1285 65.5399C38.4052 65.5399 37.8219 64.9566 37.8219 64.2333C37.8219 63.51 38.4052 62.9267 39.1285 62.9267Z" fill="#788E72"/>
<path d="M54.3169 60.5703C52.3104 60.5703 50.6538 62.2036 50.6538 64.2334C50.6538 66.2633 52.2871 67.8966 54.3169 67.8966C56.3468 67.8966 57.9801 66.2633 57.9801 64.2334C57.9801 62.2036 56.3468 60.5703 54.3169 60.5703ZM54.3169 65.54C53.5936 65.54 53.0103 64.9567 53.0103 64.2334C53.0103 63.5102 53.5936 62.9268 54.3169 62.9268C55.0402 62.9268 55.6235 63.5102 55.6235 64.2334C55.6235 64.9567 55.0402 65.54 54.3169 65.54Z" fill="#788E72"/>
<path d="M70.043 67.8731C72.0496 67.8731 73.7061 66.2399 73.7061 64.21C73.7061 62.1801 72.0729 60.5469 70.043 60.5469C68.0131 60.5469 66.3799 62.1801 66.3799 64.21C66.3799 66.2399 68.0131 67.8731 70.043 67.8731ZM70.043 62.9267C70.7663 62.9267 71.3496 63.51 71.3496 64.2333C71.3496 64.9566 70.7663 65.5399 70.043 65.5399C69.3197 65.5399 68.7364 64.9566 68.7364 64.2333C68.7364 63.51 69.3197 62.9267 70.043 62.9267Z" fill="#788E72"/>
<path d="M85.2784 60.5703C83.2718 60.5703 81.6152 62.2036 81.6152 64.2334C81.6152 66.2633 83.2485 67.8966 85.2784 67.8966C87.3083 67.8966 88.9415 66.2633 88.9415 64.2334C88.9415 62.2036 87.3083 60.5703 85.2784 60.5703ZM85.2784 65.54C84.5551 65.54 83.9718 64.9567 83.9718 64.2334C83.9718 63.5102 84.5551 62.9268 85.2784 62.9268C86.0017 62.9268 86.585 63.5102 86.585 64.2334C86.585 64.9567 86.0017 65.54 85.2784 65.54Z" fill="#788E72"/>
<path d="M79.7956 81.8954C79.7956 81.8954 79.6089 81.8721 79.5389 81.8721C79.2823 81.8721 79.0256 81.9421 78.7923 82.1054C78.489 82.3154 78.279 82.6187 78.209 82.9687C78.139 83.3187 78.209 83.692 78.419 83.972C80.1456 86.5385 80.1456 89.8983 78.419 92.4648L74.7792 97.9012C74.5692 98.2045 74.4992 98.5545 74.5692 98.9045C74.6392 99.2544 74.8492 99.5578 75.1525 99.7677C75.7825 100.188 76.5991 100.024 77.0191 99.3944L80.6356 93.9581C82.9688 90.4583 82.9688 85.9552 80.6356 82.4554C80.4256 82.1521 80.1222 81.9654 79.7723 81.8954H79.7956Z" fill="#788E72"/>
<path d="M15.703 81.8954C15.703 81.8954 15.5163 81.8721 15.4463 81.8721C15.1897 81.8721 14.933 81.9421 14.6997 82.1054C14.3964 82.3154 14.2097 82.6187 14.1397 82.9687C14.0697 83.3187 14.1397 83.692 14.3497 83.972C16.0763 86.5618 16.0763 89.8983 14.3497 92.4648L10.7099 97.9012C10.2899 98.5078 10.4766 99.3478 11.0832 99.7677C11.3865 99.9544 11.7365 100.024 12.0865 99.9777C12.4365 99.9077 12.7398 99.6977 12.9498 99.3944L16.5896 93.9581C18.9228 90.4583 18.9228 85.9552 16.5896 82.4554C16.3796 82.1521 16.0763 81.9654 15.7263 81.8954H15.703Z" fill="#788E72"/>
<path d="M46.8046 82.106C46.1979 82.5259 46.0113 83.3659 46.4312 83.9725C48.1578 86.5624 48.1578 89.8989 46.4312 92.4654L42.7914 97.9018C42.3715 98.5317 42.5581 99.3484 43.1648 99.7683C43.4681 99.9783 43.8181 100.025 44.168 99.9783C44.518 99.9083 44.8213 99.6983 45.0313 99.395L48.6711 93.9587C51.0043 90.4588 51.0043 85.9558 48.6711 82.456C48.2511 81.826 47.4112 81.686 46.8046 82.0826V82.106Z" fill="#788E72"/>
<path d="M7.86328 30.9164C7.86328 33.4362 8.84323 35.8161 10.6398 37.5893C10.9664 37.916 11.2698 38.266 11.5264 38.6626C11.8997 39.1992 12.623 39.3626 13.183 38.9893C13.7196 38.6159 13.8829 37.8926 13.5096 37.3327C13.1597 36.8194 12.7863 36.3527 12.343 35.9094C11.0131 34.5795 10.2665 32.8063 10.2665 30.9164C10.2665 29.0265 11.0131 27.2532 12.343 25.9233L15.0962 23.1701V27.3932C15.0962 28.0465 15.6329 28.5832 16.2861 28.5832C16.9394 28.5832 17.4761 28.0465 17.4761 27.3932V20.3003C17.4761 19.647 16.9394 19.1104 16.2861 19.1104H9.19321C8.53991 19.1104 8.00327 19.647 8.00327 20.3003C8.00327 20.9536 8.53991 21.4902 9.19321 21.4902H13.4163L10.6631 24.2434C8.88989 26.04 7.88661 28.3965 7.88661 30.9164H7.86328Z" fill="#788E72"/>
<path d="M81.4287 30.9155C81.4287 33.4354 82.4087 35.8152 84.2052 37.5885C84.5319 37.9151 84.8352 38.2651 85.0918 38.6617C85.4652 39.1984 86.1884 39.3617 86.7484 38.9884C87.0051 38.8017 87.1917 38.5451 87.2617 38.2418C87.3317 37.9384 87.2617 37.6118 87.0751 37.3551C86.7251 36.8418 86.3518 36.3752 85.9085 35.9319C84.5785 34.602 83.8319 32.8287 83.8319 30.9388C83.8319 29.0489 84.5785 27.2757 85.9085 25.9458L88.6616 23.1926V27.4157C88.6616 28.069 89.1983 28.6056 89.8516 28.6056C90.5049 28.6056 91.0415 28.069 91.0415 27.4157V20.3227C91.0415 19.6694 90.5049 19.1328 89.8516 19.1328H82.7586C82.1053 19.1328 81.5687 19.6694 81.5687 20.3227C81.5687 20.976 82.1053 21.5127 82.7586 21.5127H86.9817L84.2285 24.2659C82.4553 26.0391 81.452 28.419 81.452 30.9388L81.4287 30.9155Z" fill="#788E72"/>
</svg>
