<svg width="122" height="120" viewBox="0 0 122 120" fill="none" xmlns="http://www.w3.org/2000/svg">
<path d="M2.69398 83.6882H118.399C119.004 83.6882 119.548 83.3238 119.79 82.7773C120.032 82.2308 119.941 81.5933 119.548 81.1378L100.884 60.128C100.612 59.794 100.188 59.6119 99.7648 59.6119H68.759C69.7875 58.3367 70.695 56.9705 71.3907 55.4524L71.6025 55.0273L71.905 55.3917C72.0865 55.6346 72.3587 55.8167 72.6612 55.9078C73.1452 56.0596 73.6897 55.9685 74.1132 55.6346L80.6773 50.3821C81.0101 50.1089 81.2218 49.7445 81.2521 49.3498C81.2823 48.9248 81.1916 48.5301 80.9193 48.1961C80.3748 47.5282 79.4069 47.4067 78.7414 47.9532L73.9922 51.7484L73.1149 48.773C72.9032 48.0747 72.2377 47.6193 71.4815 47.6496C70.7555 47.7103 70.1505 48.2872 70.0597 49.0159C69.5153 53.4789 67.2768 57.4866 63.7678 60.2494C60.2286 63.0427 55.8425 64.2875 51.3958 63.741C46.8583 63.1945 42.5629 61.8282 38.6305 59.6726L38.1767 59.4297L38.6305 59.1565C42.4419 56.8794 45.6181 53.6611 47.8566 49.8356C49.5505 46.921 52.031 44.5224 55.0257 42.9133C55.6005 42.6097 55.9332 41.9417 55.8424 41.3042C55.7517 40.6666 55.2375 40.1201 54.6022 39.9986L51.7588 39.4218L51.91 39.0878C55.056 31.5583 62.0134 26.3058 70.0597 25.3646C70.7555 25.2735 71.3302 24.727 71.421 24.0287C71.5117 23.3304 71.1487 22.6321 70.4832 22.3589L68.7288 21.5998L70.6345 20.2336C77.4104 15.3455 86.576 15.2544 93.4729 19.9907L93.9266 20.2943L93.4427 20.5068C78.1061 27.247 64.7661 37.9948 54.8442 51.5966C54.6022 51.9305 54.5115 52.3556 54.572 52.7503C54.6325 53.1753 54.8442 53.5397 55.2072 53.7825C55.8727 54.2683 56.9012 54.1165 57.3852 53.4486C67.0045 40.2112 79.9816 29.767 94.9249 23.2697L95.3786 23.0875V23.5733C95.0156 28.34 93.4427 32.9245 90.8109 36.8411C90.327 37.5697 90.5085 38.5413 91.2042 39.0271C91.8999 39.5129 92.8982 39.3307 93.3822 38.6324C96.6794 33.805 98.4943 27.9149 98.5246 22.0553V21.8427L98.7061 21.782C102.578 20.2943 106.571 19.0799 110.594 18.1387C110.987 18.0476 111.35 17.8047 111.562 17.4404C111.774 17.076 111.865 16.651 111.744 16.2563C111.653 15.8616 111.411 15.4973 111.048 15.2847C110.685 15.0722 110.292 14.9811 109.868 15.1026C105.663 16.0741 101.459 17.3796 97.4054 18.9281L97.2541 18.9888L97.1331 18.8673C92.8679 15.224 87.5742 13.372 82.2806 13.372C77.5919 13.372 72.9032 14.799 68.88 17.7136L64.7358 20.689C64.2821 21.023 64.0401 21.5695 64.1006 22.116C64.1308 22.4499 64.2821 22.7536 64.4938 22.9964L64.7963 23.3304L64.3728 23.4822C56.7197 26.154 50.7 32.378 48.2801 40.1504C48.1591 40.5755 48.1893 41.0309 48.4313 41.4256C48.6431 41.8203 49.0363 42.0632 49.4598 42.1543L50.337 42.3364L49.853 42.7311C48.0078 44.3099 46.4651 46.1619 45.2249 48.2568C42.7444 52.5074 38.933 55.9078 34.4258 57.8509C33.9115 58.0938 33.5485 58.5796 33.488 59.1565C33.488 59.3083 33.5485 59.4601 33.5788 59.6119H21.5092C21.0857 59.6119 20.6622 59.794 20.39 60.128L1.54449 81.1682C1.15125 81.6236 1.0605 82.2612 1.3025 82.8077C1.54449 83.3542 2.08898 83.7185 2.69398 83.7185V83.6882ZM22.0234 62.7087H37.481C40.3244 64.2267 43.3191 65.3805 46.4348 66.1395C46.4348 66.9592 47.1306 67.5968 47.9473 67.5968H48.2801C48.8851 67.5968 49.4295 67.2325 49.6413 66.7164C50.095 66.7771 50.5185 66.8985 50.9723 66.9592C51.7588 67.0503 52.5755 67.111 53.362 67.111C55.2072 67.111 57.0222 66.8378 58.7464 66.352C58.8674 67.0807 59.4724 67.6272 60.1984 67.6272H60.5311C61.3781 67.6272 62.0436 66.9592 62.0436 66.1091C62.0436 65.7752 61.9226 65.4716 61.7411 65.2287C63.1628 64.5607 64.4636 63.7106 65.7038 62.7391H99.0993L115.071 80.7128H6.05168L22.0234 62.7391V62.7087Z" fill="white"/>
<path d="M23.7174 64.5607H23.3847C22.5377 64.5607 21.8722 65.2287 21.8722 66.0788C21.8722 66.9289 22.5377 67.5968 23.3847 67.5968H23.7174C24.5644 67.5968 25.2299 66.9289 25.2299 66.0788C25.2299 65.2287 24.5644 64.5607 23.7174 64.5607Z" fill="white"/>
<path d="M18.8472 70.1775H18.5145C17.6675 70.1775 17.002 70.8455 17.002 71.6956C17.002 72.5457 17.6675 73.2136 18.5145 73.2136H18.8472C19.6942 73.2136 20.3597 72.5457 20.3597 71.6956C20.3597 70.8455 19.6942 70.1775 18.8472 70.1775Z" fill="white"/>
<path d="M13.9468 75.7943H13.6141C12.7671 75.7943 12.1016 76.4622 12.1016 77.3124C12.1016 78.1625 12.7671 78.8304 13.6141 78.8304H13.9468C14.7938 78.8304 15.4593 78.1625 15.4593 77.3124C15.4593 76.4622 14.7938 75.7943 13.9468 75.7943Z" fill="white"/>
<path d="M35.9987 64.5607H35.666C34.819 64.5607 34.1535 65.2287 34.1535 66.0788C34.1535 66.9289 34.819 67.5968 35.666 67.5968H35.9987C36.8457 67.5968 37.5112 66.9289 37.5112 66.0788C37.5112 65.2287 36.8457 64.5607 35.9987 64.5607Z" fill="white"/>
<path d="M32.7318 70.1775H32.399C31.5521 70.1775 30.8866 70.8455 30.8866 71.6956C30.8866 72.5457 31.5521 73.2136 32.399 73.2136H32.7318C33.5788 73.2136 34.2443 72.5457 34.2443 71.6956C34.2443 70.8455 33.5788 70.1775 32.7318 70.1775Z" fill="white"/>
<path d="M29.4648 75.7943H29.1321C28.2851 75.7943 27.6196 76.4622 27.6196 77.3124C27.6196 78.1625 28.2851 78.8304 29.1321 78.8304H29.4648C30.3118 78.8304 30.9773 78.1625 30.9773 77.3124C30.9773 76.4622 30.3118 75.7943 29.4648 75.7943Z" fill="white"/>
<path d="M46.6163 70.1775H46.2836C45.4366 70.1775 44.7711 70.8455 44.7711 71.6956C44.7711 72.5457 45.4366 73.2136 46.2836 73.2136H46.6163C47.4633 73.2136 48.1288 72.5457 48.1288 71.6956C48.1288 70.8455 47.4633 70.1775 46.6163 70.1775Z" fill="white"/>
<path d="M44.9829 75.7943H44.6501C43.8031 75.7943 43.1376 76.4622 43.1376 77.3124C43.1376 78.1625 43.8031 78.8304 44.6501 78.8304H44.9829C45.8298 78.8304 46.4953 78.1625 46.4953 77.3124C46.4953 76.4622 45.8298 75.7943 44.9829 75.7943Z" fill="white"/>
<path d="M60.5009 70.1775H60.1681C59.3211 70.1775 58.6557 70.8455 58.6557 71.6956C58.6557 72.5457 59.3211 73.2136 60.1681 73.2136H60.5009C61.3479 73.2136 62.0134 72.5457 62.0134 71.6956C62.0134 70.8455 61.3479 70.1775 60.5009 70.1775Z" fill="white"/>
<path d="M60.5009 75.7943H60.1681C59.3211 75.7943 58.6557 76.4622 58.6557 77.3124C58.6557 78.1625 59.3211 78.8304 60.1681 78.8304H60.5009C61.3479 78.8304 62.0134 78.1625 62.0134 77.3124C62.0134 76.4622 61.3479 75.7943 60.5009 75.7943Z" fill="white"/>
<path d="M97.2541 64.5607H96.9213C96.0744 64.5607 95.4089 65.2287 95.4089 66.0788C95.4089 66.9289 96.0744 67.5968 96.9213 67.5968H97.2541C98.1011 67.5968 98.7666 66.9289 98.7666 66.0788C98.7666 65.2287 98.1011 64.5607 97.2541 64.5607Z" fill="white"/>
<path d="M102.155 70.1775H101.822C100.975 70.1775 100.309 70.8455 100.309 71.6956C100.309 72.5457 100.975 73.2136 101.822 73.2136H102.155C103.002 73.2136 103.667 72.5457 103.667 71.6956C103.667 70.8455 103.002 70.1775 102.155 70.1775Z" fill="white"/>
<path d="M107.055 75.7943H106.722C105.875 75.7943 105.21 76.4622 105.21 77.3124C105.21 78.1625 105.875 78.8304 106.722 78.8304H107.055C107.902 78.8304 108.567 78.1625 108.567 77.3124C108.567 76.4622 107.902 75.7943 107.055 75.7943Z" fill="white"/>
<path d="M85.003 64.5607H84.6703C83.8233 64.5607 83.1578 65.2287 83.1578 66.0788C83.1578 66.9289 83.8233 67.5968 84.6703 67.5968H85.003C85.85 67.5968 86.5155 66.9289 86.5155 66.0788C86.5155 65.2287 85.85 64.5607 85.003 64.5607Z" fill="white"/>
<path d="M88.27 70.1775H87.9372C87.0902 70.1775 86.4248 70.8455 86.4248 71.6956C86.4248 72.5457 87.0902 73.2136 87.9372 73.2136H88.27C89.117 73.2136 89.7825 72.5457 89.7825 71.6956C89.7825 70.8455 89.117 70.1775 88.27 70.1775Z" fill="white"/>
<path d="M91.5067 75.7943H91.1739C90.3269 75.7943 89.6615 76.4622 89.6615 77.3124C89.6615 78.1625 90.3269 78.8304 91.1739 78.8304H91.5067C92.3537 78.8304 93.0192 78.1625 93.0192 77.3124C93.0192 76.4622 92.3537 75.7943 91.5067 75.7943Z" fill="white"/>
<path d="M74.2644 66.0788C74.2644 65.2287 73.5989 64.5607 72.752 64.5607H72.4192C71.5722 64.5607 70.9067 65.2287 70.9067 66.0788C70.9067 66.9289 71.5722 67.5968 72.4192 67.5968H72.752C73.5989 67.5968 74.2644 66.9289 74.2644 66.0788Z" fill="white"/>
<path d="M75.8677 71.6956C75.8677 70.8455 75.2022 70.1775 74.3552 70.1775H74.0224C73.1754 70.1775 72.51 70.8455 72.51 71.6956C72.51 72.5457 73.1754 73.2136 74.0224 73.2136H74.3552C75.2022 73.2136 75.8677 72.5457 75.8677 71.6956Z" fill="white"/>
<path d="M75.9887 75.7943H75.6559C74.8089 75.7943 74.1434 76.4622 74.1434 77.3124C74.1434 78.1625 74.8089 78.8304 75.6559 78.8304H75.9887C76.8356 78.8304 77.5011 78.1625 77.5011 77.3124C77.5011 76.4622 76.8356 75.7943 75.9887 75.7943Z" fill="white"/>
<path d="M2.51248 90.2462H119.488C120.335 90.2462 121 89.5782 121 88.7281C121 87.878 120.335 87.2101 119.488 87.2101H2.51248C1.66549 87.2101 1 87.878 1 88.7281C1 89.5782 1.66549 90.2462 2.51248 90.2462Z" fill="white"/>
<path d="M119.488 116.964H2.51248C1.66549 116.964 1 117.632 1 118.482C1 119.332 1.66549 120 2.51248 120H119.488C120.335 120 121 119.332 121 118.482C121 117.632 120.335 116.964 119.488 116.964Z" fill="white"/>
<path d="M11.1336 92.7965C8.53214 92.7965 6.41467 94.9218 6.41467 97.5328C6.41467 100.144 8.53214 102.269 11.1336 102.269C13.7351 102.269 15.8525 100.144 15.8525 97.5328C15.8525 94.9218 13.7351 92.7965 11.1336 92.7965ZM11.1336 99.233C10.1959 99.233 9.43963 98.474 9.43963 97.5328C9.43963 96.5916 10.1959 95.8326 11.1336 95.8326C12.0713 95.8326 12.8276 96.5916 12.8276 97.5328C12.8276 98.474 12.0713 99.233 11.1336 99.233Z" fill="white"/>
<path d="M31.0983 92.7965C28.4968 92.7965 26.3794 94.9218 26.3794 97.5328C26.3794 100.144 28.4968 102.269 31.0983 102.269C33.6998 102.269 35.8172 100.144 35.8172 97.5328C35.8172 94.9218 33.6998 92.7965 31.0983 92.7965ZM31.0983 99.233C30.1606 99.233 29.4043 98.474 29.4043 97.5328C29.4043 96.5916 30.1606 95.8326 31.0983 95.8326C32.036 95.8326 32.7923 96.5916 32.7923 97.5328C32.7923 98.474 32.036 99.233 31.0983 99.233Z" fill="white"/>
<path d="M55.8122 97.5328C55.8122 94.9218 53.6947 92.7965 51.0933 92.7965C48.4918 92.7965 46.3743 94.9218 46.3743 97.5328C46.3743 100.144 48.4918 102.269 51.0933 102.269C53.6947 102.269 55.8122 100.144 55.8122 97.5328ZM49.3993 97.5328C49.3993 96.5916 50.1555 95.8326 51.0933 95.8326C52.031 95.8326 52.7872 96.5916 52.7872 97.5328C52.7872 98.474 52.031 99.233 51.0933 99.233C50.1555 99.233 49.3993 98.474 49.3993 97.5328Z" fill="white"/>
<path d="M71.058 92.7965C68.4565 92.7965 66.3391 94.9218 66.3391 97.5328C66.3391 100.144 68.4565 102.269 71.058 102.269C73.6594 102.269 75.7769 100.144 75.7769 97.5328C75.7769 94.9218 73.6594 92.7965 71.058 92.7965ZM71.058 99.233C70.1202 99.233 69.364 98.474 69.364 97.5328C69.364 96.5916 70.1202 95.8326 71.058 95.8326C71.9957 95.8326 72.752 96.5916 72.752 97.5328C72.752 98.474 71.9957 99.233 71.058 99.233Z" fill="white"/>
<path d="M95.7416 97.5328C95.7416 94.9218 93.6242 92.7965 91.0227 92.7965C88.4212 92.7965 86.3038 94.9218 86.3038 97.5328C86.3038 100.144 88.4212 102.269 91.0227 102.269C93.6242 102.269 95.7416 100.144 95.7416 97.5328ZM89.359 97.5328C89.359 96.5916 90.1152 95.8326 91.0529 95.8326C91.9907 95.8326 92.7469 96.5916 92.7469 97.5328C92.7469 98.474 91.9907 99.233 91.0529 99.233C90.1152 99.233 89.359 98.474 89.359 97.5328Z" fill="white"/>
<path d="M111.018 92.7965C108.416 92.7965 106.299 94.9218 106.299 97.5328C106.299 100.144 108.416 102.269 111.018 102.269C113.619 102.269 115.737 100.144 115.737 97.5328C115.737 94.9218 113.619 92.7965 111.018 92.7965ZM111.018 99.233C110.08 99.233 109.324 98.474 109.324 97.5328C109.324 96.5916 110.08 95.8326 111.018 95.8326C111.955 95.8326 112.712 96.5916 112.712 97.5328C112.712 98.474 111.955 99.233 111.018 99.233Z" fill="white"/>
<path d="M6.41467 109.738C6.41467 112.349 8.53214 114.474 11.1336 114.474C13.7351 114.474 15.8525 112.349 15.8525 109.738C15.8525 107.127 13.7351 105.002 11.1336 105.002C8.53214 105.002 6.41467 107.127 6.41467 109.738ZM12.8276 109.738C12.8276 110.679 12.0713 111.438 11.1336 111.438C10.1959 111.438 9.43963 110.679 9.43963 109.738C9.43963 108.797 10.1959 108.038 11.1336 108.038C12.0713 108.038 12.8276 108.797 12.8276 109.738Z" fill="white"/>
<path d="M30.9773 105.002C28.3759 105.002 26.2584 107.127 26.2584 109.738C26.2584 112.349 28.3759 114.474 30.9773 114.474C33.5788 114.474 35.6962 112.349 35.6962 109.738C35.6962 107.127 33.5788 105.002 30.9773 105.002ZM30.9773 111.438C30.0396 111.438 29.2833 110.679 29.2833 109.738C29.2833 108.797 30.0396 108.038 30.9773 108.038C31.915 108.038 32.6713 108.797 32.6713 109.738C32.6713 110.679 31.915 111.438 30.9773 111.438Z" fill="white"/>
<path d="M51.4865 114.474C54.088 114.474 56.2054 112.349 56.2054 109.738C56.2054 107.127 54.088 105.002 51.4865 105.002C48.8851 105.002 46.7676 107.127 46.7676 109.738C46.7676 112.349 48.8851 114.474 51.4865 114.474ZM51.4865 108.038C52.4243 108.038 53.1805 108.797 53.1805 109.738C53.1805 110.679 52.4243 111.438 51.4865 111.438C50.5488 111.438 49.7925 110.679 49.7925 109.738C49.7925 108.797 50.5488 108.038 51.4865 108.038Z" fill="white"/>
<path d="M71.058 105.002C68.4565 105.002 66.3391 107.127 66.3391 109.738C66.3391 112.349 68.4565 114.474 71.058 114.474C73.6594 114.474 75.7769 112.349 75.7769 109.738C75.7769 107.127 73.6594 105.002 71.058 105.002ZM71.058 111.438C70.1202 111.438 69.364 110.679 69.364 109.738C69.364 108.797 70.1202 108.038 71.058 108.038C71.9957 108.038 72.752 108.797 72.752 109.738C72.752 110.679 71.9957 111.438 71.058 111.438Z" fill="white"/>
<path d="M91.3554 114.474C93.9569 114.474 96.0744 112.349 96.0744 109.738C96.0744 107.127 93.9569 105.002 91.3554 105.002C88.754 105.002 86.6365 107.127 86.6365 109.738C86.6365 112.349 88.754 114.474 91.3554 114.474ZM91.3554 108.038C92.2932 108.038 93.0494 108.797 93.0494 109.738C93.0494 110.679 92.2932 111.438 91.3554 111.438C90.4177 111.438 89.6615 110.679 89.6615 109.738C89.6615 108.797 90.4177 108.038 91.3554 108.038Z" fill="white"/>
<path d="M106.299 109.738C106.299 112.349 108.416 114.474 111.018 114.474C113.619 114.474 115.737 112.349 115.737 109.738C115.737 107.127 113.619 105.002 111.018 105.002C108.416 105.002 106.299 107.127 106.299 109.738ZM112.712 109.738C112.712 110.679 111.955 111.438 111.018 111.438C110.08 111.438 109.324 110.679 109.324 109.738C109.324 108.797 110.08 108.038 111.018 108.038C111.955 108.038 112.712 108.797 112.712 109.738Z" fill="white"/>
<path d="M82.0688 44.9475C82.0688 45.919 82.8553 46.7084 83.8233 46.7084C84.7913 46.7084 85.5778 45.919 85.5778 44.9475C85.5778 43.9759 84.7913 43.1865 83.8233 43.1865C82.8553 43.1865 82.0688 43.9759 82.0688 44.9475Z" fill="white"/>
<path d="M96.0744 49.4713C98.5246 49.4713 100.491 51.4751 100.491 53.904C100.491 54.7237 101.156 55.3917 101.973 55.3917C102.79 55.3917 103.455 54.7237 103.455 53.904C103.455 51.4447 105.452 49.4713 107.872 49.4713C108.688 49.4713 109.354 48.8033 109.354 47.9836C109.354 47.1638 108.688 46.4959 107.872 46.4959C105.421 46.4959 103.455 44.4921 103.455 42.0632C103.455 41.2434 102.79 40.5755 101.973 40.5755C101.156 40.5755 100.491 41.2434 100.491 42.0632C100.491 44.5224 98.4943 46.4959 96.0744 46.4959C95.2576 46.4959 94.5921 47.1638 94.5921 47.9836C94.5921 48.8033 95.2576 49.4713 96.0744 49.4713ZM101.973 46.4959C102.397 47.0728 102.881 47.5585 103.455 47.9836C102.881 48.4086 102.397 48.8944 101.973 49.4713C101.55 48.8944 101.066 48.4086 100.491 47.9836C101.066 47.5585 101.55 47.0728 101.973 46.4959Z" fill="white"/>
<path d="M29.9186 34.6551C32.3688 34.6551 34.335 36.6589 34.335 39.0878C34.335 39.9075 35.0005 40.5755 35.8172 40.5755C36.634 40.5755 37.2995 39.9075 37.2995 39.0878C37.2995 36.6286 39.2959 34.6551 41.7159 34.6551C42.5326 34.6551 43.1981 33.9871 43.1981 33.1674C43.1981 32.3476 42.5326 31.6797 41.7159 31.6797C39.2657 31.6797 37.2995 29.6759 37.2995 27.247C37.2995 26.4272 36.634 25.7593 35.8172 25.7593C35.0005 25.7593 34.335 26.4272 34.335 27.247C34.335 29.7062 32.3385 31.6797 29.9186 31.6797C29.1018 31.6797 28.4363 32.3476 28.4363 33.1674C28.4363 33.9871 29.1018 34.6551 29.9186 34.6551ZM35.8172 31.6797C36.2407 32.2566 36.7247 32.7423 37.2995 33.1674C36.7247 33.5924 36.2407 34.0782 35.8172 34.6551C35.3937 34.0782 34.9098 33.5924 34.335 33.1674C34.9098 32.7423 35.3937 32.2566 35.8172 31.6797Z" fill="white"/>
<path d="M108.053 34.6551H109.535V36.1428C109.535 36.9625 110.201 37.6305 111.018 37.6305C111.834 37.6305 112.5 36.9625 112.5 36.1428V34.6551H113.982C114.799 34.6551 115.464 33.9871 115.464 33.1674C115.464 32.3476 114.799 31.6797 113.982 31.6797H112.5V30.192C112.5 29.3723 111.834 28.7043 111.018 28.7043C110.201 28.7043 109.535 29.3723 109.535 30.192V31.6797H108.053C107.236 31.6797 106.571 32.3476 106.571 33.1674C106.571 33.9871 107.236 34.6551 108.053 34.6551Z" fill="white"/>
<path d="M43.8334 14.9204H45.3156V16.4081C45.3156 17.2278 45.9811 17.8958 46.7978 17.8958C47.6146 17.8958 48.2801 17.2278 48.2801 16.4081V14.9204H49.7623C50.579 14.9204 51.2445 14.2525 51.2445 13.4327C51.2445 12.613 50.579 11.945 49.7623 11.945H48.2801V10.4573C48.2498 9.66794 47.5843 9 46.7676 9C45.9508 9 45.2854 9.66794 45.2854 10.4877V11.9754H43.8031C42.9864 11.9754 42.3209 12.6433 42.3209 13.4631C42.3209 14.2828 42.9864 14.9508 43.8031 14.9508L43.8334 14.9204Z" fill="white"/>
<path d="M20.6017 19.3835H22.0839V20.8712C22.0839 21.6909 22.7494 22.3589 23.5662 22.3589C24.3829 22.3589 25.0484 21.6909 25.0484 20.8712V19.3835H26.5306C27.3474 19.3835 28.0129 18.7155 28.0129 17.8958C28.0129 17.076 27.3474 16.4081 26.5306 16.4081H25.0484V14.9204C25.0484 14.1007 24.3829 13.4327 23.5662 13.4327C22.7494 13.4327 22.0839 14.1007 22.0839 14.9204V16.4081H20.6017C19.785 16.4081 19.1195 17.076 19.1195 17.8958C19.1195 18.7155 19.785 19.3835 20.6017 19.3835Z" fill="white"/>
</svg>
