<svg width="53" height="53" viewBox="0 0 53 53" fill="none" xmlns="http://www.w3.org/2000/svg">
<path d="M48.1818 0H4.81818C2.15614 0 0 2.15614 0 4.81818V48.1818C0 50.8439 2.15614 53 4.81818 53H48.1818C50.8439 53 53 50.8439 53 48.1818V4.81818C53 2.15614 50.8439 0 48.1818 0Z" fill="white"/>
<path d="M18.9115 16.4883C17.572 16.4883 16.4883 17.5724 16.4883 18.8974C16.4883 20.2224 17.572 21.3065 18.9115 21.3065C20.251 21.3065 21.3348 20.2224 21.3348 18.8974C21.3348 17.5724 20.251 16.4883 18.9115 16.4883Z" fill="#566455"/>
<path d="M21.347 22.499H16.4883V35.7611H21.347V22.499Z" fill="#566455"/>
<path d="M32.7573 22.499C29.1529 22.499 28.6658 24.6431 28.6658 24.6431V22.5111H23.7949V35.7611H28.6658V28.5338C28.6658 28.5338 28.6658 26.1127 30.7359 26.1127C31.9049 26.1127 32.3189 27.1968 32.3189 28.5338V35.7611H37.1898V28.5338C37.1898 24.7636 35.5337 22.499 32.7573 22.499Z" fill="#566455"/>
</svg>
