<svg width="54" height="53" viewBox="0 0 54 53" fill="none" xmlns="http://www.w3.org/2000/svg">
<path d="M48.5151 0H5.15143C2.48939 0 0.333252 2.15614 0.333252 4.81818V48.1818C0.333252 50.8439 2.48939 53 5.15143 53H48.5151C51.1771 53 53.3333 50.8439 53.3333 48.1818V4.81818C53.3333 2.15614 51.1771 0 48.5151 0Z" fill="#4F6454"/>
<path d="M19.2455 16.4887C17.906 16.4887 16.8223 17.5728 16.8223 18.8978C16.8223 20.2228 17.906 21.3069 19.2455 21.3069C20.585 21.3069 21.6688 20.2228 21.6688 18.8978C21.6688 17.5728 20.585 16.4887 19.2455 16.4887Z" fill="white"/>
<path d="M21.6809 22.4992H16.8223V35.7613H21.6809V22.4992Z" fill="white"/>
<path d="M33.0911 22.4992C29.4866 22.4992 28.9995 24.6433 28.9995 24.6433V22.5113H24.1287V35.7613H28.9995V28.534C28.9995 28.534 28.9995 26.1129 31.0696 26.1129C32.2387 26.1129 32.6527 27.197 32.6527 28.534V35.7613H37.5236V28.534C37.5236 24.7638 35.8675 22.4992 33.0911 22.4992Z" fill="white"/>
</svg>
