<svg width="27" height="27" viewBox="0 0 27 27" fill="none" xmlns="http://www.w3.org/2000/svg">
<g clip-path="url(#clip0_124_1022)">
<path d="M20.2125 0.0107422H6.76606C3.04044 0.0107422 0 3.05119 0 6.7768V20.2447C0 23.9489 3.04044 26.9893 6.76606 26.9893H20.2339C23.9596 26.9893 27 23.9489 27 20.2233V6.7768C26.9786 3.05119 23.9381 0.0107422 20.2125 0.0107422ZM8.99286 21.8506H5.13878V10.7165H8.99286V21.8506ZM7.04441 9.0036C5.95242 9.0036 5.07454 8.12573 5.07454 7.03374C5.07454 5.94175 5.95242 5.06387 7.04441 5.06387C8.1364 5.06387 9.01427 5.94175 9.01427 7.03374C8.99286 8.12573 8.11499 9.0036 7.04441 9.0036ZM21.8612 21.8506H21.8398H18.6281V16.4548C18.6281 15.1487 18.4568 13.4786 16.6796 13.4786C14.8596 13.4786 14.5599 14.8918 14.5599 16.3692V21.8506H11.3481V10.7165H14.3458V12.2153H14.4314C14.9025 11.3589 15.9944 10.6951 17.7074 10.6951C21.2403 10.6951 21.8612 12.7292 21.8612 15.7483V21.8506Z" fill="#4F6454"/>
</g>
<defs>
<clipPath id="clip0_124_1022">
<rect width="27" height="27" fill="white"/>
</clipPath>
</defs>
</svg>
