<svg width="27" height="27" viewBox="0 0 27 27" fill="none" xmlns="http://www.w3.org/2000/svg">
<path d="M20.2125 0H6.76606C3.04044 0 0 3.04044 0 6.76606V20.2339C0 23.9381 3.04044 26.9786 6.76606 26.9786H20.2339C23.9596 26.9786 27 23.9381 27 20.2125V6.76606C26.9786 3.04044 23.9381 0 20.2125 0ZM8.99286 21.8398H5.13878V10.7058H8.99286V21.8398ZM7.04441 8.99286C5.95242 8.99286 5.07454 8.11499 5.07454 7.023C5.07454 5.93101 5.95242 5.05313 7.04441 5.05313C8.1364 5.05313 9.01427 5.93101 9.01427 7.023C8.99286 8.11499 8.11499 8.99286 7.04441 8.99286ZM21.8612 21.8398H21.8398H18.6281V16.4441C18.6281 15.138 18.4568 13.4679 16.6796 13.4679C14.8596 13.4679 14.5599 14.881 14.5599 16.3584V21.8398H11.3481V10.7058H14.3458V12.2046H14.4314C14.9025 11.3481 15.9944 10.6844 17.7074 10.6844C21.2403 10.6844 21.8612 12.7185 21.8612 15.7375V21.8398Z" fill="white"/>
</svg>
