<svg width="20" height="21" viewBox="0 0 20 21" fill="none" xmlns="http://www.w3.org/2000/svg">
<path d="M16.0696 0.015625H3.93043C2.8883 0.016546 1.88911 0.43094 1.15221 1.16784C0.415315 1.90474 0.00092102 2.90393 0 3.94606V16.0852C0.00092102 17.1273 0.415315 18.1265 1.15221 18.8634C1.88911 19.6003 2.8883 20.0147 3.93043 20.0156H16.0696C17.1117 20.0147 18.1109 19.6003 18.8478 18.8634C19.5847 18.1265 19.9991 17.1273 20 16.0852V3.94606C19.9991 2.90393 19.5847 1.90474 18.8478 1.16784C18.1109 0.43094 17.1117 0.016546 16.0696 0.015625ZM10.1948 16.2765C10.1703 16.304 10.1403 16.3259 10.1067 16.341C10.0732 16.3561 10.0368 16.3638 10 16.3638C9.96321 16.3638 9.92684 16.3561 9.89327 16.341C9.8597 16.3259 9.82969 16.304 9.80522 16.2765C9.62435 16.0748 5.33913 11.2678 5.33913 8.62432C5.33913 5.90084 7.42609 3.68171 10 3.68171C12.5739 3.68171 14.6609 5.88693 14.6609 8.62432C14.6609 11.2678 10.3757 16.0748 10.1948 16.2765Z" fill="white"/>
<path d="M10 10.1619C11.093 10.1619 11.9791 9.27584 11.9791 8.1828C11.9791 7.08975 11.093 6.20367 10 6.20367C8.90696 6.20367 8.02087 7.08975 8.02087 8.1828C8.02087 9.27584 8.90696 10.1619 10 10.1619Z" fill="white"/>
</svg>
