<svg width="27" height="27" viewBox="0 0 27 27" fill="none" xmlns="http://www.w3.org/2000/svg">
<path d="M0 13.1235C0 16.6041 1.38265 19.9421 3.84379 22.4033C6.30493 24.8644 9.64296 26.2471 13.1235 26.2471C16.6041 26.2471 19.9421 24.8644 22.4033 22.4033C24.8644 19.9421 26.2471 16.6041 26.2471 13.1235C26.2471 9.64296 24.8644 6.30493 22.4033 3.84379C19.9421 1.38265 16.6041 0 13.1235 0C9.64296 0 6.30493 1.38265 3.84379 3.84379C1.38265 6.30493 0 9.64296 0 13.1235Z" fill="#788E72"/>
<path d="M17.9201 8.5858C16.7121 7.02509 15.0874 6.25867 13.1346 6.20093C11.338 6.25244 9.82718 6.87843 8.62867 8.19702C7.42984 9.51593 6.94427 11.0347 7.0568 12.7798C7.14276 14.1285 7.60799 15.3536 8.29304 16.4977C9.28879 18.163 10.608 19.5193 12.1189 20.6867C12.3992 20.9012 12.7429 21.0165 13.0959 21.0144C13.4427 21.0181 13.7813 20.9085 14.0605 20.7024C14.3056 20.5151 14.5474 20.3278 14.7833 20.1312C15.8226 19.2729 16.7381 18.2749 17.5038 17.1656C18.5104 15.7017 19.177 14.1082 19.1833 12.2692C19.1839 10.9352 18.7397 9.63897 17.9205 8.58547L17.9201 8.5858ZM13.1366 14.9182C12.069 14.9291 11.1002 14.2949 10.6828 13.3116C10.2658 12.3286 10.483 11.1912 11.233 10.431C11.983 9.67079 13.1176 9.43818 14.1061 9.84172C15.0946 10.2449 15.7423 11.2053 15.7459 12.2732C15.7423 13.7184 14.5818 14.8949 13.1366 14.9182Z" fill="white"/>
</svg>
