<svg width="16" height="17" viewBox="0 0 16 17" fill="none" xmlns="http://www.w3.org/2000/svg">
<path d="M10.9942 0H5.00579C2.24117 0 0 2.24117 0 5.00579V11.3426C0 14.1072 2.24117 16.3484 5.00579 16.3484H10.9942C13.7588 16.3484 16 14.1072 16 11.3426V5.00579C16 2.24117 13.7588 0 10.9942 0Z" fill="#708266"/>
<path fill-rule="evenodd" clip-rule="evenodd" d="M5.6441 5.1266H10.5693C10.7486 5.1266 10.9036 5.1266 11.0305 5.13466C11.1654 5.14473 11.3003 5.16486 11.4332 5.21923C11.7332 5.34407 11.9708 5.58168 12.0956 5.8817C12.15 6.0146 12.1701 6.14951 12.1802 6.28442C12.1883 6.41329 12.1883 6.56632 12.1883 6.74553V10.0378C12.1883 10.217 12.1883 10.372 12.1802 10.4989C12.1701 10.6338 12.15 10.7687 12.0956 10.9016C11.9708 11.2016 11.7332 11.4392 11.4332 11.5641C11.3003 11.6184 11.1654 11.6386 11.0305 11.6486C10.9016 11.6567 10.7486 11.6567 10.5693 11.6567H5.6441C5.46489 11.6567 5.30984 11.6567 5.18299 11.6486C5.04807 11.6386 4.91316 11.6184 4.78027 11.5641C4.48024 11.4392 4.24264 11.2016 4.1178 10.9016C4.06343 10.7687 4.04329 10.6338 4.03322 10.4989C4.02517 10.37 4.02517 10.217 4.02517 10.0378V6.74553C4.02517 6.56632 4.02517 6.41128 4.03322 6.28442C4.04329 6.14951 4.06343 6.0146 4.1178 5.8817C4.24264 5.58168 4.48024 5.34407 4.78027 5.21923C4.91316 5.16486 5.04807 5.14473 5.18299 5.13466C5.31186 5.1266 5.46489 5.1266 5.6441 5.1266ZM4.96954 6.05487C5.11855 5.88573 5.37629 5.86761 5.54543 6.01661L7.8369 8.02215C7.98993 8.15706 8.22149 8.15706 8.37453 8.02215L10.666 6.01661C10.8351 5.86761 11.0929 5.88573 11.2419 6.05487C11.3909 6.22401 11.3728 6.48175 11.2036 6.63076L8.91216 8.63629C8.45104 9.04103 7.76038 9.04103 7.29927 8.63629L5.0078 6.63076C4.83866 6.48175 4.82054 6.22401 4.96954 6.05487Z" fill="white"/>
</svg>
