<svg width="20" height="20" viewBox="0 0 20 20" fill="none" xmlns="http://www.w3.org/2000/svg">
<g clip-path="url(#clip0_4_7455)">
<path d="M13.4499 0H6.12391C2.74177 0 0 2.74177 0 6.12391V13.8761C0 17.2582 2.74177 20 6.12391 20H13.4499C16.8321 20 19.5738 17.2582 19.5738 13.8761V6.12391C19.5738 2.74177 16.8321 0 13.4499 0Z" fill="white"/>
<path fill-rule="evenodd" clip-rule="evenodd" d="M6.90437 6.27173H12.9297C13.149 6.27173 13.3387 6.27173 13.4938 6.28158C13.6589 6.2939 13.8239 6.31853 13.9865 6.38504C14.3536 6.53777 14.6442 6.82845 14.797 7.19549C14.8635 7.35807 14.8881 7.52311 14.9004 7.68816C14.9103 7.84581 14.9103 8.03303 14.9103 8.25227V12.2799C14.9103 12.4991 14.9103 12.6888 14.9004 12.844C14.8881 13.009 14.8635 13.1741 14.797 13.3366C14.6442 13.7037 14.3536 13.9944 13.9865 14.1471C13.8239 14.2136 13.6589 14.2382 13.4938 14.2505C13.3362 14.2604 13.149 14.2604 12.9297 14.2604H6.90437C6.68513 14.2604 6.49545 14.2604 6.34026 14.2505C6.17521 14.2382 6.01017 14.2136 5.84759 14.1471C5.48055 13.9944 5.18987 13.7037 5.03714 13.3366C4.97063 13.1741 4.946 13.009 4.93368 12.844C4.92383 12.6863 4.92383 12.4991 4.92383 12.2799V8.25227C4.92383 8.03303 4.92383 7.84335 4.93368 7.68816C4.946 7.52311 4.97063 7.35807 5.03714 7.19549C5.18987 6.82845 5.48055 6.53777 5.84759 6.38504C6.01017 6.31853 6.17521 6.2939 6.34026 6.28158C6.49791 6.27173 6.68513 6.27173 6.90437 6.27173ZM6.07914 7.40734C6.26143 7.20041 6.57674 7.17824 6.78366 7.36053L9.58696 9.81404C9.77418 9.97908 10.0575 9.97908 10.2447 9.81404L13.048 7.36053C13.2549 7.17824 13.5702 7.20041 13.7525 7.40734C13.9348 7.61426 13.9126 7.92957 13.7057 8.11186L10.9024 10.5654C10.3383 11.0605 9.49336 11.0605 8.92925 10.5654L6.12595 8.11186C5.91902 7.92957 5.89685 7.61426 6.07914 7.40734Z" fill="#708266"/>
</g>
<defs>
<clipPath id="clip0_4_7455">
<rect width="19.5738" height="20" fill="white"/>
</clipPath>
</defs>
</svg>
