<svg width="68" height="61" viewBox="0 0 68 61" fill="none" xmlns="http://www.w3.org/2000/svg">
<path d="M58.1695 7.45203L51.7519 11.159C50.5318 10.2734 49.2226 9.51689 47.8444 8.9016V1.4893C47.8444 0.71357 47.2163 0.0854492 46.4406 0.0854492H37.6597C36.884 0.0854492 36.2559 0.71357 36.2559 1.4893C36.2559 2.26502 36.884 2.89314 37.6597 2.89314H45.0359V9.83376C45.0359 10.4105 45.3881 10.9288 45.9239 11.1405C47.6719 11.8296 49.302 12.7714 50.7708 13.9402C51.2225 14.3004 51.849 14.3477 52.3471 14.0573L58.3572 10.5854L64.4571 21.1391L58.4374 24.6175C57.9393 24.9038 57.6673 25.467 57.7508 26.0357C57.908 27.1139 57.981 28.0035 57.981 28.8386C57.981 29.7644 57.8976 30.723 57.7163 31.8525C57.6256 32.4212 57.8919 32.9884 58.3877 33.2812L64.3665 36.8221L58.1527 47.3084L52.1731 43.7627C51.6757 43.4699 51.0484 43.5076 50.5911 43.8662C49.1825 44.9692 47.6118 45.8685 45.9215 46.5375C45.3865 46.7509 45.0359 47.2675 45.0359 47.8427V54.7801H37.6597C36.884 54.7801 36.2559 55.4082 36.2559 56.1839C36.2559 56.9597 36.884 57.5878 37.6597 57.5878H46.4398C47.2155 57.5878 47.8436 56.9597 47.8436 56.1839V48.7732C49.1512 48.1884 50.3914 47.4793 51.5466 46.6562L57.9288 50.4386C58.2497 50.6295 58.6332 50.6849 58.9925 50.5902C59.3527 50.498 59.6624 50.2661 59.8525 49.9461L67.4983 37.0451C67.6876 36.7242 67.7429 36.3416 67.6499 35.9814C67.5576 35.6196 67.3258 35.3108 67.0049 35.1214L60.6234 31.3423C60.7341 30.4526 60.7879 29.6272 60.7879 28.8378C60.7879 28.1295 60.7437 27.3947 60.6515 26.5804L67.0763 22.8687C67.3988 22.6826 67.6338 22.3753 67.7301 22.0151C67.8264 21.6565 67.7758 21.2723 67.5897 20.9498L60.0843 7.96544C59.6985 7.2948 58.8401 7.06457 58.1695 7.45203Z" fill="white"/>
<path d="M38.9408 36.5512H37.6757C36.9 36.5512 36.2719 37.1793 36.2719 37.955C36.2719 38.7307 36.9 39.3589 37.6757 39.3589H38.9408C44.7415 39.3589 49.4616 34.6395 49.4616 28.8388C49.4616 23.0373 44.7415 18.3164 38.9408 18.3164H37.6597C36.884 18.3164 36.2559 18.9445 36.2559 19.7203C36.2559 20.496 36.884 21.1241 37.6597 21.1241H38.9408C43.1941 21.1241 46.6539 24.5848 46.6539 28.8388C46.6539 33.0913 43.1941 36.5512 38.9408 36.5512Z" fill="white"/>
<path d="M22.9627 57.474H22.9643C25.3814 57.474 27.723 57.0336 29.9362 56.1736L34.2352 60.418C34.5088 60.6892 34.8649 60.8239 35.2211 60.8239C35.5829 60.8239 35.9455 60.6844 36.2199 60.406C36.7654 59.8541 36.7589 58.966 36.207 58.4206L32.8747 55.1299C32.9445 54.9639 32.9838 54.7802 32.9838 54.5877V11.0195C32.9838 10.2438 32.3557 9.61564 31.5799 9.61564C30.8042 9.61564 30.1761 10.2438 30.1761 11.0195V25.1751L22.5857 18.784C21.9929 18.2842 21.1081 18.3628 20.6075 18.9548C20.1085 19.5469 20.1847 20.4325 20.7776 20.9322L29.9667 28.6694C30.0309 28.7224 30.1063 28.7497 30.1761 28.7898V37.3468C29.3258 35.9005 28.299 34.5423 27.0804 33.323C23.6061 29.8511 18.4303 27.1597 13.3612 26.0069C13.5465 16.2988 20.6981 7.47939 31.2952 3.9778C32.0316 3.73313 32.4311 2.94055 32.188 2.20414C31.9441 1.46772 31.1492 1.06983 30.4144 1.31129C18.8322 5.13777 10.957 14.7986 10.5551 25.528C9.76659 25.4406 8.98765 25.3917 8.22877 25.3917C6.05722 25.3917 4.10949 25.7599 2.44011 26.4899C2.11603 26.6311 1.85611 26.891 1.71493 27.2151C-1.41685 34.4028 2.86768 45.6151 8.83443 51.5762C12.6393 55.3794 17.6562 57.474 22.9627 57.474ZM4.08382 28.8556C5.28471 28.42 6.67652 28.1994 8.23038 28.1994C13.8811 28.1994 20.9741 31.1883 25.0958 35.31C29.4886 39.6989 31.15 46.1116 29.5688 51.865L20.2096 42.6237L20.1494 35.9165C20.1422 35.1424 19.5197 34.5391 18.7328 34.5255C17.957 34.5335 17.3345 35.1664 17.3417 35.9422L17.377 39.828L12.8687 35.3766C12.3176 34.8311 11.4279 34.8359 10.8832 35.3895C10.3378 35.9414 10.3442 36.8294 10.8961 37.3749L17.7364 44.1294C17.795 44.2 17.86 44.2642 17.9322 44.3219L20.3829 46.7414L13.6187 46.0787C12.831 46.0017 12.1603 46.5673 12.0849 47.3382C12.0087 48.1091 12.5727 48.7966 13.3444 48.872L23.5548 49.8715L27.7069 53.97C26.182 54.4288 24.5952 54.6655 22.9651 54.6655C22.9643 54.6655 22.9643 54.6655 22.9635 54.6655C18.4063 54.6655 14.0944 52.8637 10.8215 49.5892C5.76282 44.5369 1.87858 34.9418 4.08382 28.8556Z" fill="white"/>
</svg>
