<svg width="52" height="48" viewBox="0 0 52 48" fill="none" xmlns="http://www.w3.org/2000/svg">
<path d="M47.3979 47H0.602107C0.264927 47 0 46.7369 0 46.4021C0 46.0673 0.264927 45.8042 0.602107 45.8042H47.3979C47.7351 45.8042 48 46.0673 48 46.4021C48 46.7369 47.7351 47 47.3979 47Z" fill="#4F6454"/>
<path d="M47.3979 32.6983H0.602107C0.264927 32.6983 0 32.4233 0 32.0885C0 31.7537 0.264927 31.4906 0.602107 31.4906H47.3979C47.7351 31.4906 48 31.7537 48 32.0885C48 32.4233 47.7351 32.6864 47.3979 32.6864V32.6983Z" fill="#4F6454"/>
<path d="M47.3979 44.4769H0.602107C0.264927 44.4769 0 44.2138 0 43.879C0 43.5442 0.264927 43.2811 0.602107 43.2811H47.3979C47.7351 43.2811 48 43.5442 48 43.879C48 44.2138 47.7351 44.4769 47.3979 44.4769Z" fill="#4F6454"/>
<path d="M4.05808 37.4578C3.02245 37.4578 2.16746 36.6208 2.16746 35.5805C2.16746 34.5401 3.01041 33.7031 4.05808 33.7031C5.10574 33.7031 5.94869 34.5401 5.94869 35.5805C5.94869 36.6208 5.10574 37.4578 4.05808 37.4578ZM4.05808 34.9108C3.68477 34.9108 3.38372 35.2098 3.38372 35.5805C3.38372 35.9512 3.68477 36.2501 4.05808 36.2501C4.43138 36.2501 4.73244 35.9512 4.73244 35.5805C4.73244 35.2098 4.43138 34.9108 4.05808 34.9108Z" fill="#4F6454"/>
<path d="M12.0421 37.4578C11.0065 37.4578 10.1515 36.6208 10.1515 35.5805C10.1515 34.5401 10.9944 33.7031 12.0421 33.7031C13.0898 33.7031 13.9327 34.5401 13.9327 35.5805C13.9327 36.6208 13.0898 37.4578 12.0421 37.4578ZM12.0421 34.9108C11.6688 34.9108 11.3678 35.2098 11.3678 35.5805C11.3678 35.9512 11.6688 36.2501 12.0421 36.2501C12.4154 36.2501 12.7165 35.9512 12.7165 35.5805C12.7165 35.2098 12.4154 34.9108 12.0421 34.9108Z" fill="#4F6454"/>
<path d="M20.0384 37.4578C19.0028 37.4578 18.1478 36.6208 18.1478 35.5805C18.1478 34.5401 18.9907 33.7031 20.0384 33.7031C21.086 33.7031 21.929 34.5401 21.929 35.5805C21.929 36.6208 21.086 37.4578 20.0384 37.4578ZM20.0384 34.9108C19.6651 34.9108 19.364 35.2098 19.364 35.5805C19.364 35.9512 19.6651 36.2501 20.0384 36.2501C20.4117 36.2501 20.7127 35.9512 20.7127 35.5805C20.7127 35.2098 20.4117 34.9108 20.0384 34.9108Z" fill="#4F6454"/>
<path d="M28.0336 37.4578C26.998 37.4578 26.143 36.6208 26.143 35.5805C26.143 34.5401 26.986 33.7031 28.0336 33.7031C29.0813 33.7031 29.9242 34.5401 29.9242 35.5805C29.9242 36.6208 29.0813 37.4578 28.0336 37.4578ZM28.0336 34.9108C27.6603 34.9108 27.3593 35.2098 27.3593 35.5805C27.3593 35.9512 27.6603 36.2501 28.0336 36.2501C28.4069 36.2501 28.708 35.9512 28.708 35.5805C28.708 35.2098 28.4069 34.9108 28.0336 34.9108Z" fill="#4F6454"/>
<path d="M36.0177 37.4578C34.982 37.4578 34.127 36.6208 34.127 35.5805C34.127 34.5401 34.97 33.7031 36.0177 33.7031C37.0653 33.7031 37.9083 34.5401 37.9083 35.5805C37.9083 36.6208 37.0653 37.4578 36.0177 37.4578ZM36.0177 34.9108C35.6443 34.9108 35.3433 35.2098 35.3433 35.5805C35.3433 35.9512 35.6443 36.2501 36.0177 36.2501C36.391 36.2501 36.692 35.9512 36.692 35.5805C36.692 35.2098 36.391 34.9108 36.0177 34.9108Z" fill="#4F6454"/>
<path d="M44.0139 37.4578C42.9783 37.4578 42.1233 36.6208 42.1233 35.5805C42.1233 34.5401 42.9663 33.7031 44.0139 33.7031C45.0616 33.7031 45.9045 34.5401 45.9045 35.5805C45.9045 36.6208 45.0616 37.4578 44.0139 37.4578ZM44.0139 34.9108C43.6406 34.9108 43.3396 35.2098 43.3396 35.5805C43.3396 35.9512 43.6406 36.2501 44.0139 36.2501C44.3872 36.2501 44.6883 35.9512 44.6883 35.5805C44.6883 35.2098 44.3872 34.9108 44.0139 34.9108Z" fill="#4F6454"/>
<path d="M4.05808 42.2886C3.02245 42.2886 2.16746 41.4515 2.16746 40.4112C2.16746 39.3709 3.01041 38.5338 4.05808 38.5338C5.10574 38.5338 5.94869 39.3709 5.94869 40.4112C5.94869 41.4515 5.10574 42.2886 4.05808 42.2886ZM4.05808 39.7416C3.68477 39.7416 3.38372 40.0405 3.38372 40.4112C3.38372 40.7819 3.68477 41.0808 4.05808 41.0808C4.43138 41.0808 4.73244 40.7819 4.73244 40.4112C4.73244 40.0405 4.43138 39.7416 4.05808 39.7416Z" fill="#4F6454"/>
<path d="M11.9942 42.2886C10.9586 42.2886 10.1036 41.4515 10.1036 40.4112C10.1036 39.3709 10.9466 38.5338 11.9942 38.5338C13.0419 38.5338 13.8848 39.3709 13.8848 40.4112C13.8848 41.4515 13.0419 42.2886 11.9942 42.2886ZM11.9942 39.7416C11.6209 39.7416 11.3199 40.0405 11.3199 40.4112C11.3199 40.7819 11.6209 41.0808 11.9942 41.0808C12.3675 41.0808 12.6686 40.7819 12.6686 40.4112C12.6686 40.0405 12.3675 39.7416 11.9942 39.7416Z" fill="#4F6454"/>
<path d="M20.1943 42.2886C19.1587 42.2886 18.3037 41.4515 18.3037 40.4112C18.3037 39.3709 19.1466 38.5338 20.1943 38.5338C21.242 38.5338 22.0849 39.3709 22.0849 40.4112C22.0849 41.4515 21.242 42.2886 20.1943 42.2886ZM20.1943 39.7416C19.821 39.7416 19.5199 40.0405 19.5199 40.4112C19.5199 40.7819 19.821 41.0808 20.1943 41.0808C20.5676 41.0808 20.8686 40.7819 20.8686 40.4112C20.8686 40.0405 20.5676 39.7416 20.1943 39.7416Z" fill="#4F6454"/>
<path d="M28.0336 42.2886C26.998 42.2886 26.143 41.4515 26.143 40.4112C26.143 39.3709 26.986 38.5338 28.0336 38.5338C29.0813 38.5338 29.9242 39.3709 29.9242 40.4112C29.9242 41.4515 29.0813 42.2886 28.0336 42.2886ZM28.0336 39.7416C27.6603 39.7416 27.3593 40.0405 27.3593 40.4112C27.3593 40.7819 27.6603 41.0808 28.0336 41.0808C28.4069 41.0808 28.708 40.7819 28.708 40.4112C28.708 40.0405 28.4069 39.7416 28.0336 39.7416Z" fill="#4F6454"/>
<path d="M36.1501 42.2886C35.1145 42.2886 34.2595 41.4515 34.2595 40.4112C34.2595 39.3709 35.1025 38.5338 36.1501 38.5338C37.1978 38.5338 38.0407 39.3709 38.0407 40.4112C38.0407 41.4515 37.1978 42.2886 36.1501 42.2886ZM36.1501 39.7416C35.7768 39.7416 35.4758 40.0405 35.4758 40.4112C35.4758 40.7819 35.7768 41.0808 36.1501 41.0808C36.5234 41.0808 36.8245 40.7819 36.8245 40.4112C36.8245 40.0405 36.5234 39.7416 36.1501 39.7416Z" fill="#4F6454"/>
<path d="M44.0139 42.2886C42.9783 42.2886 42.1233 41.4515 42.1233 40.4112C42.1233 39.3709 42.9663 38.5338 44.0139 38.5338C45.0616 38.5338 45.9045 39.3709 45.9045 40.4112C45.9045 41.4515 45.0616 42.2886 44.0139 42.2886ZM44.0139 39.7416C43.6406 39.7416 43.3396 40.0405 43.3396 40.4112C43.3396 40.7819 43.6406 41.0808 44.0139 41.0808C44.3872 41.0808 44.6883 40.7819 44.6883 40.4112C44.6883 40.0405 44.3872 39.7416 44.0139 39.7416Z" fill="#4F6454"/>
<path d="M17.5845 14.3525C17.6277 14.9535 17.4981 15.5401 16.9073 15.955C16.8353 15.9979 16.8785 16.2268 16.9073 16.3556C17.1379 17.1854 17.3828 18.0153 17.6133 18.8451C18.0312 20.3188 17.1667 21.6208 15.625 21.678C13.7375 21.7496 11.8499 21.7496 9.96243 21.678C8.42072 21.6208 7.5418 20.3331 7.94524 18.8594C8.17578 18.0296 8.40631 17.1998 8.66566 16.3699C8.73771 16.1124 8.69448 15.9836 8.52158 15.769C8.27663 15.4828 8.0461 15.0822 8.0461 14.7389C8.00287 12.4783 8.00287 10.2177 8.0461 7.95706C8.0461 7.59937 8.30545 7.22737 8.52158 6.92691C8.66566 6.74092 8.75212 6.62645 8.68007 6.38323C8.42072 5.52477 8.17578 4.66632 7.94524 3.80786C7.55621 2.3628 8.47835 1.07511 9.97684 1.03219C11.8499 0.989269 13.723 0.989269 15.5962 1.03219C17.109 1.06081 18.0456 2.3771 17.6422 3.83648C17.4116 4.66632 17.1811 5.49616 16.9217 6.31169C16.8353 6.56922 16.8353 6.75522 17.0946 6.94122C17.5845 7.29891 17.5989 7.8426 17.5701 8.42921C17.7286 8.42921 17.8727 8.45782 18.0168 8.45782C21.0858 8.34336 24.1692 8.2289 27.2382 8.11444C29.5148 8.0286 31.7769 7.94275 34.0534 7.87121C34.745 7.85691 35.1773 8.47213 34.8171 8.9729C34.673 9.1732 34.356 9.33059 34.1255 9.34489C31.6472 9.45935 29.1834 9.55951 26.7051 9.64535C23.7946 9.75981 20.8841 9.85997 17.988 9.96012C17.8727 9.96012 17.7574 9.98874 17.6133 10.003V12.6929C17.7862 12.6929 17.9591 12.7358 18.132 12.7358C23.8954 12.9504 29.6588 13.1507 35.4366 13.3653C37.2089 13.4226 38.9811 13.5084 40.7534 13.5656C41.8052 13.5942 42.223 13.1936 42.2375 12.1492C42.2375 11.5912 42.2375 11.0189 42.2375 10.4609C42.223 9.5452 41.7764 9.11597 40.8686 9.14459C39.8889 9.1732 38.8947 9.21613 37.9149 9.24474C37.5403 9.25905 37.2233 9.1589 37.0504 8.7869C36.8487 8.34336 37.0936 7.79968 37.5979 7.77106C38.8515 7.68521 40.105 7.58506 41.3585 7.6566C42.6697 7.72814 43.6063 8.64382 43.7503 9.94581C43.8512 10.8901 43.8512 11.8773 43.7503 12.8216C43.5774 14.2238 42.3959 15.1538 40.9839 15.1108C37.2521 14.9821 33.5347 14.8247 29.8029 14.6816C26.7483 14.5672 23.6793 14.4527 20.6247 14.3525C19.6449 14.3239 18.6652 14.3525 17.6422 14.3525H17.5845ZM9.5734 14.5672H16.0284V8.20029H9.5734V14.5672ZM12.8009 6.62645C13.5069 6.62645 14.1985 6.62645 14.9045 6.62645C15.0486 6.62645 15.2792 6.51199 15.308 6.41184C15.625 5.42462 15.9131 4.42309 16.1725 3.40725C16.3022 2.89218 16.0572 2.60603 15.5241 2.59172C13.7086 2.59172 11.8788 2.59172 10.0633 2.59172C9.51577 2.59172 9.28523 2.92079 9.42931 3.43586C9.68867 4.38017 9.97684 5.31016 10.2218 6.25446C10.3082 6.56922 10.4523 6.64076 10.7405 6.62645C11.4177 6.61215 12.1093 6.62645 12.7865 6.62645H12.8009ZM12.8153 20.1757C13.6654 20.1757 14.5155 20.1757 15.38 20.1757C16.1149 20.1757 16.331 19.861 16.1437 19.1599C15.8987 18.2871 15.6394 17.4144 15.3944 16.5273C15.3224 16.2555 15.2071 16.1124 14.8901 16.1267C13.5069 16.141 12.1093 16.141 10.7261 16.1267C10.4091 16.1267 10.2938 16.2411 10.2218 16.5273C9.99125 17.4144 9.71749 18.2728 9.47254 19.1599C9.27082 19.8896 9.48695 20.1757 10.2794 20.1757C11.1295 20.1757 11.9796 20.1757 12.8441 20.1757H12.8153Z" fill="#4F6454"/>
<path d="M20.5961 23.1371C19.991 23.1228 19.285 22.5362 19.285 22.0498C19.285 21.6205 19.6164 21.3058 20.063 21.3201C20.6538 21.3344 21.3886 21.9496 21.3886 22.4074C21.3886 22.8224 21.0284 23.1514 20.5961 23.1371Z" fill="#4F6454"/>
<path d="M8.76648 24.3538C8.88175 24.4396 9.12669 24.5398 9.24196 24.7258C9.54454 25.155 9.24196 25.5413 9.04024 25.9133C8.85293 26.2424 8.62239 26.4999 8.21896 26.4284C8.01724 26.3855 7.7867 26.2567 7.65702 26.085C7.39767 25.7416 7.57057 25.3982 7.75788 25.0692C7.9596 24.7258 8.14691 24.3681 8.76648 24.3538Z" fill="#4F6454"/>
<path d="M6.33114 21.8928C6.28791 22.5939 5.87007 22.8085 5.48104 22.9659C5.20728 23.066 4.81825 23.109 4.55889 23.0088C4.19868 22.8657 4.14105 22.4794 4.27072 22.1074C4.41481 21.7354 5.32254 21.2204 5.68276 21.3634C5.95652 21.4779 6.17265 21.7641 6.31673 21.9071L6.33114 21.8928Z" fill="#4F6454"/>
<path d="M18.2328 25.6844C17.9734 25.9705 17.8149 26.2853 17.5844 26.3568C17.3538 26.4284 16.9648 26.3568 16.7775 26.1851C16.5325 25.9705 16.3308 25.6128 16.2732 25.2981C16.23 25.0691 16.3596 24.6971 16.547 24.5398C16.7199 24.3967 17.1665 24.3538 17.2962 24.4682C17.642 24.7973 17.8869 25.2265 18.2183 25.6844H18.2328Z" fill="#4F6454"/>
<path d="M12.0508 26.4283C12.0508 26.4283 12.0508 26.2423 12.0653 26.0849C12.1373 25.6557 12.5119 25.3981 12.9442 25.484C13.362 25.5698 13.5493 25.856 13.5637 26.2709C13.607 27.0721 13.4629 27.4584 13.045 27.5872C12.4255 27.7875 12.0364 27.3726 12.0364 26.414L12.0508 26.4283Z" fill="#4F6454"/>
</svg>
