<svg width="38" height="36" viewBox="0 0 38 36" fill="none" xmlns="http://www.w3.org/2000/svg">
<g clip-path="url(#clip0_98_16)">
<path d="M35.7599 8.8496C33.1199 3.6896 27.9899 0.459599 22.0399 0.219599L16.8899 0.0195992C11.0099 -0.230401 5.63993 2.5196 2.49993 7.3396C-0.470072 11.9096 -0.820072 17.5196 1.57993 22.3696L4.19993 27.2596C6.85993 32.2196 11.9099 35.3396 17.6899 35.5996C17.9599 35.6096 18.2199 35.6196 18.4799 35.6196C24.0199 35.6196 29.0699 32.9496 32.0899 28.3796L34.8699 24.1796C37.9599 19.5096 38.2899 13.7796 35.7599 8.8396V8.8496Z" fill="#788E72"/>
<path d="M27.8998 16.6503C27.8498 16.5303 27.7798 16.4203 27.6798 16.3203L19.3698 8.01027C18.9798 7.62027 18.3498 7.62027 17.9598 8.01027C17.5698 8.40027 17.5698 9.03027 17.9598 9.42027L24.5598 16.0203H8.58984C8.03984 16.0203 7.58984 16.4703 7.58984 17.0203C7.58984 17.5703 8.03984 18.0203 8.58984 18.0203H24.5598L17.9598 24.6203C17.5698 25.0103 17.5698 25.6403 17.9598 26.0303C18.1598 26.2303 18.4098 26.3203 18.6698 26.3203C18.9298 26.3203 19.1798 26.2203 19.3798 26.0303L27.6898 17.7203C27.7898 17.6203 27.8598 17.5103 27.9098 17.3903C27.9598 17.2703 27.9898 17.1503 27.9898 17.0103C27.9898 16.8703 27.9598 16.7403 27.9098 16.6303L27.8998 16.6503Z" fill="white"/>
</g>
<defs>
<clipPath id="clip0_98_16">
<rect width="37.45" height="35.63" fill="white"/>
</clipPath>
</defs>
</svg>
