<svg width="102" height="66" viewBox="0 0 102 66" fill="none" xmlns="http://www.w3.org/2000/svg">
<path d="M82.6037 11.4648C79.0249 10.4124 76.9067 10.1779 76.9067 8.18905C76.9067 6.82436 78.1853 5.81038 80.3947 5.81038C83.0227 5.81038 87.633 7.85963 87.633 7.85963L89.9783 2.43267C89.9783 2.43267 85.8337 0 80.6599 0C73.7253 0 69.2631 3.78274 69.2631 8.77418C69.2631 13.1027 72.0903 15.0525 78.1409 16.6513C81.5434 17.5484 83.6199 18.2501 83.6199 20.4731C83.6199 22.111 82.0732 23.3197 80.0853 23.3197C75.6177 23.3197 70.8146 20.6037 70.8146 20.6037L68.3066 25.9223C68.3066 25.9223 72.455 29.2082 79.0684 29.2082C86.5799 29.2082 91.2632 25.2698 91.2632 19.888C91.2639 15.7158 88.4363 13.1808 82.6037 11.4648Z" fill="#14427D"/>
<path d="M17.8149 0.529907C14.4388 0.532131 10.9902 0.529907 10.9902 0.529907V28.3855H18.0729L18.0382 11.8378C18.0382 11.8378 23.5722 21.401 28.4967 28.3855C33.2791 28.3953 34.4011 28.3855 34.4011 28.3855V0.535942H27.4528L27.4592 15.049C27.4592 15.049 23.5726 8.27295 17.8149 0.529907Z" fill="#14427D"/>
<path d="M57.2122 28.3343V16.3352H46.6959V28.3343H39.6133V0.539062H46.6959V11.1087H57.2122V0.539062H64.2795V28.3343H57.2122Z" fill="#14427D"/>
<path d="M15.7848 56.5543C15.2883 56.2185 14.632 55.9139 13.9741 55.9139C13.0278 55.9139 12.5138 56.4424 12.5138 57.0987C12.5138 57.8351 13.3004 58.3954 14.6161 59.4358C16.1209 60.6362 16.9214 61.5807 16.9214 62.9574C16.9214 64.3666 15.5768 65.9993 13.0434 65.9993C11.8734 65.9993 10.5767 65.6471 9.74414 64.8789L10.5605 63.5978C11.153 64.0302 11.8414 64.4943 12.8509 64.4943C13.7816 64.4943 14.5999 63.9978 14.5999 62.9412C14.5999 61.709 13.0914 60.8926 12.1936 60.1877C11.105 59.3075 10.1924 58.6191 10.1924 57.1302C10.1924 55.6257 11.7133 54.4084 13.7492 54.4084C15.032 54.4084 16.0567 54.8732 16.5853 55.3849L15.7848 56.5543Z" fill="#14427D"/>
<path d="M26.9926 56.6375C26.4482 56.3497 25.5355 56.0133 24.6708 56.0133C22.3656 56.0133 20.7004 57.6289 20.7004 60.1727C20.7004 62.8275 22.5415 64.3954 24.735 64.3954C25.5997 64.3954 26.3999 64.1553 26.9923 63.8357L27.6169 65.2299C26.9282 65.6308 25.7277 66 24.6388 66C20.7483 66 18.2988 63.4358 18.2988 60.1407C18.2988 57.0857 20.7324 54.4091 24.6708 54.4091C25.8398 54.4091 26.9282 54.8265 27.6969 55.276L26.9926 56.6375Z" fill="#14427D"/>
<path d="M34.0454 64.3954C31.6915 64.3954 30.8586 62.188 30.8586 60.0444C30.8586 57.9809 31.8036 56.0136 34.0454 56.0136C36.2878 56.0136 37.2325 57.9809 37.2325 60.0444C37.2325 62.188 36.3996 64.3954 34.0454 64.3954ZM34.0454 66C37.4885 66 39.634 63.3878 39.634 60.0444C39.634 56.9094 37.2646 54.4091 34.0454 54.4091C30.8265 54.4091 28.457 56.9094 28.457 60.0444C28.457 63.3878 30.6022 66 34.0454 66Z" fill="#14427D"/>
<path d="M43.4135 65.8034V56.1128H39.9551V54.6077H49.1314V56.1128H45.673V65.8034H43.4135Z" fill="#14427D"/>
<path d="M50.4355 54.6057H52.6951V64.2964H57.1456V65.8014H50.4355V54.6057Z" fill="#14427D"/>
<path d="M61.4991 61.3758C62.027 59.9034 62.555 58.5428 63.0191 56.8144H63.0515C63.5794 58.5428 64.0598 59.9037 64.5401 61.3758H61.4991ZM62.3634 54.6057L57.8027 65.8033H59.7551L60.9073 62.7458H64.8755L65.9159 65.8033H68.4441L64.2357 54.6057H62.3634Z" fill="#14427D"/>
<path d="M79.5117 65.8033H77.8805C75.7363 63.228 73.5927 60.6686 71.4812 57.7731H71.4494V65.8033H69.6426V54.6057H71.2893C73.4329 57.1658 75.5597 59.7087 77.6725 62.5883H77.7049V54.6057H79.5117V65.8033Z" fill="#14427D"/>
<path d="M83.7247 56.1127H85.3559C87.7234 56.1127 89.0675 57.5514 89.0675 59.8688C89.0675 62.986 87.6758 64.2964 85.1005 64.2964H83.725L83.7247 56.1127ZM81.4648 54.6073V65.8011H85.1323C89.0993 65.8011 91.4687 63.5768 91.4687 59.8846C91.4687 57.1832 89.8998 54.6073 85.34 54.6073H81.4648Z" fill="#14427D"/>
<path d="M50.3274 45.35C48.0244 41.2204 40.1708 34.3862 26.2234 36.6311C20.927 37.092 18.7266 37.4227 15.9184 37.207C4.81387 36.3544 2.8793 30.2241 2.77447 29.8903H0C0 29.8903 1.52606 41.8131 13.6732 43.8277C16.6497 44.3217 22.8492 43.7359 26.8569 43.0796C36.7012 41.4678 44.234 41.2096 50.3414 49.6531C50.3414 49.6531 50.4211 49.7461 50.4891 49.7461C50.6149 49.7461 50.6451 49.6531 50.6451 49.6531C50.6451 49.6531 51.4392 48.0358 50.3274 45.35Z" fill="#0097DE"/>
<path d="M97.683 29.89C97.5775 30.2238 95.5232 36.3271 84.418 37.1794C81.6099 37.3948 79.4097 37.0641 74.1117 36.6035C60.2835 34.3773 54.4296 41.1934 52.7358 44.8999C51.624 47.3878 52.2327 49.6524 52.2327 49.6524C52.2327 49.6524 52.2717 49.7455 52.3737 49.7455C52.4417 49.7455 52.5186 49.6524 52.5186 49.6524C58.6256 41.2089 63.6342 41.4393 73.478 43.0517C77.4875 43.7074 83.6871 44.2931 86.6632 43.7998C98.8107 41.7846 100.457 29.8896 100.457 29.8896L97.683 29.89Z" fill="#0097DE"/>
</svg>
