<svg width="130" height="130" viewBox="0 0 130 130" fill="none" xmlns="http://www.w3.org/2000/svg">
<g clip-path="url(#clip0_104_15)">
<path d="M83.2241 63.9441L51.74 42.909C50.8869 42.339 49.7651 42.9516 49.7651 43.9647V86.0347C49.7651 87.059 50.8978 87.6529 51.74 87.0902L83.2239 66.0553C83.979 65.5511 83.9782 64.4479 83.2241 63.9441Z" fill="#9DB7A9"/>
<path d="M85.5664 0H44.4336C19.9329 0 0 19.9329 0 44.4336V85.5664C0 110.067 19.9329 130 44.4336 130H85.5664C110.067 130 130 110.067 130 85.5664V44.4336C130 19.9329 110.067 0 85.5664 0ZM87.456 72.3892L55.9719 93.4243C50.1201 97.3334 42.1484 93.1676 42.1484 86.0351V43.9649C42.1484 36.8725 50.0721 32.6338 55.9719 36.5754L87.456 57.6106C92.7271 61.1325 92.7121 68.8777 87.456 72.3892Z" fill="#9DB7A9"/>
</g>
<defs>
<clipPath id="clip0_104_15">
<rect width="130" height="130" fill="white"/>
</clipPath>
</defs>
</svg>
