<svg width="22" height="22" viewBox="0 0 22 22" fill="none" xmlns="http://www.w3.org/2000/svg">
<path d="M10.75 21.5C4.82 21.5 0 16.68 0 10.75C0 4.82 4.82 0 10.75 0C16.68 0 21.5 4.82 21.5 10.75C21.5 16.68 16.68 21.5 10.75 21.5ZM10.75 1.5C5.65 1.5 1.5 5.65 1.5 10.75C1.5 15.85 5.65 20 10.75 20C15.85 20 20 15.85 20 10.75C20 5.65 15.85 1.5 10.75 1.5Z" fill="#323232"/>
<path d="M7.91937 14.3304C7.72937 14.3304 7.53938 14.2604 7.38938 14.1104C7.09938 13.8204 7.09938 13.3404 7.38938 13.0504L13.0494 7.39035C13.3394 7.10035 13.8194 7.10035 14.1094 7.39035C14.3994 7.68035 14.3994 8.16035 14.1094 8.45035L8.44937 14.1104C8.30937 14.2604 8.10937 14.3304 7.91937 14.3304Z" fill="#323232"/>
<path d="M13.5794 14.3304C13.3894 14.3304 13.1994 14.2604 13.0494 14.1104L7.38938 8.45035C7.09938 8.16035 7.09938 7.68035 7.38938 7.39035C7.67937 7.10035 8.15937 7.10035 8.44937 7.39035L14.1094 13.0504C14.3994 13.3404 14.3994 13.8204 14.1094 14.1104C13.9594 14.2604 13.7694 14.3304 13.5794 14.3304Z" fill="#323232"/>
</svg>
