<svg width="103" height="100" viewBox="0 0 103 100" fill="none" xmlns="http://www.w3.org/2000/svg">
<path d="M1.43069 69.0508H100.366C100.887 69.0508 101.329 68.7645 101.538 68.296C101.746 67.8275 101.668 67.2809 101.329 66.9165L85.3737 49.0347C85.1394 48.7484 84.775 48.5922 84.4106 48.5922H72.8798L78.0335 36.4107C78.1897 36.0463 78.1376 35.6298 77.8774 35.3435C77.6431 35.0312 77.2527 34.901 76.8622 34.9531L60.438 37.8423C60.0736 37.8943 59.7613 38.1546 59.6311 38.519C59.501 38.8574 59.5531 39.2739 59.7873 39.5602L62.1559 42.5275C59.1887 44.6358 55.7789 45.755 52.3431 45.9372V32.0118C53.4363 32.2721 54.5035 32.4283 55.5707 32.4283C57.5488 32.4283 59.4229 31.9598 61.0627 30.9967C63.9519 29.3309 65.9301 26.3115 66.6329 22.5373C66.737 22.0168 66.4247 21.5222 65.9562 21.34C62.3121 20.0646 58.7201 20.2728 55.8309 21.9387C53.8528 23.0839 52.317 24.8539 51.3019 27.0663C50.2868 24.8539 48.7511 23.0839 46.7729 21.9387C43.8837 20.2728 40.2917 20.0646 36.6477 21.34C36.1531 21.5222 35.8668 22.0168 35.9709 22.5373C36.6737 26.3375 38.6519 29.3309 41.5411 30.9967C43.1809 31.9337 45.055 32.4283 47.0332 32.4283C48.0743 32.4283 49.1676 32.2981 50.2608 32.0118V45.9372C45.081 45.6509 40.0575 43.2303 36.5956 38.8834C33.0817 34.4585 31.7282 28.7322 32.9256 23.2141C33.0037 22.8757 32.8995 22.5113 32.6653 22.251C32.431 21.9907 32.0666 21.8866 31.7282 21.9387L25.2731 23.0839C24.8046 23.162 24.4662 23.5264 24.4141 23.995C23.5552 31.231 25.5854 38.3629 30.1145 44.0632C31.494 45.7811 33.0557 47.2907 34.7736 48.6182H17.4384C17.074 48.6182 16.7096 48.7744 16.4754 49.0607L0.467626 66.8905C0.129251 67.2809 0.0511646 67.8275 0.259395 68.27C0.467626 68.7385 0.936145 69.0248 1.43069 69.0248V69.0508ZM56.8981 23.7347C59.0065 22.5113 61.6354 22.277 64.3684 23.0319C63.6656 25.7649 62.1299 27.9253 60.0216 29.1487C57.9132 30.372 55.2843 30.6063 52.5513 29.8514C53.2541 27.1184 54.7898 24.958 56.8981 23.7347ZM42.5823 29.1226C40.4739 27.8993 38.9382 25.7649 38.2355 23.0059C40.9685 22.251 43.5974 22.4853 45.7057 23.7086C47.8141 24.932 49.3498 27.0664 50.0525 29.8254C47.3195 30.5802 44.6906 30.32 42.5823 29.1226ZM31.7282 42.7097C27.7198 37.6601 25.8197 31.3871 26.3923 24.984L30.583 24.2552C29.8021 29.9295 31.3378 35.6559 34.9298 40.1589C39.0684 45.3386 45.1591 48.0456 51.328 48.0456C55.909 48.0456 60.4901 46.5619 64.3424 43.4905C64.8109 43.1261 64.889 42.4494 64.5246 42.0069L62.5984 39.5862L75.3526 37.3477L70.303 49.2689L68.3768 46.8483C68.0124 46.3797 67.3357 46.3017 66.8932 46.6661C62.3121 50.3101 56.794 52.1061 51.354 52.1061C43.9878 52.1061 36.6737 48.8785 31.7543 42.6836L31.7282 42.7097ZM17.959 51.169H38.73C41.6452 52.7047 44.8468 53.6938 48.2305 54.0843C49.2717 54.2144 50.3128 54.2665 51.354 54.2665C55.7529 54.2665 60.0216 53.1993 63.8999 51.169H69.0796L69.7564 52.002C69.9906 52.2883 70.355 52.4445 70.7194 52.3924C71.0838 52.3403 71.3962 52.1061 71.5524 51.7677L71.8126 51.169H83.864L97.5031 66.474H4.31989L17.959 51.169Z" fill="#788E72"/>
<path d="M19.4442 52.7568H19.1579C18.4551 52.7568 17.8564 53.3295 17.8564 54.0583C17.8564 54.7871 18.4291 55.3597 19.1579 55.3597H19.4442C20.147 55.3597 20.7456 54.7871 20.7456 54.0583C20.7456 53.3295 20.173 52.7568 19.4442 52.7568Z" fill="#788E72"/>
<path d="M15.2528 57.5479H14.9665C14.2637 57.5479 13.665 58.1205 13.665 58.8493C13.665 59.5781 14.2377 60.1507 14.9665 60.1507H15.2528C15.9556 60.1507 16.5542 59.5781 16.5542 58.8493C16.5542 58.1205 15.9816 57.5479 15.2528 57.5479Z" fill="#788E72"/>
<path d="M11.0614 62.3115H10.7751C10.0723 62.3115 9.47363 62.8842 9.47363 63.613C9.47363 64.3418 10.0463 64.9144 10.7751 64.9144H11.0614C11.7642 64.9144 12.3628 64.3418 12.3628 63.613C12.3628 62.8842 11.7902 62.3115 11.0614 62.3115Z" fill="#788E72"/>
<path d="M29.9325 52.7568H29.6462C28.9434 52.7568 28.3447 53.3295 28.3447 54.0583C28.3447 54.7871 28.9174 55.3597 29.6462 55.3597H29.9325C30.6353 55.3597 31.2339 54.7871 31.2339 54.0583C31.2339 53.3295 30.6613 52.7568 29.9325 52.7568Z" fill="#788E72"/>
<path d="M27.121 57.5479H26.8346C26.1319 57.5479 25.5332 58.1205 25.5332 58.8493C25.5332 59.5781 26.1058 60.1507 26.8346 60.1507H27.121C27.8237 60.1507 28.4224 59.5781 28.4224 58.8493C28.4224 58.1205 27.8498 57.5479 27.121 57.5479Z" fill="#788E72"/>
<path d="M24.3378 62.3369H24.0514C23.3487 62.3369 22.75 62.9095 22.75 63.6384C22.75 64.3672 23.3226 64.9398 24.0514 64.9398H24.3378C25.0405 64.9398 25.6392 64.3672 25.6392 63.6384C25.6392 62.9095 25.0666 62.3369 24.3378 62.3369Z" fill="#788E72"/>
<path d="M40.3973 52.7568H40.111C39.4082 52.7568 38.8096 53.3295 38.8096 54.0583C38.8096 54.7871 39.3822 55.3597 40.111 55.3597H40.3973C41.1001 55.3597 41.6988 54.7871 41.6988 54.0583C41.6988 53.3295 41.1261 52.7568 40.3973 52.7568Z" fill="#788E72"/>
<path d="M39.0165 57.5479H38.7302C38.0274 57.5479 37.4287 58.1205 37.4287 58.8493C37.4287 59.5781 38.0013 60.1507 38.7302 60.1507H39.0165C39.7192 60.1507 40.3179 59.5781 40.3179 58.8493C40.3179 58.1205 39.7453 57.5479 39.0165 57.5479Z" fill="#788E72"/>
<path d="M37.6112 62.3369H37.3249C36.6221 62.3369 36.0234 62.9095 36.0234 63.6384C36.0234 64.3672 36.5961 64.9398 37.3249 64.9398H37.6112C38.314 64.9398 38.9126 64.3672 38.9126 63.6384C38.9126 62.9095 38.34 62.3369 37.6112 62.3369Z" fill="#788E72"/>
<path d="M50.8876 57.5479H50.6012C49.8985 57.5479 49.2998 58.1205 49.2998 58.8493C49.2998 59.5781 49.8724 60.1507 50.6012 60.1507H50.8876C51.5903 60.1507 52.189 59.5781 52.189 58.8493C52.189 58.1205 51.6164 57.5479 50.8876 57.5479Z" fill="#788E72"/>
<path d="M50.8876 62.3369H50.6012C49.8985 62.3369 49.2998 62.9095 49.2998 63.6384C49.2998 64.3672 49.8724 64.9398 50.6012 64.9398H50.8876C51.5903 64.9398 52.189 64.3672 52.189 63.6384C52.189 62.9095 51.6164 62.3369 50.8876 62.3369Z" fill="#788E72"/>
<path d="M82.328 52.7568H82.0417C81.3389 52.7568 80.7402 53.3295 80.7402 54.0583C80.7402 54.7871 81.3129 55.3597 82.0417 55.3597H82.328C83.0308 55.3597 83.6294 54.7871 83.6294 54.0583C83.6294 53.3295 83.0568 52.7568 82.328 52.7568Z" fill="#788E72"/>
<path d="M86.494 57.5479H86.2077C85.5049 57.5479 84.9062 58.1205 84.9062 58.8493C84.9062 59.5781 85.4789 60.1507 86.2077 60.1507H86.494C87.1968 60.1507 87.7955 59.5781 87.7955 58.8493C87.7955 58.1205 87.2228 57.5479 86.494 57.5479Z" fill="#788E72"/>
<path d="M90.6854 62.3115H90.3991C89.6963 62.3115 89.0977 62.8842 89.0977 63.613C89.0977 64.3418 89.6703 64.9144 90.3991 64.9144H90.6854C91.3882 64.9144 91.9869 64.3418 91.9869 63.613C91.9869 62.8842 91.4142 62.3115 90.6854 62.3115Z" fill="#788E72"/>
<path d="M71.8397 52.7568H71.5534C70.8506 52.7568 70.252 53.3295 70.252 54.0583C70.252 54.7871 70.8246 55.3597 71.5534 55.3597H71.8397C72.5425 55.3597 73.1412 54.7871 73.1412 54.0583C73.1412 53.3295 72.5685 52.7568 71.8397 52.7568Z" fill="#788E72"/>
<path d="M74.6239 57.5479H74.3376C73.6348 57.5479 73.0361 58.1205 73.0361 58.8493C73.0361 59.5781 73.6088 60.1507 74.3376 60.1507H74.6239C75.3267 60.1507 75.9253 59.5781 75.9253 58.8493C75.9253 58.1205 75.3527 57.5479 74.6239 57.5479Z" fill="#788E72"/>
<path d="M77.409 62.3369H77.1227C76.42 62.3369 75.8213 62.9095 75.8213 63.6384C75.8213 64.3672 76.3939 64.9398 77.1227 64.9398H77.409C78.1118 64.9398 78.7105 64.3672 78.7105 63.6384C78.7105 62.9095 78.1379 62.3369 77.409 62.3369Z" fill="#788E72"/>
<path d="M62.6509 54.0329C62.6509 53.3301 62.0783 52.7314 61.3495 52.7314H61.0632C60.3604 52.7314 59.7617 53.3041 59.7617 54.0329C59.7617 54.7617 60.3344 55.3343 61.0632 55.3343H61.3495C62.0523 55.3343 62.6509 54.7617 62.6509 54.0329Z" fill="#788E72"/>
<path d="M64.0318 58.8219C64.0318 58.1192 63.4591 57.5205 62.7303 57.5205H62.444C61.7412 57.5205 61.1426 58.0931 61.1426 58.8219C61.1426 59.5508 61.7152 60.1234 62.444 60.1234H62.7303C63.4331 60.1234 64.0318 59.5508 64.0318 58.8219Z" fill="#788E72"/>
<path d="M64.1356 62.3369H63.8493C63.1465 62.3369 62.5479 62.9095 62.5479 63.6384C62.5479 64.3672 63.1205 64.9398 63.8493 64.9398H64.1356C64.8384 64.9398 65.437 64.3672 65.437 63.6384C65.437 62.9095 64.8644 62.3369 64.1356 62.3369Z" fill="#788E72"/>
<path d="M1.30144 74.6214H101.33C102.033 74.6214 102.632 74.0488 102.632 73.32C102.632 72.5912 102.059 72.0186 101.33 72.0186H1.30144C0.598663 72.0186 0 72.5912 0 73.32C0 74.0488 0.572634 74.6214 1.30144 74.6214Z" fill="#788E72"/>
<path d="M101.304 97.3975H1.30144C0.598663 97.3975 0 97.9701 0 98.6989C0 99.4277 0.572634 100 1.30144 100H101.33C102.033 100 102.632 99.4277 102.632 98.6989C102.632 97.9701 102.059 97.3975 101.33 97.3975H101.304Z" fill="#788E72"/>
<path d="M8.66826 76.8076C6.45581 76.8076 4.63379 78.6036 4.63379 80.8421C4.63379 83.0806 6.42978 84.8766 8.66826 84.8766C10.9067 84.8766 12.7027 83.0806 12.7027 80.8421C12.7027 78.6036 10.9067 76.8076 8.66826 76.8076ZM8.66826 82.2737C7.86136 82.2737 7.23667 81.6229 7.23667 80.8421C7.23667 80.0612 7.88739 79.4105 8.66826 79.4105C9.44912 79.4105 10.0998 80.0612 10.0998 80.8421C10.0998 81.6229 9.44912 82.2737 8.66826 82.2737Z" fill="#788E72"/>
<path d="M25.7425 76.8076C23.53 76.8076 21.708 78.6036 21.708 80.8421C21.708 83.0806 23.504 84.8766 25.7425 84.8766C27.981 84.8766 29.7769 83.0806 29.7769 80.8421C29.7769 78.6036 27.981 76.8076 25.7425 76.8076ZM25.7425 82.2737C24.9356 82.2737 24.3109 81.6229 24.3109 80.8421C24.3109 80.0612 24.9616 79.4105 25.7425 79.4105C26.5233 79.4105 27.1741 80.0612 27.1741 80.8421C27.1741 81.6229 26.5233 82.2737 25.7425 82.2737Z" fill="#788E72"/>
<path d="M46.8531 80.8421C46.8531 78.6296 45.0571 76.8076 42.8187 76.8076C40.5802 76.8076 38.7842 78.6036 38.7842 80.8421C38.7842 83.0806 40.5802 84.8766 42.8187 84.8766C45.0571 84.8766 46.8531 83.0806 46.8531 80.8421ZM41.3871 80.8421C41.3871 80.0352 42.0378 79.4105 42.8187 79.4105C43.5995 79.4105 44.2502 80.0612 44.2502 80.8421C44.2502 81.6229 43.5995 82.2737 42.8187 82.2737C42.0378 82.2737 41.3871 81.6229 41.3871 80.8421Z" fill="#788E72"/>
<path d="M59.9173 76.8076C57.7048 76.8076 55.8828 78.6036 55.8828 80.8421C55.8828 83.0806 57.6788 84.8766 59.9173 84.8766C62.1558 84.8766 63.9517 83.0806 63.9517 80.8421C63.9517 78.6036 62.1558 76.8076 59.9173 76.8076ZM59.9173 82.2737C59.1104 82.2737 58.4857 81.6229 58.4857 80.8421C58.4857 80.0612 59.1364 79.4105 59.9173 79.4105C60.6981 79.4105 61.3489 80.0612 61.3489 80.8421C61.3489 81.6229 60.6981 82.2737 59.9173 82.2737Z" fill="#788E72"/>
<path d="M81.0289 80.8421C81.0289 78.6296 79.2329 76.8076 76.9944 76.8076C74.7559 76.8076 72.96 78.6036 72.96 80.8421C72.96 83.0806 74.7559 84.8766 76.9944 84.8766C79.2329 84.8766 81.0289 83.0806 81.0289 80.8421ZM75.5628 80.8421C75.5628 80.0352 76.2136 79.4105 76.9944 79.4105C77.7753 79.4105 78.426 80.0612 78.426 80.8421C78.426 81.6229 77.7753 82.2737 76.9944 82.2737C76.2136 82.2737 75.5628 81.6229 75.5628 80.8421Z" fill="#788E72"/>
<path d="M94.0677 76.8076C91.8552 76.8076 90.0332 78.6036 90.0332 80.8421C90.0332 83.0806 91.8292 84.8766 94.0677 84.8766C96.3061 84.8766 98.1021 83.0806 98.1021 80.8421C98.1021 78.6036 96.3061 76.8076 94.0677 76.8076ZM94.0677 82.2737C93.2608 82.2737 92.6361 81.6229 92.6361 80.8421C92.6361 80.0612 93.2868 79.4105 94.0677 79.4105C94.8485 79.4105 95.4993 80.0612 95.4993 80.8421C95.4993 81.6229 94.8485 82.2737 94.0677 82.2737Z" fill="#788E72"/>
<path d="M8.66826 87.2197C6.45581 87.2197 4.63379 89.0157 4.63379 91.2542C4.63379 93.4927 6.42978 95.2887 8.66826 95.2887C10.9067 95.2887 12.7027 93.4927 12.7027 91.2542C12.7027 89.0157 10.9067 87.2197 8.66826 87.2197ZM8.66826 92.6858C7.86136 92.6858 7.23667 92.0351 7.23667 91.2542C7.23667 90.4733 7.88739 89.8226 8.66826 89.8226C9.44912 89.8226 10.0998 90.4733 10.0998 91.2542C10.0998 92.0351 9.44912 92.6858 8.66826 92.6858Z" fill="#788E72"/>
<path d="M25.638 87.2197C23.4255 87.2197 21.6035 89.0157 21.6035 91.2542C21.6035 93.4927 23.3995 95.2887 25.638 95.2887C27.8765 95.2887 29.6725 93.4927 29.6725 91.2542C29.6725 89.0157 27.8765 87.2197 25.638 87.2197ZM25.638 92.6858C24.8311 92.6858 24.2064 92.0351 24.2064 91.2542C24.2064 90.4733 24.8571 89.8226 25.638 89.8226C26.4188 89.8226 27.0696 90.4733 27.0696 91.2542C27.0696 92.0351 26.4188 92.6858 25.638 92.6858Z" fill="#788E72"/>
<path d="M43.1819 95.2633C45.3944 95.2633 47.2164 93.4673 47.2164 91.2288C47.2164 88.9903 45.4204 87.1943 43.1819 87.1943C40.9435 87.1943 39.1475 88.9903 39.1475 91.2288C39.1475 93.4673 40.9435 95.2633 43.1819 95.2633ZM43.1819 89.7972C43.9888 89.7972 44.6135 90.4479 44.6135 91.2288C44.6135 92.0097 43.9628 92.6604 43.1819 92.6604C42.4011 92.6604 41.7503 92.0097 41.7503 91.2288C41.7503 90.4479 42.4011 89.7972 43.1819 89.7972Z" fill="#788E72"/>
<path d="M59.9173 87.2197C57.7048 87.2197 55.8828 89.0157 55.8828 91.2542C55.8828 93.4927 57.6788 95.2887 59.9173 95.2887C62.1558 95.2887 63.9517 93.4927 63.9517 91.2542C63.9517 89.0157 62.1558 87.2197 59.9173 87.2197ZM59.9173 92.6858C59.1104 92.6858 58.4857 92.0351 58.4857 91.2542C58.4857 90.4733 59.1364 89.8226 59.9173 89.8226C60.6981 89.8226 61.3489 90.4733 61.3489 91.2542C61.3489 92.0351 60.6981 92.6858 59.9173 92.6858Z" fill="#788E72"/>
<path d="M77.2532 95.2633C79.4657 95.2633 81.2877 93.4673 81.2877 91.2288C81.2877 88.9903 79.4917 87.1943 77.2532 87.1943C75.0147 87.1943 73.2188 88.9903 73.2188 91.2288C73.2188 93.4673 75.0147 95.2633 77.2532 95.2633ZM77.2532 89.7972C78.0601 89.7972 78.6848 90.4479 78.6848 91.2288C78.6848 92.0097 78.0341 92.6604 77.2532 92.6604C76.4724 92.6604 75.8216 92.0097 75.8216 91.2288C75.8216 90.4479 76.4724 89.7972 77.2532 89.7972Z" fill="#788E72"/>
<path d="M94.0677 87.2197C91.8552 87.2197 90.0332 89.0157 90.0332 91.2542C90.0332 93.4927 91.8292 95.2887 94.0677 95.2887C96.3061 95.2887 98.1021 93.4927 98.1021 91.2542C98.1021 89.0157 96.3061 87.2197 94.0677 87.2197ZM94.0677 92.6858C93.2608 92.6858 92.6361 92.0351 92.6361 91.2542C92.6361 90.4733 93.2868 89.8226 94.0677 89.8226C94.8485 89.8226 95.4993 90.4733 95.4993 91.2542C95.4993 92.0351 94.8485 92.6858 94.0677 92.6858Z" fill="#788E72"/>
<path d="M25.7172 19.3358L42.1413 16.4466C42.5057 16.3945 42.8181 16.1342 42.9482 15.7698C43.0784 15.4315 43.0263 15.015 42.7921 14.7287L40.4234 11.7614C45.7593 7.98722 52.683 7.23238 58.7477 9.83526C59.2943 10.0695 59.919 9.83526 60.1533 9.28866C60.3876 8.74205 60.1533 8.11736 59.6067 7.8831C52.5008 4.8117 44.3278 5.90491 38.263 10.7202C38.0548 10.9024 37.8986 11.1627 37.8726 11.423C37.8466 11.7093 37.9247 11.9957 38.1069 12.2039L40.033 14.6246L27.2789 16.863L32.3285 4.94185L34.2546 7.36253C34.619 7.83104 35.2958 7.8831 35.7382 7.54473C46.5402 -1.04478 62.2877 0.751205 70.8772 11.5532C74.8856 16.6028 76.7857 22.8757 76.2131 29.2788L72.0224 30.0076C72.8033 24.3333 71.2676 18.607 67.6756 14.104C67.3112 13.6355 66.6345 13.5574 66.192 13.9218C65.7235 14.2862 65.6454 14.9629 66.0098 15.4054C69.5237 19.8303 70.8772 25.5567 69.6798 31.0748C69.6018 31.4132 69.7059 31.7776 69.9401 32.0379C70.1484 32.2461 70.4086 32.3502 70.695 32.3502C70.747 32.3502 77.3323 31.2049 77.3323 31.2049C77.8008 31.1268 78.1392 30.7624 78.1913 30.2939C79.0502 23.0579 77.02 15.926 72.491 10.2257C68.014 4.57744 61.5849 0.985464 54.3749 0.178571C47.5293 -0.602294 40.7878 1.1937 35.2437 5.25419L32.849 2.26088C32.6148 1.97456 32.2504 1.81839 31.886 1.87044C31.5216 1.9225 31.2092 2.15676 31.0531 2.49514L24.5459 17.8521C24.3897 18.2165 24.4417 18.633 24.702 18.9193C24.9363 19.2317 25.3267 19.3618 25.7172 19.3098V19.3358Z" fill="#788E72"/>
<path d="M62.5985 10.5663C62.182 10.9827 62.182 11.6595 62.5985 12.0759C62.8067 12.2842 63.067 12.3883 63.3533 12.3883C63.6396 12.3883 63.8999 12.2842 64.1082 12.0759C64.5246 11.6595 64.5246 10.9827 64.1082 10.5663C63.6917 10.1498 63.0149 10.1498 62.5985 10.5663Z" fill="#788E72"/>
</svg>
