<svg width="52" height="48" viewBox="0 0 52 48" fill="none" xmlns="http://www.w3.org/2000/svg">
<path d="M0.600556 33.4396H42.1106C42.3206 33.4396 42.5206 33.3037 42.6106 33.105C42.7006 32.8959 42.6606 32.6659 42.5206 32.4986L35.8306 24.6468C35.7306 24.5213 35.5806 24.4586 35.4306 24.4586H24.2506C24.2706 23.8626 24.2506 23.2667 24.2706 22.6812C24.2406 22.2839 24.4206 21.9703 24.7306 21.7402C25.0006 21.5102 25.1606 21.1652 25.2006 20.8097C25.2406 19.4087 25.5406 18.0077 26.4006 16.8995C26.6506 16.5545 26.9406 16.2304 27.2106 15.8958C27.6906 15.2789 28.0806 14.5471 28.3906 13.8152C29.0506 12.1319 29.1406 10.2186 28.6206 8.48308C27.8606 5.80655 25.6706 3.64233 23.0606 3.01502C22.5606 2.93138 21.5406 2.62818 21.1206 2.96274C20.9506 3.09866 21.0006 3.38095 21.1906 3.47505C21.6306 3.68415 22.1406 3.59005 22.6106 3.71552C23.5706 3.89325 24.4706 4.32192 25.2706 4.89695C28.6406 7.35392 29.2206 12.5292 26.3906 15.6762C25.5706 16.6277 24.8906 17.7254 24.6406 18.9905C24.5706 19.3251 24.5206 19.6597 24.5106 19.9942C24.4906 20.3811 24.5106 20.862 24.1906 21.1338C24.0006 21.2907 23.7506 21.322 23.5106 21.3325C22.1706 21.3325 20.0906 21.3325 19.2206 21.3325C18.4006 21.3638 18.0706 21.0084 18.0806 20.151C18.0206 18.8442 17.5906 17.5686 16.8506 16.5231C16.6206 16.1885 16.3406 15.8853 16.0806 15.5717C15.3406 14.6725 14.7906 13.5852 14.5406 12.4351C14.3006 11.5987 15.0806 11.8392 15.5706 11.7765C16.9306 11.7137 18.2906 11.1387 19.1506 9.99908C20.7306 7.90804 20.6806 5.01196 20.3606 2.49226C20.2606 2.04269 20.2806 1.32128 19.8806 1.04945C19.4606 0.819434 18.0506 1.4572 17.5406 1.62448C14.1806 2.93138 11.8906 5.69155 12.8906 9.58087C13.0106 10.0827 13.1806 10.5637 13.4006 11.0341C13.5706 11.3792 13.8506 12.1215 13.2006 11.7137C12.5906 11.3792 11.9106 11.0341 11.2106 11.076C10.8806 11.1282 10.8006 11.536 11.1006 11.7033C11.2406 11.7974 11.4306 11.8392 11.6006 11.881C12.3306 12.0692 13.0406 12.4247 13.5406 13.0206C13.7106 13.2506 14.1006 13.6479 13.8306 13.9302C13.3506 14.2021 12.5706 14.1602 12.0306 14.1184C10.8506 13.972 9.82056 13.1774 9.14056 12.1842C8.79056 11.6928 8.52056 11.1596 8.29056 10.595C8.09056 10.1768 8.18056 9.87361 8.63056 9.81088C9.57056 9.62269 10.5506 9.63315 11.4806 9.88407C11.7006 9.93635 11.9906 10.02 12.1906 9.93635C12.4106 9.8527 12.4106 9.55996 12.2506 9.40313C11.6206 8.89083 10.0306 8.85946 9.24056 8.93265C8.81056 8.97447 8.36056 9.04766 7.94056 9.16266C7.55056 9.2463 7.19056 9.50768 7.29056 9.96771C7.72056 11.6196 8.66056 13.2088 10.0306 14.1707C10.8906 14.7562 11.9306 15.028 12.9406 14.9444C13.2706 14.9235 13.5906 14.8712 13.9106 14.7875C14.1006 14.7457 14.3006 14.7039 14.4706 14.7875C14.7806 14.9548 14.9106 15.3521 15.1306 15.624C15.4706 16.1154 15.9006 16.544 16.2506 17.025C16.7906 17.7882 17.1306 18.6873 17.2706 19.6178C17.3506 20.0674 17.3006 20.5274 17.3906 20.9666C17.4506 21.2593 17.6006 21.5311 17.8206 21.7298C18.3306 22.148 18.3406 22.3466 18.3206 23.0053C18.3206 23.4444 18.3206 23.9254 18.3206 24.3645C18.3206 24.4063 18.3206 24.4377 18.3206 24.469H7.29056C7.14056 24.469 6.99056 24.5422 6.89056 24.6572L0.200556 32.4882C0.0605562 32.6554 0.0205562 32.8959 0.110556 33.0946C0.200556 33.3037 0.390556 33.4291 0.610556 33.4291L0.600556 33.4396ZM14.3606 10.9296C14.3806 8.74446 15.1506 6.90434 16.6706 5.41971C16.7206 5.36743 16.7606 5.28379 16.7206 5.14788C16.6606 4.99105 16.5606 4.89695 16.4006 4.84468C16.2306 4.84468 16.1206 4.94923 16.1206 4.93877C15.2106 5.84837 14.9906 6.18294 14.8606 6.43386C14.8606 6.43386 14.4906 7.07163 14.3406 7.41665C14.1906 7.76167 14.0606 8.11715 13.9506 8.48308C13.8406 8.83855 13.7906 9.20448 13.6606 9.55996C13.6106 9.29858 13.5506 9.0372 13.5006 8.77582C13.3406 7.89759 13.4606 7.16572 13.4706 6.99844C13.5306 6.42341 13.8606 5.702 13.9106 5.58699C14.0706 5.25243 14.2706 4.94923 14.5006 4.66694C14.6606 4.46829 14.8306 4.2801 15.0106 4.10236C15.1506 3.96644 15.3106 3.85143 15.4606 3.71552C15.7206 3.4855 16.0106 3.29731 16.3006 3.13003C16.5706 2.9732 16.8506 2.82683 17.1306 2.69091C18.1206 2.19952 19.3306 1.8545 19.4506 1.84404C19.6506 2.68045 19.7206 3.89326 19.7306 4.11281C19.7606 4.52057 19.7506 4.92832 19.7606 5.33607C19.7706 6.68479 19.4006 7.83486 19.3206 8.07532C19.2606 8.25306 19.2006 8.4308 19.1106 8.59808C19.0006 8.81764 18.8806 9.02674 18.7606 9.23585C18.5906 9.51814 18.3806 9.76906 18.1306 9.98862C17.9406 10.1559 17.7406 10.3127 17.5206 10.4382C17.2706 10.5846 17.0106 10.6996 16.7406 10.7937C15.6706 11.1491 14.9206 11.0132 14.5906 11.0132C14.5006 11.0132 14.4206 10.9923 14.3306 10.94L14.3606 10.9296ZM23.4806 22.0853C23.5006 22.2421 23.4906 22.3989 23.4806 22.5766C23.4406 22.5766 23.4006 22.5976 23.3606 22.5976C23.1306 22.5976 22.8906 22.5976 22.6606 22.5976C22.5606 22.5976 22.4706 22.608 22.3906 22.6185C22.2106 22.7753 22.1506 22.953 22.2306 23.1621C22.3506 23.3399 22.5106 23.3922 22.7006 23.3817C22.9106 23.3817 23.1306 23.3817 23.3406 23.3817H23.4906V23.6954C23.4906 23.6954 22.8806 23.6954 22.6406 23.6954C22.6006 23.6954 22.5506 23.6954 22.5106 23.6954C22.2306 23.7581 22.1406 24.0195 22.2306 24.2286C22.2406 24.2599 22.2606 24.3018 22.2706 24.3331C22.4006 24.4586 22.5506 24.4795 22.7106 24.4795C22.9406 24.4795 23.4606 24.4795 23.4606 24.4795V24.95C23.4606 24.95 20.5606 24.95 19.1306 24.95C19.1206 24.95 19.1006 24.9291 19.0906 24.9186V24.4795C19.1406 24.4795 21.5006 24.4586 21.5606 24.4481C21.7006 24.3436 21.7606 24.239 21.7906 24.0926C21.7706 23.9567 21.7206 23.8208 21.5506 23.7058C21.4906 23.7058 19.1606 23.6849 19.0906 23.6849C19.0706 23.5908 19.0806 23.4863 19.0806 23.4026C19.0806 23.4026 19.0906 23.3922 19.1006 23.3817C19.1006 23.3817 19.1006 23.3817 19.1106 23.3817C19.1306 23.3817 20.7006 23.3817 21.4606 23.3817C21.6006 23.319 21.7106 23.2458 21.7706 23.0785C21.8306 22.9008 21.7106 22.8067 21.6606 22.6812C21.6106 22.6603 21.5606 22.6289 21.5206 22.608C20.9606 22.5766 19.0606 22.5976 19.0606 22.5976V22.0539C19.0606 22.0539 22.4306 22.0957 23.4906 22.0957L23.4806 22.0853ZM22.3506 25.7446C22.3906 25.8909 22.3406 26.0582 22.2306 26.1523C22.1306 26.236 22.0206 26.2882 21.8806 26.2882C21.4406 26.2882 21.0006 26.2882 20.5606 26.2882C20.3806 26.2255 20.2506 26.1 20.1806 25.9223C20.1506 25.8491 20.1406 25.7864 20.2206 25.7446H22.3606H22.3506ZM7.54056 25.5877H18.7506C18.7506 25.5877 18.8206 25.6505 18.8706 25.6714C19.0406 25.7446 19.2206 25.8073 19.3406 25.9537C19.5106 26.1523 19.5706 26.4451 19.7506 26.6437C20.2106 27.2083 20.9906 27.1142 21.6306 27.1142C22.0906 27.1142 22.5906 26.9887 22.8706 26.581C23.0106 26.3823 23.0706 26.1523 23.2106 25.9746C23.4206 25.7655 23.6506 25.7027 23.8406 25.5773H35.1906L40.9106 32.2895H1.81056L7.53056 25.5773L7.54056 25.5877Z" fill="#4F6454"/>
<path d="M8.15023 26.2885H8.03023C7.73023 26.2885 7.49023 26.5394 7.49023 26.853C7.49023 27.1667 7.73023 27.4176 8.03023 27.4176H8.15023C8.45023 27.4176 8.69023 27.1667 8.69023 26.853C8.69023 26.5394 8.45023 26.2885 8.15023 26.2885Z" fill="#4F6454"/>
<path d="M6.40023 28.3795H6.28023C5.98023 28.3795 5.74023 28.6304 5.74023 28.9441C5.74023 29.2577 5.98023 29.5086 6.28023 29.5086H6.40023C6.70023 29.5086 6.94023 29.2577 6.94023 28.9441C6.94023 28.6304 6.70023 28.3795 6.40023 28.3795Z" fill="#4F6454"/>
<path d="M4.65023 30.4807H4.53023C4.23023 30.4807 3.99023 30.7317 3.99023 31.0453C3.99023 31.359 4.23023 31.6099 4.53023 31.6099H4.65023C4.95023 31.6099 5.19023 31.359 5.19023 31.0453C5.19023 30.7317 4.95023 30.4807 4.65023 30.4807Z" fill="#4F6454"/>
<path d="M12.5506 26.2885H12.4306C12.1306 26.2885 11.8906 26.5394 11.8906 26.853C11.8906 27.1667 12.1306 27.4176 12.4306 27.4176H12.5506C12.8506 27.4176 13.0906 27.1667 13.0906 26.853C13.0906 26.5394 12.8506 26.2885 12.5506 26.2885Z" fill="#4F6454"/>
<path d="M11.3807 28.3795H11.2607C10.9607 28.3795 10.7207 28.6304 10.7207 28.9441C10.7207 29.2577 10.9607 29.5086 11.2607 29.5086H11.3807C11.6807 29.5086 11.9207 29.2577 11.9207 28.9441C11.9207 28.6304 11.6807 28.3795 11.3807 28.3795Z" fill="#4F6454"/>
<path d="M10.2108 30.4807H10.0908C9.79078 30.4807 9.55078 30.7317 9.55078 31.0453C9.55078 31.359 9.79078 31.6099 10.0908 31.6099H10.2108C10.5108 31.6099 10.7508 31.359 10.7508 31.0453C10.7508 30.7317 10.5108 30.4807 10.2108 30.4807Z" fill="#4F6454"/>
<path d="M16.9491 26.2885H16.8291C16.5291 26.2885 16.2891 26.5394 16.2891 26.853C16.2891 27.1667 16.5291 27.4176 16.8291 27.4176H16.9491C17.2491 27.4176 17.4891 27.1667 17.4891 26.853C17.4891 26.5394 17.2491 26.2885 16.9491 26.2885Z" fill="#4F6454"/>
<path d="M16.3709 28.3897H16.2509C15.9509 28.3897 15.7109 28.6406 15.7109 28.9543C15.7109 29.2679 15.9509 29.5189 16.2509 29.5189H16.3709C16.6709 29.5189 16.9109 29.2679 16.9109 28.9543C16.9109 28.6406 16.6709 28.3897 16.3709 28.3897Z" fill="#4F6454"/>
<path d="M15.7791 30.4807H15.6591C15.3591 30.4807 15.1191 30.7317 15.1191 31.0453C15.1191 31.359 15.3591 31.6099 15.6591 31.6099H15.7791C16.0791 31.6099 16.3191 31.359 16.3191 31.0453C16.3191 30.7317 16.0791 30.4807 15.7791 30.4807Z" fill="#4F6454"/>
<path d="M21.3495 28.3897H21.2295C20.9295 28.3897 20.6895 28.6406 20.6895 28.9543C20.6895 29.2679 20.9295 29.5189 21.2295 29.5189H21.3495C21.6495 29.5189 21.8895 29.2679 21.8895 28.9543C21.8895 28.6406 21.6495 28.3897 21.3495 28.3897Z" fill="#4F6454"/>
<path d="M21.3495 30.4909H21.2295C20.9295 30.4909 20.6895 30.7419 20.6895 31.0555C20.6895 31.3692 20.9295 31.6201 21.2295 31.6201H21.3495C21.6495 31.6201 21.8895 31.3692 21.8895 31.0555C21.8895 30.7419 21.6495 30.4909 21.3495 30.4909Z" fill="#4F6454"/>
<path d="M34.5291 26.2885H34.4091C34.1091 26.2885 33.8691 26.5394 33.8691 26.853C33.8691 27.1667 34.1091 27.4176 34.4091 27.4176H34.5291C34.8291 27.4176 35.0691 27.1667 35.0691 26.853C35.0691 26.5394 34.8291 26.2885 34.5291 26.2885Z" fill="#4F6454"/>
<path d="M36.2791 28.3795H36.1591C35.8591 28.3795 35.6191 28.6304 35.6191 28.9441C35.6191 29.2577 35.8591 29.5086 36.1591 29.5086H36.2791C36.5791 29.5086 36.8191 29.2577 36.8191 28.9441C36.8191 28.6304 36.5791 28.3795 36.2791 28.3795Z" fill="#4F6454"/>
<path d="M38.0409 30.4807H37.9209C37.6209 30.4807 37.3809 30.7317 37.3809 31.0453C37.3809 31.359 37.6209 31.6099 37.9209 31.6099H38.0409C38.3409 31.6099 38.5809 31.359 38.5809 31.0453C38.5809 30.7317 38.3409 30.4807 38.0409 30.4807Z" fill="#4F6454"/>
<path d="M30.1307 26.2885H30.0107C29.7107 26.2885 29.4707 26.5394 29.4707 26.853C29.4707 27.1667 29.7107 27.4176 30.0107 27.4176H30.1307C30.4307 27.4176 30.6707 27.1667 30.6707 26.853C30.6707 26.5394 30.4307 26.2885 30.1307 26.2885Z" fill="#4F6454"/>
<path d="M31.3006 28.3795H31.1806C30.8806 28.3795 30.6406 28.6304 30.6406 28.9441C30.6406 29.2577 30.8806 29.5086 31.1806 29.5086H31.3006C31.6006 29.5086 31.8406 29.2577 31.8406 28.9441C31.8406 28.6304 31.6006 28.3795 31.3006 28.3795Z" fill="#4F6454"/>
<path d="M32.4706 30.4807H32.3505C32.0505 30.4807 31.8105 30.7317 31.8105 31.0453C31.8105 31.359 32.0505 31.6099 32.3505 31.6099H32.4706C32.7706 31.6099 33.0105 31.359 33.0105 31.0453C33.0105 30.7317 32.7706 30.4807 32.4706 30.4807Z" fill="#4F6454"/>
<path d="M26.2801 26.853C26.2801 26.5394 26.0401 26.2885 25.7401 26.2885H25.6201C25.3201 26.2885 25.0801 26.5394 25.0801 26.853C25.0801 27.1667 25.3201 27.4176 25.6201 27.4176H25.7401C26.0401 27.4176 26.2801 27.1667 26.2801 26.853Z" fill="#4F6454"/>
<path d="M26.8602 28.9543C26.8602 28.6406 26.6202 28.3897 26.3202 28.3897H26.2002C25.9002 28.3897 25.6602 28.6406 25.6602 28.9543C25.6602 29.2679 25.9002 29.5189 26.2002 29.5189H26.3202C26.6202 29.5189 26.8602 29.2679 26.8602 28.9543Z" fill="#4F6454"/>
<path d="M26.9002 30.4807H26.7802C26.4802 30.4807 26.2402 30.7317 26.2402 31.0453C26.2402 31.359 26.4802 31.6099 26.7802 31.6099H26.9002C27.2002 31.6099 27.4402 31.359 27.4402 31.0453C27.4402 30.7317 27.2002 30.4807 26.9002 30.4807Z" fill="#4F6454"/>
<path d="M0.54 35.8757H42.5C42.8 35.8757 43.04 35.6248 43.04 35.3111C43.04 34.9974 42.8 34.7465 42.5 34.7465H0.54C0.24 34.7465 0 34.9974 0 35.3111C0 35.6248 0.24 35.8757 0.54 35.8757Z" fill="#4F6454"/>
<path d="M42.5 45.871H0.54C0.24 45.871 0 46.1219 0 46.4356C0 46.7492 0.24 47.0001 0.54 47.0001H42.5C42.8 47.0001 43.04 46.7492 43.04 46.4356C43.04 46.1219 42.8 45.871 42.5 45.871Z" fill="#4F6454"/>
<path d="M3.63922 36.8376C2.70922 36.8376 1.94922 37.6321 1.94922 38.6045C1.94922 39.5768 2.70922 40.3714 3.63922 40.3714C4.56922 40.3714 5.32922 39.5768 5.32922 38.6045C5.32922 37.6321 4.56922 36.8376 3.63922 36.8376ZM3.63922 39.2422C3.30922 39.2422 3.02922 38.96 3.02922 38.6045C3.02922 38.249 3.29922 37.9667 3.63922 37.9667C3.97922 37.9667 4.24922 38.249 4.24922 38.6045C4.24922 38.96 3.97922 39.2422 3.63922 39.2422Z" fill="#4F6454"/>
<path d="M10.7994 36.8376C9.86938 36.8376 9.10938 37.6321 9.10938 38.6045C9.10938 39.5768 9.86938 40.3714 10.7994 40.3714C11.7294 40.3714 12.4894 39.5768 12.4894 38.6045C12.4894 37.6321 11.7294 36.8376 10.7994 36.8376ZM10.7994 39.2422C10.4694 39.2422 10.1894 38.96 10.1894 38.6045C10.1894 38.249 10.4594 37.9667 10.7994 37.9667C11.1394 37.9667 11.4094 38.249 11.4094 38.6045C11.4094 38.96 11.1394 39.2422 10.7994 39.2422Z" fill="#4F6454"/>
<path d="M19.6593 38.6045C19.6593 37.6321 18.8993 36.8376 17.9693 36.8376C17.0393 36.8376 16.2793 37.6321 16.2793 38.6045C16.2793 39.5768 17.0393 40.3714 17.9693 40.3714C18.8993 40.3714 19.6593 39.5768 19.6593 38.6045ZM17.3593 38.6045C17.3593 38.2595 17.6293 37.9667 17.9693 37.9667C18.3093 37.9667 18.5793 38.249 18.5793 38.6045C18.5793 38.96 18.3093 39.2422 17.9693 39.2422C17.6293 39.2422 17.3593 38.96 17.3593 38.6045Z" fill="#4F6454"/>
<path d="M25.1295 36.8376C24.1995 36.8376 23.4395 37.6321 23.4395 38.6045C23.4395 39.5768 24.1995 40.3714 25.1295 40.3714C26.0595 40.3714 26.8195 39.5768 26.8195 38.6045C26.8195 37.6321 26.0595 36.8376 25.1295 36.8376ZM25.1295 39.2422C24.7995 39.2422 24.5195 38.96 24.5195 38.6045C24.5195 38.249 24.7895 37.9667 25.1295 37.9667C25.4695 37.9667 25.7395 38.249 25.7395 38.6045C25.7395 38.96 25.4695 39.2422 25.1295 39.2422Z" fill="#4F6454"/>
<path d="M33.9894 38.6045C33.9894 37.6321 33.2294 36.8376 32.2994 36.8376C31.3694 36.8376 30.6094 37.6321 30.6094 38.6045C30.6094 39.5768 31.3694 40.3714 32.2994 40.3714C33.2294 40.3714 33.9894 39.5768 33.9894 38.6045ZM31.6894 38.6045C31.6894 38.2595 31.9594 37.9667 32.2994 37.9667C32.6394 37.9667 32.9094 38.249 32.9094 38.6045C32.9094 38.96 32.6394 39.2422 32.2994 39.2422C31.9594 39.2422 31.6894 38.96 31.6894 38.6045Z" fill="#4F6454"/>
<path d="M39.4693 36.8376C38.5393 36.8376 37.7793 37.6321 37.7793 38.6045C37.7793 39.5768 38.5393 40.3714 39.4693 40.3714C40.3993 40.3714 41.1593 39.5768 41.1593 38.6045C41.1593 37.6321 40.3993 36.8376 39.4693 36.8376ZM39.4693 39.2422C39.1393 39.2422 38.8593 38.96 38.8593 38.6045C38.8593 38.249 39.1293 37.9667 39.4693 37.9667C39.8093 37.9667 40.0793 38.249 40.0793 38.6045C40.0793 38.96 39.8093 39.2422 39.4693 39.2422Z" fill="#4F6454"/>
<path d="M1.94922 43.1628C1.94922 44.1351 2.70922 44.9297 3.63922 44.9297C4.56922 44.9297 5.32922 44.1351 5.32922 43.1628C5.32922 42.1905 4.56922 41.3959 3.63922 41.3959C2.70922 41.3959 1.94922 42.1905 1.94922 43.1628ZM4.23922 43.1628C4.23922 43.5078 3.96922 43.8006 3.62922 43.8006C3.28922 43.8006 3.01922 43.5183 3.01922 43.1628C3.01922 42.8073 3.28922 42.525 3.62922 42.525C3.96922 42.525 4.23922 42.8073 4.23922 43.1628Z" fill="#4F6454"/>
<path d="M10.7603 41.3959C9.83031 41.3959 9.07031 42.1905 9.07031 43.1628C9.07031 44.1351 9.83031 44.9297 10.7603 44.9297C11.6903 44.9297 12.4503 44.1351 12.4503 43.1628C12.4503 42.1905 11.6903 41.3959 10.7603 41.3959ZM10.7603 43.8006C10.4303 43.8006 10.1503 43.5183 10.1503 43.1628C10.1503 42.8073 10.4203 42.525 10.7603 42.525C11.1003 42.525 11.3703 42.8073 11.3703 43.1628C11.3703 43.5183 11.1003 43.8006 10.7603 43.8006Z" fill="#4F6454"/>
<path d="M18.1099 44.9297C19.0399 44.9297 19.7999 44.1351 19.7999 43.1628C19.7999 42.1905 19.0399 41.3959 18.1099 41.3959C17.1799 41.3959 16.4199 42.1905 16.4199 43.1628C16.4199 44.1351 17.1799 44.9297 18.1099 44.9297ZM18.1099 42.5355C18.4399 42.5355 18.7199 42.8178 18.7199 43.1732C18.7199 43.5287 18.4499 43.811 18.1099 43.811C17.7699 43.811 17.4999 43.5287 17.4999 43.1732C17.4999 42.8178 17.7699 42.5355 18.1099 42.5355Z" fill="#4F6454"/>
<path d="M25.1295 41.3959C24.1995 41.3959 23.4395 42.1905 23.4395 43.1628C23.4395 44.1351 24.1995 44.9297 25.1295 44.9297C26.0595 44.9297 26.8195 44.1351 26.8195 43.1628C26.8195 42.1905 26.0595 41.3959 25.1295 41.3959ZM25.1295 43.8006C24.7995 43.8006 24.5195 43.5183 24.5195 43.1628C24.5195 42.8073 24.7895 42.525 25.1295 42.525C25.4695 42.525 25.7395 42.8073 25.7395 43.1628C25.7395 43.5183 25.4695 43.8006 25.1295 43.8006Z" fill="#4F6454"/>
<path d="M32.4107 44.9297C33.3407 44.9297 34.1007 44.1351 34.1007 43.1628C34.1007 42.1905 33.3407 41.3959 32.4107 41.3959C31.4807 41.3959 30.7207 42.1905 30.7207 43.1628C30.7207 44.1351 31.4807 44.9297 32.4107 44.9297ZM32.4107 42.5355C32.7407 42.5355 33.0207 42.8178 33.0207 43.1732C33.0207 43.5287 32.7507 43.811 32.4107 43.811C32.0707 43.811 31.8007 43.5287 31.8007 43.1732C31.8007 42.8178 32.0707 42.5355 32.4107 42.5355Z" fill="#4F6454"/>
<path d="M39.4693 41.3959C38.5393 41.3959 37.7793 42.1905 37.7793 43.1628C37.7793 44.1351 38.5393 44.9297 39.4693 44.9297C40.3993 44.9297 41.1593 44.1351 41.1593 43.1628C41.1593 42.1905 40.3993 41.3959 39.4693 41.3959ZM39.4693 43.8006C39.1393 43.8006 38.8593 43.5183 38.8593 43.1628C38.8593 42.8073 39.1293 42.525 39.4693 42.525C39.8093 42.525 40.0793 42.8073 40.0793 43.1628C40.0793 43.5183 39.8093 43.8006 39.4693 43.8006Z" fill="#4F6454"/>
<path d="M22.8407 9.65387C22.8807 9.51795 23.0107 9.05792 23.0407 8.94292C23.1207 8.62926 23.2007 8.32606 23.2807 8.0124C23.3407 7.76148 23.4107 7.51056 23.4807 7.25963C23.5307 7.06098 23.6207 6.86234 23.6007 6.65323C23.5707 6.48595 23.4207 6.37094 23.2607 6.3814C23.1507 6.3814 23.0507 6.46504 22.9807 6.55914C22.8607 6.71596 22.7407 6.8937 22.6307 7.05053C22.3407 7.46874 22.0507 7.88694 21.7607 8.30515C21.4107 8.82791 21.0407 9.32976 20.6807 9.84206C20.0407 10.783 19.3907 11.7031 18.7407 12.6336C18.5607 12.895 18.3807 13.1459 18.2007 13.4073C18.0807 13.585 17.9607 13.7523 17.8307 13.93C17.7707 14.0137 17.7207 14.1182 17.7207 14.2123C17.7607 14.6828 18.3007 14.5155 18.6007 14.4842C19.0207 14.4423 19.4407 14.3378 19.8607 14.2855C19.9807 14.2646 20.1107 14.2541 20.2307 14.2332C20.2807 14.2332 20.3507 14.2332 20.3807 14.2541C20.4307 14.3064 20.3907 14.4214 20.3807 14.4946C20.1607 15.2474 19.9707 16.0106 19.7707 16.7738C19.6807 17.1189 19.5807 17.4639 19.4807 17.8089C19.4207 18.0076 19.3707 18.2062 19.3207 18.4048C19.3007 18.478 19.2907 18.5617 19.2907 18.6349C19.2907 18.9172 19.5407 19.0531 19.7607 18.9485C19.9407 18.844 20.0207 18.6244 20.1507 18.4571C21.5407 16.4916 22.9107 14.5051 24.3007 12.529C24.5607 12.1527 24.8407 11.7867 25.0807 11.3999C25.2107 11.2012 25.1207 10.9503 24.9107 10.8771C24.8107 10.8353 24.6907 10.8562 24.5907 10.8771C24.2507 10.9294 23.9207 11.0026 23.5807 11.0549C23.3007 11.0967 23.0207 11.149 22.7407 11.2012C22.6707 11.2117 22.5907 11.2326 22.5207 11.2221C22.3907 11.2117 22.4107 11.0862 22.4407 10.9817C22.5607 10.5321 22.6807 10.0825 22.8207 9.65387H22.8407ZM23.6407 11.7554C23.7507 11.7554 24.1707 11.5985 24.0107 11.8599C22.9207 13.4386 21.8107 14.9965 20.7107 16.5752C20.6607 16.6379 20.5807 16.7738 20.5107 16.7948C20.4907 16.7948 20.4807 16.7634 20.4907 16.7216C20.4907 16.7007 20.4907 16.6693 20.5107 16.6379C20.7007 15.9583 20.9007 15.2683 21.0807 14.5887C21.1307 14.3901 21.1807 14.2019 21.2307 14.0137C21.2607 13.8987 21.2707 13.7628 21.2107 13.6687C21.0207 13.3655 20.0607 13.5955 19.9207 13.6164C19.6507 13.6582 19.3807 13.7209 19.1107 13.7418C19.0507 13.7418 18.8507 13.8046 18.8307 13.7209C18.8307 13.6896 18.8607 13.6268 18.8907 13.5955C18.9807 13.4491 19.0807 13.3132 19.1707 13.1773C19.4507 12.7695 19.7307 12.3931 20.0007 11.9854C20.7807 10.8771 21.5307 9.76887 22.3407 8.68154C22.4307 8.61881 22.4307 8.67108 22.3807 8.81745C22.3807 8.81745 21.9207 10.4903 21.6907 11.2221C21.6007 11.5044 21.4907 11.9122 21.8507 12.0272C22.0107 12.0586 22.1807 12.0063 22.3307 11.9854C22.7607 11.9017 23.2007 11.8495 23.6307 11.7763L23.6407 11.7554Z" fill="#4F6454"/>
</svg>
