<svg width="93" height="100" viewBox="0 0 93 100" fill="none" xmlns="http://www.w3.org/2000/svg">
<path d="M1.31274 71.9609H90.9863C91.4552 71.9609 91.8772 71.6795 92.0647 71.2575C92.2523 70.8355 92.1819 70.3432 91.8772 69.9916L77.4122 53.7683C77.2012 53.5104 76.873 53.3697 76.5447 53.3697H72.3483C81.7259 39.3267 75.3022 27.2296 74.9974 26.7842C74.8333 26.4794 74.4582 26.2449 74.0597 26.2449C73.6611 26.2449 73.3563 26.4794 73.2157 26.7842C69.5818 34.3566 64.9634 36.6541 61.2592 38.5062C59.6416 39.3502 58.0943 40.1238 56.8517 41.2023C53.0303 45.1174 54.0853 49.1498 54.8355 51.0253C52.4208 51.4708 49.8654 51.5176 47.1224 51.0956C46.5832 51.0253 46.044 51.4004 45.9737 51.9396C45.9034 52.4788 46.2785 53.0181 46.8177 53.0884C47.9195 53.2525 48.9745 53.3228 50.0295 53.3697H37.3932C34.8378 48.2824 34.955 44.2031 35.1191 40.8271C35.166 38.9985 35.2363 37.2636 34.9081 35.6695C33.3608 30.418 29.305 29.3864 27.3122 29.1286C28.1093 26.8076 29.305 24.557 30.9929 22.3532C31.3211 21.9078 31.2508 21.2514 30.8054 20.9231C30.3599 20.5949 29.7035 20.6653 29.3753 21.1107C28.461 22.2829 27.7108 23.4551 27.0309 24.6742C26.2103 26.1512 25.507 27.7219 25.1085 29.2458C24.0066 29.3396 22.9751 29.574 21.967 29.9725C21.6622 30.0663 21.3574 30.2539 21.0526 30.3477C19.1771 31.3323 17.7705 32.7624 16.8327 34.4504C15.3792 37.0761 15.1213 40.2176 16.5279 42.9371C18.9192 47.7431 21.9201 51.0722 24.9209 53.3697H15.7777C15.4495 53.3697 15.1213 53.5104 14.9103 53.7683L0.421869 70.015C0.117097 70.3667 0.0467644 70.859 0.234317 71.281C0.421869 71.703 0.843862 71.9843 1.31274 71.9843V71.9609ZM58.2115 42.7261C59.2196 41.7884 60.5324 41.1788 62.1501 40.3348C65.6198 38.6468 70.2617 36.2556 74.1066 29.5271C75.4898 33.3016 77.5059 42.4917 70.5665 52.5961C68.3393 55.8313 63.6974 56.5347 60.0636 54.1434C59.8291 53.9793 59.6885 53.8386 59.454 53.6745C58.9148 53.2994 58.4459 52.7367 58.0708 52.2913C63.3223 50.6033 67.7298 46.8054 71.3402 41.1085C71.6449 40.6396 71.5043 40.03 71.0354 39.7253C70.5665 39.4205 69.957 39.5612 69.6522 40.03C66.0652 45.727 61.775 49.2436 56.6642 50.6971C55.914 48.9388 55.7264 44.7657 58.2349 42.7496L58.2115 42.7261ZM55.9843 52.9008C56.1015 53.0884 56.2422 53.2291 56.3828 53.4166H51.7175C53.1945 53.3697 54.648 53.2525 55.9843 52.9008ZM18.2628 42.1869C16.5279 38.6469 18.169 34.2628 22.0139 32.2701C22.2717 32.1528 22.4827 32.0825 22.7172 31.9653C23.3267 31.684 24.0066 31.5433 24.6161 31.4261C23.5377 36.8417 24.7099 42.5151 27.9452 48.4699C28.2031 48.9622 28.8126 49.1263 29.305 48.8685C29.7973 48.6106 29.9614 48.001 29.7035 47.5087C26.4682 41.6008 25.4836 36.1383 26.7027 30.9806C28.6016 31.1916 32.3292 33.0437 32.8919 36.2087C33.2201 37.545 33.1263 38.9751 33.0794 40.8037C32.8685 44.672 32.7043 49.8766 36.7133 56.5112C32.7278 55.8782 23.7253 53.1822 18.2628 42.1869ZM16.2935 55.761H28.5782C31.1101 57.0973 33.4311 57.8006 35.2363 58.1758C35.2363 58.2461 35.1894 58.3164 35.1894 58.3868C35.1894 59.0432 35.7052 59.559 36.3616 59.559H36.6195C37.2056 59.559 37.6745 59.1135 37.7448 58.5743C38.2371 58.6212 38.5654 58.6212 38.6357 58.6212C38.9874 58.6212 39.3625 58.4102 39.55 58.082C39.7376 57.7538 39.6907 57.3552 39.4797 57.0739C39.1749 56.6284 38.9405 56.2299 38.6826 55.8079H58.6804C58.6804 55.8079 58.821 55.9017 58.8679 55.972C60.4621 57.027 62.197 57.5428 63.9318 57.6365C63.7443 57.8475 63.6271 58.1289 63.6271 58.4336C63.6271 59.0901 64.1428 59.6058 64.7993 59.6058H65.0571C65.7136 59.6058 66.2293 59.0901 66.2293 58.4336C66.2293 58.0585 66.0652 57.7538 65.7839 57.5428C67.3547 57.3318 68.8316 56.7691 70.0976 55.8313H75.9352L88.3137 69.7102H3.91503L16.2935 55.8313V55.761Z" fill="#788E72"/>
<path d="M17.6068 57.1914H17.349C16.6925 57.1914 16.1768 57.7072 16.1768 58.3636C16.1768 59.02 16.6925 59.5358 17.349 59.5358H17.6068C18.2633 59.5358 18.779 59.02 18.779 58.3636C18.779 57.7072 18.2633 57.1914 17.6068 57.1914Z" fill="#788E72"/>
<path d="M13.8319 61.5283H13.5741C12.9176 61.5283 12.4019 62.0441 12.4019 62.7005C12.4019 63.357 12.9176 63.8727 13.5741 63.8727H13.8319C14.4884 63.8727 15.0041 63.357 15.0041 62.7005C15.0041 62.0441 14.4884 61.5283 13.8319 61.5283Z" fill="#788E72"/>
<path d="M10.0341 65.8652H9.77621C9.11977 65.8652 8.604 66.381 8.604 67.0374C8.604 67.6939 9.11977 68.2096 9.77621 68.2096H10.0341C10.6905 68.2096 11.2063 67.6939 11.2063 67.0374C11.2063 66.381 10.6905 65.8652 10.0341 65.8652Z" fill="#788E72"/>
<path d="M27.1249 57.1914H26.867C26.2106 57.1914 25.6948 57.7072 25.6948 58.3636C25.6948 59.02 26.2106 59.5358 26.867 59.5358H27.1249C27.7813 59.5358 28.2971 59.02 28.2971 58.3636C28.2971 57.7072 27.7813 57.1914 27.1249 57.1914Z" fill="#788E72"/>
<path d="M24.5927 61.5283H24.3348C23.6784 61.5283 23.1626 62.0441 23.1626 62.7005C23.1626 63.357 23.6784 63.8727 24.3348 63.8727H24.5927C25.2491 63.8727 25.7649 63.357 25.7649 62.7005C25.7649 62.0441 25.2491 61.5283 24.5927 61.5283Z" fill="#788E72"/>
<path d="M22.0609 65.8652H21.8031C21.1466 65.8652 20.6309 66.381 20.6309 67.0374C20.6309 67.6939 21.1466 68.2096 21.8031 68.2096H22.0609C22.7174 68.2096 23.2331 67.6939 23.2331 67.0374C23.2331 66.381 22.7174 65.8652 22.0609 65.8652Z" fill="#788E72"/>
<path d="M35.3539 61.5283H35.096C34.4396 61.5283 33.9238 62.0441 33.9238 62.7005C33.9238 63.357 34.4396 63.8727 35.096 63.8727H35.3539C36.0103 63.8727 36.5261 63.357 36.5261 62.7005C36.5261 62.0441 36.0103 61.5283 35.3539 61.5283Z" fill="#788E72"/>
<path d="M34.0873 65.8652H33.8294C33.173 65.8652 32.6572 66.381 32.6572 67.0374C32.6572 67.6939 33.173 68.2096 33.8294 68.2096H34.0873C34.7437 68.2096 35.2595 67.6939 35.2595 67.0374C35.2595 66.381 34.7437 65.8652 34.0873 65.8652Z" fill="#788E72"/>
<path d="M46.1147 57.1914H45.8568C45.2003 57.1914 44.6846 57.7072 44.6846 58.3636C44.6846 59.02 45.2003 59.5358 45.8568 59.5358H46.1147C46.7711 59.5358 47.2869 59.02 47.2869 58.3636C47.2869 57.7072 46.7711 57.1914 46.1147 57.1914Z" fill="#788E72"/>
<path d="M46.1147 61.5283H45.8568C45.2003 61.5283 44.6846 62.0441 44.6846 62.7005C44.6846 63.357 45.2003 63.8727 45.8568 63.8727H46.1147C46.7711 63.8727 47.2869 63.357 47.2869 62.7005C47.2869 62.0441 46.7711 61.5283 46.1147 61.5283Z" fill="#788E72"/>
<path d="M46.1147 65.8652H45.8568C45.2003 65.8652 44.6846 66.381 44.6846 67.0374C44.6846 67.6939 45.2003 68.2096 45.8568 68.2096H46.1147C46.7711 68.2096 47.2869 67.6939 47.2869 67.0374C47.2869 66.381 46.7711 65.8652 46.1147 65.8652Z" fill="#788E72"/>
<path d="M74.5985 57.1914H74.3407C73.6842 57.1914 73.1685 57.7072 73.1685 58.3636C73.1685 59.02 73.6842 59.5358 74.3407 59.5358H74.5985C75.255 59.5358 75.7707 59.02 75.7707 58.3636C75.7707 57.7072 75.255 57.1914 74.5985 57.1914Z" fill="#788E72"/>
<path d="M78.3969 61.5283H78.139C77.4826 61.5283 76.9668 62.0441 76.9668 62.7005C76.9668 63.357 77.4826 63.8727 78.139 63.8727H78.3969C79.0533 63.8727 79.5691 63.357 79.5691 62.7005C79.5691 62.0441 79.0533 61.5283 78.3969 61.5283Z" fill="#788E72"/>
<path d="M82.1947 65.8652H81.9369C81.2804 65.8652 80.7646 66.381 80.7646 67.0374C80.7646 67.6939 81.2804 68.2096 81.9369 68.2096H82.1947C82.8512 68.2096 83.3669 67.6939 83.3669 67.0374C83.3669 66.381 82.8512 65.8652 82.1947 65.8652Z" fill="#788E72"/>
<path d="M67.6361 61.5283H67.3783C66.7218 61.5283 66.2061 62.0441 66.2061 62.7005C66.2061 63.357 66.7218 63.8727 67.3783 63.8727H67.6361C68.2926 63.8727 68.8083 63.357 68.8083 62.7005C68.8083 62.0441 68.2926 61.5283 67.6361 61.5283Z" fill="#788E72"/>
<path d="M70.1444 65.8652H69.8866C69.2301 65.8652 68.7144 66.381 68.7144 67.0374C68.7144 67.6939 69.2301 68.2096 69.8866 68.2096H70.1444C70.8009 68.2096 71.3166 67.6939 71.3166 67.0374C71.3166 66.381 70.8009 65.8652 70.1444 65.8652Z" fill="#788E72"/>
<path d="M56.782 58.3636C56.782 57.7072 56.2662 57.1914 55.6098 57.1914H55.3519C54.6955 57.1914 54.1797 57.7072 54.1797 58.3636C54.1797 59.02 54.6955 59.5358 55.3519 59.5358H55.6098C56.2662 59.5358 56.782 59.02 56.782 58.3636Z" fill="#788E72"/>
<path d="M58.0242 62.7005C58.0242 62.0441 57.5084 61.5283 56.852 61.5283H56.5941C55.9376 61.5283 55.4219 62.0441 55.4219 62.7005C55.4219 63.357 55.9376 63.8727 56.5941 63.8727H56.852C57.5084 63.8727 58.0242 63.357 58.0242 62.7005Z" fill="#788E72"/>
<path d="M58.1181 65.8652H57.8602C57.2038 65.8652 56.688 66.381 56.688 67.0374C56.688 67.6939 57.2038 68.2096 57.8602 68.2096H58.1181C58.7745 68.2096 59.2903 67.6939 59.2903 67.0374C59.2903 66.381 58.7745 65.8652 58.1181 65.8652Z" fill="#788E72"/>
<path d="M1.1722 77.0251H91.8304C92.4868 77.0251 93.0026 76.5093 93.0026 75.8529C93.0026 75.1964 92.4868 74.6807 91.8304 74.6807H1.1722C0.515769 74.6807 0 75.1964 0 75.8529C0 76.5093 0.515769 77.0251 1.1722 77.0251Z" fill="#788E72"/>
<path d="M91.8304 97.6553H1.1722C0.515769 97.6553 0 98.171 0 98.8275C0 99.4839 0.515769 99.9997 1.1722 99.9997H91.8304C92.4868 99.9997 93.0026 99.4839 93.0026 98.8275C93.0026 98.171 92.4868 97.6553 91.8304 97.6553Z" fill="#788E72"/>
<path d="M7.85405 78.9941C5.83786 78.9941 4.19678 80.6352 4.19678 82.6514C4.19678 84.6676 5.83786 86.3087 7.85405 86.3087C9.87024 86.3087 11.5113 84.6676 11.5113 82.6514C11.5113 80.6352 9.87024 78.9941 7.85405 78.9941ZM7.85405 83.9643C7.12728 83.9643 6.54118 83.3782 6.54118 82.6514C6.54118 81.9247 7.12728 81.3385 7.85405 81.3385C8.58082 81.3385 9.16692 81.9247 9.16692 82.6514C9.16692 83.3782 8.58082 83.9643 7.85405 83.9643Z" fill="#788E72"/>
<path d="M23.3267 78.9941C21.3105 78.9941 19.6694 80.6352 19.6694 82.6514C19.6694 84.6676 21.3105 86.3087 23.3267 86.3087C25.3429 86.3087 26.984 84.6676 26.984 82.6514C26.984 80.6352 25.3429 78.9941 23.3267 78.9941ZM23.3267 83.9643C22.5999 83.9643 22.0138 83.3782 22.0138 82.6514C22.0138 81.9247 22.5999 81.3385 23.3267 81.3385C24.0535 81.3385 24.6396 81.9247 24.6396 82.6514C24.6396 83.3782 24.0535 83.9643 23.3267 83.9643Z" fill="#788E72"/>
<path d="M42.4811 82.6514C42.4811 80.6352 40.84 78.9941 38.8238 78.9941C36.8076 78.9941 35.1665 80.6352 35.1665 82.6514C35.1665 84.6676 36.8076 86.3087 38.8238 86.3087C40.84 86.3087 42.4811 84.6676 42.4811 82.6514ZM37.5109 82.6514C37.5109 81.9247 38.097 81.3385 38.8238 81.3385C39.5505 81.3385 40.1366 81.9247 40.1366 82.6514C40.1366 83.3782 39.5505 83.9643 38.8238 83.9643C38.097 83.9643 37.5109 83.3782 37.5109 82.6514Z" fill="#788E72"/>
<path d="M54.2964 78.9941C52.2802 78.9941 50.6392 80.6352 50.6392 82.6514C50.6392 84.6676 52.2802 86.3087 54.2964 86.3087C56.3126 86.3087 57.9537 84.6676 57.9537 82.6514C57.9537 80.6352 56.3126 78.9941 54.2964 78.9941ZM54.2964 83.9643C53.5697 83.9643 52.9836 83.3782 52.9836 82.6514C52.9836 81.9247 53.5697 81.3385 54.2964 81.3385C55.0232 81.3385 55.6093 81.9247 55.6093 82.6514C55.6093 83.3782 55.0232 83.9643 54.2964 83.9643Z" fill="#788E72"/>
<path d="M73.4264 82.6514C73.4264 80.6352 71.7853 78.9941 69.7691 78.9941C67.7529 78.9941 66.1118 80.6352 66.1118 82.6514C66.1118 84.6676 67.7529 86.3087 69.7691 86.3087C71.7853 86.3087 73.4264 84.6676 73.4264 82.6514ZM68.4797 82.6514C68.4797 81.9247 69.0658 81.3385 69.7925 81.3385C70.5193 81.3385 71.1054 81.9247 71.1054 82.6514C71.1054 83.3782 70.5193 83.9643 69.7925 83.9643C69.0658 83.9643 68.4797 83.3782 68.4797 82.6514Z" fill="#788E72"/>
<path d="M85.2662 78.9941C83.25 78.9941 81.6089 80.6352 81.6089 82.6514C81.6089 84.6676 83.25 86.3087 85.2662 86.3087C87.2823 86.3087 88.9234 84.6676 88.9234 82.6514C88.9234 80.6352 87.2823 78.9941 85.2662 78.9941ZM85.2662 83.9643C84.5394 83.9643 83.9533 83.3782 83.9533 82.6514C83.9533 81.9247 84.5394 81.3385 85.2662 81.3385C85.9929 81.3385 86.579 81.9247 86.579 82.6514C86.579 83.3782 85.9929 83.9643 85.2662 83.9643Z" fill="#788E72"/>
<path d="M4.19678 92.0762C4.19678 94.0924 5.83786 95.7335 7.85405 95.7335C9.87024 95.7335 11.5113 94.0924 11.5113 92.0762C11.5113 90.06 9.87024 88.4189 7.85405 88.4189C5.83786 88.4189 4.19678 90.06 4.19678 92.0762ZM9.16692 92.0762C9.16692 92.803 8.58082 93.3891 7.85405 93.3891C7.12728 93.3891 6.54118 92.803 6.54118 92.0762C6.54118 91.3495 7.12728 90.7634 7.85405 90.7634C8.58082 90.7634 9.16692 91.3495 9.16692 92.0762Z" fill="#788E72"/>
<path d="M23.233 88.4189C21.2168 88.4189 19.5757 90.06 19.5757 92.0762C19.5757 94.0924 21.2168 95.7335 23.233 95.7335C25.2491 95.7335 26.8902 94.0924 26.8902 92.0762C26.8902 90.06 25.2491 88.4189 23.233 88.4189ZM23.233 93.3891C22.5062 93.3891 21.9201 92.803 21.9201 92.0762C21.9201 91.3495 22.5062 90.7634 23.233 90.7634C23.9597 90.7634 24.5458 91.3495 24.5458 92.0762C24.5458 92.803 23.9597 93.3891 23.233 93.3891Z" fill="#788E72"/>
<path d="M39.1285 95.7335C41.1447 95.7335 42.7857 94.0924 42.7857 92.0762C42.7857 90.06 41.1447 88.4189 39.1285 88.4189C37.1123 88.4189 35.4712 90.06 35.4712 92.0762C35.4712 94.0924 37.1123 95.7335 39.1285 95.7335ZM39.1285 90.7634C39.8552 90.7634 40.4413 91.3495 40.4413 92.0762C40.4413 92.803 39.8552 93.3891 39.1285 93.3891C38.4017 93.3891 37.8156 92.803 37.8156 92.0762C37.8156 91.3495 38.4017 90.7634 39.1285 90.7634Z" fill="#788E72"/>
<path d="M54.2964 88.4189C52.2802 88.4189 50.6392 90.06 50.6392 92.0762C50.6392 94.0924 52.2802 95.7335 54.2964 95.7335C56.3126 95.7335 57.9537 94.0924 57.9537 92.0762C57.9537 90.06 56.3126 88.4189 54.2964 88.4189ZM54.2964 93.3891C53.5697 93.3891 52.9836 92.803 52.9836 92.0762C52.9836 91.3495 53.5697 90.7634 54.2964 90.7634C55.0232 90.7634 55.6093 91.3495 55.6093 92.0762C55.6093 92.803 55.0232 93.3891 54.2964 93.3891Z" fill="#788E72"/>
<path d="M70.0274 95.7335C72.0436 95.7335 73.6847 94.0924 73.6847 92.0762C73.6847 90.06 72.0436 88.4189 70.0274 88.4189C68.0112 88.4189 66.3701 90.06 66.3701 92.0762C66.3701 94.0924 68.0112 95.7335 70.0274 95.7335ZM70.0274 90.7634C70.7542 90.7634 71.3403 91.3495 71.3403 92.0762C71.3403 92.803 70.7542 93.3891 70.0274 93.3891C69.3006 93.3891 68.7145 92.803 68.7145 92.0762C68.7145 91.3495 69.3006 90.7634 70.0274 90.7634Z" fill="#788E72"/>
<path d="M85.2662 88.4189C83.25 88.4189 81.6089 90.06 81.6089 92.0762C81.6089 94.0924 83.25 95.7335 85.2662 95.7335C87.2823 95.7335 88.9234 94.0924 88.9234 92.0762C88.9234 90.06 87.2823 88.4189 85.2662 88.4189ZM85.2662 93.3891C84.5394 93.3891 83.9533 92.803 83.9533 92.0762C83.9533 91.3495 84.5394 90.7634 85.2662 90.7634C85.9929 90.7634 86.579 91.3495 86.579 92.0762C86.579 92.803 85.9929 93.3891 85.2662 93.3891Z" fill="#788E72"/>
<path d="M30.0555 12.5775C38.425 11.9445 42.7387 14.8047 46.185 17.0788C47.7323 18.0634 49.1624 19.0012 50.7097 19.5404C56.008 20.9002 58.9854 17.9697 60.228 16.3989C61.7987 18.2744 63.135 20.4547 64.1431 23.057C64.3541 23.5728 64.9402 23.8307 65.456 23.6431C65.9718 23.4321 66.2296 22.846 66.0421 22.3303C65.5029 20.9471 64.8933 19.7045 64.19 18.5089C63.346 17.0319 62.3614 15.6487 61.2595 14.4999C61.7518 13.4918 62.08 12.5072 62.2442 11.4288C62.3379 11.124 62.3145 10.7723 62.3848 10.4441C62.502 8.33416 62.0097 6.3883 61.0485 4.72377C59.5481 2.12148 56.9927 0.292845 53.9215 0.105292C36.7605 -1.23102 29.399 10.5848 29.1646 11.0771C28.977 11.3584 28.977 11.8039 29.1646 12.1555C29.3521 12.4838 29.7038 12.6479 30.0555 12.6244V12.5775ZM53.7105 1.98082C57.6257 2.30903 60.5562 5.96631 60.2749 10.3035C60.2749 10.5848 60.2045 10.7958 60.1811 11.0771C60.1108 11.7335 59.8763 12.4134 59.6653 12.9761C55.586 9.27192 50.1001 7.34951 43.3482 7.06818C42.7856 7.02129 42.3402 7.46673 42.2933 8.02938C42.2464 8.59204 42.6918 9.03748 43.2545 9.08437C49.9829 9.34225 55.1641 11.335 58.962 15.0157C57.8132 16.5396 54.2966 18.7668 51.2958 17.6414C49.9829 17.2429 48.8107 16.3989 47.2634 15.4143C44.0516 13.2574 39.6675 10.4441 31.931 10.4441C34.5098 7.34951 41.4727 1.01961 53.7105 2.00426V1.98082Z" fill="#788E72"/>
</svg>
