<svg width="53" height="53" viewBox="0 0 53 53" fill="none" xmlns="http://www.w3.org/2000/svg">
<path d="M48.1818 0H4.81818C2.15614 0 0 2.15614 0 4.81818V48.1818C0 50.8439 2.15614 53 4.81818 53H48.1818C50.8439 53 53 50.8439 53 48.1818V4.81818C53 2.15614 50.8439 0 48.1818 0Z" fill="white"/>
<path d="M16.5248 16.5124C17.4868 16.5124 18.3879 16.5124 19.2768 16.5124C20.5554 16.5124 21.834 16.5124 23.1126 16.5124C23.271 16.5124 23.3684 16.5606 23.4536 16.681C24.8905 18.5601 26.3153 20.4392 27.7522 22.3062C27.8009 22.3785 27.8618 22.4387 27.9348 22.5351C28.3488 22.0774 28.7507 21.6317 29.1404 21.186C30.4799 19.6924 31.8193 18.1987 33.1588 16.6931C33.2806 16.5485 33.4145 16.5003 33.5972 16.5003C34.5105 16.5003 35.4238 16.5003 36.3371 16.5003C36.4101 16.5003 36.4954 16.5003 36.6293 16.5003C34.2304 19.2106 31.8681 21.8606 29.4813 24.5467C32.2943 28.2206 35.1072 31.8944 37.9445 35.6044C37.8105 35.6044 37.7131 35.6044 37.6278 35.6044C35.6308 35.6044 33.6337 35.6044 31.6367 35.6044C31.3931 35.6044 31.247 35.5321 31.0887 35.3394C29.4935 33.2556 27.8739 31.1717 26.2666 29.0999C26.2178 29.0396 26.1691 28.9794 26.0595 28.8469C26.0108 28.9192 25.9865 28.9915 25.9378 29.0396C24.0503 31.1717 22.175 33.2917 20.2876 35.4237C20.1901 35.5442 20.0805 35.5924 19.9101 35.5924C18.9724 35.5924 18.0348 35.5924 17.0971 35.5924C17.0241 35.5924 16.9632 35.5924 16.8292 35.5924C19.4108 32.6653 21.9558 29.7744 24.5008 26.8715C21.834 23.4144 19.1794 19.9815 16.4883 16.4883L16.5248 16.5124ZM20.3363 18.2469C20.4093 18.3433 20.4459 18.4156 20.4946 18.4758C23.0396 21.7642 25.5968 25.0646 28.1418 28.3531C29.4691 30.0635 30.7965 31.786 32.1238 33.4965C32.1847 33.5687 32.2699 33.6892 32.3551 33.6892C32.9153 33.7012 33.4876 33.6892 34.0965 33.6892C34.0234 33.5808 33.9747 33.5085 33.9138 33.4362C31.795 30.6658 29.6762 27.9074 27.5573 25.1369C25.8525 22.9085 24.1355 20.6681 22.4186 18.4396C22.3577 18.3674 22.2724 18.259 22.1872 18.259C21.5783 18.2469 20.9695 18.259 20.3241 18.259L20.3363 18.2469Z" fill="#566455"/>
</svg>
