<svg width="53" height="53" viewBox="0 0 53 53" fill="none" xmlns="http://www.w3.org/2000/svg">
<path d="M48.1818 0H4.81818C2.15614 0 0 2.15614 0 4.81818V48.1818C0 50.8439 2.15614 53 4.81818 53H48.1818C50.8439 53 53 50.8439 53 48.1818V4.81818C53 2.15614 50.8439 0 48.1818 0Z" fill="#4F6454"/>
<path d="M16.5253 16.5128C17.4873 16.5128 18.3884 16.5128 19.2773 16.5128C20.5559 16.5128 21.8345 16.5128 23.1131 16.5128C23.2714 16.5128 23.3689 16.561 23.4541 16.6814C24.891 18.5605 26.3158 20.4396 27.7527 22.3066C27.8014 22.3789 27.8622 22.4391 27.9353 22.5355C28.3493 22.0778 28.7512 21.6321 29.1409 21.1864C30.4803 19.6928 31.8198 18.1991 33.1593 16.6935C33.2811 16.5489 33.415 16.5007 33.5977 16.5007C34.511 16.5007 35.4243 16.5007 36.3376 16.5007C36.4106 16.5007 36.4959 16.5007 36.6298 16.5007C34.2309 19.211 31.8685 21.861 29.4818 24.5471C32.2947 28.221 35.1077 31.8948 37.9449 35.6048C37.811 35.6048 37.7136 35.6048 37.6283 35.6048C35.6313 35.6048 33.6342 35.6048 31.6372 35.6048C31.3936 35.6048 31.2475 35.5326 31.0892 35.3398C29.494 33.256 27.8744 31.1721 26.267 29.1003C26.2183 29.0401 26.1696 28.9798 26.06 28.8473C26.0113 28.9196 25.987 28.9919 25.9383 29.0401C24.0508 31.1721 22.1755 33.2921 20.288 35.4241C20.1906 35.5446 20.081 35.5928 19.9106 35.5928C18.9729 35.5928 18.0353 35.5928 17.0976 35.5928C17.0246 35.5928 16.9637 35.5928 16.8297 35.5928C19.4113 32.6657 21.9563 29.7748 24.5013 26.8719C21.8345 23.4148 19.1799 19.9819 16.4888 16.4887L16.5253 16.5128ZM20.3367 18.2473C20.4098 18.3437 20.4463 18.416 20.4951 18.4762C23.0401 21.7646 25.5973 25.0651 28.1423 28.3535C29.4696 30.0639 30.7969 31.7864 32.1243 33.4969C32.1851 33.5691 32.2704 33.6896 32.3556 33.6896C32.9158 33.7016 33.4881 33.6896 34.097 33.6896C34.0239 33.5812 33.9752 33.5089 33.9143 33.4366C31.7955 30.6662 29.6766 27.9078 27.5578 25.1373C25.853 22.9089 24.136 20.6685 22.419 18.4401C22.3582 18.3678 22.2729 18.2594 22.1877 18.2594C21.5788 18.2473 20.97 18.2594 20.3246 18.2594L20.3367 18.2473Z" fill="white"/>
</svg>
