<svg width="100" height="75" viewBox="0 0 100 75" fill="none" xmlns="http://www.w3.org/2000/svg">
<path d="M98.7456 74.3594H1.25439C0.551932 74.3594 0 73.8074 0 73.105C0 72.4025 0.551932 71.8506 1.25439 71.8506H98.7456C99.4481 71.8506 100 72.4025 100 73.105C100 73.8074 99.4481 74.3594 98.7456 74.3594Z" fill="#788E72"/>
<path d="M98.7456 44.3301H1.25439C0.551932 44.3301 0 43.7781 0 43.0757C0 42.3732 0.551932 41.8213 1.25439 41.8213H98.7456C99.4481 41.8213 100 42.3732 100 43.0757C100 43.7781 99.4481 44.3301 98.7456 44.3301Z" fill="#788E72"/>
<path d="M98.7456 69.0644H1.25439C0.551932 69.0644 0 68.5125 0 67.8101C0 67.1076 0.551932 66.5557 1.25439 66.5557H98.7456C99.4481 66.5557 100 67.1076 100 67.8101C100 68.5125 99.4481 69.0644 98.7456 69.0644Z" fill="#788E72"/>
<path d="M8.45392 54.3141C6.29637 54.3141 4.51514 52.5579 4.51514 50.3753C4.51514 48.1927 6.27128 46.4365 8.45392 46.4365C10.6366 46.4365 12.3927 48.1927 12.3927 50.3753C12.3927 52.5579 10.6366 54.3141 8.45392 54.3141ZM8.45392 48.9955C7.6762 48.9955 7.04901 49.6227 7.04901 50.4004C7.04901 51.1781 7.6762 51.8053 8.45392 51.8053C9.23164 51.8053 9.85884 51.1781 9.85884 50.4004C9.85884 49.6227 9.23164 48.9955 8.45392 48.9955Z" fill="#788E72"/>
<path d="M25.0882 54.3141C22.9306 54.3141 21.1494 52.5579 21.1494 50.3753C21.1494 48.1927 22.9056 46.4365 25.0882 46.4365C27.2708 46.4365 29.027 48.1927 29.027 50.3753C29.027 52.5579 27.2708 54.3141 25.0882 54.3141ZM25.0882 48.9955C24.3105 48.9955 23.6833 49.6227 23.6833 50.4004C23.6833 51.1781 24.3105 51.8053 25.0882 51.8053C25.8659 51.8053 26.4931 51.1781 26.4931 50.4004C26.4931 49.6227 25.8659 48.9955 25.0882 48.9955Z" fill="#788E72"/>
<path d="M41.7454 54.3141C39.5879 54.3141 37.8066 52.5579 37.8066 50.3753C37.8066 48.1927 39.5628 46.4365 41.7454 46.4365C43.9281 46.4365 45.6842 48.1927 45.6842 50.3753C45.6842 52.5579 43.9281 54.3141 41.7454 54.3141ZM41.7454 48.9955C40.9677 48.9955 40.3405 49.6227 40.3405 50.4004C40.3405 51.1781 40.9677 51.8053 41.7454 51.8053C42.5231 51.8053 43.1503 51.1781 43.1503 50.4004C43.1503 49.6227 42.5231 48.9955 41.7454 48.9955Z" fill="#788E72"/>
<path d="M58.4046 54.3141C56.2471 54.3141 54.4658 52.5579 54.4658 50.3753C54.4658 48.1927 56.222 46.4365 58.4046 46.4365C60.5872 46.4365 62.3434 48.1927 62.3434 50.3753C62.3434 52.5579 60.5872 54.3141 58.4046 54.3141ZM58.4046 48.9955C57.6269 48.9955 56.9997 49.6227 56.9997 50.4004C56.9997 51.1781 57.6269 51.8053 58.4046 51.8053C59.1823 51.8053 59.8095 51.1781 59.8095 50.4004C59.8095 49.6227 59.1823 48.9955 58.4046 48.9955Z" fill="#788E72"/>
<path d="M75.0374 54.3141C72.8799 54.3141 71.0986 52.5579 71.0986 50.3753C71.0986 48.1927 72.8548 46.4365 75.0374 46.4365C77.2201 46.4365 78.9762 48.1927 78.9762 50.3753C78.9762 52.5579 77.2201 54.3141 75.0374 54.3141ZM75.0374 48.9955C74.2597 48.9955 73.6325 49.6227 73.6325 50.4004C73.6325 51.1781 74.2597 51.8053 75.0374 51.8053C75.8151 51.8053 76.4423 51.1781 76.4423 50.4004C76.4423 49.6227 75.8151 48.9955 75.0374 48.9955Z" fill="#788E72"/>
<path d="M91.6961 54.3141C89.5386 54.3141 87.7573 52.5579 87.7573 50.3753C87.7573 48.1927 89.5135 46.4365 91.6961 46.4365C93.8787 46.4365 95.6349 48.1927 95.6349 50.3753C95.6349 52.5579 93.8787 54.3141 91.6961 54.3141ZM91.6961 48.9955C90.9184 48.9955 90.2912 49.6227 90.2912 50.4004C90.2912 51.1781 90.9184 51.8053 91.6961 51.8053C92.4738 51.8053 93.101 51.1781 93.101 50.4004C93.101 49.6227 92.4738 48.9955 91.6961 48.9955Z" fill="#788E72"/>
<path d="M8.45392 64.4498C6.29637 64.4498 4.51514 62.6937 4.51514 60.5111C4.51514 58.3284 6.27128 56.5723 8.45392 56.5723C10.6366 56.5723 12.3927 58.3284 12.3927 60.5111C12.3927 62.6937 10.6366 64.4498 8.45392 64.4498ZM8.45392 59.1312C7.6762 59.1312 7.04901 59.7584 7.04901 60.5361C7.04901 61.3139 7.6762 61.9411 8.45392 61.9411C9.23164 61.9411 9.85884 61.3139 9.85884 60.5361C9.85884 59.7584 9.23164 59.1312 8.45392 59.1312Z" fill="#788E72"/>
<path d="M24.9876 64.4498C22.8301 64.4498 21.0488 62.6937 21.0488 60.5111C21.0488 58.3284 22.805 56.5723 24.9876 56.5723C27.1703 56.5723 28.9264 58.3284 28.9264 60.5111C28.9264 62.6937 27.1703 64.4498 24.9876 64.4498ZM24.9876 59.1312C24.2099 59.1312 23.5827 59.7584 23.5827 60.5361C23.5827 61.3139 24.2099 61.9411 24.9876 61.9411C25.7653 61.9411 26.3925 61.3139 26.3925 60.5361C26.3925 59.7584 25.7653 59.1312 24.9876 59.1312Z" fill="#788E72"/>
<path d="M42.0726 64.4498C39.915 64.4498 38.1338 62.6937 38.1338 60.5111C38.1338 58.3284 39.8899 56.5723 42.0726 56.5723C44.2552 56.5723 46.0114 58.3284 46.0114 60.5111C46.0114 62.6937 44.2552 64.4498 42.0726 64.4498ZM42.0726 59.1312C41.2949 59.1312 40.6677 59.7584 40.6677 60.5361C40.6677 61.3139 41.2949 61.9411 42.0726 61.9411C42.8503 61.9411 43.4775 61.3139 43.4775 60.5361C43.4775 59.7584 42.8503 59.1312 42.0726 59.1312Z" fill="#788E72"/>
<path d="M58.4046 64.4498C56.2471 64.4498 54.4658 62.6937 54.4658 60.5111C54.4658 58.3284 56.222 56.5723 58.4046 56.5723C60.5872 56.5723 62.3434 58.3284 62.3434 60.5111C62.3434 62.6937 60.5872 64.4498 58.4046 64.4498ZM58.4046 59.1312C57.6269 59.1312 56.9997 59.7584 56.9997 60.5361C56.9997 61.3139 57.6269 61.9411 58.4046 61.9411C59.1823 61.9411 59.8095 61.3139 59.8095 60.5361C59.8095 59.7584 59.1823 59.1312 58.4046 59.1312Z" fill="#788E72"/>
<path d="M75.3138 64.4498C73.1562 64.4498 71.375 62.6937 71.375 60.5111C71.375 58.3284 73.1311 56.5723 75.3138 56.5723C77.4964 56.5723 79.2526 58.3284 79.2526 60.5111C79.2526 62.6937 77.4964 64.4498 75.3138 64.4498ZM75.3138 59.1312C74.5361 59.1312 73.9089 59.7584 73.9089 60.5361C73.9089 61.3139 74.5361 61.9411 75.3138 61.9411C76.0915 61.9411 76.7187 61.3139 76.7187 60.5361C76.7187 59.7584 76.0915 59.1312 75.3138 59.1312Z" fill="#788E72"/>
<path d="M91.6961 64.4498C89.5386 64.4498 87.7573 62.6937 87.7573 60.5111C87.7573 58.3284 89.5135 56.5723 91.6961 56.5723C93.8787 56.5723 95.6349 58.3284 95.6349 60.5111C95.6349 62.6937 93.8787 64.4498 91.6961 64.4498ZM91.6961 59.1312C90.9184 59.1312 90.2912 59.7584 90.2912 60.5361C90.2912 61.3139 90.9184 61.9411 91.6961 61.9411C92.4738 61.9411 93.101 61.3139 93.101 60.5361C93.101 59.7584 92.4738 59.1312 91.6961 59.1312Z" fill="#788E72"/>
<path d="M98.7456 74.3594H1.25439C0.551932 74.3594 0 73.8074 0 73.105C0 72.4025 0.551932 71.8506 1.25439 71.8506H98.7456C99.4481 71.8506 100 72.4025 100 73.105C100 73.8074 99.4481 74.3594 98.7456 74.3594Z" fill="#788E72"/>
<path d="M98.7456 44.3301H1.25439C0.551932 44.3301 0 43.7781 0 43.0757C0 42.3732 0.551932 41.8213 1.25439 41.8213H98.7456C99.4481 41.8213 100 42.3732 100 43.0757C100 43.7781 99.4481 44.3301 98.7456 44.3301Z" fill="#788E72"/>
<path d="M98.7456 69.0644H1.25439C0.551932 69.0644 0 68.5125 0 67.8101C0 67.1076 0.551932 66.5557 1.25439 66.5557H98.7456C99.4481 66.5557 100 67.1076 100 67.8101C100 68.5125 99.4481 69.0644 98.7456 69.0644Z" fill="#788E72"/>
<path d="M8.45392 54.3141C6.29637 54.3141 4.51514 52.5579 4.51514 50.3753C4.51514 48.1927 6.27128 46.4365 8.45392 46.4365C10.6366 46.4365 12.3927 48.1927 12.3927 50.3753C12.3927 52.5579 10.6366 54.3141 8.45392 54.3141ZM8.45392 48.9955C7.6762 48.9955 7.04901 49.6227 7.04901 50.4004C7.04901 51.1781 7.6762 51.8053 8.45392 51.8053C9.23164 51.8053 9.85884 51.1781 9.85884 50.4004C9.85884 49.6227 9.23164 48.9955 8.45392 48.9955Z" fill="#788E72"/>
<path d="M25.0882 54.3141C22.9306 54.3141 21.1494 52.5579 21.1494 50.3753C21.1494 48.1927 22.9056 46.4365 25.0882 46.4365C27.2708 46.4365 29.027 48.1927 29.027 50.3753C29.027 52.5579 27.2708 54.3141 25.0882 54.3141ZM25.0882 48.9955C24.3105 48.9955 23.6833 49.6227 23.6833 50.4004C23.6833 51.1781 24.3105 51.8053 25.0882 51.8053C25.8659 51.8053 26.4931 51.1781 26.4931 50.4004C26.4931 49.6227 25.8659 48.9955 25.0882 48.9955Z" fill="#788E72"/>
<path d="M41.7454 54.3141C39.5879 54.3141 37.8066 52.5579 37.8066 50.3753C37.8066 48.1927 39.5628 46.4365 41.7454 46.4365C43.9281 46.4365 45.6842 48.1927 45.6842 50.3753C45.6842 52.5579 43.9281 54.3141 41.7454 54.3141ZM41.7454 48.9955C40.9677 48.9955 40.3405 49.6227 40.3405 50.4004C40.3405 51.1781 40.9677 51.8053 41.7454 51.8053C42.5231 51.8053 43.1503 51.1781 43.1503 50.4004C43.1503 49.6227 42.5231 48.9955 41.7454 48.9955Z" fill="#788E72"/>
<path d="M58.4046 54.3141C56.2471 54.3141 54.4658 52.5579 54.4658 50.3753C54.4658 48.1927 56.222 46.4365 58.4046 46.4365C60.5872 46.4365 62.3434 48.1927 62.3434 50.3753C62.3434 52.5579 60.5872 54.3141 58.4046 54.3141ZM58.4046 48.9955C57.6269 48.9955 56.9997 49.6227 56.9997 50.4004C56.9997 51.1781 57.6269 51.8053 58.4046 51.8053C59.1823 51.8053 59.8095 51.1781 59.8095 50.4004C59.8095 49.6227 59.1823 48.9955 58.4046 48.9955Z" fill="#788E72"/>
<path d="M75.0374 54.3141C72.8799 54.3141 71.0986 52.5579 71.0986 50.3753C71.0986 48.1927 72.8548 46.4365 75.0374 46.4365C77.2201 46.4365 78.9762 48.1927 78.9762 50.3753C78.9762 52.5579 77.2201 54.3141 75.0374 54.3141ZM75.0374 48.9955C74.2597 48.9955 73.6325 49.6227 73.6325 50.4004C73.6325 51.1781 74.2597 51.8053 75.0374 51.8053C75.8151 51.8053 76.4423 51.1781 76.4423 50.4004C76.4423 49.6227 75.8151 48.9955 75.0374 48.9955Z" fill="#788E72"/>
<path d="M91.6961 54.3141C89.5386 54.3141 87.7573 52.5579 87.7573 50.3753C87.7573 48.1927 89.5135 46.4365 91.6961 46.4365C93.8787 46.4365 95.6349 48.1927 95.6349 50.3753C95.6349 52.5579 93.8787 54.3141 91.6961 54.3141ZM91.6961 48.9955C90.9184 48.9955 90.2912 49.6227 90.2912 50.4004C90.2912 51.1781 90.9184 51.8053 91.6961 51.8053C92.4738 51.8053 93.101 51.1781 93.101 50.4004C93.101 49.6227 92.4738 48.9955 91.6961 48.9955Z" fill="#788E72"/>
<path d="M8.45392 64.4498C6.29637 64.4498 4.51514 62.6937 4.51514 60.5111C4.51514 58.3284 6.27128 56.5723 8.45392 56.5723C10.6366 56.5723 12.3927 58.3284 12.3927 60.5111C12.3927 62.6937 10.6366 64.4498 8.45392 64.4498ZM8.45392 59.1312C7.6762 59.1312 7.04901 59.7584 7.04901 60.5361C7.04901 61.3139 7.6762 61.9411 8.45392 61.9411C9.23164 61.9411 9.85884 61.3139 9.85884 60.5361C9.85884 59.7584 9.23164 59.1312 8.45392 59.1312Z" fill="#788E72"/>
<path d="M24.9876 64.4498C22.8301 64.4498 21.0488 62.6937 21.0488 60.5111C21.0488 58.3284 22.805 56.5723 24.9876 56.5723C27.1703 56.5723 28.9264 58.3284 28.9264 60.5111C28.9264 62.6937 27.1703 64.4498 24.9876 64.4498ZM24.9876 59.1312C24.2099 59.1312 23.5827 59.7584 23.5827 60.5361C23.5827 61.3139 24.2099 61.9411 24.9876 61.9411C25.7653 61.9411 26.3925 61.3139 26.3925 60.5361C26.3925 59.7584 25.7653 59.1312 24.9876 59.1312Z" fill="#788E72"/>
<path d="M42.0726 64.4498C39.915 64.4498 38.1338 62.6937 38.1338 60.5111C38.1338 58.3284 39.8899 56.5723 42.0726 56.5723C44.2552 56.5723 46.0114 58.3284 46.0114 60.5111C46.0114 62.6937 44.2552 64.4498 42.0726 64.4498ZM42.0726 59.1312C41.2949 59.1312 40.6677 59.7584 40.6677 60.5361C40.6677 61.3139 41.2949 61.9411 42.0726 61.9411C42.8503 61.9411 43.4775 61.3139 43.4775 60.5361C43.4775 59.7584 42.8503 59.1312 42.0726 59.1312Z" fill="#788E72"/>
<path d="M58.4046 64.4498C56.2471 64.4498 54.4658 62.6937 54.4658 60.5111C54.4658 58.3284 56.222 56.5723 58.4046 56.5723C60.5872 56.5723 62.3434 58.3284 62.3434 60.5111C62.3434 62.6937 60.5872 64.4498 58.4046 64.4498ZM58.4046 59.1312C57.6269 59.1312 56.9997 59.7584 56.9997 60.5361C56.9997 61.3139 57.6269 61.9411 58.4046 61.9411C59.1823 61.9411 59.8095 61.3139 59.8095 60.5361C59.8095 59.7584 59.1823 59.1312 58.4046 59.1312Z" fill="#788E72"/>
<path d="M75.3138 64.4498C73.1562 64.4498 71.375 62.6937 71.375 60.5111C71.375 58.3284 73.1311 56.5723 75.3138 56.5723C77.4964 56.5723 79.2526 58.3284 79.2526 60.5111C79.2526 62.6937 77.4964 64.4498 75.3138 64.4498ZM75.3138 59.1312C74.5361 59.1312 73.9089 59.7584 73.9089 60.5361C73.9089 61.3139 74.5361 61.9411 75.3138 61.9411C76.0915 61.9411 76.7187 61.3139 76.7187 60.5361C76.7187 59.7584 76.0915 59.1312 75.3138 59.1312Z" fill="#788E72"/>
<path d="M91.6961 64.4498C89.5386 64.4498 87.7573 62.6937 87.7573 60.5111C87.7573 58.3284 89.5135 56.5723 91.6961 56.5723C93.8787 56.5723 95.6349 58.3284 95.6349 60.5111C95.6349 62.6937 93.8787 64.4498 91.6961 64.4498ZM91.6961 59.1312C90.9184 59.1312 90.2912 59.7584 90.2912 60.5361C90.2912 61.3139 90.9184 61.9411 91.6961 61.9411C92.4738 61.9411 93.101 61.3139 93.101 60.5361C93.101 59.7584 92.4738 59.1312 91.6961 59.1312Z" fill="#788E72"/>
<path d="M33.7937 5.0908V2.75763C33.7937 2.6071 33.7937 2.45658 33.7937 2.25587C33.7937 2.05517 33.7937 1.90464 33.7937 1.75412H33.7686C33.7184 1.87956 33.6683 2.005 33.593 2.13044C33.5428 2.25587 33.4676 2.38131 33.4174 2.53184L33.016 3.25939H35.299V4.13746H31.9121V3.33465L33.3672 0.800781H34.8223V5.0908H33.7435H33.7937Z" fill="#788E72"/>
<path d="M37.3053 5.1668C36.8287 5.1668 36.4523 4.9661 36.1513 4.58978C35.8502 4.21346 35.6997 3.63645 35.6997 2.9089C35.6997 2.18135 35.8502 1.62942 36.1513 1.2531C36.4523 0.876787 36.8287 0.701172 37.3053 0.701172C37.782 0.701172 38.1583 0.876787 38.4594 1.2531C38.7604 1.62942 38.9109 2.18135 38.9109 2.9089C38.9109 3.63645 38.7604 4.21346 38.4594 4.58978C38.1583 4.9661 37.782 5.1668 37.3053 5.1668ZM37.3053 4.26364C37.3053 4.26364 37.4809 4.23855 37.5562 4.16329C37.6315 4.08803 37.7067 3.96259 37.7318 3.76188C37.782 3.56118 37.8071 3.28522 37.8071 2.9089C37.8071 2.53258 37.8071 2.25662 37.7318 2.05591C37.6816 1.8803 37.6315 1.75486 37.5562 1.6796C37.4809 1.60433 37.4057 1.57925 37.3053 1.57925C37.205 1.57925 37.1297 1.60433 37.0545 1.6796C36.9792 1.72977 36.9039 1.85521 36.8788 2.05591C36.8287 2.25662 36.8036 2.53258 36.8036 2.9089C36.8036 3.28522 36.8036 3.58627 36.8788 3.76188C36.9541 3.9375 36.9792 4.08803 37.0545 4.16329C37.1297 4.23855 37.205 4.26364 37.3053 4.26364Z" fill="#788E72"/>
<path d="M82.338 23.6072C82.0369 23.6072 81.786 23.5571 81.5602 23.4567C81.3345 23.3564 81.1338 23.2309 81.0083 23.0553C80.8829 22.8797 80.8076 22.679 80.8076 22.4281C80.8076 22.2525 80.8327 22.1271 80.908 22.0016C80.9832 21.8762 81.0585 21.7758 81.1588 21.6755C81.2592 21.5751 81.3846 21.4999 81.5101 21.4246C81.3345 21.2741 81.209 21.1235 81.1087 20.9479C81.0083 20.7723 80.9581 20.5967 80.9581 20.3709C80.9581 20.12 81.0083 19.8942 81.1338 19.7186C81.2592 19.543 81.4348 19.3925 81.6355 19.2921C81.8613 19.1918 82.1122 19.1416 82.3882 19.1416C82.7896 19.1416 83.1157 19.242 83.3666 19.4677C83.6175 19.6684 83.7429 19.9695 83.7429 20.3458C83.7429 20.4713 83.7429 20.5967 83.6676 20.7221C83.6174 20.8225 83.5422 20.9228 83.4669 21.0232C83.3917 21.1235 83.2913 21.1988 83.191 21.249C83.3415 21.3493 83.4669 21.4497 83.5673 21.55C83.6676 21.6504 83.768 21.7758 83.8432 21.9263C83.9185 22.0769 83.9436 22.2274 83.9436 22.4281C83.9436 22.6539 83.8683 22.8546 83.7429 23.0553C83.6175 23.2309 83.4168 23.3814 83.191 23.4818C82.9652 23.5821 82.6892 23.6323 82.3631 23.6323L82.338 23.6072ZM82.3631 22.8044C82.3631 22.8044 82.5387 22.8044 82.5888 22.7542C82.6641 22.7292 82.7143 22.679 82.7645 22.6037C82.8146 22.5285 82.8397 22.4532 82.8397 22.3528C82.8397 22.2525 82.8146 22.1521 82.7394 22.102C82.6641 22.0267 82.5889 21.9765 82.4634 21.9013C82.338 21.8511 82.1875 21.7758 82.0369 21.7006C81.9617 21.7758 81.9115 21.8511 81.8864 21.9765C81.8362 22.0769 81.8111 22.1772 81.8111 22.3027C81.8111 22.4281 81.8362 22.5034 81.8864 22.5786C81.9366 22.6539 82.0118 22.7041 82.0871 22.7542C82.1624 22.8044 82.2627 22.8044 82.3631 22.8044ZM82.6139 20.973C82.6139 20.973 82.7143 20.7974 82.7645 20.697C82.8146 20.5967 82.8146 20.5214 82.8146 20.4211C82.8146 20.3207 82.8146 20.2455 82.7645 20.1702C82.7394 20.0949 82.6892 20.0448 82.6139 19.9946C82.5387 19.9695 82.4634 19.9444 82.3882 19.9444C82.2878 19.9444 82.1874 19.9695 82.1122 20.0448C82.0369 20.12 81.9867 20.2204 81.9867 20.3709C81.9867 20.4713 82.0118 20.5465 82.062 20.6218C82.1122 20.697 82.1874 20.7472 82.2878 20.7974C82.3881 20.8476 82.4885 20.8977 82.639 20.973H82.6139Z" fill="#788E72"/>
<path d="M86.026 23.6072C85.5494 23.6072 85.173 23.4065 84.872 23.0302C84.5709 22.6539 84.4204 22.0769 84.4204 21.3493C84.4204 20.6218 84.5709 20.0699 84.872 19.6935C85.173 19.3172 85.5494 19.1416 86.026 19.1416C86.5027 19.1416 86.879 19.3172 87.1801 19.6935C87.4811 20.0699 87.6316 20.6218 87.6316 21.3493C87.6316 22.0769 87.4811 22.6539 87.1801 23.0302C86.879 23.4065 86.5027 23.6072 86.026 23.6072ZM86.026 22.7292C86.026 22.7292 86.2016 22.7041 86.2769 22.6288C86.3522 22.5535 86.4274 22.4281 86.4525 22.2274C86.5027 22.0267 86.5278 21.7507 86.5278 21.3744C86.5278 20.9981 86.5278 20.7221 86.4525 20.5214C86.4023 20.3458 86.3522 20.2204 86.2769 20.1451C86.2016 20.0699 86.1264 20.0448 86.026 20.0448C85.9257 20.0448 85.8504 20.0699 85.7751 20.1451C85.6999 20.1953 85.6246 20.3207 85.5995 20.5214C85.5494 20.7221 85.5243 20.9981 85.5243 21.3744C85.5243 21.7507 85.5243 22.0518 85.5995 22.2274C85.6748 22.403 85.6999 22.5535 85.7751 22.6288C85.8504 22.7041 85.9257 22.7292 86.026 22.7292Z" fill="#788E72"/>
<path d="M12.7186 24.3083V23.6561C13.0699 23.355 13.3709 23.0539 13.6469 22.778C13.9228 22.502 14.1486 22.2511 14.2992 22.0504C14.4497 21.8497 14.525 21.6239 14.525 21.4232C14.525 21.2225 14.4748 21.0971 14.3744 20.9967C14.2741 20.8964 14.1486 20.8462 13.9981 20.8462C13.8476 20.8462 13.7221 20.8964 13.6218 20.9717C13.5214 21.0469 13.396 21.1473 13.2957 21.2476L12.6685 20.6204C12.8942 20.3695 13.12 20.1939 13.3458 20.0936C13.5716 19.9932 13.8476 19.918 14.1486 19.918C14.4497 19.918 14.7006 19.9681 14.9264 20.0936C15.1521 20.219 15.3278 20.3695 15.4532 20.5953C15.5786 20.796 15.6539 21.0469 15.6539 21.348C15.6539 21.5738 15.6037 21.8246 15.4783 22.0504C15.3529 22.3013 15.2023 22.5271 15.0016 22.7529C14.8009 22.9787 14.6253 23.2045 14.4246 23.4052C14.525 23.4052 14.6504 23.3801 14.8009 23.355C14.9264 23.355 15.0518 23.355 15.1521 23.355H15.8797V24.3334H12.7688L12.7186 24.3083Z" fill="#788E72"/>
<path d="M17.963 24.408C17.4864 24.408 17.1101 24.2073 16.809 23.831C16.5079 23.4547 16.3574 22.8777 16.3574 22.1501C16.3574 21.4226 16.5079 20.8706 16.809 20.4943C17.1101 20.118 17.4864 19.9424 17.963 19.9424C18.4397 19.9424 18.816 20.118 19.1171 20.4943C19.4181 20.8706 19.5687 21.4226 19.5687 22.1501C19.5687 22.8777 19.4181 23.4547 19.1171 23.831C18.816 24.2073 18.4397 24.408 17.963 24.408ZM17.963 23.5049C17.963 23.5049 18.1387 23.4798 18.2139 23.4045C18.2892 23.3292 18.3644 23.2038 18.3895 23.0031C18.4397 22.8024 18.4648 22.5264 18.4648 22.1501C18.4648 21.7738 18.4648 21.4978 18.3895 21.2971C18.3394 21.1215 18.2892 20.9961 18.2139 20.9208C18.1387 20.8455 18.0634 20.8205 17.963 20.8205C17.8627 20.8205 17.7874 20.8455 17.7122 20.9208C17.6369 20.971 17.5616 21.0964 17.5365 21.2971C17.4864 21.4978 17.4613 21.7738 17.4613 22.1501C17.4613 22.5264 17.4613 22.8275 17.5365 23.0031C17.6118 23.1787 17.6369 23.3292 17.7122 23.4045C17.7874 23.4798 17.8627 23.5049 17.963 23.5049Z" fill="#788E72"/>
<path d="M62.8697 4.51581C62.669 4.51581 62.4683 4.46563 62.2676 4.39037C62.0669 4.3151 61.8912 4.18966 61.7407 4.01405C61.5902 3.83843 61.4397 3.61264 61.3644 3.33668C61.264 3.06071 61.2139 2.73457 61.2139 2.33317C61.2139 1.93176 61.264 1.60562 61.3644 1.30457C61.4647 1.00351 61.5902 0.777722 61.7658 0.57702C61.9414 0.376317 62.117 0.250878 62.3428 0.150527C62.5435 0.0501756 62.7693 0 62.9951 0C63.2962 0 63.5721 0.0501756 63.7979 0.175615C64.0237 0.275966 64.1993 0.401405 64.3498 0.551932L63.7477 1.25439C63.7477 1.25439 63.5972 1.10386 63.4718 1.05369C63.3463 1.00351 63.2209 0.953337 63.0955 0.953337C62.9449 0.953337 62.8195 1.00351 62.694 1.07878C62.5686 1.15404 62.4683 1.30457 62.4181 1.50527C62.3428 1.70597 62.3177 1.98194 62.3177 2.30808C62.3177 2.63422 62.3428 2.93527 62.4181 3.11089C62.4933 3.2865 62.5686 3.41194 62.6439 3.48721C62.7442 3.56247 62.8195 3.58756 62.9198 3.58756C62.9951 3.58756 63.0704 3.58756 63.1456 3.53738C63.2209 3.48721 63.2711 3.43703 63.3212 3.36177C63.3714 3.26142 63.3965 3.16106 63.3965 3.01054C63.3965 2.86001 63.3965 2.75966 63.3212 2.6844C63.2711 2.60913 63.2209 2.55896 63.1456 2.53387C63.0704 2.50878 62.9951 2.48369 62.9198 2.48369C62.8195 2.48369 62.7191 2.50878 62.6188 2.58404C62.5184 2.63422 62.4181 2.75966 62.3428 2.91019L62.2926 2.18264C62.393 2.03211 62.5435 1.90667 62.694 1.83141C62.8697 1.75615 63.0202 1.70597 63.1456 1.70597C63.3965 1.70597 63.6223 1.75615 63.7979 1.8565C63.9986 1.95685 64.1491 2.08229 64.2746 2.28299C64.4 2.48369 64.4502 2.73457 64.4502 3.03562C64.4502 3.33668 64.3749 3.61264 64.2495 3.83843C64.1241 4.06423 63.9233 4.21475 63.6976 4.34019C63.4718 4.46563 63.2209 4.51581 62.9449 4.51581H62.8697Z" fill="#788E72"/>
<path d="M66.4323 4.51446C65.9556 4.51446 65.5793 4.31376 65.2782 3.93744C64.9772 3.56112 64.8267 2.9841 64.8267 2.25656C64.8267 1.52901 64.9772 0.977077 65.2782 0.60076C65.5793 0.224443 65.9556 0.0488281 66.4323 0.0488281C66.9089 0.0488281 67.2853 0.224443 67.5863 0.60076C67.8874 0.977077 68.0379 1.52901 68.0379 2.25656C68.0379 2.9841 67.8874 3.56112 67.5863 3.93744C67.2853 4.31376 66.9089 4.51446 66.4323 4.51446ZM66.4323 3.6113C66.4323 3.6113 66.6079 3.58621 66.6832 3.51095C66.7584 3.43568 66.8337 3.31024 66.8588 3.10954C66.9089 2.90884 66.934 2.63287 66.934 2.25656C66.934 1.88024 66.934 1.60427 66.8588 1.40357C66.8086 1.22796 66.7584 1.10252 66.6832 1.02725C66.6079 0.951989 66.5326 0.926901 66.4323 0.926901C66.3319 0.926901 66.2567 0.951989 66.1814 1.02725C66.1061 1.07743 66.0309 1.20287 66.0058 1.40357C65.9556 1.60427 65.9305 1.88024 65.9305 2.25656C65.9305 2.63287 65.9305 2.93393 66.0058 3.10954C66.081 3.28516 66.1061 3.43568 66.1814 3.51095C66.2567 3.58621 66.3319 3.6113 66.4323 3.6113Z" fill="#788E72"/>
<path d="M80.1302 23.2045C80.1302 23.2045 80.1302 23.0791 80.08 23.0038C80.0298 22.9285 79.9797 22.8533 79.9295 22.778C76.3419 15.2266 69.9696 9.28076 62.1171 6.27023C62.0419 6.24514 62.0168 6.16988 61.9415 6.14479C61.8663 6.1197 61.791 6.14479 61.6907 6.09461C58.1784 4.79005 54.3901 4.0625 50.4262 4.0625C45.8101 4.0625 41.3946 5.04092 37.4057 6.77198C37.3555 6.77198 37.3304 6.77198 37.2802 6.79707C37.23 6.79707 37.205 6.87233 37.1548 6.89742C29.4528 10.3345 23.3314 16.6566 20.1452 24.484C20.1452 24.5342 20.0951 24.5592 20.07 24.6094C20.07 24.6596 20.07 24.7349 20.0449 24.785C18.5647 28.498 17.7368 32.5372 17.7368 36.777C17.7368 37.5296 18.364 38.1568 19.1166 38.1568C19.8693 38.1568 20.4965 37.5296 20.4965 36.777C20.4965 33.3149 21.1237 30.0033 22.2024 26.9175C23.2812 27.3189 24.7112 27.8708 26.367 28.5231C25.5893 30.9566 25.1628 33.5658 25.1628 36.2502C25.1628 37.0028 25.79 37.63 26.5426 37.63C27.2953 37.63 27.9225 37.0028 27.9225 36.2502C27.9225 33.917 28.2737 31.634 28.9511 29.5266C37.6816 32.8884 49.8492 37.5798 49.8492 37.5798C49.9997 37.6551 50.1754 37.6802 50.351 37.6802C50.5517 37.6802 50.7273 37.63 50.9029 37.5547L71.5 28.3475C72.4282 30.8061 72.9551 33.4654 72.9551 36.2502C72.9551 37.0028 73.5823 37.63 74.3349 37.63C75.0875 37.63 75.7147 37.0028 75.7147 36.2502C75.7147 33.064 75.0875 30.0284 74.0088 27.2185L78.0981 25.3871C79.5532 28.8994 80.356 32.7379 80.356 36.777C80.356 37.5296 80.9832 38.1568 81.7358 38.1568C82.4884 38.1568 83.1156 37.5296 83.1156 36.777C83.1156 31.9351 82.0369 27.344 80.1302 23.1794V23.2045ZM59.6335 8.32743L58.1533 12.191C55.7198 11.4132 53.1106 10.9616 50.4262 10.9616C47.2401 10.9616 44.2045 11.5888 41.3946 12.6676L39.7137 8.87936C43.0504 7.59988 46.6631 6.87233 50.4262 6.87233C53.6375 6.87233 56.7233 7.39918 59.6335 8.32743ZM57.1749 14.775L50.3259 32.6626L42.5236 15.2015C44.9822 14.2732 47.6415 13.7464 50.4262 13.7464C52.7845 13.7464 55.0424 14.1227 57.1749 14.775ZM23.206 24.3836C26.066 18.1368 31.0334 13.0439 37.1799 9.98322L38.8858 13.7966C33.793 16.4308 29.7037 20.7208 27.3454 25.9642C25.6897 25.337 24.2847 24.785 23.206 24.3836ZM39.9897 16.3054L47.8422 33.8668C43.7027 32.2612 36.0007 29.3008 29.9295 26.9677C32.0118 22.4017 35.5742 18.6385 40.0148 16.3054H39.9897ZM52.9099 33.641L59.7589 15.7785C64.3249 17.8608 68.088 21.4233 70.3961 25.8387L52.9099 33.641ZM72.9049 24.7349C70.2707 19.642 65.9807 15.5527 60.7373 13.2196L62.2426 9.30585C68.5647 12.0404 73.7579 16.8824 76.944 22.9285L72.9049 24.7349Z" fill="#788E72"/>
</svg>
