<svg width="100" height="89" viewBox="0 0 100 89" fill="none" xmlns="http://www.w3.org/2000/svg">
<path d="M23.9325 16.9432C27.495 16.9181 30.355 13.9828 30.3299 10.4204C30.3299 9.29142 30.0038 8.18756 29.4519 7.20913L25.7138 0.987358C25.1117 0.00893359 23.8322 -0.29212 22.8789 0.309987C22.6029 0.485602 22.3771 0.711392 22.2015 0.987358L18.4634 7.20913C16.6571 10.2698 17.6857 14.2337 20.7715 16.04C21.7499 16.6171 22.8538 16.9181 23.9827 16.9181L23.9325 16.9432ZM20.6711 8.56388L23.9325 3.11982L27.194 8.56388C27.9215 9.743 27.9215 11.1981 27.2441 12.4023C26.1904 14.2086 23.8573 14.8358 22.0259 13.7821C20.2195 12.7285 19.5923 10.3953 20.646 8.56388H20.6711Z" fill="#788E72"/>
<path d="M76.0907 16.9432C79.6532 16.9181 82.5132 13.9828 82.4881 10.4204C82.4881 9.29142 82.162 8.18756 81.6101 7.20913L77.872 0.987358C77.2699 0.00893359 75.9904 -0.29212 75.0371 0.309987C74.7611 0.485602 74.5353 0.711392 74.3597 0.987358L70.6216 7.20913C68.8153 10.2698 69.8439 14.2337 72.9297 16.04C73.9081 16.6171 75.012 16.9181 76.1409 16.9181L76.0907 16.9432ZM72.8042 8.56388L76.0657 3.11982L79.3271 8.56388C80.0546 9.743 80.0546 11.1981 79.3772 12.4023C78.3236 14.2086 75.9904 14.8358 74.159 13.7821C72.3527 12.7285 71.7255 10.3953 72.7792 8.56388H72.8042Z" fill="#788E72"/>
<path d="M50.001 26.0769C54.3412 26.0267 57.8284 22.4893 57.7782 18.1491C57.7782 16.7693 57.4019 15.4397 56.6995 14.2605L51.9328 6.33278C51.2805 5.254 49.8756 4.92786 48.7968 5.58014C48.4957 5.75576 48.2449 6.03172 48.0442 6.33278L43.2775 14.2605C41.0698 17.9986 42.3241 22.8155 46.0873 24.9981C47.2664 25.7006 48.6212 26.0769 49.9759 26.0769H50.001ZM45.5354 15.5902L50.001 8.16419L54.4666 15.5902C55.4451 17.1958 55.4702 19.2028 54.5419 20.8335C50.9794 26.8044 42.1234 21.6363 45.5605 15.5902H45.5354Z" fill="#788E72"/>
<path d="M47.5927 40.4518L42.1737 45.8708C41.5465 46.498 40.543 46.5231 39.8907 45.946L24.1606 31.9471C23.6087 31.4704 22.8059 31.5206 22.3292 32.0725C21.8526 32.5993 21.9027 33.4272 22.4296 33.9039L38.1596 47.9029C39.8405 49.4082 42.4246 49.3329 44.0302 47.7273L49.5746 42.1829L55.9971 47.9029C57.678 49.4082 60.262 49.3329 61.8676 47.7273L75.2143 34.3806L74.5871 39.7243C74.5119 40.4518 75.0387 41.079 75.7663 41.1543C76.4687 41.2295 77.0959 40.7278 77.1963 40.0253L78.0743 32.3234C78.2249 30.9937 77.2715 29.8146 75.9419 29.6641C75.7663 29.6641 75.5906 29.6641 75.415 29.6641L67.7131 30.5421C66.9855 30.6174 66.4838 31.2697 66.559 31.9972C66.6343 32.7248 67.2866 33.2265 68.0141 33.1513L73.3578 32.5241L60.0111 45.8708C59.3839 46.498 58.3804 46.5231 57.7281 45.946L51.4311 40.3264L57.3769 34.3806L56.7497 39.7243C56.6744 40.4518 57.2013 41.079 57.9288 41.1543C58.6313 41.2295 59.2585 40.7278 59.3337 40.0253L60.2118 32.3234C60.3624 31.0188 59.409 29.8146 58.1044 29.6641C57.9288 29.6641 57.7532 29.6641 57.5525 29.6641L49.8506 30.5421C49.1481 30.6425 48.6463 31.2948 48.7467 32.0223C48.847 32.7248 49.4742 33.2014 50.1516 33.1513L55.4953 32.5241L49.4241 38.5953L41.9479 31.9471C41.4211 31.4704 40.5932 31.5206 40.1165 32.0474C39.6398 32.5742 39.69 33.4021 40.2168 33.8788L47.5676 40.4267L47.5927 40.4518Z" fill="#788E72"/>
<path d="M98.7456 88.4932H1.25439C0.551932 88.4932 0 87.9412 0 87.2388C0 86.5363 0.551932 85.9844 1.25439 85.9844H98.7456C99.4481 85.9844 100 86.5363 100 87.2388C100 87.9412 99.4481 88.4932 98.7456 88.4932Z" fill="#788E72"/>
<path d="M98.7456 58.4639H1.25439C0.551932 58.4639 0 57.8868 0 57.2095C0 56.5321 0.551932 55.9551 1.25439 55.9551H98.7456C99.4481 55.9551 100 56.507 100 57.2095C100 57.9119 99.4481 58.4639 98.7456 58.4639Z" fill="#788E72"/>
<path d="M98.7456 83.1767H1.25439C0.551932 83.1767 0 82.6248 0 81.9224C0 81.2199 0.551932 80.668 1.25439 80.668H98.7456C99.4481 80.668 100 81.2199 100 81.9224C100 82.6248 99.4481 83.1767 98.7456 83.1767Z" fill="#788E72"/>
<path d="M8.45441 68.4489C6.29686 68.4489 4.51562 66.6927 4.51562 64.5101C4.51562 62.3274 6.27177 60.5713 8.45441 60.5713C10.637 60.5713 12.3932 62.3274 12.3932 64.5101C12.3932 66.6927 10.637 68.4489 8.45441 68.4489ZM8.45441 63.1052C7.67669 63.1052 7.04949 63.7324 7.04949 64.5101C7.04949 65.2878 7.67669 65.915 8.45441 65.915C9.23213 65.915 9.85933 65.2878 9.85933 64.5101C9.85933 63.7324 9.23213 63.1052 8.45441 63.1052Z" fill="#788E72"/>
<path d="M25.0872 68.4489C22.9297 68.4489 21.1484 66.6927 21.1484 64.5101C21.1484 62.3274 22.9046 60.5713 25.0872 60.5713C27.2699 60.5713 29.026 62.3274 29.026 64.5101C29.026 66.6927 27.2699 68.4489 25.0872 68.4489ZM25.0872 63.1052C24.3095 63.1052 23.6823 63.7324 23.6823 64.5101C23.6823 65.2878 24.3095 65.915 25.0872 65.915C25.8649 65.915 26.4921 65.2878 26.4921 64.5101C26.4921 63.7324 25.8649 63.1052 25.0872 63.1052Z" fill="#788E72"/>
<path d="M41.7474 68.4489C39.5898 68.4489 37.8086 66.6927 37.8086 64.5101C37.8086 62.3274 39.5647 60.5713 41.7474 60.5713C43.93 60.5713 45.6862 62.3274 45.6862 64.5101C45.6862 66.6927 43.93 68.4489 41.7474 68.4489ZM41.7474 63.1052C40.9697 63.1052 40.3425 63.7324 40.3425 64.5101C40.3425 65.2878 40.9697 65.915 41.7474 65.915C42.5251 65.915 43.1523 65.2878 43.1523 64.5101C43.1523 63.7324 42.5251 63.1052 41.7474 63.1052Z" fill="#788E72"/>
<path d="M58.4046 68.4489C56.2471 68.4489 54.4658 66.6927 54.4658 64.5101C54.4658 62.3274 56.222 60.5713 58.4046 60.5713C60.5872 60.5713 62.3434 62.3274 62.3434 64.5101C62.3434 66.6927 60.5872 68.4489 58.4046 68.4489ZM58.4046 63.1052C57.6269 63.1052 56.9997 63.7324 56.9997 64.5101C56.9997 65.2878 57.6269 65.915 58.4046 65.915C59.1823 65.915 59.8095 65.2878 59.8095 64.5101C59.8095 63.7324 59.1823 63.1052 58.4046 63.1052Z" fill="#788E72"/>
<path d="M75.0374 68.4489C72.8799 68.4489 71.0986 66.6927 71.0986 64.5101C71.0986 62.3274 72.8548 60.5713 75.0374 60.5713C77.2201 60.5713 78.9762 62.3274 78.9762 64.5101C78.9762 66.6927 77.2201 68.4489 75.0374 68.4489ZM75.0374 63.1052C74.2597 63.1052 73.6325 63.7324 73.6325 64.5101C73.6325 65.2878 74.2597 65.915 75.0374 65.915C75.8151 65.915 76.4423 65.2878 76.4423 64.5101C76.4423 63.7324 75.8151 63.1052 75.0374 63.1052Z" fill="#788E72"/>
<path d="M91.6976 68.4489C89.54 68.4489 87.7588 66.6927 87.7588 64.5101C87.7588 62.3274 89.5149 60.5713 91.6976 60.5713C93.8802 60.5713 95.6364 62.3274 95.6364 64.5101C95.6364 66.6927 93.8802 68.4489 91.6976 68.4489ZM91.6976 63.1052C90.9199 63.1052 90.2927 63.7324 90.2927 64.5101C90.2927 65.2878 90.9199 65.915 91.6976 65.915C92.4753 65.915 93.1025 65.2878 93.1025 64.5101C93.1025 63.7324 92.4753 63.1052 91.6976 63.1052Z" fill="#788E72"/>
<path d="M8.45441 78.5836C6.29686 78.5836 4.51562 76.8275 4.51562 74.6448C4.51562 72.4622 6.27177 70.7061 8.45441 70.7061C10.637 70.7061 12.3932 72.4622 12.3932 74.6448C12.3932 76.8275 10.637 78.5836 8.45441 78.5836ZM8.45441 73.2399C7.67669 73.2399 7.04949 73.8671 7.04949 74.6448C7.04949 75.4226 7.67669 76.0498 8.45441 76.0498C9.23213 76.0498 9.85933 75.4226 9.85933 74.6448C9.85933 73.8671 9.23213 73.2399 8.45441 73.2399Z" fill="#788E72"/>
<path d="M24.9866 78.5836C22.8291 78.5836 21.0479 76.8275 21.0479 74.6448C21.0479 72.4622 22.804 70.7061 24.9866 70.7061C27.1693 70.7061 28.9254 72.4622 28.9254 74.6448C28.9254 76.8275 27.1693 78.5836 24.9866 78.5836ZM24.9866 73.2399C24.2089 73.2399 23.5817 73.8671 23.5817 74.6448C23.5817 75.4226 24.2089 76.0498 24.9866 76.0498C25.7644 76.0498 26.3916 75.4226 26.3916 74.6448C26.3916 73.8671 25.7644 73.2399 24.9866 73.2399Z" fill="#788E72"/>
<path d="M42.0726 78.5836C39.915 78.5836 38.1338 76.8275 38.1338 74.6448C38.1338 72.4622 39.8899 70.7061 42.0726 70.7061C44.2552 70.7061 46.0114 72.4622 46.0114 74.6448C46.0114 76.8275 44.2552 78.5836 42.0726 78.5836ZM42.0726 73.2399C41.2949 73.2399 40.6677 73.8671 40.6677 74.6448C40.6677 75.4226 41.2949 76.0498 42.0726 76.0498C42.8503 76.0498 43.4775 75.4226 43.4775 74.6448C43.4775 73.8671 42.8503 73.2399 42.0726 73.2399Z" fill="#788E72"/>
<path d="M58.4046 78.5836C56.2471 78.5836 54.4658 76.8275 54.4658 74.6448C54.4658 72.4622 56.222 70.7061 58.4046 70.7061C60.5872 70.7061 62.3434 72.4622 62.3434 74.6448C62.3434 76.8275 60.5872 78.5836 58.4046 78.5836ZM58.4046 73.2399C57.6269 73.2399 56.9997 73.8671 56.9997 74.6448C56.9997 75.4226 57.6269 76.0498 58.4046 76.0498C59.1823 76.0498 59.8095 75.4226 59.8095 74.6448C59.8095 73.8671 59.1823 73.2399 58.4046 73.2399Z" fill="#788E72"/>
<path d="M75.3138 78.5836C73.1562 78.5836 71.375 76.8275 71.375 74.6448C71.375 72.4622 73.1311 70.7061 75.3138 70.7061C77.4964 70.7061 79.2526 72.4622 79.2526 74.6448C79.2526 76.8275 77.4964 78.5836 75.3138 78.5836ZM75.3138 73.2399C74.5361 73.2399 73.9089 73.8671 73.9089 74.6448C73.9089 75.4226 74.5361 76.0498 75.3138 76.0498C76.0915 76.0498 76.7187 75.4226 76.7187 74.6448C76.7187 73.8671 76.0915 73.2399 75.3138 73.2399Z" fill="#788E72"/>
<path d="M91.6976 78.5836C89.54 78.5836 87.7588 76.8275 87.7588 74.6448C87.7588 72.4622 89.5149 70.7061 91.6976 70.7061C93.8802 70.7061 95.6364 72.4622 95.6364 74.6448C95.6364 76.8275 93.8802 78.5836 91.6976 78.5836ZM91.6976 73.2399C90.9199 73.2399 90.2927 73.8671 90.2927 74.6448C90.2927 75.4226 90.9199 76.0498 91.6976 76.0498C92.4753 76.0498 93.1025 75.4226 93.1025 74.6448C93.1025 73.8671 92.4753 73.2399 91.6976 73.2399Z" fill="#788E72"/>
</svg>
