<svg width="23" height="23" viewBox="0 0 23 23" fill="none" xmlns="http://www.w3.org/2000/svg">
<path d="M7.94922 0.100342C8.41445 0.100342 8.79883 0.484723 8.79883 0.949951C8.79883 1.41518 8.41445 1.79956 7.94922 1.79956H5.44922C3.43445 1.79956 1.79883 3.43518 1.79883 5.44995V7.94995C1.79883 8.41518 1.41445 8.79956 0.949219 8.79956C0.48399 8.79956 0.0996094 8.41518 0.0996094 7.94995V5.44995C0.0996094 2.50472 2.50399 0.100342 5.44922 0.100342H7.94922Z" fill="#262626" stroke="#262626" stroke-width="0.2"/>
<path d="M16.9492 0.100342C19.8944 0.100342 22.2988 2.50472 22.2988 5.44995V7.94995C22.2988 8.41518 21.9144 8.79956 21.4492 8.79956C20.984 8.79956 20.5996 8.41518 20.5996 7.94995V5.44995C20.5996 3.43518 18.964 1.79956 16.9492 1.79956H14.4492C13.984 1.79956 13.5996 1.41518 13.5996 0.949951C13.5996 0.484723 13.984 0.100342 14.4492 0.100342H16.9492Z" fill="#262626" stroke="#262626" stroke-width="0.2"/>
<path d="M21.4492 14.6003C21.9144 14.6003 22.2988 14.9847 22.2988 15.45V16.95C22.2988 19.8952 19.8944 22.2996 16.9492 22.2996H15.4492C14.984 22.2996 14.5996 21.9152 14.5996 21.45C14.5996 20.9847 14.984 20.6003 15.4492 20.6003H16.9492C18.964 20.6003 20.5996 18.9647 20.5996 16.95V15.45C20.5996 14.9847 20.984 14.6003 21.4492 14.6003Z" fill="#262626" stroke="#262626" stroke-width="0.2"/>
<path d="M0.949219 13.6003C1.41445 13.6003 1.79883 13.9847 1.79883 14.45V16.95C1.79883 18.9647 3.43445 20.6003 5.44922 20.6003H7.94922C8.41445 20.6003 8.79883 20.9847 8.79883 21.45C8.79883 21.9152 8.41445 22.2996 7.94922 22.2996H5.44922C2.50399 22.2996 0.0996094 19.8952 0.0996094 16.95V14.45C0.0996094 13.9847 0.48399 13.6003 0.949219 13.6003Z" fill="#262626" stroke="#262626" stroke-width="0.2"/>
</svg>
